M48
; DRILL file {KiCad 5.1.7-a382d34a8~87~ubuntu20.04.1} date Mon Nov  9 08:25:27 2020
; FORMAT={3:3/ absolute / metric / suppress trailing zeros}
; #@! TF.CreationDate,2020-11-09T08:25:27+01:00
; #@! TF.GenerationSoftware,Kicad,Pcbnew,5.1.7-a382d34a8~87~ubuntu20.04.1
; #@! TF.FileFunction,Plated,1,2,PTH
FMAT,2
METRIC,LZ
T1C0.400
T2C0.750
T3C0.800
T4C1.000
T5C1.100
T6C1.200
T7C1.500
%
G90
G05
T1
X100521Y-047371
X107569Y-047371
X108839Y-046355
X110109Y-057087
X111633Y-079947
X123317Y-047053
X124269Y-078931
X124333Y-076327
X129476Y-054737
X129794Y-07728
X131128Y-075692
X13354Y-062738
X13443Y-057404
X134557Y-061595
X136462Y-088773
X136969Y-07601
X143891Y-075882
X14967Y-05207
X150559Y-058547
X152908Y-078486
X155004Y-076708
T2
X108585Y-084455
X108585Y-086995
X109855Y-085725
T3
X121602Y-080748
X121602Y-083248
X112776Y-054864
X115316Y-054864
X117856Y-054864
X121602Y-075034
X121602Y-077534
X105537Y-070803
X108077Y-070803
X110617Y-070803
X113602Y-070803
X116142Y-070803
X118682Y-070803
X129476Y-061658
X129476Y-066559
X126492Y-07755
X126492Y-08005
X126492Y-08255
T4
X144463Y-044
X147003Y-044
X106236Y-044
X108776Y-044
X119634Y-043942
X122174Y-043942
X124714Y-043942
X127254Y-043942
X129794Y-043942
X132334Y-043942
X15494Y-083693
X15494Y-086233
X15494Y-088773
X15748Y-083693
X15748Y-086233
X15748Y-088773
T5
X158826Y-052408
X158826Y-058908
X163326Y-052408
X163326Y-058908
X158826Y-072408
X158826Y-078908
X163326Y-072408
X163326Y-078908
X158826Y-092408
X158826Y-098908
X163326Y-092408
X163326Y-098908
X135042Y-047189
X135042Y-051689
X141542Y-047189
X141542Y-051689
T6
X105982Y-091567
X108522Y-091567
X111062Y-091567
X113602Y-091567
X116142Y-091567
X118682Y-091567
X121222Y-091567
X123762Y-091567
X126301Y-091567
X128842Y-091567
X131381Y-091567
X133921Y-091567
X136462Y-091567
X139001Y-091567
X141542Y-091567
X144082Y-091567
T7
X138938Y-066421
X159428Y-066421
T0
M30
