G04 #@! TF.GenerationSoftware,KiCad,Pcbnew,5.1.7-a382d34a8~87~ubuntu20.04.1*
G04 #@! TF.CreationDate,2020-11-09T08:25:24+01:00*
G04 #@! TF.ProjectId,OpenerV1.1_Board,4f70656e-6572-4563-912e-315f426f6172,rev?*
G04 #@! TF.SameCoordinates,Original*
G04 #@! TF.FileFunction,Soldermask,Top*
G04 #@! TF.FilePolarity,Negative*
%FSLAX46Y46*%
G04 Gerber Fmt 4.6, Leading zero omitted, Abs format (unit mm)*
G04 Created by KiCad (PCBNEW 5.1.7-a382d34a8~87~ubuntu20.04.1) date 2020-11-09 08:25:24*
%MOMM*%
%LPD*%
G01*
G04 APERTURE LIST*
%ADD10O,1.802000X1.802000*%
%ADD11O,1.902000X2.702000*%
%ADD12C,3.102000*%
%ADD13C,1.602000*%
%ADD14C,2.102000*%
%ADD15C,1.402000*%
%ADD16C,1.702000*%
%ADD17C,0.100000*%
G04 APERTURE END LIST*
D10*
X119634000Y-43942000D03*
X122174000Y-43942000D03*
X124714000Y-43942000D03*
X127254000Y-43942000D03*
X129794000Y-43942000D03*
G36*
G01*
X131484000Y-43041000D02*
X133184000Y-43041000D01*
G75*
G02*
X133235000Y-43092000I0J-51000D01*
G01*
X133235000Y-44792000D01*
G75*
G02*
X133184000Y-44843000I-51000J0D01*
G01*
X131484000Y-44843000D01*
G75*
G02*
X131433000Y-44792000I0J51000D01*
G01*
X131433000Y-43092000D01*
G75*
G02*
X131484000Y-43041000I51000J0D01*
G01*
G37*
G36*
G01*
X150082500Y-82815000D02*
X150082500Y-81015000D01*
G75*
G02*
X150133500Y-80964000I51000J0D01*
G01*
X152633500Y-80964000D01*
G75*
G02*
X152684500Y-81015000I0J-51000D01*
G01*
X152684500Y-82815000D01*
G75*
G02*
X152633500Y-82866000I-51000J0D01*
G01*
X150133500Y-82866000D01*
G75*
G02*
X150082500Y-82815000I0J51000D01*
G01*
G37*
G36*
G01*
X146082500Y-82815000D02*
X146082500Y-81015000D01*
G75*
G02*
X146133500Y-80964000I51000J0D01*
G01*
X148633500Y-80964000D01*
G75*
G02*
X148684500Y-81015000I0J-51000D01*
G01*
X148684500Y-82815000D01*
G75*
G02*
X148633500Y-82866000I-51000J0D01*
G01*
X146133500Y-82866000D01*
G75*
G02*
X146082500Y-82815000I0J51000D01*
G01*
G37*
G36*
G01*
X115619328Y-44680500D02*
X113361672Y-44680500D01*
G75*
G02*
X113089500Y-44408328I0J272172D01*
G01*
X113089500Y-43700672D01*
G75*
G02*
X113361672Y-43428500I272172J0D01*
G01*
X115619328Y-43428500D01*
G75*
G02*
X115891500Y-43700672I0J-272172D01*
G01*
X115891500Y-44408328D01*
G75*
G02*
X115619328Y-44680500I-272172J0D01*
G01*
G37*
G36*
G01*
X115619328Y-47630500D02*
X113361672Y-47630500D01*
G75*
G02*
X113089500Y-47358328I0J272172D01*
G01*
X113089500Y-46650672D01*
G75*
G02*
X113361672Y-46378500I272172J0D01*
G01*
X115619328Y-46378500D01*
G75*
G02*
X115891500Y-46650672I0J-272172D01*
G01*
X115891500Y-47358328D01*
G75*
G02*
X115619328Y-47630500I-272172J0D01*
G01*
G37*
D11*
X105981500Y-91567000D03*
X108521500Y-91567000D03*
X111061500Y-91567000D03*
X113601500Y-91567000D03*
X116141500Y-91567000D03*
X118681500Y-91567000D03*
X121221500Y-91567000D03*
X123761500Y-91567000D03*
X126301500Y-91567000D03*
X128841500Y-91567000D03*
X131381500Y-91567000D03*
X133921500Y-91567000D03*
X136461500Y-91567000D03*
X139001500Y-91567000D03*
X141541500Y-91567000D03*
G36*
G01*
X145032500Y-90267000D02*
X145032500Y-92867000D01*
G75*
G02*
X144981500Y-92918000I-51000J0D01*
G01*
X143181500Y-92918000D01*
G75*
G02*
X143130500Y-92867000I0J51000D01*
G01*
X143130500Y-90267000D01*
G75*
G02*
X143181500Y-90216000I51000J0D01*
G01*
X144981500Y-90216000D01*
G75*
G02*
X145032500Y-90267000I0J-51000D01*
G01*
G37*
G36*
G01*
X142163500Y-59040000D02*
X142163500Y-58689000D01*
G75*
G02*
X142339000Y-58513500I175500J0D01*
G01*
X144040000Y-58513500D01*
G75*
G02*
X144215500Y-58689000I0J-175500D01*
G01*
X144215500Y-59040000D01*
G75*
G02*
X144040000Y-59215500I-175500J0D01*
G01*
X142339000Y-59215500D01*
G75*
G02*
X142163500Y-59040000I0J175500D01*
G01*
G37*
G36*
G01*
X142163500Y-60310000D02*
X142163500Y-59959000D01*
G75*
G02*
X142339000Y-59783500I175500J0D01*
G01*
X144040000Y-59783500D01*
G75*
G02*
X144215500Y-59959000I0J-175500D01*
G01*
X144215500Y-60310000D01*
G75*
G02*
X144040000Y-60485500I-175500J0D01*
G01*
X142339000Y-60485500D01*
G75*
G02*
X142163500Y-60310000I0J175500D01*
G01*
G37*
G36*
G01*
X142163500Y-61580000D02*
X142163500Y-61229000D01*
G75*
G02*
X142339000Y-61053500I175500J0D01*
G01*
X144040000Y-61053500D01*
G75*
G02*
X144215500Y-61229000I0J-175500D01*
G01*
X144215500Y-61580000D01*
G75*
G02*
X144040000Y-61755500I-175500J0D01*
G01*
X142339000Y-61755500D01*
G75*
G02*
X142163500Y-61580000I0J175500D01*
G01*
G37*
G36*
G01*
X142163500Y-62850000D02*
X142163500Y-62499000D01*
G75*
G02*
X142339000Y-62323500I175500J0D01*
G01*
X144040000Y-62323500D01*
G75*
G02*
X144215500Y-62499000I0J-175500D01*
G01*
X144215500Y-62850000D01*
G75*
G02*
X144040000Y-63025500I-175500J0D01*
G01*
X142339000Y-63025500D01*
G75*
G02*
X142163500Y-62850000I0J175500D01*
G01*
G37*
G36*
G01*
X137213500Y-62850000D02*
X137213500Y-62499000D01*
G75*
G02*
X137389000Y-62323500I175500J0D01*
G01*
X139090000Y-62323500D01*
G75*
G02*
X139265500Y-62499000I0J-175500D01*
G01*
X139265500Y-62850000D01*
G75*
G02*
X139090000Y-63025500I-175500J0D01*
G01*
X137389000Y-63025500D01*
G75*
G02*
X137213500Y-62850000I0J175500D01*
G01*
G37*
G36*
G01*
X137213500Y-61580000D02*
X137213500Y-61229000D01*
G75*
G02*
X137389000Y-61053500I175500J0D01*
G01*
X139090000Y-61053500D01*
G75*
G02*
X139265500Y-61229000I0J-175500D01*
G01*
X139265500Y-61580000D01*
G75*
G02*
X139090000Y-61755500I-175500J0D01*
G01*
X137389000Y-61755500D01*
G75*
G02*
X137213500Y-61580000I0J175500D01*
G01*
G37*
G36*
G01*
X137213500Y-60310000D02*
X137213500Y-59959000D01*
G75*
G02*
X137389000Y-59783500I175500J0D01*
G01*
X139090000Y-59783500D01*
G75*
G02*
X139265500Y-59959000I0J-175500D01*
G01*
X139265500Y-60310000D01*
G75*
G02*
X139090000Y-60485500I-175500J0D01*
G01*
X137389000Y-60485500D01*
G75*
G02*
X137213500Y-60310000I0J175500D01*
G01*
G37*
G36*
G01*
X137213500Y-59040000D02*
X137213500Y-58689000D01*
G75*
G02*
X137389000Y-58513500I175500J0D01*
G01*
X139090000Y-58513500D01*
G75*
G02*
X139265500Y-58689000I0J-175500D01*
G01*
X139265500Y-59040000D01*
G75*
G02*
X139090000Y-59215500I-175500J0D01*
G01*
X137389000Y-59215500D01*
G75*
G02*
X137213500Y-59040000I0J175500D01*
G01*
G37*
G36*
G01*
X130714875Y-48077500D02*
X131667125Y-48077500D01*
G75*
G02*
X131942000Y-48352375I0J-274875D01*
G01*
X131942000Y-48929625D01*
G75*
G02*
X131667125Y-49204500I-274875J0D01*
G01*
X130714875Y-49204500D01*
G75*
G02*
X130440000Y-48929625I0J274875D01*
G01*
X130440000Y-48352375D01*
G75*
G02*
X130714875Y-48077500I274875J0D01*
G01*
G37*
G36*
G01*
X130714875Y-46252500D02*
X131667125Y-46252500D01*
G75*
G02*
X131942000Y-46527375I0J-274875D01*
G01*
X131942000Y-47104625D01*
G75*
G02*
X131667125Y-47379500I-274875J0D01*
G01*
X130714875Y-47379500D01*
G75*
G02*
X130440000Y-47104625I0J274875D01*
G01*
X130440000Y-46527375D01*
G75*
G02*
X130714875Y-46252500I274875J0D01*
G01*
G37*
D10*
X154940000Y-83693000D03*
X157480000Y-83693000D03*
X154940000Y-86233000D03*
X157480000Y-86233000D03*
X154940000Y-88773000D03*
G36*
G01*
X158381000Y-87923000D02*
X158381000Y-89623000D01*
G75*
G02*
X158330000Y-89674000I-51000J0D01*
G01*
X156630000Y-89674000D01*
G75*
G02*
X156579000Y-89623000I0J51000D01*
G01*
X156579000Y-87923000D01*
G75*
G02*
X156630000Y-87872000I51000J0D01*
G01*
X158330000Y-87872000D01*
G75*
G02*
X158381000Y-87923000I0J-51000D01*
G01*
G37*
G36*
G01*
X137387000Y-67921000D02*
X137387000Y-64921000D01*
G75*
G02*
X137438000Y-64870000I51000J0D01*
G01*
X140438000Y-64870000D01*
G75*
G02*
X140489000Y-64921000I0J-51000D01*
G01*
X140489000Y-67921000D01*
G75*
G02*
X140438000Y-67972000I-51000J0D01*
G01*
X137438000Y-67972000D01*
G75*
G02*
X137387000Y-67921000I0J51000D01*
G01*
G37*
D12*
X159428000Y-66421000D03*
D13*
X129476500Y-66558500D03*
X129476500Y-61658500D03*
X126492000Y-77550000D03*
X126492000Y-80050000D03*
X126492000Y-82550000D03*
G36*
G01*
X151627000Y-48503999D02*
X151627000Y-49154001D01*
G75*
G02*
X151576001Y-49205000I-50999J0D01*
G01*
X150515999Y-49205000D01*
G75*
G02*
X150465000Y-49154001I0J50999D01*
G01*
X150465000Y-48503999D01*
G75*
G02*
X150515999Y-48453000I50999J0D01*
G01*
X151576001Y-48453000D01*
G75*
G02*
X151627000Y-48503999I0J-50999D01*
G01*
G37*
G36*
G01*
X151627000Y-46603999D02*
X151627000Y-47254001D01*
G75*
G02*
X151576001Y-47305000I-50999J0D01*
G01*
X150515999Y-47305000D01*
G75*
G02*
X150465000Y-47254001I0J50999D01*
G01*
X150465000Y-46603999D01*
G75*
G02*
X150515999Y-46553000I50999J0D01*
G01*
X151576001Y-46553000D01*
G75*
G02*
X151627000Y-46603999I0J-50999D01*
G01*
G37*
G36*
G01*
X153827000Y-46603999D02*
X153827000Y-47254001D01*
G75*
G02*
X153776001Y-47305000I-50999J0D01*
G01*
X152715999Y-47305000D01*
G75*
G02*
X152665000Y-47254001I0J50999D01*
G01*
X152665000Y-46603999D01*
G75*
G02*
X152715999Y-46553000I50999J0D01*
G01*
X153776001Y-46553000D01*
G75*
G02*
X153827000Y-46603999I0J-50999D01*
G01*
G37*
G36*
G01*
X153827000Y-47553999D02*
X153827000Y-48204001D01*
G75*
G02*
X153776001Y-48255000I-50999J0D01*
G01*
X152715999Y-48255000D01*
G75*
G02*
X152665000Y-48204001I0J50999D01*
G01*
X152665000Y-47553999D01*
G75*
G02*
X152715999Y-47503000I50999J0D01*
G01*
X153776001Y-47503000D01*
G75*
G02*
X153827000Y-47553999I0J-50999D01*
G01*
G37*
G36*
G01*
X153827000Y-48503999D02*
X153827000Y-49154001D01*
G75*
G02*
X153776001Y-49205000I-50999J0D01*
G01*
X152715999Y-49205000D01*
G75*
G02*
X152665000Y-49154001I0J50999D01*
G01*
X152665000Y-48503999D01*
G75*
G02*
X152715999Y-48453000I50999J0D01*
G01*
X153776001Y-48453000D01*
G75*
G02*
X153827000Y-48503999I0J-50999D01*
G01*
G37*
G36*
G01*
X134831500Y-74257000D02*
X134281500Y-74257000D01*
G75*
G02*
X134230500Y-74206000I0J51000D01*
G01*
X134230500Y-72606000D01*
G75*
G02*
X134281500Y-72555000I51000J0D01*
G01*
X134831500Y-72555000D01*
G75*
G02*
X134882500Y-72606000I0J-51000D01*
G01*
X134882500Y-74206000D01*
G75*
G02*
X134831500Y-74257000I-51000J0D01*
G01*
G37*
G36*
G01*
X135631500Y-74257000D02*
X135081500Y-74257000D01*
G75*
G02*
X135030500Y-74206000I0J51000D01*
G01*
X135030500Y-72606000D01*
G75*
G02*
X135081500Y-72555000I51000J0D01*
G01*
X135631500Y-72555000D01*
G75*
G02*
X135682500Y-72606000I0J-51000D01*
G01*
X135682500Y-74206000D01*
G75*
G02*
X135631500Y-74257000I-51000J0D01*
G01*
G37*
G36*
G01*
X136431500Y-74257000D02*
X135881500Y-74257000D01*
G75*
G02*
X135830500Y-74206000I0J51000D01*
G01*
X135830500Y-72606000D01*
G75*
G02*
X135881500Y-72555000I51000J0D01*
G01*
X136431500Y-72555000D01*
G75*
G02*
X136482500Y-72606000I0J-51000D01*
G01*
X136482500Y-74206000D01*
G75*
G02*
X136431500Y-74257000I-51000J0D01*
G01*
G37*
G36*
G01*
X137231500Y-74257000D02*
X136681500Y-74257000D01*
G75*
G02*
X136630500Y-74206000I0J51000D01*
G01*
X136630500Y-72606000D01*
G75*
G02*
X136681500Y-72555000I51000J0D01*
G01*
X137231500Y-72555000D01*
G75*
G02*
X137282500Y-72606000I0J-51000D01*
G01*
X137282500Y-74206000D01*
G75*
G02*
X137231500Y-74257000I-51000J0D01*
G01*
G37*
G36*
G01*
X138031500Y-74257000D02*
X137481500Y-74257000D01*
G75*
G02*
X137430500Y-74206000I0J51000D01*
G01*
X137430500Y-72606000D01*
G75*
G02*
X137481500Y-72555000I51000J0D01*
G01*
X138031500Y-72555000D01*
G75*
G02*
X138082500Y-72606000I0J-51000D01*
G01*
X138082500Y-74206000D01*
G75*
G02*
X138031500Y-74257000I-51000J0D01*
G01*
G37*
G36*
G01*
X138831500Y-74257000D02*
X138281500Y-74257000D01*
G75*
G02*
X138230500Y-74206000I0J51000D01*
G01*
X138230500Y-72606000D01*
G75*
G02*
X138281500Y-72555000I51000J0D01*
G01*
X138831500Y-72555000D01*
G75*
G02*
X138882500Y-72606000I0J-51000D01*
G01*
X138882500Y-74206000D01*
G75*
G02*
X138831500Y-74257000I-51000J0D01*
G01*
G37*
G36*
G01*
X139631500Y-74257000D02*
X139081500Y-74257000D01*
G75*
G02*
X139030500Y-74206000I0J51000D01*
G01*
X139030500Y-72606000D01*
G75*
G02*
X139081500Y-72555000I51000J0D01*
G01*
X139631500Y-72555000D01*
G75*
G02*
X139682500Y-72606000I0J-51000D01*
G01*
X139682500Y-74206000D01*
G75*
G02*
X139631500Y-74257000I-51000J0D01*
G01*
G37*
G36*
G01*
X140431500Y-74257000D02*
X139881500Y-74257000D01*
G75*
G02*
X139830500Y-74206000I0J51000D01*
G01*
X139830500Y-72606000D01*
G75*
G02*
X139881500Y-72555000I51000J0D01*
G01*
X140431500Y-72555000D01*
G75*
G02*
X140482500Y-72606000I0J-51000D01*
G01*
X140482500Y-74206000D01*
G75*
G02*
X140431500Y-74257000I-51000J0D01*
G01*
G37*
G36*
G01*
X140755500Y-75131000D02*
X140755500Y-74581000D01*
G75*
G02*
X140806500Y-74530000I51000J0D01*
G01*
X142406500Y-74530000D01*
G75*
G02*
X142457500Y-74581000I0J-51000D01*
G01*
X142457500Y-75131000D01*
G75*
G02*
X142406500Y-75182000I-51000J0D01*
G01*
X140806500Y-75182000D01*
G75*
G02*
X140755500Y-75131000I0J51000D01*
G01*
G37*
G36*
G01*
X140755500Y-75931000D02*
X140755500Y-75381000D01*
G75*
G02*
X140806500Y-75330000I51000J0D01*
G01*
X142406500Y-75330000D01*
G75*
G02*
X142457500Y-75381000I0J-51000D01*
G01*
X142457500Y-75931000D01*
G75*
G02*
X142406500Y-75982000I-51000J0D01*
G01*
X140806500Y-75982000D01*
G75*
G02*
X140755500Y-75931000I0J51000D01*
G01*
G37*
G36*
G01*
X140755500Y-76731000D02*
X140755500Y-76181000D01*
G75*
G02*
X140806500Y-76130000I51000J0D01*
G01*
X142406500Y-76130000D01*
G75*
G02*
X142457500Y-76181000I0J-51000D01*
G01*
X142457500Y-76731000D01*
G75*
G02*
X142406500Y-76782000I-51000J0D01*
G01*
X140806500Y-76782000D01*
G75*
G02*
X140755500Y-76731000I0J51000D01*
G01*
G37*
G36*
G01*
X140755500Y-77531000D02*
X140755500Y-76981000D01*
G75*
G02*
X140806500Y-76930000I51000J0D01*
G01*
X142406500Y-76930000D01*
G75*
G02*
X142457500Y-76981000I0J-51000D01*
G01*
X142457500Y-77531000D01*
G75*
G02*
X142406500Y-77582000I-51000J0D01*
G01*
X140806500Y-77582000D01*
G75*
G02*
X140755500Y-77531000I0J51000D01*
G01*
G37*
G36*
G01*
X140755500Y-78331000D02*
X140755500Y-77781000D01*
G75*
G02*
X140806500Y-77730000I51000J0D01*
G01*
X142406500Y-77730000D01*
G75*
G02*
X142457500Y-77781000I0J-51000D01*
G01*
X142457500Y-78331000D01*
G75*
G02*
X142406500Y-78382000I-51000J0D01*
G01*
X140806500Y-78382000D01*
G75*
G02*
X140755500Y-78331000I0J51000D01*
G01*
G37*
G36*
G01*
X140755500Y-79131000D02*
X140755500Y-78581000D01*
G75*
G02*
X140806500Y-78530000I51000J0D01*
G01*
X142406500Y-78530000D01*
G75*
G02*
X142457500Y-78581000I0J-51000D01*
G01*
X142457500Y-79131000D01*
G75*
G02*
X142406500Y-79182000I-51000J0D01*
G01*
X140806500Y-79182000D01*
G75*
G02*
X140755500Y-79131000I0J51000D01*
G01*
G37*
G36*
G01*
X140755500Y-79931000D02*
X140755500Y-79381000D01*
G75*
G02*
X140806500Y-79330000I51000J0D01*
G01*
X142406500Y-79330000D01*
G75*
G02*
X142457500Y-79381000I0J-51000D01*
G01*
X142457500Y-79931000D01*
G75*
G02*
X142406500Y-79982000I-51000J0D01*
G01*
X140806500Y-79982000D01*
G75*
G02*
X140755500Y-79931000I0J51000D01*
G01*
G37*
G36*
G01*
X140755500Y-80731000D02*
X140755500Y-80181000D01*
G75*
G02*
X140806500Y-80130000I51000J0D01*
G01*
X142406500Y-80130000D01*
G75*
G02*
X142457500Y-80181000I0J-51000D01*
G01*
X142457500Y-80731000D01*
G75*
G02*
X142406500Y-80782000I-51000J0D01*
G01*
X140806500Y-80782000D01*
G75*
G02*
X140755500Y-80731000I0J51000D01*
G01*
G37*
G36*
G01*
X140431500Y-82757000D02*
X139881500Y-82757000D01*
G75*
G02*
X139830500Y-82706000I0J51000D01*
G01*
X139830500Y-81106000D01*
G75*
G02*
X139881500Y-81055000I51000J0D01*
G01*
X140431500Y-81055000D01*
G75*
G02*
X140482500Y-81106000I0J-51000D01*
G01*
X140482500Y-82706000D01*
G75*
G02*
X140431500Y-82757000I-51000J0D01*
G01*
G37*
G36*
G01*
X139631500Y-82757000D02*
X139081500Y-82757000D01*
G75*
G02*
X139030500Y-82706000I0J51000D01*
G01*
X139030500Y-81106000D01*
G75*
G02*
X139081500Y-81055000I51000J0D01*
G01*
X139631500Y-81055000D01*
G75*
G02*
X139682500Y-81106000I0J-51000D01*
G01*
X139682500Y-82706000D01*
G75*
G02*
X139631500Y-82757000I-51000J0D01*
G01*
G37*
G36*
G01*
X138831500Y-82757000D02*
X138281500Y-82757000D01*
G75*
G02*
X138230500Y-82706000I0J51000D01*
G01*
X138230500Y-81106000D01*
G75*
G02*
X138281500Y-81055000I51000J0D01*
G01*
X138831500Y-81055000D01*
G75*
G02*
X138882500Y-81106000I0J-51000D01*
G01*
X138882500Y-82706000D01*
G75*
G02*
X138831500Y-82757000I-51000J0D01*
G01*
G37*
G36*
G01*
X138031500Y-82757000D02*
X137481500Y-82757000D01*
G75*
G02*
X137430500Y-82706000I0J51000D01*
G01*
X137430500Y-81106000D01*
G75*
G02*
X137481500Y-81055000I51000J0D01*
G01*
X138031500Y-81055000D01*
G75*
G02*
X138082500Y-81106000I0J-51000D01*
G01*
X138082500Y-82706000D01*
G75*
G02*
X138031500Y-82757000I-51000J0D01*
G01*
G37*
G36*
G01*
X137231500Y-82757000D02*
X136681500Y-82757000D01*
G75*
G02*
X136630500Y-82706000I0J51000D01*
G01*
X136630500Y-81106000D01*
G75*
G02*
X136681500Y-81055000I51000J0D01*
G01*
X137231500Y-81055000D01*
G75*
G02*
X137282500Y-81106000I0J-51000D01*
G01*
X137282500Y-82706000D01*
G75*
G02*
X137231500Y-82757000I-51000J0D01*
G01*
G37*
G36*
G01*
X136431500Y-82757000D02*
X135881500Y-82757000D01*
G75*
G02*
X135830500Y-82706000I0J51000D01*
G01*
X135830500Y-81106000D01*
G75*
G02*
X135881500Y-81055000I51000J0D01*
G01*
X136431500Y-81055000D01*
G75*
G02*
X136482500Y-81106000I0J-51000D01*
G01*
X136482500Y-82706000D01*
G75*
G02*
X136431500Y-82757000I-51000J0D01*
G01*
G37*
G36*
G01*
X135631500Y-82757000D02*
X135081500Y-82757000D01*
G75*
G02*
X135030500Y-82706000I0J51000D01*
G01*
X135030500Y-81106000D01*
G75*
G02*
X135081500Y-81055000I51000J0D01*
G01*
X135631500Y-81055000D01*
G75*
G02*
X135682500Y-81106000I0J-51000D01*
G01*
X135682500Y-82706000D01*
G75*
G02*
X135631500Y-82757000I-51000J0D01*
G01*
G37*
G36*
G01*
X134831500Y-82757000D02*
X134281500Y-82757000D01*
G75*
G02*
X134230500Y-82706000I0J51000D01*
G01*
X134230500Y-81106000D01*
G75*
G02*
X134281500Y-81055000I51000J0D01*
G01*
X134831500Y-81055000D01*
G75*
G02*
X134882500Y-81106000I0J-51000D01*
G01*
X134882500Y-82706000D01*
G75*
G02*
X134831500Y-82757000I-51000J0D01*
G01*
G37*
G36*
G01*
X132255500Y-80731000D02*
X132255500Y-80181000D01*
G75*
G02*
X132306500Y-80130000I51000J0D01*
G01*
X133906500Y-80130000D01*
G75*
G02*
X133957500Y-80181000I0J-51000D01*
G01*
X133957500Y-80731000D01*
G75*
G02*
X133906500Y-80782000I-51000J0D01*
G01*
X132306500Y-80782000D01*
G75*
G02*
X132255500Y-80731000I0J51000D01*
G01*
G37*
G36*
G01*
X132255500Y-79931000D02*
X132255500Y-79381000D01*
G75*
G02*
X132306500Y-79330000I51000J0D01*
G01*
X133906500Y-79330000D01*
G75*
G02*
X133957500Y-79381000I0J-51000D01*
G01*
X133957500Y-79931000D01*
G75*
G02*
X133906500Y-79982000I-51000J0D01*
G01*
X132306500Y-79982000D01*
G75*
G02*
X132255500Y-79931000I0J51000D01*
G01*
G37*
G36*
G01*
X132255500Y-79131000D02*
X132255500Y-78581000D01*
G75*
G02*
X132306500Y-78530000I51000J0D01*
G01*
X133906500Y-78530000D01*
G75*
G02*
X133957500Y-78581000I0J-51000D01*
G01*
X133957500Y-79131000D01*
G75*
G02*
X133906500Y-79182000I-51000J0D01*
G01*
X132306500Y-79182000D01*
G75*
G02*
X132255500Y-79131000I0J51000D01*
G01*
G37*
G36*
G01*
X132255500Y-78331000D02*
X132255500Y-77781000D01*
G75*
G02*
X132306500Y-77730000I51000J0D01*
G01*
X133906500Y-77730000D01*
G75*
G02*
X133957500Y-77781000I0J-51000D01*
G01*
X133957500Y-78331000D01*
G75*
G02*
X133906500Y-78382000I-51000J0D01*
G01*
X132306500Y-78382000D01*
G75*
G02*
X132255500Y-78331000I0J51000D01*
G01*
G37*
G36*
G01*
X132255500Y-77531000D02*
X132255500Y-76981000D01*
G75*
G02*
X132306500Y-76930000I51000J0D01*
G01*
X133906500Y-76930000D01*
G75*
G02*
X133957500Y-76981000I0J-51000D01*
G01*
X133957500Y-77531000D01*
G75*
G02*
X133906500Y-77582000I-51000J0D01*
G01*
X132306500Y-77582000D01*
G75*
G02*
X132255500Y-77531000I0J51000D01*
G01*
G37*
G36*
G01*
X132255500Y-76731000D02*
X132255500Y-76181000D01*
G75*
G02*
X132306500Y-76130000I51000J0D01*
G01*
X133906500Y-76130000D01*
G75*
G02*
X133957500Y-76181000I0J-51000D01*
G01*
X133957500Y-76731000D01*
G75*
G02*
X133906500Y-76782000I-51000J0D01*
G01*
X132306500Y-76782000D01*
G75*
G02*
X132255500Y-76731000I0J51000D01*
G01*
G37*
G36*
G01*
X132255500Y-75931000D02*
X132255500Y-75381000D01*
G75*
G02*
X132306500Y-75330000I51000J0D01*
G01*
X133906500Y-75330000D01*
G75*
G02*
X133957500Y-75381000I0J-51000D01*
G01*
X133957500Y-75931000D01*
G75*
G02*
X133906500Y-75982000I-51000J0D01*
G01*
X132306500Y-75982000D01*
G75*
G02*
X132255500Y-75931000I0J51000D01*
G01*
G37*
G36*
G01*
X132255500Y-75131000D02*
X132255500Y-74581000D01*
G75*
G02*
X132306500Y-74530000I51000J0D01*
G01*
X133906500Y-74530000D01*
G75*
G02*
X133957500Y-74581000I0J-51000D01*
G01*
X133957500Y-75131000D01*
G75*
G02*
X133906500Y-75182000I-51000J0D01*
G01*
X132306500Y-75182000D01*
G75*
G02*
X132255500Y-75131000I0J51000D01*
G01*
G37*
D14*
X158826500Y-52407500D03*
X163326500Y-52407500D03*
X158826500Y-58907500D03*
X163326500Y-58907500D03*
X158826500Y-72407500D03*
X163326500Y-72407500D03*
X158826500Y-78907500D03*
X163326500Y-78907500D03*
X158826500Y-92407500D03*
X163326500Y-92407500D03*
X158826500Y-98907500D03*
X163326500Y-98907500D03*
X135041500Y-51689000D03*
X135041500Y-47189000D03*
X141541500Y-51689000D03*
X141541500Y-47189000D03*
G36*
G01*
X124110625Y-60380500D02*
X123158375Y-60380500D01*
G75*
G02*
X122883500Y-60105625I0J274875D01*
G01*
X122883500Y-59528375D01*
G75*
G02*
X123158375Y-59253500I274875J0D01*
G01*
X124110625Y-59253500D01*
G75*
G02*
X124385500Y-59528375I0J-274875D01*
G01*
X124385500Y-60105625D01*
G75*
G02*
X124110625Y-60380500I-274875J0D01*
G01*
G37*
G36*
G01*
X124110625Y-62205500D02*
X123158375Y-62205500D01*
G75*
G02*
X122883500Y-61930625I0J274875D01*
G01*
X122883500Y-61353375D01*
G75*
G02*
X123158375Y-61078500I274875J0D01*
G01*
X124110625Y-61078500D01*
G75*
G02*
X124385500Y-61353375I0J-274875D01*
G01*
X124385500Y-61930625D01*
G75*
G02*
X124110625Y-62205500I-274875J0D01*
G01*
G37*
G36*
G01*
X121888125Y-60357000D02*
X120935875Y-60357000D01*
G75*
G02*
X120661000Y-60082125I0J274875D01*
G01*
X120661000Y-59504875D01*
G75*
G02*
X120935875Y-59230000I274875J0D01*
G01*
X121888125Y-59230000D01*
G75*
G02*
X122163000Y-59504875I0J-274875D01*
G01*
X122163000Y-60082125D01*
G75*
G02*
X121888125Y-60357000I-274875J0D01*
G01*
G37*
G36*
G01*
X121888125Y-62182000D02*
X120935875Y-62182000D01*
G75*
G02*
X120661000Y-61907125I0J274875D01*
G01*
X120661000Y-61329875D01*
G75*
G02*
X120935875Y-61055000I274875J0D01*
G01*
X121888125Y-61055000D01*
G75*
G02*
X122163000Y-61329875I0J-274875D01*
G01*
X122163000Y-61907125D01*
G75*
G02*
X121888125Y-62182000I-274875J0D01*
G01*
G37*
G36*
G01*
X117888000Y-60166375D02*
X117888000Y-61118625D01*
G75*
G02*
X117613125Y-61393500I-274875J0D01*
G01*
X117035875Y-61393500D01*
G75*
G02*
X116761000Y-61118625I0J274875D01*
G01*
X116761000Y-60166375D01*
G75*
G02*
X117035875Y-59891500I274875J0D01*
G01*
X117613125Y-59891500D01*
G75*
G02*
X117888000Y-60166375I0J-274875D01*
G01*
G37*
G36*
G01*
X119713000Y-60166375D02*
X119713000Y-61118625D01*
G75*
G02*
X119438125Y-61393500I-274875J0D01*
G01*
X118860875Y-61393500D01*
G75*
G02*
X118586000Y-61118625I0J274875D01*
G01*
X118586000Y-60166375D01*
G75*
G02*
X118860875Y-59891500I274875J0D01*
G01*
X119438125Y-59891500D01*
G75*
G02*
X119713000Y-60166375I0J-274875D01*
G01*
G37*
G36*
G01*
X123309000Y-66833875D02*
X123309000Y-67786125D01*
G75*
G02*
X123034125Y-68061000I-274875J0D01*
G01*
X122456875Y-68061000D01*
G75*
G02*
X122182000Y-67786125I0J274875D01*
G01*
X122182000Y-66833875D01*
G75*
G02*
X122456875Y-66559000I274875J0D01*
G01*
X123034125Y-66559000D01*
G75*
G02*
X123309000Y-66833875I0J-274875D01*
G01*
G37*
G36*
G01*
X125134000Y-66833875D02*
X125134000Y-67786125D01*
G75*
G02*
X124859125Y-68061000I-274875J0D01*
G01*
X124281875Y-68061000D01*
G75*
G02*
X124007000Y-67786125I0J274875D01*
G01*
X124007000Y-66833875D01*
G75*
G02*
X124281875Y-66559000I274875J0D01*
G01*
X124859125Y-66559000D01*
G75*
G02*
X125134000Y-66833875I0J-274875D01*
G01*
G37*
G36*
G01*
X117420000Y-50895375D02*
X117420000Y-51847625D01*
G75*
G02*
X117145125Y-52122500I-274875J0D01*
G01*
X116567875Y-52122500D01*
G75*
G02*
X116293000Y-51847625I0J274875D01*
G01*
X116293000Y-50895375D01*
G75*
G02*
X116567875Y-50620500I274875J0D01*
G01*
X117145125Y-50620500D01*
G75*
G02*
X117420000Y-50895375I0J-274875D01*
G01*
G37*
G36*
G01*
X119245000Y-50895375D02*
X119245000Y-51847625D01*
G75*
G02*
X118970125Y-52122500I-274875J0D01*
G01*
X118392875Y-52122500D01*
G75*
G02*
X118118000Y-51847625I0J274875D01*
G01*
X118118000Y-50895375D01*
G75*
G02*
X118392875Y-50620500I274875J0D01*
G01*
X118970125Y-50620500D01*
G75*
G02*
X119245000Y-50895375I0J-274875D01*
G01*
G37*
G36*
G01*
X105695500Y-57626125D02*
X105695500Y-56673875D01*
G75*
G02*
X105970375Y-56399000I274875J0D01*
G01*
X106547625Y-56399000D01*
G75*
G02*
X106822500Y-56673875I0J-274875D01*
G01*
X106822500Y-57626125D01*
G75*
G02*
X106547625Y-57901000I-274875J0D01*
G01*
X105970375Y-57901000D01*
G75*
G02*
X105695500Y-57626125I0J274875D01*
G01*
G37*
G36*
G01*
X103870500Y-57626125D02*
X103870500Y-56673875D01*
G75*
G02*
X104145375Y-56399000I274875J0D01*
G01*
X104722625Y-56399000D01*
G75*
G02*
X104997500Y-56673875I0J-274875D01*
G01*
X104997500Y-57626125D01*
G75*
G02*
X104722625Y-57901000I-274875J0D01*
G01*
X104145375Y-57901000D01*
G75*
G02*
X103870500Y-57626125I0J274875D01*
G01*
G37*
G36*
G01*
X147796500Y-60039375D02*
X147796500Y-60991625D01*
G75*
G02*
X147521625Y-61266500I-274875J0D01*
G01*
X146944375Y-61266500D01*
G75*
G02*
X146669500Y-60991625I0J274875D01*
G01*
X146669500Y-60039375D01*
G75*
G02*
X146944375Y-59764500I274875J0D01*
G01*
X147521625Y-59764500D01*
G75*
G02*
X147796500Y-60039375I0J-274875D01*
G01*
G37*
G36*
G01*
X149621500Y-60039375D02*
X149621500Y-60991625D01*
G75*
G02*
X149346625Y-61266500I-274875J0D01*
G01*
X148769375Y-61266500D01*
G75*
G02*
X148494500Y-60991625I0J274875D01*
G01*
X148494500Y-60039375D01*
G75*
G02*
X148769375Y-59764500I274875J0D01*
G01*
X149346625Y-59764500D01*
G75*
G02*
X149621500Y-60039375I0J-274875D01*
G01*
G37*
G36*
G01*
X147796500Y-62642875D02*
X147796500Y-63595125D01*
G75*
G02*
X147521625Y-63870000I-274875J0D01*
G01*
X146944375Y-63870000D01*
G75*
G02*
X146669500Y-63595125I0J274875D01*
G01*
X146669500Y-62642875D01*
G75*
G02*
X146944375Y-62368000I274875J0D01*
G01*
X147521625Y-62368000D01*
G75*
G02*
X147796500Y-62642875I0J-274875D01*
G01*
G37*
G36*
G01*
X149621500Y-62642875D02*
X149621500Y-63595125D01*
G75*
G02*
X149346625Y-63870000I-274875J0D01*
G01*
X148769375Y-63870000D01*
G75*
G02*
X148494500Y-63595125I0J274875D01*
G01*
X148494500Y-62642875D01*
G75*
G02*
X148769375Y-62368000I274875J0D01*
G01*
X149346625Y-62368000D01*
G75*
G02*
X149621500Y-62642875I0J-274875D01*
G01*
G37*
G36*
G01*
X118586000Y-67976625D02*
X118586000Y-67024375D01*
G75*
G02*
X118860875Y-66749500I274875J0D01*
G01*
X119438125Y-66749500D01*
G75*
G02*
X119713000Y-67024375I0J-274875D01*
G01*
X119713000Y-67976625D01*
G75*
G02*
X119438125Y-68251500I-274875J0D01*
G01*
X118860875Y-68251500D01*
G75*
G02*
X118586000Y-67976625I0J274875D01*
G01*
G37*
G36*
G01*
X116761000Y-67976625D02*
X116761000Y-67024375D01*
G75*
G02*
X117035875Y-66749500I274875J0D01*
G01*
X117613125Y-66749500D01*
G75*
G02*
X117888000Y-67024375I0J-274875D01*
G01*
X117888000Y-67976625D01*
G75*
G02*
X117613125Y-68251500I-274875J0D01*
G01*
X117035875Y-68251500D01*
G75*
G02*
X116761000Y-67976625I0J274875D01*
G01*
G37*
G36*
G01*
X116617625Y-74922000D02*
X115665375Y-74922000D01*
G75*
G02*
X115390500Y-74647125I0J274875D01*
G01*
X115390500Y-74069875D01*
G75*
G02*
X115665375Y-73795000I274875J0D01*
G01*
X116617625Y-73795000D01*
G75*
G02*
X116892500Y-74069875I0J-274875D01*
G01*
X116892500Y-74647125D01*
G75*
G02*
X116617625Y-74922000I-274875J0D01*
G01*
G37*
G36*
G01*
X116617625Y-76747000D02*
X115665375Y-76747000D01*
G75*
G02*
X115390500Y-76472125I0J274875D01*
G01*
X115390500Y-75894875D01*
G75*
G02*
X115665375Y-75620000I274875J0D01*
G01*
X116617625Y-75620000D01*
G75*
G02*
X116892500Y-75894875I0J-274875D01*
G01*
X116892500Y-76472125D01*
G75*
G02*
X116617625Y-76747000I-274875J0D01*
G01*
G37*
G36*
G01*
X103560000Y-68357625D02*
X103560000Y-67405375D01*
G75*
G02*
X103834875Y-67130500I274875J0D01*
G01*
X104412125Y-67130500D01*
G75*
G02*
X104687000Y-67405375I0J-274875D01*
G01*
X104687000Y-68357625D01*
G75*
G02*
X104412125Y-68632500I-274875J0D01*
G01*
X103834875Y-68632500D01*
G75*
G02*
X103560000Y-68357625I0J274875D01*
G01*
G37*
G36*
G01*
X101735000Y-68357625D02*
X101735000Y-67405375D01*
G75*
G02*
X102009875Y-67130500I274875J0D01*
G01*
X102587125Y-67130500D01*
G75*
G02*
X102862000Y-67405375I0J-274875D01*
G01*
X102862000Y-68357625D01*
G75*
G02*
X102587125Y-68632500I-274875J0D01*
G01*
X102009875Y-68632500D01*
G75*
G02*
X101735000Y-68357625I0J274875D01*
G01*
G37*
G36*
G01*
X108553125Y-74962000D02*
X107600875Y-74962000D01*
G75*
G02*
X107326000Y-74687125I0J274875D01*
G01*
X107326000Y-74109875D01*
G75*
G02*
X107600875Y-73835000I274875J0D01*
G01*
X108553125Y-73835000D01*
G75*
G02*
X108828000Y-74109875I0J-274875D01*
G01*
X108828000Y-74687125D01*
G75*
G02*
X108553125Y-74962000I-274875J0D01*
G01*
G37*
G36*
G01*
X108553125Y-76787000D02*
X107600875Y-76787000D01*
G75*
G02*
X107326000Y-76512125I0J274875D01*
G01*
X107326000Y-75934875D01*
G75*
G02*
X107600875Y-75660000I274875J0D01*
G01*
X108553125Y-75660000D01*
G75*
G02*
X108828000Y-75934875I0J-274875D01*
G01*
X108828000Y-76512125D01*
G75*
G02*
X108553125Y-76787000I-274875J0D01*
G01*
G37*
G36*
G01*
X162107500Y-62325375D02*
X162107500Y-63277625D01*
G75*
G02*
X161832625Y-63552500I-274875J0D01*
G01*
X161255375Y-63552500D01*
G75*
G02*
X160980500Y-63277625I0J274875D01*
G01*
X160980500Y-62325375D01*
G75*
G02*
X161255375Y-62050500I274875J0D01*
G01*
X161832625Y-62050500D01*
G75*
G02*
X162107500Y-62325375I0J-274875D01*
G01*
G37*
G36*
G01*
X163932500Y-62325375D02*
X163932500Y-63277625D01*
G75*
G02*
X163657625Y-63552500I-274875J0D01*
G01*
X163080375Y-63552500D01*
G75*
G02*
X162805500Y-63277625I0J274875D01*
G01*
X162805500Y-62325375D01*
G75*
G02*
X163080375Y-62050500I274875J0D01*
G01*
X163657625Y-62050500D01*
G75*
G02*
X163932500Y-62325375I0J-274875D01*
G01*
G37*
G36*
G01*
X162909000Y-88995125D02*
X162909000Y-88042875D01*
G75*
G02*
X163183875Y-87768000I274875J0D01*
G01*
X163761125Y-87768000D01*
G75*
G02*
X164036000Y-88042875I0J-274875D01*
G01*
X164036000Y-88995125D01*
G75*
G02*
X163761125Y-89270000I-274875J0D01*
G01*
X163183875Y-89270000D01*
G75*
G02*
X162909000Y-88995125I0J274875D01*
G01*
G37*
G36*
G01*
X161084000Y-88995125D02*
X161084000Y-88042875D01*
G75*
G02*
X161358875Y-87768000I274875J0D01*
G01*
X161936125Y-87768000D01*
G75*
G02*
X162211000Y-88042875I0J-274875D01*
G01*
X162211000Y-88995125D01*
G75*
G02*
X161936125Y-89270000I-274875J0D01*
G01*
X161358875Y-89270000D01*
G75*
G02*
X161084000Y-88995125I0J274875D01*
G01*
G37*
G36*
G01*
X163798125Y-68445000D02*
X162845875Y-68445000D01*
G75*
G02*
X162571000Y-68170125I0J274875D01*
G01*
X162571000Y-67592875D01*
G75*
G02*
X162845875Y-67318000I274875J0D01*
G01*
X163798125Y-67318000D01*
G75*
G02*
X164073000Y-67592875I0J-274875D01*
G01*
X164073000Y-68170125D01*
G75*
G02*
X163798125Y-68445000I-274875J0D01*
G01*
G37*
G36*
G01*
X163798125Y-70270000D02*
X162845875Y-70270000D01*
G75*
G02*
X162571000Y-69995125I0J274875D01*
G01*
X162571000Y-69417875D01*
G75*
G02*
X162845875Y-69143000I274875J0D01*
G01*
X163798125Y-69143000D01*
G75*
G02*
X164073000Y-69417875I0J-274875D01*
G01*
X164073000Y-69995125D01*
G75*
G02*
X163798125Y-70270000I-274875J0D01*
G01*
G37*
G36*
G01*
X163861625Y-83534500D02*
X162909375Y-83534500D01*
G75*
G02*
X162634500Y-83259625I0J274875D01*
G01*
X162634500Y-82682375D01*
G75*
G02*
X162909375Y-82407500I274875J0D01*
G01*
X163861625Y-82407500D01*
G75*
G02*
X164136500Y-82682375I0J-274875D01*
G01*
X164136500Y-83259625D01*
G75*
G02*
X163861625Y-83534500I-274875J0D01*
G01*
G37*
G36*
G01*
X163861625Y-85359500D02*
X162909375Y-85359500D01*
G75*
G02*
X162634500Y-85084625I0J274875D01*
G01*
X162634500Y-84507375D01*
G75*
G02*
X162909375Y-84232500I274875J0D01*
G01*
X163861625Y-84232500D01*
G75*
G02*
X164136500Y-84507375I0J-274875D01*
G01*
X164136500Y-85084625D01*
G75*
G02*
X163861625Y-85359500I-274875J0D01*
G01*
G37*
G36*
G01*
X108108875Y-81311500D02*
X109061125Y-81311500D01*
G75*
G02*
X109336000Y-81586375I0J-274875D01*
G01*
X109336000Y-82163625D01*
G75*
G02*
X109061125Y-82438500I-274875J0D01*
G01*
X108108875Y-82438500D01*
G75*
G02*
X107834000Y-82163625I0J274875D01*
G01*
X107834000Y-81586375D01*
G75*
G02*
X108108875Y-81311500I274875J0D01*
G01*
G37*
G36*
G01*
X108108875Y-79486500D02*
X109061125Y-79486500D01*
G75*
G02*
X109336000Y-79761375I0J-274875D01*
G01*
X109336000Y-80338625D01*
G75*
G02*
X109061125Y-80613500I-274875J0D01*
G01*
X108108875Y-80613500D01*
G75*
G02*
X107834000Y-80338625I0J274875D01*
G01*
X107834000Y-79761375D01*
G75*
G02*
X108108875Y-79486500I274875J0D01*
G01*
G37*
G36*
G01*
X134080500Y-63762375D02*
X134080500Y-64714625D01*
G75*
G02*
X133805625Y-64989500I-274875J0D01*
G01*
X133228375Y-64989500D01*
G75*
G02*
X132953500Y-64714625I0J274875D01*
G01*
X132953500Y-63762375D01*
G75*
G02*
X133228375Y-63487500I274875J0D01*
G01*
X133805625Y-63487500D01*
G75*
G02*
X134080500Y-63762375I0J-274875D01*
G01*
G37*
G36*
G01*
X135905500Y-63762375D02*
X135905500Y-64714625D01*
G75*
G02*
X135630625Y-64989500I-274875J0D01*
G01*
X135053375Y-64989500D01*
G75*
G02*
X134778500Y-64714625I0J274875D01*
G01*
X134778500Y-63762375D01*
G75*
G02*
X135053375Y-63487500I274875J0D01*
G01*
X135630625Y-63487500D01*
G75*
G02*
X135905500Y-63762375I0J-274875D01*
G01*
G37*
G36*
G01*
X147542375Y-54451000D02*
X148494625Y-54451000D01*
G75*
G02*
X148769500Y-54725875I0J-274875D01*
G01*
X148769500Y-55303125D01*
G75*
G02*
X148494625Y-55578000I-274875J0D01*
G01*
X147542375Y-55578000D01*
G75*
G02*
X147267500Y-55303125I0J274875D01*
G01*
X147267500Y-54725875D01*
G75*
G02*
X147542375Y-54451000I274875J0D01*
G01*
G37*
G36*
G01*
X147542375Y-52626000D02*
X148494625Y-52626000D01*
G75*
G02*
X148769500Y-52900875I0J-274875D01*
G01*
X148769500Y-53478125D01*
G75*
G02*
X148494625Y-53753000I-274875J0D01*
G01*
X147542375Y-53753000D01*
G75*
G02*
X147267500Y-53478125I0J274875D01*
G01*
X147267500Y-52900875D01*
G75*
G02*
X147542375Y-52626000I274875J0D01*
G01*
G37*
G36*
G01*
X118657000Y-54114000D02*
X118657000Y-55614000D01*
G75*
G02*
X118606000Y-55665000I-51000J0D01*
G01*
X117106000Y-55665000D01*
G75*
G02*
X117055000Y-55614000I0J51000D01*
G01*
X117055000Y-54114000D01*
G75*
G02*
X117106000Y-54063000I51000J0D01*
G01*
X118606000Y-54063000D01*
G75*
G02*
X118657000Y-54114000I0J-51000D01*
G01*
G37*
D13*
X112776000Y-54864000D03*
X115316000Y-54864000D03*
G36*
G01*
X108911500Y-53575000D02*
X108911500Y-54375000D01*
G75*
G02*
X108860500Y-54426000I-51000J0D01*
G01*
X107960500Y-54426000D01*
G75*
G02*
X107909500Y-54375000I0J51000D01*
G01*
X107909500Y-53575000D01*
G75*
G02*
X107960500Y-53524000I51000J0D01*
G01*
X108860500Y-53524000D01*
G75*
G02*
X108911500Y-53575000I0J-51000D01*
G01*
G37*
G36*
G01*
X110911500Y-52625000D02*
X110911500Y-53425000D01*
G75*
G02*
X110860500Y-53476000I-51000J0D01*
G01*
X109960500Y-53476000D01*
G75*
G02*
X109909500Y-53425000I0J51000D01*
G01*
X109909500Y-52625000D01*
G75*
G02*
X109960500Y-52574000I51000J0D01*
G01*
X110860500Y-52574000D01*
G75*
G02*
X110911500Y-52625000I0J-51000D01*
G01*
G37*
G36*
G01*
X110911500Y-54525000D02*
X110911500Y-55325000D01*
G75*
G02*
X110860500Y-55376000I-51000J0D01*
G01*
X109960500Y-55376000D01*
G75*
G02*
X109909500Y-55325000I0J51000D01*
G01*
X109909500Y-54525000D01*
G75*
G02*
X109960500Y-54474000I51000J0D01*
G01*
X110860500Y-54474000D01*
G75*
G02*
X110911500Y-54525000I0J-51000D01*
G01*
G37*
G36*
G01*
X104720500Y-53575000D02*
X104720500Y-54375000D01*
G75*
G02*
X104669500Y-54426000I-51000J0D01*
G01*
X103769500Y-54426000D01*
G75*
G02*
X103718500Y-54375000I0J51000D01*
G01*
X103718500Y-53575000D01*
G75*
G02*
X103769500Y-53524000I51000J0D01*
G01*
X104669500Y-53524000D01*
G75*
G02*
X104720500Y-53575000I0J-51000D01*
G01*
G37*
G36*
G01*
X106720500Y-52625000D02*
X106720500Y-53425000D01*
G75*
G02*
X106669500Y-53476000I-51000J0D01*
G01*
X105769500Y-53476000D01*
G75*
G02*
X105718500Y-53425000I0J51000D01*
G01*
X105718500Y-52625000D01*
G75*
G02*
X105769500Y-52574000I51000J0D01*
G01*
X106669500Y-52574000D01*
G75*
G02*
X106720500Y-52625000I0J-51000D01*
G01*
G37*
G36*
G01*
X106720500Y-54525000D02*
X106720500Y-55325000D01*
G75*
G02*
X106669500Y-55376000I-51000J0D01*
G01*
X105769500Y-55376000D01*
G75*
G02*
X105718500Y-55325000I0J51000D01*
G01*
X105718500Y-54525000D01*
G75*
G02*
X105769500Y-54474000I51000J0D01*
G01*
X106669500Y-54474000D01*
G75*
G02*
X106720500Y-54525000I0J-51000D01*
G01*
G37*
G36*
G01*
X114954000Y-64207500D02*
X114154000Y-64207500D01*
G75*
G02*
X114103000Y-64156500I0J51000D01*
G01*
X114103000Y-63256500D01*
G75*
G02*
X114154000Y-63205500I51000J0D01*
G01*
X114954000Y-63205500D01*
G75*
G02*
X115005000Y-63256500I0J-51000D01*
G01*
X115005000Y-64156500D01*
G75*
G02*
X114954000Y-64207500I-51000J0D01*
G01*
G37*
G36*
G01*
X115904000Y-66207500D02*
X115104000Y-66207500D01*
G75*
G02*
X115053000Y-66156500I0J51000D01*
G01*
X115053000Y-65256500D01*
G75*
G02*
X115104000Y-65205500I51000J0D01*
G01*
X115904000Y-65205500D01*
G75*
G02*
X115955000Y-65256500I0J-51000D01*
G01*
X115955000Y-66156500D01*
G75*
G02*
X115904000Y-66207500I-51000J0D01*
G01*
G37*
G36*
G01*
X114004000Y-66207500D02*
X113204000Y-66207500D01*
G75*
G02*
X113153000Y-66156500I0J51000D01*
G01*
X113153000Y-65256500D01*
G75*
G02*
X113204000Y-65205500I51000J0D01*
G01*
X114004000Y-65205500D01*
G75*
G02*
X114055000Y-65256500I0J-51000D01*
G01*
X114055000Y-66156500D01*
G75*
G02*
X114004000Y-66207500I-51000J0D01*
G01*
G37*
G36*
G01*
X112800500Y-71552500D02*
X112800500Y-70052500D01*
G75*
G02*
X112851500Y-70001500I51000J0D01*
G01*
X114351500Y-70001500D01*
G75*
G02*
X114402500Y-70052500I0J-51000D01*
G01*
X114402500Y-71552500D01*
G75*
G02*
X114351500Y-71603500I-51000J0D01*
G01*
X112851500Y-71603500D01*
G75*
G02*
X112800500Y-71552500I0J51000D01*
G01*
G37*
X118681500Y-70802500D03*
X116141500Y-70802500D03*
G36*
G01*
X109038500Y-64179500D02*
X109038500Y-64979500D01*
G75*
G02*
X108987500Y-65030500I-51000J0D01*
G01*
X108087500Y-65030500D01*
G75*
G02*
X108036500Y-64979500I0J51000D01*
G01*
X108036500Y-64179500D01*
G75*
G02*
X108087500Y-64128500I51000J0D01*
G01*
X108987500Y-64128500D01*
G75*
G02*
X109038500Y-64179500I0J-51000D01*
G01*
G37*
G36*
G01*
X111038500Y-63229500D02*
X111038500Y-64029500D01*
G75*
G02*
X110987500Y-64080500I-51000J0D01*
G01*
X110087500Y-64080500D01*
G75*
G02*
X110036500Y-64029500I0J51000D01*
G01*
X110036500Y-63229500D01*
G75*
G02*
X110087500Y-63178500I51000J0D01*
G01*
X110987500Y-63178500D01*
G75*
G02*
X111038500Y-63229500I0J-51000D01*
G01*
G37*
G36*
G01*
X111038500Y-65129500D02*
X111038500Y-65929500D01*
G75*
G02*
X110987500Y-65980500I-51000J0D01*
G01*
X110087500Y-65980500D01*
G75*
G02*
X110036500Y-65929500I0J51000D01*
G01*
X110036500Y-65129500D01*
G75*
G02*
X110087500Y-65078500I51000J0D01*
G01*
X110987500Y-65078500D01*
G75*
G02*
X111038500Y-65129500I0J-51000D01*
G01*
G37*
G36*
G01*
X104847500Y-64179500D02*
X104847500Y-64979500D01*
G75*
G02*
X104796500Y-65030500I-51000J0D01*
G01*
X103896500Y-65030500D01*
G75*
G02*
X103845500Y-64979500I0J51000D01*
G01*
X103845500Y-64179500D01*
G75*
G02*
X103896500Y-64128500I51000J0D01*
G01*
X104796500Y-64128500D01*
G75*
G02*
X104847500Y-64179500I0J-51000D01*
G01*
G37*
G36*
G01*
X106847500Y-63229500D02*
X106847500Y-64029500D01*
G75*
G02*
X106796500Y-64080500I-51000J0D01*
G01*
X105896500Y-64080500D01*
G75*
G02*
X105845500Y-64029500I0J51000D01*
G01*
X105845500Y-63229500D01*
G75*
G02*
X105896500Y-63178500I51000J0D01*
G01*
X106796500Y-63178500D01*
G75*
G02*
X106847500Y-63229500I0J-51000D01*
G01*
G37*
G36*
G01*
X106847500Y-65129500D02*
X106847500Y-65929500D01*
G75*
G02*
X106796500Y-65980500I-51000J0D01*
G01*
X105896500Y-65980500D01*
G75*
G02*
X105845500Y-65929500I0J51000D01*
G01*
X105845500Y-65129500D01*
G75*
G02*
X105896500Y-65078500I51000J0D01*
G01*
X106796500Y-65078500D01*
G75*
G02*
X106847500Y-65129500I0J-51000D01*
G01*
G37*
G36*
G01*
X104736000Y-71552500D02*
X104736000Y-70052500D01*
G75*
G02*
X104787000Y-70001500I51000J0D01*
G01*
X106287000Y-70001500D01*
G75*
G02*
X106338000Y-70052500I0J-51000D01*
G01*
X106338000Y-71552500D01*
G75*
G02*
X106287000Y-71603500I-51000J0D01*
G01*
X104787000Y-71603500D01*
G75*
G02*
X104736000Y-71552500I0J51000D01*
G01*
G37*
X110617000Y-70802500D03*
X108077000Y-70802500D03*
G36*
G01*
X107935000Y-83754000D02*
X109235000Y-83754000D01*
G75*
G02*
X109286000Y-83805000I0J-51000D01*
G01*
X109286000Y-85105000D01*
G75*
G02*
X109235000Y-85156000I-51000J0D01*
G01*
X107935000Y-85156000D01*
G75*
G02*
X107884000Y-85105000I0J51000D01*
G01*
X107884000Y-83805000D01*
G75*
G02*
X107935000Y-83754000I51000J0D01*
G01*
G37*
D15*
X108585000Y-86995000D03*
X109855000Y-85725000D03*
D10*
X147002500Y-44000000D03*
G36*
G01*
X145312500Y-44901000D02*
X143612500Y-44901000D01*
G75*
G02*
X143561500Y-44850000I0J51000D01*
G01*
X143561500Y-43150000D01*
G75*
G02*
X143612500Y-43099000I51000J0D01*
G01*
X145312500Y-43099000D01*
G75*
G02*
X145363500Y-43150000I0J-51000D01*
G01*
X145363500Y-44850000D01*
G75*
G02*
X145312500Y-44901000I-51000J0D01*
G01*
G37*
X106235500Y-44000000D03*
G36*
G01*
X107925500Y-43099000D02*
X109625500Y-43099000D01*
G75*
G02*
X109676500Y-43150000I0J-51000D01*
G01*
X109676500Y-44850000D01*
G75*
G02*
X109625500Y-44901000I-51000J0D01*
G01*
X107925500Y-44901000D01*
G75*
G02*
X107874500Y-44850000I0J51000D01*
G01*
X107874500Y-43150000D01*
G75*
G02*
X107925500Y-43099000I51000J0D01*
G01*
G37*
G36*
G01*
X129100500Y-57513001D02*
X129100500Y-55987999D01*
G75*
G02*
X129151499Y-55937000I50999J0D01*
G01*
X129801501Y-55937000D01*
G75*
G02*
X129852500Y-55987999I0J-50999D01*
G01*
X129852500Y-57513001D01*
G75*
G02*
X129801501Y-57564000I-50999J0D01*
G01*
X129151499Y-57564000D01*
G75*
G02*
X129100500Y-57513001I0J50999D01*
G01*
G37*
G36*
G01*
X127830500Y-57513001D02*
X127830500Y-55987999D01*
G75*
G02*
X127881499Y-55937000I50999J0D01*
G01*
X128531501Y-55937000D01*
G75*
G02*
X128582500Y-55987999I0J-50999D01*
G01*
X128582500Y-57513001D01*
G75*
G02*
X128531501Y-57564000I-50999J0D01*
G01*
X127881499Y-57564000D01*
G75*
G02*
X127830500Y-57513001I0J50999D01*
G01*
G37*
G36*
G01*
X126560500Y-57513001D02*
X126560500Y-55987999D01*
G75*
G02*
X126611499Y-55937000I50999J0D01*
G01*
X127261501Y-55937000D01*
G75*
G02*
X127312500Y-55987999I0J-50999D01*
G01*
X127312500Y-57513001D01*
G75*
G02*
X127261501Y-57564000I-50999J0D01*
G01*
X126611499Y-57564000D01*
G75*
G02*
X126560500Y-57513001I0J50999D01*
G01*
G37*
G36*
G01*
X125290500Y-57513001D02*
X125290500Y-55987999D01*
G75*
G02*
X125341499Y-55937000I50999J0D01*
G01*
X125991501Y-55937000D01*
G75*
G02*
X126042500Y-55987999I0J-50999D01*
G01*
X126042500Y-57513001D01*
G75*
G02*
X125991501Y-57564000I-50999J0D01*
G01*
X125341499Y-57564000D01*
G75*
G02*
X125290500Y-57513001I0J50999D01*
G01*
G37*
G36*
G01*
X124020500Y-57513001D02*
X124020500Y-55987999D01*
G75*
G02*
X124071499Y-55937000I50999J0D01*
G01*
X124721501Y-55937000D01*
G75*
G02*
X124772500Y-55987999I0J-50999D01*
G01*
X124772500Y-57513001D01*
G75*
G02*
X124721501Y-57564000I-50999J0D01*
G01*
X124071499Y-57564000D01*
G75*
G02*
X124020500Y-57513001I0J50999D01*
G01*
G37*
G36*
G01*
X122750500Y-57513001D02*
X122750500Y-55987999D01*
G75*
G02*
X122801499Y-55937000I50999J0D01*
G01*
X123451501Y-55937000D01*
G75*
G02*
X123502500Y-55987999I0J-50999D01*
G01*
X123502500Y-57513001D01*
G75*
G02*
X123451501Y-57564000I-50999J0D01*
G01*
X122801499Y-57564000D01*
G75*
G02*
X122750500Y-57513001I0J50999D01*
G01*
G37*
G36*
G01*
X121480500Y-57513001D02*
X121480500Y-55987999D01*
G75*
G02*
X121531499Y-55937000I50999J0D01*
G01*
X122181501Y-55937000D01*
G75*
G02*
X122232500Y-55987999I0J-50999D01*
G01*
X122232500Y-57513001D01*
G75*
G02*
X122181501Y-57564000I-50999J0D01*
G01*
X121531499Y-57564000D01*
G75*
G02*
X121480500Y-57513001I0J50999D01*
G01*
G37*
G36*
G01*
X121480500Y-52089001D02*
X121480500Y-50563999D01*
G75*
G02*
X121531499Y-50513000I50999J0D01*
G01*
X122181501Y-50513000D01*
G75*
G02*
X122232500Y-50563999I0J-50999D01*
G01*
X122232500Y-52089001D01*
G75*
G02*
X122181501Y-52140000I-50999J0D01*
G01*
X121531499Y-52140000D01*
G75*
G02*
X121480500Y-52089001I0J50999D01*
G01*
G37*
G36*
G01*
X122750500Y-52089001D02*
X122750500Y-50563999D01*
G75*
G02*
X122801499Y-50513000I50999J0D01*
G01*
X123451501Y-50513000D01*
G75*
G02*
X123502500Y-50563999I0J-50999D01*
G01*
X123502500Y-52089001D01*
G75*
G02*
X123451501Y-52140000I-50999J0D01*
G01*
X122801499Y-52140000D01*
G75*
G02*
X122750500Y-52089001I0J50999D01*
G01*
G37*
G36*
G01*
X124020500Y-52089001D02*
X124020500Y-50563999D01*
G75*
G02*
X124071499Y-50513000I50999J0D01*
G01*
X124721501Y-50513000D01*
G75*
G02*
X124772500Y-50563999I0J-50999D01*
G01*
X124772500Y-52089001D01*
G75*
G02*
X124721501Y-52140000I-50999J0D01*
G01*
X124071499Y-52140000D01*
G75*
G02*
X124020500Y-52089001I0J50999D01*
G01*
G37*
G36*
G01*
X125290500Y-52089001D02*
X125290500Y-50563999D01*
G75*
G02*
X125341499Y-50513000I50999J0D01*
G01*
X125991501Y-50513000D01*
G75*
G02*
X126042500Y-50563999I0J-50999D01*
G01*
X126042500Y-52089001D01*
G75*
G02*
X125991501Y-52140000I-50999J0D01*
G01*
X125341499Y-52140000D01*
G75*
G02*
X125290500Y-52089001I0J50999D01*
G01*
G37*
G36*
G01*
X126560500Y-52089001D02*
X126560500Y-50563999D01*
G75*
G02*
X126611499Y-50513000I50999J0D01*
G01*
X127261501Y-50513000D01*
G75*
G02*
X127312500Y-50563999I0J-50999D01*
G01*
X127312500Y-52089001D01*
G75*
G02*
X127261501Y-52140000I-50999J0D01*
G01*
X126611499Y-52140000D01*
G75*
G02*
X126560500Y-52089001I0J50999D01*
G01*
G37*
G36*
G01*
X127830500Y-52089001D02*
X127830500Y-50563999D01*
G75*
G02*
X127881499Y-50513000I50999J0D01*
G01*
X128531501Y-50513000D01*
G75*
G02*
X128582500Y-50563999I0J-50999D01*
G01*
X128582500Y-52089001D01*
G75*
G02*
X128531501Y-52140000I-50999J0D01*
G01*
X127881499Y-52140000D01*
G75*
G02*
X127830500Y-52089001I0J50999D01*
G01*
G37*
G36*
G01*
X129100500Y-52089001D02*
X129100500Y-50563999D01*
G75*
G02*
X129151499Y-50513000I50999J0D01*
G01*
X129801501Y-50513000D01*
G75*
G02*
X129852500Y-50563999I0J-50999D01*
G01*
X129852500Y-52089001D01*
G75*
G02*
X129801501Y-52140000I-50999J0D01*
G01*
X129151499Y-52140000D01*
G75*
G02*
X129100500Y-52089001I0J50999D01*
G01*
G37*
G36*
G01*
X112744500Y-50430000D02*
X112744500Y-48630000D01*
G75*
G02*
X112795500Y-48579000I51000J0D01*
G01*
X115295500Y-48579000D01*
G75*
G02*
X115346500Y-48630000I0J-51000D01*
G01*
X115346500Y-50430000D01*
G75*
G02*
X115295500Y-50481000I-51000J0D01*
G01*
X112795500Y-50481000D01*
G75*
G02*
X112744500Y-50430000I0J51000D01*
G01*
G37*
G36*
G01*
X108744500Y-50430000D02*
X108744500Y-48630000D01*
G75*
G02*
X108795500Y-48579000I51000J0D01*
G01*
X111295500Y-48579000D01*
G75*
G02*
X111346500Y-48630000I0J-51000D01*
G01*
X111346500Y-50430000D01*
G75*
G02*
X111295500Y-50481000I-51000J0D01*
G01*
X108795500Y-50481000D01*
G75*
G02*
X108744500Y-50430000I0J51000D01*
G01*
G37*
G36*
G01*
X104934500Y-50303000D02*
X104934500Y-48503000D01*
G75*
G02*
X104985500Y-48452000I51000J0D01*
G01*
X107485500Y-48452000D01*
G75*
G02*
X107536500Y-48503000I0J-51000D01*
G01*
X107536500Y-50303000D01*
G75*
G02*
X107485500Y-50354000I-51000J0D01*
G01*
X104985500Y-50354000D01*
G75*
G02*
X104934500Y-50303000I0J51000D01*
G01*
G37*
G36*
G01*
X100934500Y-50303000D02*
X100934500Y-48503000D01*
G75*
G02*
X100985500Y-48452000I51000J0D01*
G01*
X103485500Y-48452000D01*
G75*
G02*
X103536500Y-48503000I0J-51000D01*
G01*
X103536500Y-50303000D01*
G75*
G02*
X103485500Y-50354000I-51000J0D01*
G01*
X100985500Y-50354000D01*
G75*
G02*
X100934500Y-50303000I0J51000D01*
G01*
G37*
G36*
G01*
X112744500Y-61288500D02*
X112744500Y-59488500D01*
G75*
G02*
X112795500Y-59437500I51000J0D01*
G01*
X115295500Y-59437500D01*
G75*
G02*
X115346500Y-59488500I0J-51000D01*
G01*
X115346500Y-61288500D01*
G75*
G02*
X115295500Y-61339500I-51000J0D01*
G01*
X112795500Y-61339500D01*
G75*
G02*
X112744500Y-61288500I0J51000D01*
G01*
G37*
G36*
G01*
X108744500Y-61288500D02*
X108744500Y-59488500D01*
G75*
G02*
X108795500Y-59437500I51000J0D01*
G01*
X111295500Y-59437500D01*
G75*
G02*
X111346500Y-59488500I0J-51000D01*
G01*
X111346500Y-61288500D01*
G75*
G02*
X111295500Y-61339500I-51000J0D01*
G01*
X108795500Y-61339500D01*
G75*
G02*
X108744500Y-61288500I0J51000D01*
G01*
G37*
G36*
G01*
X105029500Y-61288500D02*
X105029500Y-59488500D01*
G75*
G02*
X105080500Y-59437500I51000J0D01*
G01*
X107580500Y-59437500D01*
G75*
G02*
X107631500Y-59488500I0J-51000D01*
G01*
X107631500Y-61288500D01*
G75*
G02*
X107580500Y-61339500I-51000J0D01*
G01*
X105080500Y-61339500D01*
G75*
G02*
X105029500Y-61288500I0J51000D01*
G01*
G37*
G36*
G01*
X101029500Y-61288500D02*
X101029500Y-59488500D01*
G75*
G02*
X101080500Y-59437500I51000J0D01*
G01*
X103580500Y-59437500D01*
G75*
G02*
X103631500Y-59488500I0J-51000D01*
G01*
X103631500Y-61288500D01*
G75*
G02*
X103580500Y-61339500I-51000J0D01*
G01*
X101080500Y-61339500D01*
G75*
G02*
X101029500Y-61288500I0J51000D01*
G01*
G37*
G36*
G01*
X148500250Y-49385000D02*
X147536750Y-49385000D01*
G75*
G02*
X147267500Y-49115750I0J269250D01*
G01*
X147267500Y-48577250D01*
G75*
G02*
X147536750Y-48308000I269250J0D01*
G01*
X148500250Y-48308000D01*
G75*
G02*
X148769500Y-48577250I0J-269250D01*
G01*
X148769500Y-49115750D01*
G75*
G02*
X148500250Y-49385000I-269250J0D01*
G01*
G37*
G36*
G01*
X148500250Y-51260000D02*
X147536750Y-51260000D01*
G75*
G02*
X147267500Y-50990750I0J269250D01*
G01*
X147267500Y-50452250D01*
G75*
G02*
X147536750Y-50183000I269250J0D01*
G01*
X148500250Y-50183000D01*
G75*
G02*
X148769500Y-50452250I0J-269250D01*
G01*
X148769500Y-50990750D01*
G75*
G02*
X148500250Y-51260000I-269250J0D01*
G01*
G37*
D16*
X121602500Y-83248500D03*
X121602500Y-80748500D03*
X121602500Y-75033500D03*
X121602500Y-77533500D03*
G36*
G01*
X156032113Y-46835500D02*
X155117887Y-46835500D01*
G75*
G02*
X154849000Y-46566613I0J268887D01*
G01*
X154849000Y-45602387D01*
G75*
G02*
X155117887Y-45333500I268887J0D01*
G01*
X156032113Y-45333500D01*
G75*
G02*
X156301000Y-45602387I0J-268887D01*
G01*
X156301000Y-46566613D01*
G75*
G02*
X156032113Y-46835500I-268887J0D01*
G01*
G37*
G36*
G01*
X156032113Y-49535500D02*
X155117887Y-49535500D01*
G75*
G02*
X154849000Y-49266613I0J268887D01*
G01*
X154849000Y-48302387D01*
G75*
G02*
X155117887Y-48033500I268887J0D01*
G01*
X156032113Y-48033500D01*
G75*
G02*
X156301000Y-48302387I0J-268887D01*
G01*
X156301000Y-49266613D01*
G75*
G02*
X156032113Y-49535500I-268887J0D01*
G01*
G37*
G36*
G01*
X153015500Y-56400613D02*
X153015500Y-55486387D01*
G75*
G02*
X153284387Y-55217500I268887J0D01*
G01*
X154248613Y-55217500D01*
G75*
G02*
X154517500Y-55486387I0J-268887D01*
G01*
X154517500Y-56400613D01*
G75*
G02*
X154248613Y-56669500I-268887J0D01*
G01*
X153284387Y-56669500D01*
G75*
G02*
X153015500Y-56400613I0J268887D01*
G01*
G37*
G36*
G01*
X150315500Y-56400613D02*
X150315500Y-55486387D01*
G75*
G02*
X150584387Y-55217500I268887J0D01*
G01*
X151548613Y-55217500D01*
G75*
G02*
X151817500Y-55486387I0J-268887D01*
G01*
X151817500Y-56400613D01*
G75*
G02*
X151548613Y-56669500I-268887J0D01*
G01*
X150584387Y-56669500D01*
G75*
G02*
X150315500Y-56400613I0J268887D01*
G01*
G37*
G36*
G01*
X133491172Y-68970000D02*
X135748828Y-68970000D01*
G75*
G02*
X136021000Y-69242172I0J-272172D01*
G01*
X136021000Y-69949828D01*
G75*
G02*
X135748828Y-70222000I-272172J0D01*
G01*
X133491172Y-70222000D01*
G75*
G02*
X133219000Y-69949828I0J272172D01*
G01*
X133219000Y-69242172D01*
G75*
G02*
X133491172Y-68970000I272172J0D01*
G01*
G37*
G36*
G01*
X133491172Y-66020000D02*
X135748828Y-66020000D01*
G75*
G02*
X136021000Y-66292172I0J-272172D01*
G01*
X136021000Y-66999828D01*
G75*
G02*
X135748828Y-67272000I-272172J0D01*
G01*
X133491172Y-67272000D01*
G75*
G02*
X133219000Y-66999828I0J272172D01*
G01*
X133219000Y-66292172D01*
G75*
G02*
X133491172Y-66020000I272172J0D01*
G01*
G37*
G36*
G01*
X153390500Y-53198828D02*
X153390500Y-50941172D01*
G75*
G02*
X153662672Y-50669000I272172J0D01*
G01*
X154370328Y-50669000D01*
G75*
G02*
X154642500Y-50941172I0J-272172D01*
G01*
X154642500Y-53198828D01*
G75*
G02*
X154370328Y-53471000I-272172J0D01*
G01*
X153662672Y-53471000D01*
G75*
G02*
X153390500Y-53198828I0J272172D01*
G01*
G37*
G36*
G01*
X150440500Y-53198828D02*
X150440500Y-50941172D01*
G75*
G02*
X150712672Y-50669000I272172J0D01*
G01*
X151420328Y-50669000D01*
G75*
G02*
X151692500Y-50941172I0J-272172D01*
G01*
X151692500Y-53198828D01*
G75*
G02*
X151420328Y-53471000I-272172J0D01*
G01*
X150712672Y-53471000D01*
G75*
G02*
X150440500Y-53198828I0J272172D01*
G01*
G37*
G36*
G01*
X147358000Y-79170328D02*
X147358000Y-76912672D01*
G75*
G02*
X147630172Y-76640500I272172J0D01*
G01*
X148337828Y-76640500D01*
G75*
G02*
X148610000Y-76912672I0J-272172D01*
G01*
X148610000Y-79170328D01*
G75*
G02*
X148337828Y-79442500I-272172J0D01*
G01*
X147630172Y-79442500D01*
G75*
G02*
X147358000Y-79170328I0J272172D01*
G01*
G37*
G36*
G01*
X144408000Y-79170328D02*
X144408000Y-76912672D01*
G75*
G02*
X144680172Y-76640500I272172J0D01*
G01*
X145387828Y-76640500D01*
G75*
G02*
X145660000Y-76912672I0J-272172D01*
G01*
X145660000Y-79170328D01*
G75*
G02*
X145387828Y-79442500I-272172J0D01*
G01*
X144680172Y-79442500D01*
G75*
G02*
X144408000Y-79170328I0J272172D01*
G01*
G37*
D17*
G36*
X109287990Y-85032839D02*
G01*
X109290372Y-85057026D01*
X109297372Y-85080101D01*
X109308737Y-85101365D01*
X109324032Y-85120002D01*
X109342669Y-85135297D01*
X109363933Y-85146662D01*
X109387008Y-85153662D01*
X109410999Y-85156025D01*
X109434990Y-85153662D01*
X109458065Y-85146662D01*
X109474088Y-85138098D01*
X109476087Y-85138164D01*
X109477030Y-85139927D01*
X109476142Y-85141525D01*
X109411564Y-85184674D01*
X109314674Y-85281564D01*
X109271525Y-85346142D01*
X109269731Y-85347027D01*
X109268068Y-85345916D01*
X109268098Y-85344088D01*
X109276662Y-85328065D01*
X109283662Y-85304990D01*
X109286025Y-85280999D01*
X109283662Y-85257007D01*
X109276662Y-85233933D01*
X109265297Y-85212669D01*
X109250001Y-85194032D01*
X109231364Y-85178737D01*
X109210101Y-85167372D01*
X109187026Y-85160372D01*
X109162839Y-85157990D01*
X109161213Y-85156825D01*
X109161409Y-85154835D01*
X109163035Y-85154000D01*
X109284000Y-85154000D01*
X109284000Y-85033035D01*
X109285000Y-85031303D01*
X109287000Y-85031303D01*
X109287990Y-85032839D01*
G37*
G36*
X139832232Y-81054000D02*
G01*
X139832500Y-81055000D01*
X139832500Y-82757000D01*
X139831500Y-82758732D01*
X139830500Y-82759000D01*
X139682500Y-82759000D01*
X139680768Y-82758000D01*
X139680500Y-82757000D01*
X139680500Y-81057000D01*
X139032500Y-81057000D01*
X139032500Y-82757000D01*
X139031500Y-82758732D01*
X139030500Y-82759000D01*
X138882500Y-82759000D01*
X138880768Y-82758000D01*
X138880500Y-82757000D01*
X138880500Y-81057000D01*
X138232500Y-81057000D01*
X138232500Y-82757000D01*
X138231500Y-82758732D01*
X138230500Y-82759000D01*
X138082500Y-82759000D01*
X138080768Y-82758000D01*
X138080500Y-82757000D01*
X138080500Y-81057000D01*
X137432500Y-81057000D01*
X137432500Y-82757000D01*
X137431500Y-82758732D01*
X137430500Y-82759000D01*
X137282500Y-82759000D01*
X137280768Y-82758000D01*
X137280500Y-82757000D01*
X137280500Y-81057000D01*
X136632500Y-81057000D01*
X136632500Y-82757000D01*
X136631500Y-82758732D01*
X136630500Y-82759000D01*
X136482500Y-82759000D01*
X136480768Y-82758000D01*
X136480500Y-82757000D01*
X136480500Y-81057000D01*
X135832500Y-81057000D01*
X135832500Y-82757000D01*
X135831500Y-82758732D01*
X135830500Y-82759000D01*
X135682500Y-82759000D01*
X135680768Y-82758000D01*
X135680500Y-82757000D01*
X135680500Y-81057000D01*
X135032500Y-81057000D01*
X135032500Y-82757000D01*
X135031500Y-82758732D01*
X135030500Y-82759000D01*
X134882500Y-82759000D01*
X134880768Y-82758000D01*
X134880500Y-82757000D01*
X134880500Y-81055000D01*
X134881500Y-81053268D01*
X134882500Y-81053000D01*
X139830500Y-81053000D01*
X139832232Y-81054000D01*
G37*
G36*
X133959232Y-79981000D02*
G01*
X133959500Y-79982000D01*
X133959500Y-80130000D01*
X133958500Y-80131732D01*
X133957500Y-80132000D01*
X132255500Y-80132000D01*
X132253768Y-80131000D01*
X132253500Y-80130000D01*
X132253500Y-79982000D01*
X132254500Y-79980268D01*
X132255500Y-79980000D01*
X133957500Y-79980000D01*
X133959232Y-79981000D01*
G37*
G36*
X142459232Y-79981000D02*
G01*
X142459500Y-79982000D01*
X142459500Y-80130000D01*
X142458500Y-80131732D01*
X142457500Y-80132000D01*
X140755500Y-80132000D01*
X140753768Y-80131000D01*
X140753500Y-80130000D01*
X140753500Y-79982000D01*
X140754500Y-79980268D01*
X140755500Y-79980000D01*
X142457500Y-79980000D01*
X142459232Y-79981000D01*
G37*
G36*
X142459232Y-79181000D02*
G01*
X142459500Y-79182000D01*
X142459500Y-79330000D01*
X142458500Y-79331732D01*
X142457500Y-79332000D01*
X140755500Y-79332000D01*
X140753768Y-79331000D01*
X140753500Y-79330000D01*
X140753500Y-79182000D01*
X140754500Y-79180268D01*
X140755500Y-79180000D01*
X142457500Y-79180000D01*
X142459232Y-79181000D01*
G37*
G36*
X133959232Y-79181000D02*
G01*
X133959500Y-79182000D01*
X133959500Y-79330000D01*
X133958500Y-79331732D01*
X133957500Y-79332000D01*
X132255500Y-79332000D01*
X132253768Y-79331000D01*
X132253500Y-79330000D01*
X132253500Y-79182000D01*
X132254500Y-79180268D01*
X132255500Y-79180000D01*
X133957500Y-79180000D01*
X133959232Y-79181000D01*
G37*
G36*
X133959232Y-78381000D02*
G01*
X133959500Y-78382000D01*
X133959500Y-78530000D01*
X133958500Y-78531732D01*
X133957500Y-78532000D01*
X132255500Y-78532000D01*
X132253768Y-78531000D01*
X132253500Y-78530000D01*
X132253500Y-78382000D01*
X132254500Y-78380268D01*
X132255500Y-78380000D01*
X133957500Y-78380000D01*
X133959232Y-78381000D01*
G37*
G36*
X142459232Y-78381000D02*
G01*
X142459500Y-78382000D01*
X142459500Y-78530000D01*
X142458500Y-78531732D01*
X142457500Y-78532000D01*
X140755500Y-78532000D01*
X140753768Y-78531000D01*
X140753500Y-78530000D01*
X140753500Y-78382000D01*
X140754500Y-78380268D01*
X140755500Y-78380000D01*
X142457500Y-78380000D01*
X142459232Y-78381000D01*
G37*
G36*
X133959232Y-77581000D02*
G01*
X133959500Y-77582000D01*
X133959500Y-77730000D01*
X133958500Y-77731732D01*
X133957500Y-77732000D01*
X132255500Y-77732000D01*
X132253768Y-77731000D01*
X132253500Y-77730000D01*
X132253500Y-77582000D01*
X132254500Y-77580268D01*
X132255500Y-77580000D01*
X133957500Y-77580000D01*
X133959232Y-77581000D01*
G37*
G36*
X142459232Y-77581000D02*
G01*
X142459500Y-77582000D01*
X142459500Y-77730000D01*
X142458500Y-77731732D01*
X142457500Y-77732000D01*
X140755500Y-77732000D01*
X140753768Y-77731000D01*
X140753500Y-77730000D01*
X140753500Y-77582000D01*
X140754500Y-77580268D01*
X140755500Y-77580000D01*
X142457500Y-77580000D01*
X142459232Y-77581000D01*
G37*
G36*
X142459232Y-76781000D02*
G01*
X142459500Y-76782000D01*
X142459500Y-76930000D01*
X142458500Y-76931732D01*
X142457500Y-76932000D01*
X140755500Y-76932000D01*
X140753768Y-76931000D01*
X140753500Y-76930000D01*
X140753500Y-76782000D01*
X140754500Y-76780268D01*
X140755500Y-76780000D01*
X142457500Y-76780000D01*
X142459232Y-76781000D01*
G37*
G36*
X133959232Y-76781000D02*
G01*
X133959500Y-76782000D01*
X133959500Y-76930000D01*
X133958500Y-76931732D01*
X133957500Y-76932000D01*
X132255500Y-76932000D01*
X132253768Y-76931000D01*
X132253500Y-76930000D01*
X132253500Y-76782000D01*
X132254500Y-76780268D01*
X132255500Y-76780000D01*
X133957500Y-76780000D01*
X133959232Y-76781000D01*
G37*
G36*
X133959232Y-75981000D02*
G01*
X133959500Y-75982000D01*
X133959500Y-76130000D01*
X133958500Y-76131732D01*
X133957500Y-76132000D01*
X132255500Y-76132000D01*
X132253768Y-76131000D01*
X132253500Y-76130000D01*
X132253500Y-75982000D01*
X132254500Y-75980268D01*
X132255500Y-75980000D01*
X133957500Y-75980000D01*
X133959232Y-75981000D01*
G37*
G36*
X142459232Y-75981000D02*
G01*
X142459500Y-75982000D01*
X142459500Y-76130000D01*
X142458500Y-76131732D01*
X142457500Y-76132000D01*
X140755500Y-76132000D01*
X140753768Y-76131000D01*
X140753500Y-76130000D01*
X140753500Y-75982000D01*
X140754500Y-75980268D01*
X140755500Y-75980000D01*
X142457500Y-75980000D01*
X142459232Y-75981000D01*
G37*
G36*
X133959232Y-75181000D02*
G01*
X133959500Y-75182000D01*
X133959500Y-75330000D01*
X133958500Y-75331732D01*
X133957500Y-75332000D01*
X132255500Y-75332000D01*
X132253768Y-75331000D01*
X132253500Y-75330000D01*
X132253500Y-75182000D01*
X132254500Y-75180268D01*
X132255500Y-75180000D01*
X133957500Y-75180000D01*
X133959232Y-75181000D01*
G37*
G36*
X142459232Y-75181000D02*
G01*
X142459500Y-75182000D01*
X142459500Y-75330000D01*
X142458500Y-75331732D01*
X142457500Y-75332000D01*
X140755500Y-75332000D01*
X140753768Y-75331000D01*
X140753500Y-75330000D01*
X140753500Y-75182000D01*
X140754500Y-75180268D01*
X140755500Y-75180000D01*
X142457500Y-75180000D01*
X142459232Y-75181000D01*
G37*
G36*
X139832232Y-72554000D02*
G01*
X139832500Y-72555000D01*
X139832500Y-74257000D01*
X139831500Y-74258732D01*
X139830500Y-74259000D01*
X139682500Y-74259000D01*
X139680768Y-74258000D01*
X139680500Y-74257000D01*
X139680500Y-72557000D01*
X139032500Y-72557000D01*
X139032500Y-74257000D01*
X139031500Y-74258732D01*
X139030500Y-74259000D01*
X138882500Y-74259000D01*
X138880768Y-74258000D01*
X138880500Y-74257000D01*
X138880500Y-72557000D01*
X138232500Y-72557000D01*
X138232500Y-74257000D01*
X138231500Y-74258732D01*
X138230500Y-74259000D01*
X138082500Y-74259000D01*
X138080768Y-74258000D01*
X138080500Y-74257000D01*
X138080500Y-72557000D01*
X137432500Y-72557000D01*
X137432500Y-74257000D01*
X137431500Y-74258732D01*
X137430500Y-74259000D01*
X137282500Y-74259000D01*
X137280768Y-74258000D01*
X137280500Y-74257000D01*
X137280500Y-72557000D01*
X136632500Y-72557000D01*
X136632500Y-74257000D01*
X136631500Y-74258732D01*
X136630500Y-74259000D01*
X136482500Y-74259000D01*
X136480768Y-74258000D01*
X136480500Y-74257000D01*
X136480500Y-72557000D01*
X135832500Y-72557000D01*
X135832500Y-74257000D01*
X135831500Y-74258732D01*
X135830500Y-74259000D01*
X135682500Y-74259000D01*
X135680768Y-74258000D01*
X135680500Y-74257000D01*
X135680500Y-72557000D01*
X135032500Y-72557000D01*
X135032500Y-74257000D01*
X135031500Y-74258732D01*
X135030500Y-74259000D01*
X134882500Y-74259000D01*
X134880768Y-74258000D01*
X134880500Y-74257000D01*
X134880500Y-72555000D01*
X134881500Y-72553268D01*
X134882500Y-72553000D01*
X139830500Y-72553000D01*
X139832232Y-72554000D01*
G37*
G36*
X153828732Y-48254000D02*
G01*
X153829000Y-48255000D01*
X153829000Y-48453000D01*
X153828000Y-48454732D01*
X153827000Y-48455000D01*
X152665000Y-48455000D01*
X152663268Y-48454000D01*
X152663000Y-48453000D01*
X152663000Y-48255000D01*
X152664000Y-48253268D01*
X152665000Y-48253000D01*
X153827000Y-48253000D01*
X153828732Y-48254000D01*
G37*
G36*
X153828732Y-47304000D02*
G01*
X153829000Y-47305000D01*
X153829000Y-47503000D01*
X153828000Y-47504732D01*
X153827000Y-47505000D01*
X152665000Y-47505000D01*
X152663268Y-47504000D01*
X152663000Y-47503000D01*
X152663000Y-47305000D01*
X152664000Y-47303268D01*
X152665000Y-47303000D01*
X153827000Y-47303000D01*
X153828732Y-47304000D01*
G37*
M02*
