%TF.GenerationSoftware,KiCad,Pcbnew,5.1.7-a382d34a8~87~ubuntu20.04.1*%
%TF.CreationDate,2020-10-25T18:28:44+01:00*%
%TF.ProjectId,H_Bridge,485f4272-6964-4676-952e-6b696361645f,rev?*%
%TF.SameCoordinates,Original*%
%TF.FileFunction,Copper,L1,Top*%
%TF.FilePolarity,Positive*%
%FSLAX46Y46*%
G04 Gerber Fmt 4.6, Leading zero omitted, Abs format (unit mm)*
G04 Created by KiCad (PCBNEW 5.1.7-a382d34a8~87~ubuntu20.04.1) date 2020-10-25 18:28:44*
%MOMM*%
%LPD*%
G01*
G04 APERTURE LIST*
%TA.AperFunction,ComponentPad*%
%ADD10O,1.700000X1.700000*%
%TD*%
%TA.AperFunction,ComponentPad*%
%ADD11R,1.700000X1.700000*%
%TD*%
%TA.AperFunction,ComponentPad*%
%ADD12C,1.600000*%
%TD*%
%TA.AperFunction,ComponentPad*%
%ADD13R,1.600000X1.600000*%
%TD*%
%TA.AperFunction,SMDPad,CuDef*%
%ADD14R,1.200000X0.400000*%
%TD*%
%TA.AperFunction,ComponentPad*%
%ADD15R,1.050000X1.500000*%
%TD*%
%TA.AperFunction,ComponentPad*%
%ADD16O,1.050000X1.500000*%
%TD*%
%TA.AperFunction,SMDPad,CuDef*%
%ADD17R,0.900000X0.800000*%
%TD*%
%TA.AperFunction,SMDPad,CuDef*%
%ADD18R,2.500000X1.800000*%
%TD*%
%TA.AperFunction,Conductor*%
%ADD19C,0.400000*%
%TD*%
%TA.AperFunction,Conductor*%
%ADD20C,0.600000*%
%TD*%
%TA.AperFunction,Conductor*%
%ADD21C,0.250000*%
%TD*%
%TA.AperFunction,Conductor*%
%ADD22C,0.254000*%
%TD*%
%TA.AperFunction,Conductor*%
%ADD23C,0.100000*%
%TD*%
G04 APERTURE END LIST*
D10*
%TO.P,J2,2*%
%TO.N,Dir*%
X176403000Y-97028000D03*
D11*
%TO.P,J2,1*%
%TO.N,En*%
X176403000Y-99568000D03*
%TD*%
D10*
%TO.P,J4,3*%
%TO.N,+5V*%
X172910500Y-110299500D03*
%TO.P,J4,2*%
%TO.N,+12V*%
X172910500Y-107759500D03*
D11*
%TO.P,J4,1*%
%TO.N,GND*%
X172910500Y-105219500D03*
%TD*%
D10*
%TO.P,J1,2*%
%TO.N,Net-(C2-Pad1)*%
X148590000Y-97917000D03*
D11*
%TO.P,J1,1*%
%TO.N,Net-(C2-Pad2)*%
X148590000Y-95377000D03*
%TD*%
%TO.P,C2,2*%
%TO.N,Net-(C2-Pad2)*%
%TA.AperFunction,SMDPad,CuDef*%
G36*
G01*
X144175500Y-96199500D02*
X143225500Y-96199500D01*
G75*
G02*
X142975500Y-95949500I0J250000D01*
G01*
X142975500Y-95449500D01*
G75*
G02*
X143225500Y-95199500I250000J0D01*
G01*
X144175500Y-95199500D01*
G75*
G02*
X144425500Y-95449500I0J-250000D01*
G01*
X144425500Y-95949500D01*
G75*
G02*
X144175500Y-96199500I-250000J0D01*
G01*
G37*
%TD.AperFunction*%
%TO.P,C2,1*%
%TO.N,Net-(C2-Pad1)*%
%TA.AperFunction,SMDPad,CuDef*%
G36*
G01*
X144175500Y-98099500D02*
X143225500Y-98099500D01*
G75*
G02*
X142975500Y-97849500I0J250000D01*
G01*
X142975500Y-97349500D01*
G75*
G02*
X143225500Y-97099500I250000J0D01*
G01*
X144175500Y-97099500D01*
G75*
G02*
X144425500Y-97349500I0J-250000D01*
G01*
X144425500Y-97849500D01*
G75*
G02*
X144175500Y-98099500I-250000J0D01*
G01*
G37*
%TD.AperFunction*%
%TD*%
D12*
%TO.P,C1,2*%
%TO.N,GND*%
X137818500Y-96774000D03*
D13*
%TO.P,C1,1*%
%TO.N,+12V*%
X135318500Y-96774000D03*
%TD*%
%TO.P,R5,2*%
%TO.N,Net-(J3-Pad5)*%
%TA.AperFunction,SMDPad,CuDef*%
G36*
G01*
X172329001Y-94032500D02*
X171078999Y-94032500D01*
G75*
G02*
X170829000Y-93782501I0J249999D01*
G01*
X170829000Y-93157499D01*
G75*
G02*
X171078999Y-92907500I249999J0D01*
G01*
X172329001Y-92907500D01*
G75*
G02*
X172579000Y-93157499I0J-249999D01*
G01*
X172579000Y-93782501D01*
G75*
G02*
X172329001Y-94032500I-249999J0D01*
G01*
G37*
%TD.AperFunction*%
%TO.P,R5,1*%
%TO.N,Dir*%
%TA.AperFunction,SMDPad,CuDef*%
G36*
G01*
X172329001Y-96957500D02*
X171078999Y-96957500D01*
G75*
G02*
X170829000Y-96707501I0J249999D01*
G01*
X170829000Y-96082499D01*
G75*
G02*
X171078999Y-95832500I249999J0D01*
G01*
X172329001Y-95832500D01*
G75*
G02*
X172579000Y-96082499I0J-249999D01*
G01*
X172579000Y-96707501D01*
G75*
G02*
X172329001Y-96957500I-249999J0D01*
G01*
G37*
%TD.AperFunction*%
%TD*%
D14*
%TO.P,J3,14*%
%TO.N,+5V*%
X168254000Y-89389500D03*
%TO.P,J3,13*%
%TO.N,Net-(J3-Pad12)*%
X168254000Y-88739500D03*
%TO.P,J3,12*%
X168254000Y-88089500D03*
%TO.P,J3,11*%
%TO.N,Gate2*%
X168254000Y-87439500D03*
%TO.P,J3,10*%
%TO.N,Gate1*%
X168254000Y-86789500D03*
%TO.P,J3,9*%
%TO.N,Net-(J3-Pad5)*%
X168254000Y-86139500D03*
%TO.P,J3,8*%
X168254000Y-85489500D03*
%TO.P,J3,7*%
%TO.N,GND*%
X175154000Y-85489500D03*
%TO.P,J3,6*%
%TO.N,Net-(J3-Pad5)*%
X175154000Y-86139500D03*
%TO.P,J3,5*%
X175154000Y-86789500D03*
%TO.P,J3,4*%
%TO.N,Net-(J3-Pad12)*%
X175154000Y-87439500D03*
%TO.P,J3,3*%
%TO.N,Net-(J3-Pad3)*%
X175154000Y-88089500D03*
%TO.P,J3,2*%
%TO.N,Net-(J3-Pad2)*%
X175154000Y-88739500D03*
%TO.P,J3,1*%
%TO.N,Net-(J3-Pad1)*%
X175154000Y-89389500D03*
%TD*%
%TO.P,R4,2*%
%TO.N,GND*%
%TA.AperFunction,SMDPad,CuDef*%
G36*
G01*
X165725001Y-95556500D02*
X164474999Y-95556500D01*
G75*
G02*
X164225000Y-95306501I0J249999D01*
G01*
X164225000Y-94681499D01*
G75*
G02*
X164474999Y-94431500I249999J0D01*
G01*
X165725001Y-94431500D01*
G75*
G02*
X165975000Y-94681499I0J-249999D01*
G01*
X165975000Y-95306501D01*
G75*
G02*
X165725001Y-95556500I-249999J0D01*
G01*
G37*
%TD.AperFunction*%
%TO.P,R4,1*%
%TO.N,Net-(Q5-Pad1)*%
%TA.AperFunction,SMDPad,CuDef*%
G36*
G01*
X165725001Y-98481500D02*
X164474999Y-98481500D01*
G75*
G02*
X164225000Y-98231501I0J249999D01*
G01*
X164225000Y-97606499D01*
G75*
G02*
X164474999Y-97356500I249999J0D01*
G01*
X165725001Y-97356500D01*
G75*
G02*
X165975000Y-97606499I0J-249999D01*
G01*
X165975000Y-98231501D01*
G75*
G02*
X165725001Y-98481500I-249999J0D01*
G01*
G37*
%TD.AperFunction*%
%TD*%
%TO.P,R3,2*%
%TO.N,Net-(Q8-Pad2)*%
%TA.AperFunction,SMDPad,CuDef*%
G36*
G01*
X167758000Y-101228999D02*
X167758000Y-102479001D01*
G75*
G02*
X167508001Y-102729000I-249999J0D01*
G01*
X166882999Y-102729000D01*
G75*
G02*
X166633000Y-102479001I0J249999D01*
G01*
X166633000Y-101228999D01*
G75*
G02*
X166882999Y-100979000I249999J0D01*
G01*
X167508001Y-100979000D01*
G75*
G02*
X167758000Y-101228999I0J-249999D01*
G01*
G37*
%TD.AperFunction*%
%TO.P,R3,1*%
%TO.N,En*%
%TA.AperFunction,SMDPad,CuDef*%
G36*
G01*
X170683000Y-101228999D02*
X170683000Y-102479001D01*
G75*
G02*
X170433001Y-102729000I-249999J0D01*
G01*
X169807999Y-102729000D01*
G75*
G02*
X169558000Y-102479001I0J249999D01*
G01*
X169558000Y-101228999D01*
G75*
G02*
X169807999Y-100979000I249999J0D01*
G01*
X170433001Y-100979000D01*
G75*
G02*
X170683000Y-101228999I0J-249999D01*
G01*
G37*
%TD.AperFunction*%
%TD*%
%TO.P,R2,2*%
%TO.N,Net-(Q3-Pad1)*%
%TA.AperFunction,SMDPad,CuDef*%
G36*
G01*
X139901500Y-108765501D02*
X139901500Y-107515499D01*
G75*
G02*
X140151499Y-107265500I249999J0D01*
G01*
X140776501Y-107265500D01*
G75*
G02*
X141026500Y-107515499I0J-249999D01*
G01*
X141026500Y-108765501D01*
G75*
G02*
X140776501Y-109015500I-249999J0D01*
G01*
X140151499Y-109015500D01*
G75*
G02*
X139901500Y-108765501I0J249999D01*
G01*
G37*
%TD.AperFunction*%
%TO.P,R2,1*%
%TO.N,+12V*%
%TA.AperFunction,SMDPad,CuDef*%
G36*
G01*
X136976500Y-108765501D02*
X136976500Y-107515499D01*
G75*
G02*
X137226499Y-107265500I249999J0D01*
G01*
X137851501Y-107265500D01*
G75*
G02*
X138101500Y-107515499I0J-249999D01*
G01*
X138101500Y-108765501D01*
G75*
G02*
X137851501Y-109015500I-249999J0D01*
G01*
X137226499Y-109015500D01*
G75*
G02*
X136976500Y-108765501I0J249999D01*
G01*
G37*
%TD.AperFunction*%
%TD*%
%TO.P,R1,2*%
%TO.N,Net-(Q1-Pad1)*%
%TA.AperFunction,SMDPad,CuDef*%
G36*
G01*
X140219000Y-83873501D02*
X140219000Y-82623499D01*
G75*
G02*
X140468999Y-82373500I249999J0D01*
G01*
X141094001Y-82373500D01*
G75*
G02*
X141344000Y-82623499I0J-249999D01*
G01*
X141344000Y-83873501D01*
G75*
G02*
X141094001Y-84123500I-249999J0D01*
G01*
X140468999Y-84123500D01*
G75*
G02*
X140219000Y-83873501I0J249999D01*
G01*
G37*
%TD.AperFunction*%
%TO.P,R1,1*%
%TO.N,+12V*%
%TA.AperFunction,SMDPad,CuDef*%
G36*
G01*
X137294000Y-83873501D02*
X137294000Y-82623499D01*
G75*
G02*
X137543999Y-82373500I249999J0D01*
G01*
X138169001Y-82373500D01*
G75*
G02*
X138419000Y-82623499I0J-249999D01*
G01*
X138419000Y-83873501D01*
G75*
G02*
X138169001Y-84123500I-249999J0D01*
G01*
X137543999Y-84123500D01*
G75*
G02*
X137294000Y-83873501I0J249999D01*
G01*
G37*
%TD.AperFunction*%
%TD*%
D15*
%TO.P,Q8,1*%
%TO.N,Net-(Q5-Pad1)*%
X161480500Y-102743000D03*
D16*
%TO.P,Q8,3*%
%TO.N,+12V*%
X164020500Y-102743000D03*
%TO.P,Q8,2*%
%TO.N,Net-(Q8-Pad2)*%
X162750500Y-102743000D03*
%TD*%
D15*
%TO.P,Q7,1*%
%TO.N,GND*%
X163830000Y-109664500D03*
D16*
%TO.P,Q7,3*%
%TO.N,Net-(Q3-Pad1)*%
X161290000Y-109664500D03*
%TO.P,Q7,2*%
%TO.N,Gate2*%
X162560000Y-109664500D03*
%TD*%
D15*
%TO.P,Q6,1*%
%TO.N,GND*%
X164338000Y-85915500D03*
D16*
%TO.P,Q6,3*%
%TO.N,Net-(Q1-Pad1)*%
X161798000Y-85915500D03*
%TO.P,Q6,2*%
%TO.N,Gate1*%
X163068000Y-85915500D03*
%TD*%
D17*
%TO.P,Q5,3*%
%TO.N,Net-(D2-Pad2)*%
X159337500Y-96647000D03*
%TO.P,Q5,2*%
%TO.N,GND*%
X161337500Y-95697000D03*
%TO.P,Q5,1*%
%TO.N,Net-(Q5-Pad1)*%
X161337500Y-97597000D03*
%TD*%
%TO.P,Q4,3*%
%TO.N,Net-(C2-Pad1)*%
X151527000Y-110045500D03*
%TO.P,Q4,2*%
%TO.N,Net-(D2-Pad2)*%
X153527000Y-109095500D03*
%TO.P,Q4,1*%
%TO.N,Net-(Q3-Pad1)*%
X153527000Y-110995500D03*
%TD*%
%TO.P,Q3,3*%
%TO.N,+12V*%
X145066000Y-110111500D03*
%TO.P,Q3,2*%
%TO.N,Net-(C2-Pad1)*%
X147066000Y-109161500D03*
%TO.P,Q3,1*%
%TO.N,Net-(Q3-Pad1)*%
X147066000Y-111061500D03*
%TD*%
%TO.P,Q2,3*%
%TO.N,Net-(C2-Pad2)*%
X153781000Y-84201000D03*
%TO.P,Q2,2*%
%TO.N,Net-(D2-Pad2)*%
X151781000Y-85151000D03*
%TO.P,Q2,1*%
%TO.N,Net-(Q1-Pad1)*%
X151781000Y-83251000D03*
%TD*%
%TO.P,Q1,3*%
%TO.N,+12V*%
X147050000Y-84201000D03*
%TO.P,Q1,2*%
%TO.N,Net-(C2-Pad2)*%
X145050000Y-85151000D03*
%TO.P,Q1,1*%
%TO.N,Net-(Q1-Pad1)*%
X145050000Y-83251000D03*
%TD*%
D18*
%TO.P,D4,2*%
%TO.N,Net-(D2-Pad2)*%
X155638500Y-102870000D03*
%TO.P,D4,1*%
%TO.N,Net-(C2-Pad1)*%
X151638500Y-102870000D03*
%TD*%
%TO.P,D3,2*%
%TO.N,Net-(C2-Pad1)*%
X145129000Y-102933500D03*
%TO.P,D3,1*%
%TO.N,+12V*%
X141129000Y-102933500D03*
%TD*%
%TO.P,D2,2*%
%TO.N,Net-(D2-Pad2)*%
X155797000Y-90741500D03*
%TO.P,D2,1*%
%TO.N,Net-(C2-Pad2)*%
X151797000Y-90741500D03*
%TD*%
%TO.P,D1,2*%
%TO.N,Net-(C2-Pad2)*%
X145129000Y-90741500D03*
%TO.P,D1,1*%
%TO.N,+12V*%
X141129000Y-90741500D03*
%TD*%
D19*
%TO.N,GND*%
X164397000Y-95697000D02*
X165100000Y-94994000D01*
X161337500Y-95697000D02*
X164397000Y-95697000D01*
X164338000Y-94232000D02*
X165100000Y-94994000D01*
X164338000Y-85915500D02*
X164338000Y-94232000D01*
X172910500Y-105219500D02*
X173672500Y-105219500D01*
X173672500Y-105219500D02*
X175577500Y-107124500D01*
X175577500Y-109482502D02*
X175641000Y-109546002D01*
X175577500Y-107124500D02*
X175577500Y-109482502D01*
X175641000Y-109546002D02*
X175641000Y-110617000D01*
X175641000Y-110617000D02*
X173545500Y-112712500D01*
X166878000Y-112712500D02*
X163830000Y-109664500D01*
X173545500Y-112712500D02*
X166878000Y-112712500D01*
X178435000Y-104267000D02*
X175577500Y-107124500D01*
X178435000Y-87770500D02*
X178435000Y-104267000D01*
X176154000Y-85489500D02*
X178435000Y-87770500D01*
X175154000Y-85489500D02*
X176154000Y-85489500D01*
%TO.N,+12V*%
X141129000Y-104550500D02*
X137539000Y-108140500D01*
X141129000Y-102933500D02*
X141129000Y-104550500D01*
X137856500Y-87469000D02*
X141129000Y-90741500D01*
X137856500Y-83248500D02*
X137856500Y-87469000D01*
D20*
X141129000Y-90741500D02*
X141129000Y-102933500D01*
X141129000Y-102933500D02*
X142986250Y-104790750D01*
D19*
X145066000Y-106870500D02*
X142986250Y-104790750D01*
D20*
X145066000Y-106870500D02*
X141129000Y-102933500D01*
X145066000Y-110111500D02*
X145066000Y-106870500D01*
X141129000Y-87321998D02*
X141129000Y-90741500D01*
X144249998Y-84201000D02*
X141129000Y-87321998D01*
X147050000Y-84201000D02*
X144249998Y-84201000D01*
D19*
%TO.N,Net-(C2-Pad2)*%
X145113500Y-90726000D02*
X145129000Y-90741500D01*
X145097500Y-90773000D02*
X145129000Y-90741500D01*
D20*
X143700500Y-92170000D02*
X145129000Y-90741500D01*
X143700500Y-95699500D02*
X143700500Y-92170000D01*
X148267500Y-95699500D02*
X148590000Y-95377000D01*
X143700500Y-95699500D02*
X148267500Y-95699500D01*
X145129000Y-90741500D02*
X151797000Y-90741500D01*
X145129000Y-85230000D02*
X145050000Y-85151000D01*
X145129000Y-90741500D02*
X145129000Y-85230000D01*
X150980998Y-84201000D02*
X153781000Y-84201000D01*
X150030998Y-85151000D02*
X150980998Y-84201000D01*
X145050000Y-85151000D02*
X150030998Y-85151000D01*
%TO.N,Net-(C2-Pad1)*%
X148272500Y-97599500D02*
X148590000Y-97917000D01*
X143700500Y-97599500D02*
X148272500Y-97599500D01*
X143700500Y-101505000D02*
X145129000Y-102933500D01*
X143700500Y-97599500D02*
X143700500Y-101505000D01*
X151575000Y-102933500D02*
X151638500Y-102870000D01*
X145129000Y-102933500D02*
X151575000Y-102933500D01*
X151638500Y-109934000D02*
X151527000Y-110045500D01*
X151638500Y-102870000D02*
X151638500Y-109934000D01*
X150643000Y-109161500D02*
X151527000Y-110045500D01*
X147066000Y-109161500D02*
X150643000Y-109161500D01*
%TO.N,Net-(D2-Pad2)*%
X155797000Y-89167000D02*
X151781000Y-85151000D01*
X155797000Y-90741500D02*
X155797000Y-89167000D01*
X155638500Y-106984000D02*
X153527000Y-109095500D01*
X155638500Y-102870000D02*
X155638500Y-106984000D01*
X159337500Y-94282000D02*
X155797000Y-90741500D01*
X159337500Y-96647000D02*
X159337500Y-94282000D01*
X159337500Y-99171000D02*
X155638500Y-102870000D01*
X159337500Y-96647000D02*
X159337500Y-99171000D01*
X155797000Y-102711500D02*
X155638500Y-102870000D01*
D19*
%TO.N,Dir*%
X175770000Y-96395000D02*
X176403000Y-97028000D01*
X171704000Y-96395000D02*
X175770000Y-96395000D01*
%TO.N,En*%
X174117000Y-101854000D02*
X176403000Y-99568000D01*
X170309000Y-101854000D02*
X174117000Y-101854000D01*
D21*
%TO.N,Net-(Q1-Pad1)*%
X145619000Y-83248500D02*
X145621500Y-83251000D01*
D19*
X145791000Y-83248500D02*
X145796000Y-83253500D01*
X151781000Y-83251000D02*
X145050000Y-83251000D01*
X140784000Y-83251000D02*
X140781500Y-83248500D01*
X145050000Y-83251000D02*
X140784000Y-83251000D01*
X151930999Y-83400999D02*
X151781000Y-83251000D01*
X159283499Y-83400999D02*
X151930999Y-83400999D01*
X161798000Y-85915500D02*
X159283499Y-83400999D01*
%TO.N,Net-(Q3-Pad1)*%
X147132000Y-110995500D02*
X147066000Y-111061500D01*
X153527000Y-110995500D02*
X147132000Y-110995500D01*
X143385000Y-111061500D02*
X140464000Y-108140500D01*
X147066000Y-111061500D02*
X143385000Y-111061500D01*
X154858000Y-109664500D02*
X153527000Y-110995500D01*
X161290000Y-109664500D02*
X154858000Y-109664500D01*
%TO.N,Net-(Q5-Pad1)*%
X161480500Y-97740000D02*
X161337500Y-97597000D01*
X161480500Y-102743000D02*
X161480500Y-97740000D01*
X164778000Y-97597000D02*
X165100000Y-97919000D01*
X161337500Y-97597000D02*
X164778000Y-97597000D01*
%TO.N,Gate1*%
X167254000Y-86789500D02*
X165989000Y-85524500D01*
X168254000Y-86789500D02*
X167254000Y-86789500D01*
X165989000Y-85524500D02*
X165989000Y-84582000D01*
X165989000Y-84582000D02*
X165227000Y-83820000D01*
X165227000Y-83820000D02*
X163703000Y-83820000D01*
X163068000Y-84455000D02*
X163068000Y-85915500D01*
X163703000Y-83820000D02*
X163068000Y-84455000D01*
%TO.N,Gate2*%
X167253999Y-87569499D02*
X167383998Y-87439500D01*
X167383998Y-87439500D02*
X168254000Y-87439500D01*
X167253999Y-96705499D02*
X167253999Y-87569499D01*
X164712000Y-106362500D02*
X167640000Y-106362500D01*
X162560000Y-108514500D02*
X164712000Y-106362500D01*
X162560000Y-109664500D02*
X162560000Y-108514500D01*
X168346510Y-97798010D02*
X167253999Y-96705499D01*
X168346510Y-105655990D02*
X168346510Y-97798010D01*
X167640000Y-106362500D02*
X168346510Y-105655990D01*
%TO.N,Net-(Q8-Pad2)*%
X167322500Y-101915500D02*
X167384000Y-101854000D01*
X162750510Y-101592990D02*
X166932490Y-101592990D01*
X162750500Y-101593000D02*
X162750510Y-101592990D01*
X162750500Y-102743000D02*
X162750500Y-101593000D01*
%TO.N,+5V*%
X168973500Y-97576458D02*
X168973500Y-106362500D01*
X168973500Y-106362500D02*
X171132500Y-108521500D01*
X168254000Y-96856958D02*
X168973500Y-97576458D01*
X171132500Y-108521500D02*
X172910500Y-110299500D01*
X168254000Y-89389500D02*
X168254000Y-96856958D01*
%TO.N,Net-(J3-Pad12)*%
X168254000Y-88089500D02*
X168254000Y-88739500D01*
X174283998Y-87439500D02*
X175154000Y-87439500D01*
X173633998Y-88089500D02*
X174283998Y-87439500D01*
X168254000Y-88089500D02*
X173633998Y-88089500D01*
%TO.N,Net-(J3-Pad5)*%
X168254000Y-85489500D02*
X168254000Y-86139500D01*
X168254000Y-86139500D02*
X175154000Y-86139500D01*
X175154000Y-86139500D02*
X175154000Y-86789500D01*
X176154001Y-86919499D02*
X176154001Y-92071999D01*
X176024002Y-86789500D02*
X176154001Y-86919499D01*
X175154000Y-86789500D02*
X176024002Y-86789500D01*
X173102001Y-92071999D02*
X171704000Y-93470000D01*
X176154001Y-92071999D02*
X173102001Y-92071999D01*
%TD*%
D22*
%TO.N,GND*%
X179340001Y-114340000D02*
X130660000Y-114340000D01*
X130660000Y-107515499D01*
X136338428Y-107515499D01*
X136338428Y-108765501D01*
X136355492Y-108938755D01*
X136406028Y-109105351D01*
X136488095Y-109258887D01*
X136598538Y-109393462D01*
X136733113Y-109503905D01*
X136886649Y-109585972D01*
X137053245Y-109636508D01*
X137226499Y-109653572D01*
X137851501Y-109653572D01*
X138024755Y-109636508D01*
X138191351Y-109585972D01*
X138344887Y-109503905D01*
X138479462Y-109393462D01*
X138589905Y-109258887D01*
X138671972Y-109105351D01*
X138722508Y-108938755D01*
X138739572Y-108765501D01*
X138739572Y-108120795D01*
X139263428Y-107596940D01*
X139263428Y-108765501D01*
X139280492Y-108938755D01*
X139331028Y-109105351D01*
X139413095Y-109258887D01*
X139523538Y-109393462D01*
X139658113Y-109503905D01*
X139811649Y-109585972D01*
X139978245Y-109636508D01*
X140151499Y-109653572D01*
X140776501Y-109653572D01*
X140794438Y-109651805D01*
X142765563Y-111622932D01*
X142791709Y-111654791D01*
X142823568Y-111680937D01*
X142823570Y-111680939D01*
X142918854Y-111759136D01*
X143063913Y-111836672D01*
X143221311Y-111884418D01*
X143385000Y-111900540D01*
X143426018Y-111896500D01*
X146151532Y-111896500D01*
X146164815Y-111912685D01*
X146261506Y-111992037D01*
X146371820Y-112051002D01*
X146491518Y-112087312D01*
X146616000Y-112099572D01*
X147516000Y-112099572D01*
X147640482Y-112087312D01*
X147760180Y-112051002D01*
X147870494Y-111992037D01*
X147967185Y-111912685D01*
X148034632Y-111830500D01*
X152612532Y-111830500D01*
X152625815Y-111846685D01*
X152722506Y-111926037D01*
X152832820Y-111985002D01*
X152952518Y-112021312D01*
X153077000Y-112033572D01*
X153977000Y-112033572D01*
X154101482Y-112021312D01*
X154221180Y-111985002D01*
X154331494Y-111926037D01*
X154428185Y-111846685D01*
X154507537Y-111749994D01*
X154566502Y-111639680D01*
X154602812Y-111519982D01*
X154615072Y-111395500D01*
X154615072Y-111088295D01*
X155203868Y-110499500D01*
X160300743Y-110499500D01*
X160320829Y-110537078D01*
X160465788Y-110713712D01*
X160642421Y-110858671D01*
X160843940Y-110966385D01*
X161062600Y-111032715D01*
X161290000Y-111055112D01*
X161517399Y-111032715D01*
X161736059Y-110966385D01*
X161925000Y-110865394D01*
X162113940Y-110966385D01*
X162332600Y-111032715D01*
X162560000Y-111055112D01*
X162787399Y-111032715D01*
X162996098Y-110969407D01*
X163060820Y-111004002D01*
X163180518Y-111040312D01*
X163305000Y-111052572D01*
X163544250Y-111049500D01*
X163703000Y-110890750D01*
X163703000Y-110117609D01*
X163703215Y-110116900D01*
X163720000Y-109946479D01*
X163720000Y-109791500D01*
X163957000Y-109791500D01*
X163957000Y-110890750D01*
X164115750Y-111049500D01*
X164355000Y-111052572D01*
X164479482Y-111040312D01*
X164599180Y-111004002D01*
X164709494Y-110945037D01*
X164806185Y-110865685D01*
X164885537Y-110768994D01*
X164944502Y-110658680D01*
X164980812Y-110538982D01*
X164993072Y-110414500D01*
X164990000Y-109950250D01*
X164831250Y-109791500D01*
X163957000Y-109791500D01*
X163720000Y-109791500D01*
X163720000Y-109517500D01*
X163957000Y-109517500D01*
X163957000Y-109537500D01*
X164831250Y-109537500D01*
X164990000Y-109378750D01*
X164993072Y-108914500D01*
X164980812Y-108790018D01*
X164944502Y-108670320D01*
X164885537Y-108560006D01*
X164806185Y-108463315D01*
X164709494Y-108383963D01*
X164599180Y-108324998D01*
X164479482Y-108288688D01*
X164355000Y-108276428D01*
X164115750Y-108279500D01*
X163957002Y-108438248D01*
X163957002Y-108298366D01*
X165057869Y-107197500D01*
X167598982Y-107197500D01*
X167640000Y-107201540D01*
X167681018Y-107197500D01*
X167681019Y-107197500D01*
X167803689Y-107185418D01*
X167961087Y-107137672D01*
X168106146Y-107060136D01*
X168233291Y-106955791D01*
X168259446Y-106923922D01*
X168311410Y-106871957D01*
X168380210Y-106955791D01*
X168412074Y-106981941D01*
X170571070Y-109140938D01*
X170571075Y-109140942D01*
X171451693Y-110021561D01*
X171425500Y-110153240D01*
X171425500Y-110445760D01*
X171482568Y-110732658D01*
X171594510Y-111002911D01*
X171757025Y-111246132D01*
X171963868Y-111452975D01*
X172207089Y-111615490D01*
X172477342Y-111727432D01*
X172764240Y-111784500D01*
X173056760Y-111784500D01*
X173343658Y-111727432D01*
X173613911Y-111615490D01*
X173857132Y-111452975D01*
X174063975Y-111246132D01*
X174226490Y-111002911D01*
X174338432Y-110732658D01*
X174395500Y-110445760D01*
X174395500Y-110153240D01*
X174338432Y-109866342D01*
X174226490Y-109596089D01*
X174063975Y-109352868D01*
X173857132Y-109146025D01*
X173682740Y-109029500D01*
X173857132Y-108912975D01*
X174063975Y-108706132D01*
X174226490Y-108462911D01*
X174338432Y-108192658D01*
X174395500Y-107905760D01*
X174395500Y-107613240D01*
X174338432Y-107326342D01*
X174226490Y-107056089D01*
X174063975Y-106812868D01*
X173932120Y-106681013D01*
X174004680Y-106659002D01*
X174114994Y-106600037D01*
X174211685Y-106520685D01*
X174291037Y-106423994D01*
X174350002Y-106313680D01*
X174386312Y-106193982D01*
X174398572Y-106069500D01*
X174395500Y-105505250D01*
X174236750Y-105346500D01*
X173037500Y-105346500D01*
X173037500Y-105366500D01*
X172783500Y-105366500D01*
X172783500Y-105346500D01*
X171584250Y-105346500D01*
X171425500Y-105505250D01*
X171422428Y-106069500D01*
X171434688Y-106193982D01*
X171470998Y-106313680D01*
X171529963Y-106423994D01*
X171609315Y-106520685D01*
X171706006Y-106600037D01*
X171816320Y-106659002D01*
X171888880Y-106681013D01*
X171757025Y-106812868D01*
X171594510Y-107056089D01*
X171482568Y-107326342D01*
X171425500Y-107613240D01*
X171425500Y-107633632D01*
X169808500Y-106016633D01*
X169808500Y-104369500D01*
X171422428Y-104369500D01*
X171425500Y-104933750D01*
X171584250Y-105092500D01*
X172783500Y-105092500D01*
X172783500Y-103893250D01*
X173037500Y-103893250D01*
X173037500Y-105092500D01*
X174236750Y-105092500D01*
X174395500Y-104933750D01*
X174398572Y-104369500D01*
X174386312Y-104245018D01*
X174350002Y-104125320D01*
X174291037Y-104015006D01*
X174211685Y-103918315D01*
X174114994Y-103838963D01*
X174004680Y-103779998D01*
X173884982Y-103743688D01*
X173760500Y-103731428D01*
X173196250Y-103734500D01*
X173037500Y-103893250D01*
X172783500Y-103893250D01*
X172624750Y-103734500D01*
X172060500Y-103731428D01*
X171936018Y-103743688D01*
X171816320Y-103779998D01*
X171706006Y-103838963D01*
X171609315Y-103918315D01*
X171529963Y-104015006D01*
X171470998Y-104125320D01*
X171434688Y-104245018D01*
X171422428Y-104369500D01*
X169808500Y-104369500D01*
X169808500Y-103367072D01*
X170433001Y-103367072D01*
X170606255Y-103350008D01*
X170772851Y-103299472D01*
X170926387Y-103217405D01*
X171060962Y-103106962D01*
X171171405Y-102972387D01*
X171253472Y-102818851D01*
X171292862Y-102689000D01*
X174075982Y-102689000D01*
X174117000Y-102693040D01*
X174158018Y-102689000D01*
X174158019Y-102689000D01*
X174280689Y-102676918D01*
X174438087Y-102629172D01*
X174583146Y-102551636D01*
X174710291Y-102447291D01*
X174736446Y-102415421D01*
X176095796Y-101056072D01*
X177253000Y-101056072D01*
X177377482Y-101043812D01*
X177497180Y-101007502D01*
X177607494Y-100948537D01*
X177704185Y-100869185D01*
X177783537Y-100772494D01*
X177842502Y-100662180D01*
X177878812Y-100542482D01*
X177891072Y-100418000D01*
X177891072Y-98718000D01*
X177878812Y-98593518D01*
X177842502Y-98473820D01*
X177783537Y-98363506D01*
X177704185Y-98266815D01*
X177607494Y-98187463D01*
X177497180Y-98128498D01*
X177424620Y-98106487D01*
X177556475Y-97974632D01*
X177718990Y-97731411D01*
X177830932Y-97461158D01*
X177888000Y-97174260D01*
X177888000Y-96881740D01*
X177830932Y-96594842D01*
X177718990Y-96324589D01*
X177556475Y-96081368D01*
X177349632Y-95874525D01*
X177106411Y-95712010D01*
X176836158Y-95600068D01*
X176549260Y-95543000D01*
X176256740Y-95543000D01*
X176003727Y-95593328D01*
X175933689Y-95572082D01*
X175811019Y-95560000D01*
X175811018Y-95560000D01*
X175770000Y-95555960D01*
X175728982Y-95560000D01*
X173043513Y-95560000D01*
X172956962Y-95454538D01*
X172822387Y-95344095D01*
X172668851Y-95262028D01*
X172502255Y-95211492D01*
X172329001Y-95194428D01*
X171078999Y-95194428D01*
X170905745Y-95211492D01*
X170739149Y-95262028D01*
X170585613Y-95344095D01*
X170451038Y-95454538D01*
X170340595Y-95589113D01*
X170258528Y-95742649D01*
X170207992Y-95909245D01*
X170190928Y-96082499D01*
X170190928Y-96707501D01*
X170207992Y-96880755D01*
X170258528Y-97047351D01*
X170340595Y-97200887D01*
X170451038Y-97335462D01*
X170585613Y-97445905D01*
X170739149Y-97527972D01*
X170905745Y-97578508D01*
X171078999Y-97595572D01*
X172329001Y-97595572D01*
X172502255Y-97578508D01*
X172668851Y-97527972D01*
X172822387Y-97445905D01*
X172956962Y-97335462D01*
X173043513Y-97230000D01*
X174929087Y-97230000D01*
X174975068Y-97461158D01*
X175087010Y-97731411D01*
X175249525Y-97974632D01*
X175381380Y-98106487D01*
X175308820Y-98128498D01*
X175198506Y-98187463D01*
X175101815Y-98266815D01*
X175022463Y-98363506D01*
X174963498Y-98473820D01*
X174927188Y-98593518D01*
X174914928Y-98718000D01*
X174914928Y-99875204D01*
X173771133Y-101019000D01*
X171292862Y-101019000D01*
X171253472Y-100889149D01*
X171171405Y-100735613D01*
X171060962Y-100601038D01*
X170926387Y-100490595D01*
X170772851Y-100408528D01*
X170606255Y-100357992D01*
X170433001Y-100340928D01*
X169808500Y-100340928D01*
X169808500Y-97617476D01*
X169812540Y-97576458D01*
X169807765Y-97527972D01*
X169796418Y-97412769D01*
X169748672Y-97255371D01*
X169671136Y-97110312D01*
X169640119Y-97072518D01*
X169592939Y-97015028D01*
X169592937Y-97015026D01*
X169566791Y-96983167D01*
X169534933Y-96957022D01*
X169089000Y-96511090D01*
X169089000Y-90181787D01*
X169098180Y-90179002D01*
X169208494Y-90120037D01*
X169305185Y-90040685D01*
X169384537Y-89943994D01*
X169443502Y-89833680D01*
X169479812Y-89713982D01*
X169492072Y-89589500D01*
X169492072Y-89189500D01*
X169479812Y-89065018D01*
X169479655Y-89064500D01*
X169479812Y-89063982D01*
X169492072Y-88939500D01*
X169492072Y-88924500D01*
X173592980Y-88924500D01*
X173633998Y-88928540D01*
X173675016Y-88924500D01*
X173675017Y-88924500D01*
X173797687Y-88912418D01*
X173915928Y-88876550D01*
X173915928Y-88939500D01*
X173928188Y-89063982D01*
X173928345Y-89064500D01*
X173928188Y-89065018D01*
X173915928Y-89189500D01*
X173915928Y-89589500D01*
X173928188Y-89713982D01*
X173964498Y-89833680D01*
X174023463Y-89943994D01*
X174102815Y-90040685D01*
X174199506Y-90120037D01*
X174309820Y-90179002D01*
X174429518Y-90215312D01*
X174554000Y-90227572D01*
X175319002Y-90227572D01*
X175319002Y-91236999D01*
X173143019Y-91236999D01*
X173102001Y-91232959D01*
X173060982Y-91236999D01*
X172938312Y-91249081D01*
X172780914Y-91296827D01*
X172635855Y-91374363D01*
X172508710Y-91478708D01*
X172482559Y-91510573D01*
X171723705Y-92269428D01*
X171078999Y-92269428D01*
X170905745Y-92286492D01*
X170739149Y-92337028D01*
X170585613Y-92419095D01*
X170451038Y-92529538D01*
X170340595Y-92664113D01*
X170258528Y-92817649D01*
X170207992Y-92984245D01*
X170190928Y-93157499D01*
X170190928Y-93782501D01*
X170207992Y-93955755D01*
X170258528Y-94122351D01*
X170340595Y-94275887D01*
X170451038Y-94410462D01*
X170585613Y-94520905D01*
X170739149Y-94602972D01*
X170905745Y-94653508D01*
X171078999Y-94670572D01*
X172329001Y-94670572D01*
X172502255Y-94653508D01*
X172668851Y-94602972D01*
X172822387Y-94520905D01*
X172956962Y-94410462D01*
X173067405Y-94275887D01*
X173149472Y-94122351D01*
X173200008Y-93955755D01*
X173217072Y-93782501D01*
X173217072Y-93157499D01*
X173215305Y-93139562D01*
X173447869Y-92906999D01*
X176112983Y-92906999D01*
X176154001Y-92911039D01*
X176317690Y-92894917D01*
X176475088Y-92847171D01*
X176620147Y-92769635D01*
X176747292Y-92665290D01*
X176851637Y-92538145D01*
X176929173Y-92393086D01*
X176976919Y-92235688D01*
X176989001Y-92113018D01*
X176993041Y-92071999D01*
X176989001Y-92030980D01*
X176989001Y-86960506D01*
X176993040Y-86919498D01*
X176989001Y-86878490D01*
X176989001Y-86878480D01*
X176976919Y-86755810D01*
X176929173Y-86598412D01*
X176851637Y-86453353D01*
X176747292Y-86326208D01*
X176715423Y-86300054D01*
X176643448Y-86228079D01*
X176617293Y-86196209D01*
X176490148Y-86091864D01*
X176392072Y-86039441D01*
X176392072Y-85939500D01*
X176379812Y-85815018D01*
X176378955Y-85812193D01*
X176389000Y-85721250D01*
X176321032Y-85653282D01*
X176284537Y-85585006D01*
X176205185Y-85488315D01*
X176117678Y-85416500D01*
X176230250Y-85416500D01*
X176389000Y-85257750D01*
X176377564Y-85154211D01*
X176339189Y-85035159D01*
X176278325Y-84925881D01*
X176197312Y-84830577D01*
X176099263Y-84752909D01*
X175987945Y-84695862D01*
X175867637Y-84661629D01*
X175742961Y-84651523D01*
X175439750Y-84654500D01*
X175281000Y-84813250D01*
X175281000Y-85301428D01*
X175163828Y-85301428D01*
X175154000Y-85300460D01*
X175144172Y-85301428D01*
X175027000Y-85301428D01*
X175027000Y-84813250D01*
X174868250Y-84654500D01*
X174565039Y-84651523D01*
X174440363Y-84661629D01*
X174320055Y-84695862D01*
X174208737Y-84752909D01*
X174110688Y-84830577D01*
X174029675Y-84925881D01*
X173968811Y-85035159D01*
X173930436Y-85154211D01*
X173919000Y-85257750D01*
X173965750Y-85304500D01*
X169492072Y-85304500D01*
X169492072Y-85289500D01*
X169479812Y-85165018D01*
X169443502Y-85045320D01*
X169384537Y-84935006D01*
X169305185Y-84838315D01*
X169208494Y-84758963D01*
X169098180Y-84699998D01*
X168978482Y-84663688D01*
X168854000Y-84651428D01*
X168263828Y-84651428D01*
X168254000Y-84650460D01*
X168244172Y-84651428D01*
X167654000Y-84651428D01*
X167529518Y-84663688D01*
X167409820Y-84699998D01*
X167299506Y-84758963D01*
X167202815Y-84838315D01*
X167123463Y-84935006D01*
X167064498Y-85045320D01*
X167028188Y-85165018D01*
X167015928Y-85289500D01*
X167015928Y-85370561D01*
X166824000Y-85178633D01*
X166824000Y-84623018D01*
X166828040Y-84582000D01*
X166820108Y-84501462D01*
X166811918Y-84418311D01*
X166764172Y-84260913D01*
X166686636Y-84115854D01*
X166582291Y-83988709D01*
X166550431Y-83962563D01*
X165846445Y-83258578D01*
X165820291Y-83226709D01*
X165693146Y-83122364D01*
X165548087Y-83044828D01*
X165390689Y-82997082D01*
X165268019Y-82985000D01*
X165268018Y-82985000D01*
X165227000Y-82980960D01*
X165185982Y-82985000D01*
X163744018Y-82985000D01*
X163703000Y-82980960D01*
X163661982Y-82985000D01*
X163661981Y-82985000D01*
X163539311Y-82997082D01*
X163381913Y-83044828D01*
X163236854Y-83122364D01*
X163172488Y-83175188D01*
X163109709Y-83226709D01*
X163083562Y-83258569D01*
X162506578Y-83835555D01*
X162474709Y-83861709D01*
X162403371Y-83948636D01*
X162370364Y-83988855D01*
X162292828Y-84133914D01*
X162245082Y-84291312D01*
X162228960Y-84455000D01*
X162233000Y-84496019D01*
X162233000Y-84610260D01*
X162025400Y-84547285D01*
X161798000Y-84524888D01*
X161607062Y-84543694D01*
X159902945Y-82839578D01*
X159876790Y-82807708D01*
X159749645Y-82703363D01*
X159604586Y-82625827D01*
X159447188Y-82578081D01*
X159324518Y-82565999D01*
X159324517Y-82565999D01*
X159283499Y-82561959D01*
X159242481Y-82565999D01*
X152798682Y-82565999D01*
X152761537Y-82496506D01*
X152682185Y-82399815D01*
X152585494Y-82320463D01*
X152475180Y-82261498D01*
X152355482Y-82225188D01*
X152231000Y-82212928D01*
X151331000Y-82212928D01*
X151206518Y-82225188D01*
X151086820Y-82261498D01*
X150976506Y-82320463D01*
X150879815Y-82399815D01*
X150866532Y-82416000D01*
X145964468Y-82416000D01*
X145951185Y-82399815D01*
X145854494Y-82320463D01*
X145744180Y-82261498D01*
X145624482Y-82225188D01*
X145500000Y-82212928D01*
X144600000Y-82212928D01*
X144475518Y-82225188D01*
X144355820Y-82261498D01*
X144245506Y-82320463D01*
X144148815Y-82399815D01*
X144135532Y-82416000D01*
X141954620Y-82416000D01*
X141914472Y-82283649D01*
X141832405Y-82130113D01*
X141721962Y-81995538D01*
X141587387Y-81885095D01*
X141433851Y-81803028D01*
X141267255Y-81752492D01*
X141094001Y-81735428D01*
X140468999Y-81735428D01*
X140295745Y-81752492D01*
X140129149Y-81803028D01*
X139975613Y-81885095D01*
X139841038Y-81995538D01*
X139730595Y-82130113D01*
X139648528Y-82283649D01*
X139597992Y-82450245D01*
X139580928Y-82623499D01*
X139580928Y-83873501D01*
X139597992Y-84046755D01*
X139648528Y-84213351D01*
X139730595Y-84366887D01*
X139841038Y-84501462D01*
X139975613Y-84611905D01*
X140129149Y-84693972D01*
X140295745Y-84744508D01*
X140468999Y-84761572D01*
X141094001Y-84761572D01*
X141267255Y-84744508D01*
X141433851Y-84693972D01*
X141587387Y-84611905D01*
X141721962Y-84501462D01*
X141832405Y-84366887D01*
X141914472Y-84213351D01*
X141953103Y-84086000D01*
X143042709Y-84086000D01*
X140500341Y-86628368D01*
X140464656Y-86657654D01*
X140347814Y-86800027D01*
X140260993Y-86962459D01*
X140218253Y-87103354D01*
X140207529Y-87138707D01*
X140189476Y-87321998D01*
X140194000Y-87367930D01*
X140194000Y-88625632D01*
X138691500Y-87123133D01*
X138691500Y-84588013D01*
X138796962Y-84501462D01*
X138907405Y-84366887D01*
X138989472Y-84213351D01*
X139040008Y-84046755D01*
X139057072Y-83873501D01*
X139057072Y-82623499D01*
X139040008Y-82450245D01*
X138989472Y-82283649D01*
X138907405Y-82130113D01*
X138796962Y-81995538D01*
X138662387Y-81885095D01*
X138508851Y-81803028D01*
X138342255Y-81752492D01*
X138169001Y-81735428D01*
X137543999Y-81735428D01*
X137370745Y-81752492D01*
X137204149Y-81803028D01*
X137050613Y-81885095D01*
X136916038Y-81995538D01*
X136805595Y-82130113D01*
X136723528Y-82283649D01*
X136672992Y-82450245D01*
X136655928Y-82623499D01*
X136655928Y-83873501D01*
X136672992Y-84046755D01*
X136723528Y-84213351D01*
X136805595Y-84366887D01*
X136916038Y-84501462D01*
X137021500Y-84588013D01*
X137021501Y-87427972D01*
X137017460Y-87469000D01*
X137033582Y-87632688D01*
X137081328Y-87790086D01*
X137158864Y-87935145D01*
X137158865Y-87935146D01*
X137263210Y-88062291D01*
X137295074Y-88088441D01*
X139240928Y-90034296D01*
X139240928Y-91641500D01*
X139253188Y-91765982D01*
X139289498Y-91885680D01*
X139348463Y-91995994D01*
X139427815Y-92092685D01*
X139524506Y-92172037D01*
X139634820Y-92231002D01*
X139754518Y-92267312D01*
X139879000Y-92279572D01*
X140194000Y-92279572D01*
X140194001Y-101395428D01*
X139879000Y-101395428D01*
X139754518Y-101407688D01*
X139634820Y-101443998D01*
X139524506Y-101502963D01*
X139427815Y-101582315D01*
X139348463Y-101679006D01*
X139289498Y-101789320D01*
X139253188Y-101909018D01*
X139240928Y-102033500D01*
X139240928Y-103833500D01*
X139253188Y-103957982D01*
X139289498Y-104077680D01*
X139348463Y-104187994D01*
X139427815Y-104284685D01*
X139524506Y-104364037D01*
X139634820Y-104423002D01*
X139754518Y-104459312D01*
X139879000Y-104471572D01*
X140027059Y-104471572D01*
X137869438Y-106629195D01*
X137851501Y-106627428D01*
X137226499Y-106627428D01*
X137053245Y-106644492D01*
X136886649Y-106695028D01*
X136733113Y-106777095D01*
X136598538Y-106887538D01*
X136488095Y-107022113D01*
X136406028Y-107175649D01*
X136355492Y-107342245D01*
X136338428Y-107515499D01*
X130660000Y-107515499D01*
X130660000Y-95974000D01*
X133880428Y-95974000D01*
X133880428Y-97574000D01*
X133892688Y-97698482D01*
X133928998Y-97818180D01*
X133987963Y-97928494D01*
X134067315Y-98025185D01*
X134164006Y-98104537D01*
X134274320Y-98163502D01*
X134394018Y-98199812D01*
X134518500Y-98212072D01*
X136118500Y-98212072D01*
X136242982Y-98199812D01*
X136362680Y-98163502D01*
X136472994Y-98104537D01*
X136569685Y-98025185D01*
X136649037Y-97928494D01*
X136708002Y-97818180D01*
X136723617Y-97766702D01*
X137005403Y-97766702D01*
X137076986Y-98010671D01*
X137332496Y-98131571D01*
X137606684Y-98200300D01*
X137889012Y-98214217D01*
X138168630Y-98172787D01*
X138434792Y-98077603D01*
X138560014Y-98010671D01*
X138631597Y-97766702D01*
X137818500Y-96953605D01*
X137005403Y-97766702D01*
X136723617Y-97766702D01*
X136744312Y-97698482D01*
X136756572Y-97574000D01*
X136756572Y-97566785D01*
X136825798Y-97587097D01*
X137638895Y-96774000D01*
X137998105Y-96774000D01*
X138811202Y-97587097D01*
X139055171Y-97515514D01*
X139176071Y-97260004D01*
X139244800Y-96985816D01*
X139258717Y-96703488D01*
X139217287Y-96423870D01*
X139122103Y-96157708D01*
X139055171Y-96032486D01*
X138811202Y-95960903D01*
X137998105Y-96774000D01*
X137638895Y-96774000D01*
X136825798Y-95960903D01*
X136756572Y-95981215D01*
X136756572Y-95974000D01*
X136744312Y-95849518D01*
X136723618Y-95781298D01*
X137005403Y-95781298D01*
X137818500Y-96594395D01*
X138631597Y-95781298D01*
X138560014Y-95537329D01*
X138304504Y-95416429D01*
X138030316Y-95347700D01*
X137747988Y-95333783D01*
X137468370Y-95375213D01*
X137202208Y-95470397D01*
X137076986Y-95537329D01*
X137005403Y-95781298D01*
X136723618Y-95781298D01*
X136708002Y-95729820D01*
X136649037Y-95619506D01*
X136569685Y-95522815D01*
X136472994Y-95443463D01*
X136362680Y-95384498D01*
X136242982Y-95348188D01*
X136118500Y-95335928D01*
X134518500Y-95335928D01*
X134394018Y-95348188D01*
X134274320Y-95384498D01*
X134164006Y-95443463D01*
X134067315Y-95522815D01*
X133987963Y-95619506D01*
X133928998Y-95729820D01*
X133892688Y-95849518D01*
X133880428Y-95974000D01*
X130660000Y-95974000D01*
X130660000Y-80660000D01*
X179340000Y-80660000D01*
X179340001Y-114340000D01*
%TA.AperFunction,Conductor*%
D23*
G36*
X179340001Y-114340000D02*
G01*
X130660000Y-114340000D01*
X130660000Y-107515499D01*
X136338428Y-107515499D01*
X136338428Y-108765501D01*
X136355492Y-108938755D01*
X136406028Y-109105351D01*
X136488095Y-109258887D01*
X136598538Y-109393462D01*
X136733113Y-109503905D01*
X136886649Y-109585972D01*
X137053245Y-109636508D01*
X137226499Y-109653572D01*
X137851501Y-109653572D01*
X138024755Y-109636508D01*
X138191351Y-109585972D01*
X138344887Y-109503905D01*
X138479462Y-109393462D01*
X138589905Y-109258887D01*
X138671972Y-109105351D01*
X138722508Y-108938755D01*
X138739572Y-108765501D01*
X138739572Y-108120795D01*
X139263428Y-107596940D01*
X139263428Y-108765501D01*
X139280492Y-108938755D01*
X139331028Y-109105351D01*
X139413095Y-109258887D01*
X139523538Y-109393462D01*
X139658113Y-109503905D01*
X139811649Y-109585972D01*
X139978245Y-109636508D01*
X140151499Y-109653572D01*
X140776501Y-109653572D01*
X140794438Y-109651805D01*
X142765563Y-111622932D01*
X142791709Y-111654791D01*
X142823568Y-111680937D01*
X142823570Y-111680939D01*
X142918854Y-111759136D01*
X143063913Y-111836672D01*
X143221311Y-111884418D01*
X143385000Y-111900540D01*
X143426018Y-111896500D01*
X146151532Y-111896500D01*
X146164815Y-111912685D01*
X146261506Y-111992037D01*
X146371820Y-112051002D01*
X146491518Y-112087312D01*
X146616000Y-112099572D01*
X147516000Y-112099572D01*
X147640482Y-112087312D01*
X147760180Y-112051002D01*
X147870494Y-111992037D01*
X147967185Y-111912685D01*
X148034632Y-111830500D01*
X152612532Y-111830500D01*
X152625815Y-111846685D01*
X152722506Y-111926037D01*
X152832820Y-111985002D01*
X152952518Y-112021312D01*
X153077000Y-112033572D01*
X153977000Y-112033572D01*
X154101482Y-112021312D01*
X154221180Y-111985002D01*
X154331494Y-111926037D01*
X154428185Y-111846685D01*
X154507537Y-111749994D01*
X154566502Y-111639680D01*
X154602812Y-111519982D01*
X154615072Y-111395500D01*
X154615072Y-111088295D01*
X155203868Y-110499500D01*
X160300743Y-110499500D01*
X160320829Y-110537078D01*
X160465788Y-110713712D01*
X160642421Y-110858671D01*
X160843940Y-110966385D01*
X161062600Y-111032715D01*
X161290000Y-111055112D01*
X161517399Y-111032715D01*
X161736059Y-110966385D01*
X161925000Y-110865394D01*
X162113940Y-110966385D01*
X162332600Y-111032715D01*
X162560000Y-111055112D01*
X162787399Y-111032715D01*
X162996098Y-110969407D01*
X163060820Y-111004002D01*
X163180518Y-111040312D01*
X163305000Y-111052572D01*
X163544250Y-111049500D01*
X163703000Y-110890750D01*
X163703000Y-110117609D01*
X163703215Y-110116900D01*
X163720000Y-109946479D01*
X163720000Y-109791500D01*
X163957000Y-109791500D01*
X163957000Y-110890750D01*
X164115750Y-111049500D01*
X164355000Y-111052572D01*
X164479482Y-111040312D01*
X164599180Y-111004002D01*
X164709494Y-110945037D01*
X164806185Y-110865685D01*
X164885537Y-110768994D01*
X164944502Y-110658680D01*
X164980812Y-110538982D01*
X164993072Y-110414500D01*
X164990000Y-109950250D01*
X164831250Y-109791500D01*
X163957000Y-109791500D01*
X163720000Y-109791500D01*
X163720000Y-109517500D01*
X163957000Y-109517500D01*
X163957000Y-109537500D01*
X164831250Y-109537500D01*
X164990000Y-109378750D01*
X164993072Y-108914500D01*
X164980812Y-108790018D01*
X164944502Y-108670320D01*
X164885537Y-108560006D01*
X164806185Y-108463315D01*
X164709494Y-108383963D01*
X164599180Y-108324998D01*
X164479482Y-108288688D01*
X164355000Y-108276428D01*
X164115750Y-108279500D01*
X163957002Y-108438248D01*
X163957002Y-108298366D01*
X165057869Y-107197500D01*
X167598982Y-107197500D01*
X167640000Y-107201540D01*
X167681018Y-107197500D01*
X167681019Y-107197500D01*
X167803689Y-107185418D01*
X167961087Y-107137672D01*
X168106146Y-107060136D01*
X168233291Y-106955791D01*
X168259446Y-106923922D01*
X168311410Y-106871957D01*
X168380210Y-106955791D01*
X168412074Y-106981941D01*
X170571070Y-109140938D01*
X170571075Y-109140942D01*
X171451693Y-110021561D01*
X171425500Y-110153240D01*
X171425500Y-110445760D01*
X171482568Y-110732658D01*
X171594510Y-111002911D01*
X171757025Y-111246132D01*
X171963868Y-111452975D01*
X172207089Y-111615490D01*
X172477342Y-111727432D01*
X172764240Y-111784500D01*
X173056760Y-111784500D01*
X173343658Y-111727432D01*
X173613911Y-111615490D01*
X173857132Y-111452975D01*
X174063975Y-111246132D01*
X174226490Y-111002911D01*
X174338432Y-110732658D01*
X174395500Y-110445760D01*
X174395500Y-110153240D01*
X174338432Y-109866342D01*
X174226490Y-109596089D01*
X174063975Y-109352868D01*
X173857132Y-109146025D01*
X173682740Y-109029500D01*
X173857132Y-108912975D01*
X174063975Y-108706132D01*
X174226490Y-108462911D01*
X174338432Y-108192658D01*
X174395500Y-107905760D01*
X174395500Y-107613240D01*
X174338432Y-107326342D01*
X174226490Y-107056089D01*
X174063975Y-106812868D01*
X173932120Y-106681013D01*
X174004680Y-106659002D01*
X174114994Y-106600037D01*
X174211685Y-106520685D01*
X174291037Y-106423994D01*
X174350002Y-106313680D01*
X174386312Y-106193982D01*
X174398572Y-106069500D01*
X174395500Y-105505250D01*
X174236750Y-105346500D01*
X173037500Y-105346500D01*
X173037500Y-105366500D01*
X172783500Y-105366500D01*
X172783500Y-105346500D01*
X171584250Y-105346500D01*
X171425500Y-105505250D01*
X171422428Y-106069500D01*
X171434688Y-106193982D01*
X171470998Y-106313680D01*
X171529963Y-106423994D01*
X171609315Y-106520685D01*
X171706006Y-106600037D01*
X171816320Y-106659002D01*
X171888880Y-106681013D01*
X171757025Y-106812868D01*
X171594510Y-107056089D01*
X171482568Y-107326342D01*
X171425500Y-107613240D01*
X171425500Y-107633632D01*
X169808500Y-106016633D01*
X169808500Y-104369500D01*
X171422428Y-104369500D01*
X171425500Y-104933750D01*
X171584250Y-105092500D01*
X172783500Y-105092500D01*
X172783500Y-103893250D01*
X173037500Y-103893250D01*
X173037500Y-105092500D01*
X174236750Y-105092500D01*
X174395500Y-104933750D01*
X174398572Y-104369500D01*
X174386312Y-104245018D01*
X174350002Y-104125320D01*
X174291037Y-104015006D01*
X174211685Y-103918315D01*
X174114994Y-103838963D01*
X174004680Y-103779998D01*
X173884982Y-103743688D01*
X173760500Y-103731428D01*
X173196250Y-103734500D01*
X173037500Y-103893250D01*
X172783500Y-103893250D01*
X172624750Y-103734500D01*
X172060500Y-103731428D01*
X171936018Y-103743688D01*
X171816320Y-103779998D01*
X171706006Y-103838963D01*
X171609315Y-103918315D01*
X171529963Y-104015006D01*
X171470998Y-104125320D01*
X171434688Y-104245018D01*
X171422428Y-104369500D01*
X169808500Y-104369500D01*
X169808500Y-103367072D01*
X170433001Y-103367072D01*
X170606255Y-103350008D01*
X170772851Y-103299472D01*
X170926387Y-103217405D01*
X171060962Y-103106962D01*
X171171405Y-102972387D01*
X171253472Y-102818851D01*
X171292862Y-102689000D01*
X174075982Y-102689000D01*
X174117000Y-102693040D01*
X174158018Y-102689000D01*
X174158019Y-102689000D01*
X174280689Y-102676918D01*
X174438087Y-102629172D01*
X174583146Y-102551636D01*
X174710291Y-102447291D01*
X174736446Y-102415421D01*
X176095796Y-101056072D01*
X177253000Y-101056072D01*
X177377482Y-101043812D01*
X177497180Y-101007502D01*
X177607494Y-100948537D01*
X177704185Y-100869185D01*
X177783537Y-100772494D01*
X177842502Y-100662180D01*
X177878812Y-100542482D01*
X177891072Y-100418000D01*
X177891072Y-98718000D01*
X177878812Y-98593518D01*
X177842502Y-98473820D01*
X177783537Y-98363506D01*
X177704185Y-98266815D01*
X177607494Y-98187463D01*
X177497180Y-98128498D01*
X177424620Y-98106487D01*
X177556475Y-97974632D01*
X177718990Y-97731411D01*
X177830932Y-97461158D01*
X177888000Y-97174260D01*
X177888000Y-96881740D01*
X177830932Y-96594842D01*
X177718990Y-96324589D01*
X177556475Y-96081368D01*
X177349632Y-95874525D01*
X177106411Y-95712010D01*
X176836158Y-95600068D01*
X176549260Y-95543000D01*
X176256740Y-95543000D01*
X176003727Y-95593328D01*
X175933689Y-95572082D01*
X175811019Y-95560000D01*
X175811018Y-95560000D01*
X175770000Y-95555960D01*
X175728982Y-95560000D01*
X173043513Y-95560000D01*
X172956962Y-95454538D01*
X172822387Y-95344095D01*
X172668851Y-95262028D01*
X172502255Y-95211492D01*
X172329001Y-95194428D01*
X171078999Y-95194428D01*
X170905745Y-95211492D01*
X170739149Y-95262028D01*
X170585613Y-95344095D01*
X170451038Y-95454538D01*
X170340595Y-95589113D01*
X170258528Y-95742649D01*
X170207992Y-95909245D01*
X170190928Y-96082499D01*
X170190928Y-96707501D01*
X170207992Y-96880755D01*
X170258528Y-97047351D01*
X170340595Y-97200887D01*
X170451038Y-97335462D01*
X170585613Y-97445905D01*
X170739149Y-97527972D01*
X170905745Y-97578508D01*
X171078999Y-97595572D01*
X172329001Y-97595572D01*
X172502255Y-97578508D01*
X172668851Y-97527972D01*
X172822387Y-97445905D01*
X172956962Y-97335462D01*
X173043513Y-97230000D01*
X174929087Y-97230000D01*
X174975068Y-97461158D01*
X175087010Y-97731411D01*
X175249525Y-97974632D01*
X175381380Y-98106487D01*
X175308820Y-98128498D01*
X175198506Y-98187463D01*
X175101815Y-98266815D01*
X175022463Y-98363506D01*
X174963498Y-98473820D01*
X174927188Y-98593518D01*
X174914928Y-98718000D01*
X174914928Y-99875204D01*
X173771133Y-101019000D01*
X171292862Y-101019000D01*
X171253472Y-100889149D01*
X171171405Y-100735613D01*
X171060962Y-100601038D01*
X170926387Y-100490595D01*
X170772851Y-100408528D01*
X170606255Y-100357992D01*
X170433001Y-100340928D01*
X169808500Y-100340928D01*
X169808500Y-97617476D01*
X169812540Y-97576458D01*
X169807765Y-97527972D01*
X169796418Y-97412769D01*
X169748672Y-97255371D01*
X169671136Y-97110312D01*
X169640119Y-97072518D01*
X169592939Y-97015028D01*
X169592937Y-97015026D01*
X169566791Y-96983167D01*
X169534933Y-96957022D01*
X169089000Y-96511090D01*
X169089000Y-90181787D01*
X169098180Y-90179002D01*
X169208494Y-90120037D01*
X169305185Y-90040685D01*
X169384537Y-89943994D01*
X169443502Y-89833680D01*
X169479812Y-89713982D01*
X169492072Y-89589500D01*
X169492072Y-89189500D01*
X169479812Y-89065018D01*
X169479655Y-89064500D01*
X169479812Y-89063982D01*
X169492072Y-88939500D01*
X169492072Y-88924500D01*
X173592980Y-88924500D01*
X173633998Y-88928540D01*
X173675016Y-88924500D01*
X173675017Y-88924500D01*
X173797687Y-88912418D01*
X173915928Y-88876550D01*
X173915928Y-88939500D01*
X173928188Y-89063982D01*
X173928345Y-89064500D01*
X173928188Y-89065018D01*
X173915928Y-89189500D01*
X173915928Y-89589500D01*
X173928188Y-89713982D01*
X173964498Y-89833680D01*
X174023463Y-89943994D01*
X174102815Y-90040685D01*
X174199506Y-90120037D01*
X174309820Y-90179002D01*
X174429518Y-90215312D01*
X174554000Y-90227572D01*
X175319002Y-90227572D01*
X175319002Y-91236999D01*
X173143019Y-91236999D01*
X173102001Y-91232959D01*
X173060982Y-91236999D01*
X172938312Y-91249081D01*
X172780914Y-91296827D01*
X172635855Y-91374363D01*
X172508710Y-91478708D01*
X172482559Y-91510573D01*
X171723705Y-92269428D01*
X171078999Y-92269428D01*
X170905745Y-92286492D01*
X170739149Y-92337028D01*
X170585613Y-92419095D01*
X170451038Y-92529538D01*
X170340595Y-92664113D01*
X170258528Y-92817649D01*
X170207992Y-92984245D01*
X170190928Y-93157499D01*
X170190928Y-93782501D01*
X170207992Y-93955755D01*
X170258528Y-94122351D01*
X170340595Y-94275887D01*
X170451038Y-94410462D01*
X170585613Y-94520905D01*
X170739149Y-94602972D01*
X170905745Y-94653508D01*
X171078999Y-94670572D01*
X172329001Y-94670572D01*
X172502255Y-94653508D01*
X172668851Y-94602972D01*
X172822387Y-94520905D01*
X172956962Y-94410462D01*
X173067405Y-94275887D01*
X173149472Y-94122351D01*
X173200008Y-93955755D01*
X173217072Y-93782501D01*
X173217072Y-93157499D01*
X173215305Y-93139562D01*
X173447869Y-92906999D01*
X176112983Y-92906999D01*
X176154001Y-92911039D01*
X176317690Y-92894917D01*
X176475088Y-92847171D01*
X176620147Y-92769635D01*
X176747292Y-92665290D01*
X176851637Y-92538145D01*
X176929173Y-92393086D01*
X176976919Y-92235688D01*
X176989001Y-92113018D01*
X176993041Y-92071999D01*
X176989001Y-92030980D01*
X176989001Y-86960506D01*
X176993040Y-86919498D01*
X176989001Y-86878490D01*
X176989001Y-86878480D01*
X176976919Y-86755810D01*
X176929173Y-86598412D01*
X176851637Y-86453353D01*
X176747292Y-86326208D01*
X176715423Y-86300054D01*
X176643448Y-86228079D01*
X176617293Y-86196209D01*
X176490148Y-86091864D01*
X176392072Y-86039441D01*
X176392072Y-85939500D01*
X176379812Y-85815018D01*
X176378955Y-85812193D01*
X176389000Y-85721250D01*
X176321032Y-85653282D01*
X176284537Y-85585006D01*
X176205185Y-85488315D01*
X176117678Y-85416500D01*
X176230250Y-85416500D01*
X176389000Y-85257750D01*
X176377564Y-85154211D01*
X176339189Y-85035159D01*
X176278325Y-84925881D01*
X176197312Y-84830577D01*
X176099263Y-84752909D01*
X175987945Y-84695862D01*
X175867637Y-84661629D01*
X175742961Y-84651523D01*
X175439750Y-84654500D01*
X175281000Y-84813250D01*
X175281000Y-85301428D01*
X175163828Y-85301428D01*
X175154000Y-85300460D01*
X175144172Y-85301428D01*
X175027000Y-85301428D01*
X175027000Y-84813250D01*
X174868250Y-84654500D01*
X174565039Y-84651523D01*
X174440363Y-84661629D01*
X174320055Y-84695862D01*
X174208737Y-84752909D01*
X174110688Y-84830577D01*
X174029675Y-84925881D01*
X173968811Y-85035159D01*
X173930436Y-85154211D01*
X173919000Y-85257750D01*
X173965750Y-85304500D01*
X169492072Y-85304500D01*
X169492072Y-85289500D01*
X169479812Y-85165018D01*
X169443502Y-85045320D01*
X169384537Y-84935006D01*
X169305185Y-84838315D01*
X169208494Y-84758963D01*
X169098180Y-84699998D01*
X168978482Y-84663688D01*
X168854000Y-84651428D01*
X168263828Y-84651428D01*
X168254000Y-84650460D01*
X168244172Y-84651428D01*
X167654000Y-84651428D01*
X167529518Y-84663688D01*
X167409820Y-84699998D01*
X167299506Y-84758963D01*
X167202815Y-84838315D01*
X167123463Y-84935006D01*
X167064498Y-85045320D01*
X167028188Y-85165018D01*
X167015928Y-85289500D01*
X167015928Y-85370561D01*
X166824000Y-85178633D01*
X166824000Y-84623018D01*
X166828040Y-84582000D01*
X166820108Y-84501462D01*
X166811918Y-84418311D01*
X166764172Y-84260913D01*
X166686636Y-84115854D01*
X166582291Y-83988709D01*
X166550431Y-83962563D01*
X165846445Y-83258578D01*
X165820291Y-83226709D01*
X165693146Y-83122364D01*
X165548087Y-83044828D01*
X165390689Y-82997082D01*
X165268019Y-82985000D01*
X165268018Y-82985000D01*
X165227000Y-82980960D01*
X165185982Y-82985000D01*
X163744018Y-82985000D01*
X163703000Y-82980960D01*
X163661982Y-82985000D01*
X163661981Y-82985000D01*
X163539311Y-82997082D01*
X163381913Y-83044828D01*
X163236854Y-83122364D01*
X163172488Y-83175188D01*
X163109709Y-83226709D01*
X163083562Y-83258569D01*
X162506578Y-83835555D01*
X162474709Y-83861709D01*
X162403371Y-83948636D01*
X162370364Y-83988855D01*
X162292828Y-84133914D01*
X162245082Y-84291312D01*
X162228960Y-84455000D01*
X162233000Y-84496019D01*
X162233000Y-84610260D01*
X162025400Y-84547285D01*
X161798000Y-84524888D01*
X161607062Y-84543694D01*
X159902945Y-82839578D01*
X159876790Y-82807708D01*
X159749645Y-82703363D01*
X159604586Y-82625827D01*
X159447188Y-82578081D01*
X159324518Y-82565999D01*
X159324517Y-82565999D01*
X159283499Y-82561959D01*
X159242481Y-82565999D01*
X152798682Y-82565999D01*
X152761537Y-82496506D01*
X152682185Y-82399815D01*
X152585494Y-82320463D01*
X152475180Y-82261498D01*
X152355482Y-82225188D01*
X152231000Y-82212928D01*
X151331000Y-82212928D01*
X151206518Y-82225188D01*
X151086820Y-82261498D01*
X150976506Y-82320463D01*
X150879815Y-82399815D01*
X150866532Y-82416000D01*
X145964468Y-82416000D01*
X145951185Y-82399815D01*
X145854494Y-82320463D01*
X145744180Y-82261498D01*
X145624482Y-82225188D01*
X145500000Y-82212928D01*
X144600000Y-82212928D01*
X144475518Y-82225188D01*
X144355820Y-82261498D01*
X144245506Y-82320463D01*
X144148815Y-82399815D01*
X144135532Y-82416000D01*
X141954620Y-82416000D01*
X141914472Y-82283649D01*
X141832405Y-82130113D01*
X141721962Y-81995538D01*
X141587387Y-81885095D01*
X141433851Y-81803028D01*
X141267255Y-81752492D01*
X141094001Y-81735428D01*
X140468999Y-81735428D01*
X140295745Y-81752492D01*
X140129149Y-81803028D01*
X139975613Y-81885095D01*
X139841038Y-81995538D01*
X139730595Y-82130113D01*
X139648528Y-82283649D01*
X139597992Y-82450245D01*
X139580928Y-82623499D01*
X139580928Y-83873501D01*
X139597992Y-84046755D01*
X139648528Y-84213351D01*
X139730595Y-84366887D01*
X139841038Y-84501462D01*
X139975613Y-84611905D01*
X140129149Y-84693972D01*
X140295745Y-84744508D01*
X140468999Y-84761572D01*
X141094001Y-84761572D01*
X141267255Y-84744508D01*
X141433851Y-84693972D01*
X141587387Y-84611905D01*
X141721962Y-84501462D01*
X141832405Y-84366887D01*
X141914472Y-84213351D01*
X141953103Y-84086000D01*
X143042709Y-84086000D01*
X140500341Y-86628368D01*
X140464656Y-86657654D01*
X140347814Y-86800027D01*
X140260993Y-86962459D01*
X140218253Y-87103354D01*
X140207529Y-87138707D01*
X140189476Y-87321998D01*
X140194000Y-87367930D01*
X140194000Y-88625632D01*
X138691500Y-87123133D01*
X138691500Y-84588013D01*
X138796962Y-84501462D01*
X138907405Y-84366887D01*
X138989472Y-84213351D01*
X139040008Y-84046755D01*
X139057072Y-83873501D01*
X139057072Y-82623499D01*
X139040008Y-82450245D01*
X138989472Y-82283649D01*
X138907405Y-82130113D01*
X138796962Y-81995538D01*
X138662387Y-81885095D01*
X138508851Y-81803028D01*
X138342255Y-81752492D01*
X138169001Y-81735428D01*
X137543999Y-81735428D01*
X137370745Y-81752492D01*
X137204149Y-81803028D01*
X137050613Y-81885095D01*
X136916038Y-81995538D01*
X136805595Y-82130113D01*
X136723528Y-82283649D01*
X136672992Y-82450245D01*
X136655928Y-82623499D01*
X136655928Y-83873501D01*
X136672992Y-84046755D01*
X136723528Y-84213351D01*
X136805595Y-84366887D01*
X136916038Y-84501462D01*
X137021500Y-84588013D01*
X137021501Y-87427972D01*
X137017460Y-87469000D01*
X137033582Y-87632688D01*
X137081328Y-87790086D01*
X137158864Y-87935145D01*
X137158865Y-87935146D01*
X137263210Y-88062291D01*
X137295074Y-88088441D01*
X139240928Y-90034296D01*
X139240928Y-91641500D01*
X139253188Y-91765982D01*
X139289498Y-91885680D01*
X139348463Y-91995994D01*
X139427815Y-92092685D01*
X139524506Y-92172037D01*
X139634820Y-92231002D01*
X139754518Y-92267312D01*
X139879000Y-92279572D01*
X140194000Y-92279572D01*
X140194001Y-101395428D01*
X139879000Y-101395428D01*
X139754518Y-101407688D01*
X139634820Y-101443998D01*
X139524506Y-101502963D01*
X139427815Y-101582315D01*
X139348463Y-101679006D01*
X139289498Y-101789320D01*
X139253188Y-101909018D01*
X139240928Y-102033500D01*
X139240928Y-103833500D01*
X139253188Y-103957982D01*
X139289498Y-104077680D01*
X139348463Y-104187994D01*
X139427815Y-104284685D01*
X139524506Y-104364037D01*
X139634820Y-104423002D01*
X139754518Y-104459312D01*
X139879000Y-104471572D01*
X140027059Y-104471572D01*
X137869438Y-106629195D01*
X137851501Y-106627428D01*
X137226499Y-106627428D01*
X137053245Y-106644492D01*
X136886649Y-106695028D01*
X136733113Y-106777095D01*
X136598538Y-106887538D01*
X136488095Y-107022113D01*
X136406028Y-107175649D01*
X136355492Y-107342245D01*
X136338428Y-107515499D01*
X130660000Y-107515499D01*
X130660000Y-95974000D01*
X133880428Y-95974000D01*
X133880428Y-97574000D01*
X133892688Y-97698482D01*
X133928998Y-97818180D01*
X133987963Y-97928494D01*
X134067315Y-98025185D01*
X134164006Y-98104537D01*
X134274320Y-98163502D01*
X134394018Y-98199812D01*
X134518500Y-98212072D01*
X136118500Y-98212072D01*
X136242982Y-98199812D01*
X136362680Y-98163502D01*
X136472994Y-98104537D01*
X136569685Y-98025185D01*
X136649037Y-97928494D01*
X136708002Y-97818180D01*
X136723617Y-97766702D01*
X137005403Y-97766702D01*
X137076986Y-98010671D01*
X137332496Y-98131571D01*
X137606684Y-98200300D01*
X137889012Y-98214217D01*
X138168630Y-98172787D01*
X138434792Y-98077603D01*
X138560014Y-98010671D01*
X138631597Y-97766702D01*
X137818500Y-96953605D01*
X137005403Y-97766702D01*
X136723617Y-97766702D01*
X136744312Y-97698482D01*
X136756572Y-97574000D01*
X136756572Y-97566785D01*
X136825798Y-97587097D01*
X137638895Y-96774000D01*
X137998105Y-96774000D01*
X138811202Y-97587097D01*
X139055171Y-97515514D01*
X139176071Y-97260004D01*
X139244800Y-96985816D01*
X139258717Y-96703488D01*
X139217287Y-96423870D01*
X139122103Y-96157708D01*
X139055171Y-96032486D01*
X138811202Y-95960903D01*
X137998105Y-96774000D01*
X137638895Y-96774000D01*
X136825798Y-95960903D01*
X136756572Y-95981215D01*
X136756572Y-95974000D01*
X136744312Y-95849518D01*
X136723618Y-95781298D01*
X137005403Y-95781298D01*
X137818500Y-96594395D01*
X138631597Y-95781298D01*
X138560014Y-95537329D01*
X138304504Y-95416429D01*
X138030316Y-95347700D01*
X137747988Y-95333783D01*
X137468370Y-95375213D01*
X137202208Y-95470397D01*
X137076986Y-95537329D01*
X137005403Y-95781298D01*
X136723618Y-95781298D01*
X136708002Y-95729820D01*
X136649037Y-95619506D01*
X136569685Y-95522815D01*
X136472994Y-95443463D01*
X136362680Y-95384498D01*
X136242982Y-95348188D01*
X136118500Y-95335928D01*
X134518500Y-95335928D01*
X134394018Y-95348188D01*
X134274320Y-95384498D01*
X134164006Y-95443463D01*
X134067315Y-95522815D01*
X133987963Y-95619506D01*
X133928998Y-95729820D01*
X133892688Y-95849518D01*
X133880428Y-95974000D01*
X130660000Y-95974000D01*
X130660000Y-80660000D01*
X179340000Y-80660000D01*
X179340001Y-114340000D01*
G37*
%TD.AperFunction*%
D22*
X160638000Y-85936368D02*
X160638000Y-86197478D01*
X160654785Y-86367899D01*
X160721115Y-86586559D01*
X160828829Y-86788078D01*
X160973788Y-86964712D01*
X161150421Y-87109671D01*
X161351940Y-87217385D01*
X161570600Y-87283715D01*
X161798000Y-87306112D01*
X162025399Y-87283715D01*
X162244059Y-87217385D01*
X162433000Y-87116394D01*
X162621940Y-87217385D01*
X162840600Y-87283715D01*
X163068000Y-87306112D01*
X163295399Y-87283715D01*
X163504098Y-87220407D01*
X163568820Y-87255002D01*
X163688518Y-87291312D01*
X163813000Y-87303572D01*
X164052250Y-87300500D01*
X164211000Y-87141750D01*
X164211000Y-86368609D01*
X164211215Y-86367900D01*
X164228000Y-86197479D01*
X164228000Y-85768500D01*
X164465000Y-85768500D01*
X164465000Y-85788500D01*
X164485000Y-85788500D01*
X164485000Y-86042500D01*
X164465000Y-86042500D01*
X164465000Y-87141750D01*
X164623750Y-87300500D01*
X164863000Y-87303572D01*
X164987482Y-87291312D01*
X165107180Y-87255002D01*
X165217494Y-87196037D01*
X165314185Y-87116685D01*
X165393537Y-87019994D01*
X165452502Y-86909680D01*
X165488812Y-86789982D01*
X165501072Y-86665500D01*
X165498087Y-86214454D01*
X166497364Y-87213732D01*
X166478827Y-87248413D01*
X166431081Y-87405811D01*
X166414959Y-87569499D01*
X166419000Y-87610528D01*
X166418999Y-93974418D01*
X166329494Y-93900963D01*
X166219180Y-93841998D01*
X166099482Y-93805688D01*
X165975000Y-93793428D01*
X165385750Y-93796500D01*
X165227000Y-93955250D01*
X165227000Y-94867000D01*
X165247000Y-94867000D01*
X165247000Y-95121000D01*
X165227000Y-95121000D01*
X165227000Y-96032750D01*
X165385750Y-96191500D01*
X165975000Y-96194572D01*
X166099482Y-96182312D01*
X166219180Y-96146002D01*
X166329494Y-96087037D01*
X166418999Y-96013582D01*
X166418999Y-96664480D01*
X166414959Y-96705499D01*
X166426417Y-96821828D01*
X166431081Y-96869187D01*
X166478827Y-97026585D01*
X166556363Y-97171644D01*
X166660708Y-97298790D01*
X166692577Y-97324944D01*
X167511511Y-98143879D01*
X167511511Y-100341274D01*
X167508001Y-100340928D01*
X166882999Y-100340928D01*
X166709745Y-100357992D01*
X166543149Y-100408528D01*
X166389613Y-100490595D01*
X166255038Y-100601038D01*
X166144595Y-100735613D01*
X166132634Y-100757990D01*
X162791528Y-100757990D01*
X162750509Y-100753950D01*
X162709491Y-100757990D01*
X162586821Y-100770072D01*
X162429423Y-100817818D01*
X162315500Y-100878711D01*
X162315500Y-98432000D01*
X163612257Y-98432000D01*
X163654528Y-98571351D01*
X163736595Y-98724887D01*
X163847038Y-98859462D01*
X163981613Y-98969905D01*
X164135149Y-99051972D01*
X164301745Y-99102508D01*
X164474999Y-99119572D01*
X165725001Y-99119572D01*
X165898255Y-99102508D01*
X166064851Y-99051972D01*
X166218387Y-98969905D01*
X166352962Y-98859462D01*
X166463405Y-98724887D01*
X166545472Y-98571351D01*
X166596008Y-98404755D01*
X166613072Y-98231501D01*
X166613072Y-97606499D01*
X166596008Y-97433245D01*
X166545472Y-97266649D01*
X166463405Y-97113113D01*
X166352962Y-96978538D01*
X166218387Y-96868095D01*
X166064851Y-96786028D01*
X165898255Y-96735492D01*
X165725001Y-96718428D01*
X164474999Y-96718428D01*
X164301745Y-96735492D01*
X164214359Y-96762000D01*
X162251968Y-96762000D01*
X162238685Y-96745815D01*
X162141994Y-96666463D01*
X162105582Y-96647000D01*
X162141994Y-96627537D01*
X162238685Y-96548185D01*
X162318037Y-96451494D01*
X162377002Y-96341180D01*
X162413312Y-96221482D01*
X162425572Y-96097000D01*
X162422500Y-95982750D01*
X162263750Y-95824000D01*
X161464500Y-95824000D01*
X161464500Y-95844000D01*
X161210500Y-95844000D01*
X161210500Y-95824000D01*
X161190500Y-95824000D01*
X161190500Y-95570000D01*
X161210500Y-95570000D01*
X161210500Y-94820750D01*
X161464500Y-94820750D01*
X161464500Y-95570000D01*
X162263750Y-95570000D01*
X162277250Y-95556500D01*
X163586928Y-95556500D01*
X163599188Y-95680982D01*
X163635498Y-95800680D01*
X163694463Y-95910994D01*
X163773815Y-96007685D01*
X163870506Y-96087037D01*
X163980820Y-96146002D01*
X164100518Y-96182312D01*
X164225000Y-96194572D01*
X164814250Y-96191500D01*
X164973000Y-96032750D01*
X164973000Y-95121000D01*
X163748750Y-95121000D01*
X163590000Y-95279750D01*
X163586928Y-95556500D01*
X162277250Y-95556500D01*
X162422500Y-95411250D01*
X162425572Y-95297000D01*
X162413312Y-95172518D01*
X162377002Y-95052820D01*
X162318037Y-94942506D01*
X162238685Y-94845815D01*
X162141994Y-94766463D01*
X162031680Y-94707498D01*
X161911982Y-94671188D01*
X161787500Y-94658928D01*
X161623250Y-94662000D01*
X161464500Y-94820750D01*
X161210500Y-94820750D01*
X161051750Y-94662000D01*
X160887500Y-94658928D01*
X160763018Y-94671188D01*
X160643320Y-94707498D01*
X160533006Y-94766463D01*
X160436315Y-94845815D01*
X160356963Y-94942506D01*
X160297998Y-95052820D01*
X160272500Y-95136876D01*
X160272500Y-94431500D01*
X163586928Y-94431500D01*
X163590000Y-94708250D01*
X163748750Y-94867000D01*
X164973000Y-94867000D01*
X164973000Y-93955250D01*
X164814250Y-93796500D01*
X164225000Y-93793428D01*
X164100518Y-93805688D01*
X163980820Y-93841998D01*
X163870506Y-93900963D01*
X163773815Y-93980315D01*
X163694463Y-94077006D01*
X163635498Y-94187320D01*
X163599188Y-94307018D01*
X163586928Y-94431500D01*
X160272500Y-94431500D01*
X160272500Y-94327931D01*
X160277024Y-94281999D01*
X160258971Y-94098707D01*
X160223057Y-93980315D01*
X160205507Y-93922460D01*
X160118686Y-93760028D01*
X160001844Y-93617656D01*
X159966164Y-93588374D01*
X157685072Y-91307283D01*
X157685072Y-89841500D01*
X157672812Y-89717018D01*
X157636502Y-89597320D01*
X157577537Y-89487006D01*
X157498185Y-89390315D01*
X157401494Y-89310963D01*
X157291180Y-89251998D01*
X157171482Y-89215688D01*
X157047000Y-89203428D01*
X156732936Y-89203428D01*
X156736524Y-89167000D01*
X156718472Y-88983708D01*
X156665007Y-88807459D01*
X156629315Y-88740685D01*
X156578186Y-88645028D01*
X156461344Y-88502656D01*
X156425659Y-88473370D01*
X153167163Y-85214874D01*
X153206518Y-85226812D01*
X153331000Y-85239072D01*
X154231000Y-85239072D01*
X154355482Y-85226812D01*
X154475180Y-85190502D01*
X154585494Y-85131537D01*
X154682185Y-85052185D01*
X154761537Y-84955494D01*
X154820502Y-84845180D01*
X154856812Y-84725482D01*
X154869072Y-84601000D01*
X154869072Y-84235999D01*
X158937632Y-84235999D01*
X160638000Y-85936368D01*
%TA.AperFunction,Conductor*%
D23*
G36*
X160638000Y-85936368D02*
G01*
X160638000Y-86197478D01*
X160654785Y-86367899D01*
X160721115Y-86586559D01*
X160828829Y-86788078D01*
X160973788Y-86964712D01*
X161150421Y-87109671D01*
X161351940Y-87217385D01*
X161570600Y-87283715D01*
X161798000Y-87306112D01*
X162025399Y-87283715D01*
X162244059Y-87217385D01*
X162433000Y-87116394D01*
X162621940Y-87217385D01*
X162840600Y-87283715D01*
X163068000Y-87306112D01*
X163295399Y-87283715D01*
X163504098Y-87220407D01*
X163568820Y-87255002D01*
X163688518Y-87291312D01*
X163813000Y-87303572D01*
X164052250Y-87300500D01*
X164211000Y-87141750D01*
X164211000Y-86368609D01*
X164211215Y-86367900D01*
X164228000Y-86197479D01*
X164228000Y-85768500D01*
X164465000Y-85768500D01*
X164465000Y-85788500D01*
X164485000Y-85788500D01*
X164485000Y-86042500D01*
X164465000Y-86042500D01*
X164465000Y-87141750D01*
X164623750Y-87300500D01*
X164863000Y-87303572D01*
X164987482Y-87291312D01*
X165107180Y-87255002D01*
X165217494Y-87196037D01*
X165314185Y-87116685D01*
X165393537Y-87019994D01*
X165452502Y-86909680D01*
X165488812Y-86789982D01*
X165501072Y-86665500D01*
X165498087Y-86214454D01*
X166497364Y-87213732D01*
X166478827Y-87248413D01*
X166431081Y-87405811D01*
X166414959Y-87569499D01*
X166419000Y-87610528D01*
X166418999Y-93974418D01*
X166329494Y-93900963D01*
X166219180Y-93841998D01*
X166099482Y-93805688D01*
X165975000Y-93793428D01*
X165385750Y-93796500D01*
X165227000Y-93955250D01*
X165227000Y-94867000D01*
X165247000Y-94867000D01*
X165247000Y-95121000D01*
X165227000Y-95121000D01*
X165227000Y-96032750D01*
X165385750Y-96191500D01*
X165975000Y-96194572D01*
X166099482Y-96182312D01*
X166219180Y-96146002D01*
X166329494Y-96087037D01*
X166418999Y-96013582D01*
X166418999Y-96664480D01*
X166414959Y-96705499D01*
X166426417Y-96821828D01*
X166431081Y-96869187D01*
X166478827Y-97026585D01*
X166556363Y-97171644D01*
X166660708Y-97298790D01*
X166692577Y-97324944D01*
X167511511Y-98143879D01*
X167511511Y-100341274D01*
X167508001Y-100340928D01*
X166882999Y-100340928D01*
X166709745Y-100357992D01*
X166543149Y-100408528D01*
X166389613Y-100490595D01*
X166255038Y-100601038D01*
X166144595Y-100735613D01*
X166132634Y-100757990D01*
X162791528Y-100757990D01*
X162750509Y-100753950D01*
X162709491Y-100757990D01*
X162586821Y-100770072D01*
X162429423Y-100817818D01*
X162315500Y-100878711D01*
X162315500Y-98432000D01*
X163612257Y-98432000D01*
X163654528Y-98571351D01*
X163736595Y-98724887D01*
X163847038Y-98859462D01*
X163981613Y-98969905D01*
X164135149Y-99051972D01*
X164301745Y-99102508D01*
X164474999Y-99119572D01*
X165725001Y-99119572D01*
X165898255Y-99102508D01*
X166064851Y-99051972D01*
X166218387Y-98969905D01*
X166352962Y-98859462D01*
X166463405Y-98724887D01*
X166545472Y-98571351D01*
X166596008Y-98404755D01*
X166613072Y-98231501D01*
X166613072Y-97606499D01*
X166596008Y-97433245D01*
X166545472Y-97266649D01*
X166463405Y-97113113D01*
X166352962Y-96978538D01*
X166218387Y-96868095D01*
X166064851Y-96786028D01*
X165898255Y-96735492D01*
X165725001Y-96718428D01*
X164474999Y-96718428D01*
X164301745Y-96735492D01*
X164214359Y-96762000D01*
X162251968Y-96762000D01*
X162238685Y-96745815D01*
X162141994Y-96666463D01*
X162105582Y-96647000D01*
X162141994Y-96627537D01*
X162238685Y-96548185D01*
X162318037Y-96451494D01*
X162377002Y-96341180D01*
X162413312Y-96221482D01*
X162425572Y-96097000D01*
X162422500Y-95982750D01*
X162263750Y-95824000D01*
X161464500Y-95824000D01*
X161464500Y-95844000D01*
X161210500Y-95844000D01*
X161210500Y-95824000D01*
X161190500Y-95824000D01*
X161190500Y-95570000D01*
X161210500Y-95570000D01*
X161210500Y-94820750D01*
X161464500Y-94820750D01*
X161464500Y-95570000D01*
X162263750Y-95570000D01*
X162277250Y-95556500D01*
X163586928Y-95556500D01*
X163599188Y-95680982D01*
X163635498Y-95800680D01*
X163694463Y-95910994D01*
X163773815Y-96007685D01*
X163870506Y-96087037D01*
X163980820Y-96146002D01*
X164100518Y-96182312D01*
X164225000Y-96194572D01*
X164814250Y-96191500D01*
X164973000Y-96032750D01*
X164973000Y-95121000D01*
X163748750Y-95121000D01*
X163590000Y-95279750D01*
X163586928Y-95556500D01*
X162277250Y-95556500D01*
X162422500Y-95411250D01*
X162425572Y-95297000D01*
X162413312Y-95172518D01*
X162377002Y-95052820D01*
X162318037Y-94942506D01*
X162238685Y-94845815D01*
X162141994Y-94766463D01*
X162031680Y-94707498D01*
X161911982Y-94671188D01*
X161787500Y-94658928D01*
X161623250Y-94662000D01*
X161464500Y-94820750D01*
X161210500Y-94820750D01*
X161051750Y-94662000D01*
X160887500Y-94658928D01*
X160763018Y-94671188D01*
X160643320Y-94707498D01*
X160533006Y-94766463D01*
X160436315Y-94845815D01*
X160356963Y-94942506D01*
X160297998Y-95052820D01*
X160272500Y-95136876D01*
X160272500Y-94431500D01*
X163586928Y-94431500D01*
X163590000Y-94708250D01*
X163748750Y-94867000D01*
X164973000Y-94867000D01*
X164973000Y-93955250D01*
X164814250Y-93796500D01*
X164225000Y-93793428D01*
X164100518Y-93805688D01*
X163980820Y-93841998D01*
X163870506Y-93900963D01*
X163773815Y-93980315D01*
X163694463Y-94077006D01*
X163635498Y-94187320D01*
X163599188Y-94307018D01*
X163586928Y-94431500D01*
X160272500Y-94431500D01*
X160272500Y-94327931D01*
X160277024Y-94281999D01*
X160258971Y-94098707D01*
X160223057Y-93980315D01*
X160205507Y-93922460D01*
X160118686Y-93760028D01*
X160001844Y-93617656D01*
X159966164Y-93588374D01*
X157685072Y-91307283D01*
X157685072Y-89841500D01*
X157672812Y-89717018D01*
X157636502Y-89597320D01*
X157577537Y-89487006D01*
X157498185Y-89390315D01*
X157401494Y-89310963D01*
X157291180Y-89251998D01*
X157171482Y-89215688D01*
X157047000Y-89203428D01*
X156732936Y-89203428D01*
X156736524Y-89167000D01*
X156718472Y-88983708D01*
X156665007Y-88807459D01*
X156629315Y-88740685D01*
X156578186Y-88645028D01*
X156461344Y-88502656D01*
X156425659Y-88473370D01*
X153167163Y-85214874D01*
X153206518Y-85226812D01*
X153331000Y-85239072D01*
X154231000Y-85239072D01*
X154355482Y-85226812D01*
X154475180Y-85190502D01*
X154585494Y-85131537D01*
X154682185Y-85052185D01*
X154761537Y-84955494D01*
X154820502Y-84845180D01*
X154856812Y-84725482D01*
X154869072Y-84601000D01*
X154869072Y-84235999D01*
X158937632Y-84235999D01*
X160638000Y-85936368D01*
G37*
%TD.AperFunction*%
%TD*%
M02*
