G04 #@! TF.GenerationSoftware,KiCad,Pcbnew,5.1.7-a382d34a8~87~ubuntu20.04.1*
G04 #@! TF.CreationDate,2020-11-09T08:25:24+01:00*
G04 #@! TF.ProjectId,OpenerV1.1_Board,4f70656e-6572-4563-912e-315f426f6172,rev?*
G04 #@! TF.SameCoordinates,Original*
G04 #@! TF.FileFunction,Copper,L2,Bot*
G04 #@! TF.FilePolarity,Positive*
%FSLAX46Y46*%
G04 Gerber Fmt 4.6, Leading zero omitted, Abs format (unit mm)*
G04 Created by KiCad (PCBNEW 5.1.7-a382d34a8~87~ubuntu20.04.1) date 2020-11-09 08:25:24*
%MOMM*%
%LPD*%
G01*
G04 APERTURE LIST*
G04 #@! TA.AperFunction,ComponentPad*
%ADD10O,1.700000X1.700000*%
G04 #@! TD*
G04 #@! TA.AperFunction,ComponentPad*
%ADD11R,1.700000X1.700000*%
G04 #@! TD*
G04 #@! TA.AperFunction,ComponentPad*
%ADD12O,1.800000X2.600000*%
G04 #@! TD*
G04 #@! TA.AperFunction,ComponentPad*
%ADD13R,1.800000X2.600000*%
G04 #@! TD*
G04 #@! TA.AperFunction,ComponentPad*
%ADD14R,3.000000X3.000000*%
G04 #@! TD*
G04 #@! TA.AperFunction,ComponentPad*
%ADD15C,3.000000*%
G04 #@! TD*
G04 #@! TA.AperFunction,ComponentPad*
%ADD16C,1.500000*%
G04 #@! TD*
G04 #@! TA.AperFunction,ComponentPad*
%ADD17C,2.000000*%
G04 #@! TD*
G04 #@! TA.AperFunction,ComponentPad*
%ADD18R,1.500000X1.500000*%
G04 #@! TD*
G04 #@! TA.AperFunction,ComponentPad*
%ADD19R,1.300000X1.300000*%
G04 #@! TD*
G04 #@! TA.AperFunction,ComponentPad*
%ADD20C,1.300000*%
G04 #@! TD*
G04 #@! TA.AperFunction,ComponentPad*
%ADD21C,1.600000*%
G04 #@! TD*
G04 #@! TA.AperFunction,ViaPad*
%ADD22C,0.800000*%
G04 #@! TD*
G04 #@! TA.AperFunction,Conductor*
%ADD23C,0.300000*%
G04 #@! TD*
G04 #@! TA.AperFunction,Conductor*
%ADD24C,0.750000*%
G04 #@! TD*
G04 #@! TA.AperFunction,Conductor*
%ADD25C,0.254000*%
G04 #@! TD*
G04 #@! TA.AperFunction,Conductor*
%ADD26C,0.100000*%
G04 #@! TD*
G04 APERTURE END LIST*
D10*
X119634000Y-43942000D03*
X122174000Y-43942000D03*
X124714000Y-43942000D03*
X127254000Y-43942000D03*
X129794000Y-43942000D03*
D11*
X132334000Y-43942000D03*
D12*
X105981500Y-91567000D03*
X108521500Y-91567000D03*
X111061500Y-91567000D03*
X113601500Y-91567000D03*
X116141500Y-91567000D03*
X118681500Y-91567000D03*
X121221500Y-91567000D03*
X123761500Y-91567000D03*
X126301500Y-91567000D03*
X128841500Y-91567000D03*
X131381500Y-91567000D03*
X133921500Y-91567000D03*
X136461500Y-91567000D03*
X139001500Y-91567000D03*
X141541500Y-91567000D03*
D13*
X144081500Y-91567000D03*
D10*
X154940000Y-83693000D03*
X157480000Y-83693000D03*
X154940000Y-86233000D03*
X157480000Y-86233000D03*
X154940000Y-88773000D03*
D11*
X157480000Y-88773000D03*
D14*
X138938000Y-66421000D03*
D15*
X159428000Y-66421000D03*
D16*
X129476500Y-66558500D03*
X129476500Y-61658500D03*
X126492000Y-77550000D03*
X126492000Y-80050000D03*
X126492000Y-82550000D03*
D17*
X158826500Y-52407500D03*
X163326500Y-52407500D03*
X158826500Y-58907500D03*
X163326500Y-58907500D03*
X158826500Y-72407500D03*
X163326500Y-72407500D03*
X158826500Y-78907500D03*
X163326500Y-78907500D03*
X158826500Y-92407500D03*
X163326500Y-92407500D03*
X158826500Y-98907500D03*
X163326500Y-98907500D03*
X135041500Y-51689000D03*
X135041500Y-47189000D03*
X141541500Y-51689000D03*
X141541500Y-47189000D03*
D18*
X117856000Y-54864000D03*
D16*
X112776000Y-54864000D03*
X115316000Y-54864000D03*
D18*
X113601500Y-70802500D03*
D16*
X118681500Y-70802500D03*
X116141500Y-70802500D03*
D18*
X105537000Y-70802500D03*
D16*
X110617000Y-70802500D03*
X108077000Y-70802500D03*
D19*
X108585000Y-84455000D03*
D20*
X108585000Y-86995000D03*
X109855000Y-85725000D03*
D10*
X147002500Y-44000000D03*
D11*
X144462500Y-44000000D03*
D10*
X106235500Y-44000000D03*
D11*
X108775500Y-44000000D03*
D21*
X121602500Y-83248500D03*
X121602500Y-80748500D03*
X121602500Y-75033500D03*
X121602500Y-77533500D03*
D22*
X124269500Y-78930500D03*
X124333000Y-76327000D03*
X123317000Y-47053500D03*
X107569000Y-47371000D03*
X100520500Y-47371000D03*
X152908000Y-78486000D03*
X155003500Y-76708000D03*
X134556500Y-61595000D03*
X134429500Y-57404000D03*
X149669500Y-52070000D03*
X150558500Y-58547000D03*
X129476500Y-54737000D03*
X133540500Y-62738000D03*
X129794000Y-77279500D03*
X111633000Y-79946500D03*
X143891000Y-75882500D03*
X131127500Y-75692000D03*
X136461500Y-88773000D03*
X108839000Y-46355000D03*
X110109000Y-57086500D03*
X136969500Y-76009500D03*
D23*
X124333000Y-78867000D02*
X124269500Y-78930500D01*
X124333000Y-76327000D02*
X124333000Y-78867000D01*
X123039500Y-75033500D02*
X124333000Y-76327000D01*
X121602500Y-75033500D02*
X123039500Y-75033500D01*
X134906000Y-47053500D02*
X135041500Y-47189000D01*
X123317000Y-47053500D02*
X134906000Y-47053500D01*
X107569000Y-47371000D02*
X100520500Y-47371000D01*
X153225500Y-78486000D02*
X155003500Y-76708000D01*
X152908000Y-78486000D02*
X153225500Y-78486000D01*
X134429500Y-61468000D02*
X134556500Y-61595000D01*
X134429500Y-57404000D02*
X134429500Y-61468000D01*
X141891999Y-73883499D02*
X143891000Y-75882500D01*
X117696001Y-73883499D02*
X141891999Y-73883499D01*
X111633000Y-79946500D02*
X117696001Y-73883499D01*
X136461500Y-88773000D02*
X136461500Y-87122000D01*
X131127500Y-81788000D02*
X131127500Y-75692000D01*
X136461500Y-87122000D02*
X131127500Y-81788000D01*
D24*
X108839000Y-55816500D02*
X110109000Y-57086500D01*
X108839000Y-46355000D02*
X108839000Y-55816500D01*
D23*
X156279999Y-82492999D02*
X143452999Y-82492999D01*
X157480000Y-83693000D02*
X156279999Y-82492999D01*
X143452999Y-82492999D02*
X136969500Y-76009500D01*
X136969500Y-76009500D02*
X136969500Y-76009500D01*
X141541500Y-51689000D02*
X135041500Y-51689000D01*
D25*
X164569000Y-51798434D02*
X164550326Y-51753351D01*
X164399193Y-51527164D01*
X164206836Y-51334807D01*
X163980649Y-51183674D01*
X163729323Y-51079571D01*
X163462517Y-51026500D01*
X163190483Y-51026500D01*
X162923677Y-51079571D01*
X162672351Y-51183674D01*
X162446164Y-51334807D01*
X162253807Y-51527164D01*
X162102674Y-51753351D01*
X161998571Y-52004677D01*
X161945500Y-52271483D01*
X161945500Y-52543517D01*
X161998571Y-52810323D01*
X162102674Y-53061649D01*
X162253807Y-53287836D01*
X162446164Y-53480193D01*
X162672351Y-53631326D01*
X162923677Y-53735429D01*
X163190483Y-53788500D01*
X163462517Y-53788500D01*
X163729323Y-53735429D01*
X163980649Y-53631326D01*
X164206836Y-53480193D01*
X164399193Y-53287836D01*
X164550326Y-53061649D01*
X164569000Y-53016566D01*
X164569000Y-58298435D01*
X164550326Y-58253351D01*
X164399193Y-58027164D01*
X164206836Y-57834807D01*
X163980649Y-57683674D01*
X163729323Y-57579571D01*
X163462517Y-57526500D01*
X163190483Y-57526500D01*
X162923677Y-57579571D01*
X162672351Y-57683674D01*
X162446164Y-57834807D01*
X162253807Y-58027164D01*
X162102674Y-58253351D01*
X161998571Y-58504677D01*
X161945500Y-58771483D01*
X161945500Y-59043517D01*
X161998571Y-59310323D01*
X162102674Y-59561649D01*
X162253807Y-59787836D01*
X162446164Y-59980193D01*
X162672351Y-60131326D01*
X162923677Y-60235429D01*
X163190483Y-60288500D01*
X163462517Y-60288500D01*
X163729323Y-60235429D01*
X163980649Y-60131326D01*
X164206836Y-59980193D01*
X164399193Y-59787836D01*
X164550326Y-59561649D01*
X164569000Y-59516565D01*
X164569001Y-71798435D01*
X164550326Y-71753351D01*
X164399193Y-71527164D01*
X164206836Y-71334807D01*
X163980649Y-71183674D01*
X163729323Y-71079571D01*
X163462517Y-71026500D01*
X163190483Y-71026500D01*
X162923677Y-71079571D01*
X162672351Y-71183674D01*
X162446164Y-71334807D01*
X162253807Y-71527164D01*
X162102674Y-71753351D01*
X161998571Y-72004677D01*
X161945500Y-72271483D01*
X161945500Y-72543517D01*
X161998571Y-72810323D01*
X162102674Y-73061649D01*
X162253807Y-73287836D01*
X162446164Y-73480193D01*
X162672351Y-73631326D01*
X162923677Y-73735429D01*
X163190483Y-73788500D01*
X163462517Y-73788500D01*
X163729323Y-73735429D01*
X163980649Y-73631326D01*
X164206836Y-73480193D01*
X164399193Y-73287836D01*
X164550326Y-73061649D01*
X164569001Y-73016565D01*
X164569001Y-78298435D01*
X164550326Y-78253351D01*
X164399193Y-78027164D01*
X164206836Y-77834807D01*
X163980649Y-77683674D01*
X163729323Y-77579571D01*
X163462517Y-77526500D01*
X163190483Y-77526500D01*
X162923677Y-77579571D01*
X162672351Y-77683674D01*
X162446164Y-77834807D01*
X162253807Y-78027164D01*
X162102674Y-78253351D01*
X161998571Y-78504677D01*
X161945500Y-78771483D01*
X161945500Y-79043517D01*
X161998571Y-79310323D01*
X162102674Y-79561649D01*
X162253807Y-79787836D01*
X162446164Y-79980193D01*
X162672351Y-80131326D01*
X162923677Y-80235429D01*
X163190483Y-80288500D01*
X163462517Y-80288500D01*
X163729323Y-80235429D01*
X163980649Y-80131326D01*
X164206836Y-79980193D01*
X164399193Y-79787836D01*
X164550326Y-79561649D01*
X164569001Y-79516565D01*
X164569001Y-91798436D01*
X164550326Y-91753351D01*
X164399193Y-91527164D01*
X164206836Y-91334807D01*
X163980649Y-91183674D01*
X163729323Y-91079571D01*
X163462517Y-91026500D01*
X163190483Y-91026500D01*
X162923677Y-91079571D01*
X162672351Y-91183674D01*
X162446164Y-91334807D01*
X162253807Y-91527164D01*
X162102674Y-91753351D01*
X161998571Y-92004677D01*
X161945500Y-92271483D01*
X161945500Y-92543517D01*
X161998571Y-92810323D01*
X162102674Y-93061649D01*
X162253807Y-93287836D01*
X162446164Y-93480193D01*
X162672351Y-93631326D01*
X162923677Y-93735429D01*
X163190483Y-93788500D01*
X163462517Y-93788500D01*
X163729323Y-93735429D01*
X163980649Y-93631326D01*
X164206836Y-93480193D01*
X164399193Y-93287836D01*
X164550326Y-93061649D01*
X164569001Y-93016564D01*
X164569001Y-98298436D01*
X164550326Y-98253351D01*
X164399193Y-98027164D01*
X164206836Y-97834807D01*
X163980649Y-97683674D01*
X163729323Y-97579571D01*
X163462517Y-97526500D01*
X163190483Y-97526500D01*
X162923677Y-97579571D01*
X162672351Y-97683674D01*
X162446164Y-97834807D01*
X162253807Y-98027164D01*
X162102674Y-98253351D01*
X161998571Y-98504677D01*
X161945500Y-98771483D01*
X161945500Y-99043517D01*
X161998571Y-99310323D01*
X162102674Y-99561649D01*
X162253807Y-99787836D01*
X162446164Y-99980193D01*
X162672351Y-100131326D01*
X162923677Y-100235429D01*
X163190483Y-100288500D01*
X163462517Y-100288500D01*
X163729323Y-100235429D01*
X163980649Y-100131326D01*
X164206836Y-99980193D01*
X164399193Y-99787836D01*
X164550326Y-99561649D01*
X164569001Y-99516564D01*
X164569001Y-100569000D01*
X99431000Y-100569000D01*
X99431000Y-98771483D01*
X157445500Y-98771483D01*
X157445500Y-99043517D01*
X157498571Y-99310323D01*
X157602674Y-99561649D01*
X157753807Y-99787836D01*
X157946164Y-99980193D01*
X158172351Y-100131326D01*
X158423677Y-100235429D01*
X158690483Y-100288500D01*
X158962517Y-100288500D01*
X159229323Y-100235429D01*
X159480649Y-100131326D01*
X159706836Y-99980193D01*
X159899193Y-99787836D01*
X160050326Y-99561649D01*
X160154429Y-99310323D01*
X160207500Y-99043517D01*
X160207500Y-98771483D01*
X160154429Y-98504677D01*
X160050326Y-98253351D01*
X159899193Y-98027164D01*
X159706836Y-97834807D01*
X159480649Y-97683674D01*
X159229323Y-97579571D01*
X158962517Y-97526500D01*
X158690483Y-97526500D01*
X158423677Y-97579571D01*
X158172351Y-97683674D01*
X157946164Y-97834807D01*
X157753807Y-98027164D01*
X157602674Y-98253351D01*
X157498571Y-98504677D01*
X157445500Y-98771483D01*
X99431000Y-98771483D01*
X99431000Y-96301417D01*
X101483756Y-96301417D01*
X101483756Y-96698583D01*
X101561239Y-97088117D01*
X101713228Y-97455050D01*
X101933881Y-97785281D01*
X102214719Y-98066119D01*
X102544950Y-98286772D01*
X102911883Y-98438761D01*
X103301417Y-98516244D01*
X103698583Y-98516244D01*
X104088117Y-98438761D01*
X104455050Y-98286772D01*
X104785281Y-98066119D01*
X105066119Y-97785281D01*
X105286772Y-97455050D01*
X105438761Y-97088117D01*
X105516244Y-96698583D01*
X105516244Y-96301417D01*
X146483756Y-96301417D01*
X146483756Y-96698583D01*
X146561239Y-97088117D01*
X146713228Y-97455050D01*
X146933881Y-97785281D01*
X147214719Y-98066119D01*
X147544950Y-98286772D01*
X147911883Y-98438761D01*
X148301417Y-98516244D01*
X148698583Y-98516244D01*
X149088117Y-98438761D01*
X149455050Y-98286772D01*
X149785281Y-98066119D01*
X150066119Y-97785281D01*
X150286772Y-97455050D01*
X150438761Y-97088117D01*
X150516244Y-96698583D01*
X150516244Y-96301417D01*
X150438761Y-95911883D01*
X150286772Y-95544950D01*
X150066119Y-95214719D01*
X149785281Y-94933881D01*
X149455050Y-94713228D01*
X149088117Y-94561239D01*
X148698583Y-94483756D01*
X148301417Y-94483756D01*
X147911883Y-94561239D01*
X147544950Y-94713228D01*
X147214719Y-94933881D01*
X146933881Y-95214719D01*
X146713228Y-95544950D01*
X146561239Y-95911883D01*
X146483756Y-96301417D01*
X105516244Y-96301417D01*
X105438761Y-95911883D01*
X105286772Y-95544950D01*
X105066119Y-95214719D01*
X104785281Y-94933881D01*
X104455050Y-94713228D01*
X104088117Y-94561239D01*
X103698583Y-94483756D01*
X103301417Y-94483756D01*
X102911883Y-94561239D01*
X102544950Y-94713228D01*
X102214719Y-94933881D01*
X101933881Y-95214719D01*
X101713228Y-95544950D01*
X101561239Y-95911883D01*
X101483756Y-96301417D01*
X99431000Y-96301417D01*
X99431000Y-91104070D01*
X104700500Y-91104070D01*
X104700500Y-92029929D01*
X104719035Y-92218119D01*
X104792284Y-92459588D01*
X104911234Y-92682128D01*
X105071314Y-92877186D01*
X105266371Y-93037266D01*
X105488911Y-93156216D01*
X105730380Y-93229465D01*
X105981500Y-93254198D01*
X106232619Y-93229465D01*
X106474088Y-93156216D01*
X106696628Y-93037266D01*
X106891686Y-92877186D01*
X107051766Y-92682129D01*
X107170716Y-92459589D01*
X107243965Y-92218120D01*
X107251500Y-92141615D01*
X107259035Y-92218119D01*
X107332284Y-92459588D01*
X107451234Y-92682128D01*
X107611314Y-92877186D01*
X107806371Y-93037266D01*
X108028911Y-93156216D01*
X108270380Y-93229465D01*
X108521500Y-93254198D01*
X108772619Y-93229465D01*
X109014088Y-93156216D01*
X109236628Y-93037266D01*
X109431686Y-92877186D01*
X109591766Y-92682129D01*
X109710716Y-92459589D01*
X109783965Y-92218120D01*
X109791500Y-92141615D01*
X109799035Y-92218119D01*
X109872284Y-92459588D01*
X109991234Y-92682128D01*
X110151314Y-92877186D01*
X110346371Y-93037266D01*
X110568911Y-93156216D01*
X110810380Y-93229465D01*
X111061500Y-93254198D01*
X111312619Y-93229465D01*
X111554088Y-93156216D01*
X111776628Y-93037266D01*
X111971686Y-92877186D01*
X112131766Y-92682129D01*
X112250716Y-92459589D01*
X112323965Y-92218120D01*
X112331500Y-92141615D01*
X112339035Y-92218119D01*
X112412284Y-92459588D01*
X112531234Y-92682128D01*
X112691314Y-92877186D01*
X112886371Y-93037266D01*
X113108911Y-93156216D01*
X113350380Y-93229465D01*
X113601500Y-93254198D01*
X113852619Y-93229465D01*
X114094088Y-93156216D01*
X114316628Y-93037266D01*
X114511686Y-92877186D01*
X114671766Y-92682129D01*
X114790716Y-92459589D01*
X114863965Y-92218120D01*
X114871500Y-92141615D01*
X114879035Y-92218119D01*
X114952284Y-92459588D01*
X115071234Y-92682128D01*
X115231314Y-92877186D01*
X115426371Y-93037266D01*
X115648911Y-93156216D01*
X115890380Y-93229465D01*
X116141500Y-93254198D01*
X116392619Y-93229465D01*
X116634088Y-93156216D01*
X116856628Y-93037266D01*
X117051686Y-92877186D01*
X117211766Y-92682129D01*
X117330716Y-92459589D01*
X117403965Y-92218120D01*
X117411500Y-92141615D01*
X117419035Y-92218119D01*
X117492284Y-92459588D01*
X117611234Y-92682128D01*
X117771314Y-92877186D01*
X117966371Y-93037266D01*
X118188911Y-93156216D01*
X118430380Y-93229465D01*
X118681500Y-93254198D01*
X118932619Y-93229465D01*
X119174088Y-93156216D01*
X119396628Y-93037266D01*
X119591686Y-92877186D01*
X119751766Y-92682129D01*
X119870716Y-92459589D01*
X119943965Y-92218120D01*
X119951500Y-92141615D01*
X119959035Y-92218119D01*
X120032284Y-92459588D01*
X120151234Y-92682128D01*
X120311314Y-92877186D01*
X120506371Y-93037266D01*
X120728911Y-93156216D01*
X120970380Y-93229465D01*
X121221500Y-93254198D01*
X121472619Y-93229465D01*
X121714088Y-93156216D01*
X121936628Y-93037266D01*
X122131686Y-92877186D01*
X122291766Y-92682129D01*
X122410716Y-92459589D01*
X122483965Y-92218120D01*
X122491500Y-92141615D01*
X122499035Y-92218119D01*
X122572284Y-92459588D01*
X122691234Y-92682128D01*
X122851314Y-92877186D01*
X123046371Y-93037266D01*
X123268911Y-93156216D01*
X123510380Y-93229465D01*
X123761500Y-93254198D01*
X124012619Y-93229465D01*
X124254088Y-93156216D01*
X124476628Y-93037266D01*
X124671686Y-92877186D01*
X124831766Y-92682129D01*
X124950716Y-92459589D01*
X125023965Y-92218120D01*
X125031500Y-92141615D01*
X125039035Y-92218119D01*
X125112284Y-92459588D01*
X125231234Y-92682128D01*
X125391314Y-92877186D01*
X125586371Y-93037266D01*
X125808911Y-93156216D01*
X126050380Y-93229465D01*
X126301500Y-93254198D01*
X126552619Y-93229465D01*
X126794088Y-93156216D01*
X127016628Y-93037266D01*
X127211686Y-92877186D01*
X127371766Y-92682129D01*
X127490716Y-92459589D01*
X127563965Y-92218120D01*
X127571500Y-92141615D01*
X127579035Y-92218119D01*
X127652284Y-92459588D01*
X127771234Y-92682128D01*
X127931314Y-92877186D01*
X128126371Y-93037266D01*
X128348911Y-93156216D01*
X128590380Y-93229465D01*
X128841500Y-93254198D01*
X129092619Y-93229465D01*
X129334088Y-93156216D01*
X129556628Y-93037266D01*
X129751686Y-92877186D01*
X129911766Y-92682129D01*
X130030716Y-92459589D01*
X130103965Y-92218120D01*
X130111500Y-92141615D01*
X130119035Y-92218119D01*
X130192284Y-92459588D01*
X130311234Y-92682128D01*
X130471314Y-92877186D01*
X130666371Y-93037266D01*
X130888911Y-93156216D01*
X131130380Y-93229465D01*
X131381500Y-93254198D01*
X131632619Y-93229465D01*
X131874088Y-93156216D01*
X132096628Y-93037266D01*
X132291686Y-92877186D01*
X132451766Y-92682129D01*
X132570716Y-92459589D01*
X132643965Y-92218120D01*
X132651500Y-92141615D01*
X132659035Y-92218119D01*
X132732284Y-92459588D01*
X132851234Y-92682128D01*
X133011314Y-92877186D01*
X133206371Y-93037266D01*
X133428911Y-93156216D01*
X133670380Y-93229465D01*
X133921500Y-93254198D01*
X134172619Y-93229465D01*
X134414088Y-93156216D01*
X134636628Y-93037266D01*
X134831686Y-92877186D01*
X134991766Y-92682129D01*
X135110716Y-92459589D01*
X135183965Y-92218120D01*
X135191500Y-92141615D01*
X135199035Y-92218119D01*
X135272284Y-92459588D01*
X135391234Y-92682128D01*
X135551314Y-92877186D01*
X135746371Y-93037266D01*
X135968911Y-93156216D01*
X136210380Y-93229465D01*
X136461500Y-93254198D01*
X136712619Y-93229465D01*
X136954088Y-93156216D01*
X137176628Y-93037266D01*
X137371686Y-92877186D01*
X137531766Y-92682129D01*
X137650716Y-92459589D01*
X137723965Y-92218120D01*
X137731500Y-92141615D01*
X137739035Y-92218119D01*
X137812284Y-92459588D01*
X137931234Y-92682128D01*
X138091314Y-92877186D01*
X138286371Y-93037266D01*
X138508911Y-93156216D01*
X138750380Y-93229465D01*
X139001500Y-93254198D01*
X139252619Y-93229465D01*
X139494088Y-93156216D01*
X139716628Y-93037266D01*
X139911686Y-92877186D01*
X140071766Y-92682129D01*
X140190716Y-92459589D01*
X140263965Y-92218120D01*
X140271500Y-92141615D01*
X140279035Y-92218119D01*
X140352284Y-92459588D01*
X140471234Y-92682128D01*
X140631314Y-92877186D01*
X140826371Y-93037266D01*
X141048911Y-93156216D01*
X141290380Y-93229465D01*
X141541500Y-93254198D01*
X141792619Y-93229465D01*
X142034088Y-93156216D01*
X142256628Y-93037266D01*
X142451686Y-92877186D01*
X142611766Y-92682129D01*
X142730716Y-92459589D01*
X142798657Y-92235618D01*
X142798657Y-92867000D01*
X142806013Y-92941689D01*
X142827799Y-93013508D01*
X142863178Y-93079696D01*
X142910789Y-93137711D01*
X142968804Y-93185322D01*
X143034992Y-93220701D01*
X143106811Y-93242487D01*
X143181500Y-93249843D01*
X144981500Y-93249843D01*
X145056189Y-93242487D01*
X145128008Y-93220701D01*
X145194196Y-93185322D01*
X145252211Y-93137711D01*
X145299822Y-93079696D01*
X145335201Y-93013508D01*
X145356987Y-92941689D01*
X145364343Y-92867000D01*
X145364343Y-92271483D01*
X157445500Y-92271483D01*
X157445500Y-92543517D01*
X157498571Y-92810323D01*
X157602674Y-93061649D01*
X157753807Y-93287836D01*
X157946164Y-93480193D01*
X158172351Y-93631326D01*
X158423677Y-93735429D01*
X158690483Y-93788500D01*
X158962517Y-93788500D01*
X159229323Y-93735429D01*
X159480649Y-93631326D01*
X159706836Y-93480193D01*
X159899193Y-93287836D01*
X160050326Y-93061649D01*
X160154429Y-92810323D01*
X160207500Y-92543517D01*
X160207500Y-92271483D01*
X160154429Y-92004677D01*
X160050326Y-91753351D01*
X159899193Y-91527164D01*
X159706836Y-91334807D01*
X159480649Y-91183674D01*
X159229323Y-91079571D01*
X158962517Y-91026500D01*
X158690483Y-91026500D01*
X158423677Y-91079571D01*
X158172351Y-91183674D01*
X157946164Y-91334807D01*
X157753807Y-91527164D01*
X157602674Y-91753351D01*
X157498571Y-92004677D01*
X157445500Y-92271483D01*
X145364343Y-92271483D01*
X145364343Y-90267000D01*
X145356987Y-90192311D01*
X145335201Y-90120492D01*
X145299822Y-90054304D01*
X145252211Y-89996289D01*
X145194196Y-89948678D01*
X145128008Y-89913299D01*
X145056189Y-89891513D01*
X144981500Y-89884157D01*
X143181500Y-89884157D01*
X143106811Y-89891513D01*
X143034992Y-89913299D01*
X142968804Y-89948678D01*
X142910789Y-89996289D01*
X142863178Y-90054304D01*
X142827799Y-90120492D01*
X142806013Y-90192311D01*
X142798657Y-90267000D01*
X142798657Y-90898382D01*
X142730716Y-90674411D01*
X142611766Y-90451871D01*
X142451686Y-90256814D01*
X142256629Y-90096734D01*
X142034089Y-89977784D01*
X141792620Y-89904535D01*
X141541500Y-89879802D01*
X141290381Y-89904535D01*
X141048912Y-89977784D01*
X140826372Y-90096734D01*
X140631315Y-90256814D01*
X140471234Y-90451871D01*
X140352284Y-90674411D01*
X140279035Y-90915880D01*
X140271500Y-90992385D01*
X140263965Y-90915880D01*
X140190716Y-90674411D01*
X140071766Y-90451871D01*
X139911686Y-90256814D01*
X139716629Y-90096734D01*
X139494089Y-89977784D01*
X139252620Y-89904535D01*
X139001500Y-89879802D01*
X138750381Y-89904535D01*
X138508912Y-89977784D01*
X138286372Y-90096734D01*
X138091315Y-90256814D01*
X137931234Y-90451871D01*
X137812284Y-90674411D01*
X137739035Y-90915880D01*
X137731500Y-90992385D01*
X137723965Y-90915880D01*
X137650716Y-90674411D01*
X137531766Y-90451871D01*
X137371686Y-90256814D01*
X137176629Y-90096734D01*
X136954089Y-89977784D01*
X136712620Y-89904535D01*
X136461500Y-89879802D01*
X136210381Y-89904535D01*
X135968912Y-89977784D01*
X135746372Y-90096734D01*
X135551315Y-90256814D01*
X135391234Y-90451871D01*
X135272284Y-90674411D01*
X135199035Y-90915880D01*
X135191500Y-90992385D01*
X135183965Y-90915880D01*
X135110716Y-90674411D01*
X134991766Y-90451871D01*
X134831686Y-90256814D01*
X134636629Y-90096734D01*
X134414089Y-89977784D01*
X134172620Y-89904535D01*
X133921500Y-89879802D01*
X133670381Y-89904535D01*
X133428912Y-89977784D01*
X133206372Y-90096734D01*
X133011315Y-90256814D01*
X132851234Y-90451871D01*
X132732284Y-90674411D01*
X132659035Y-90915880D01*
X132651500Y-90992385D01*
X132643965Y-90915880D01*
X132570716Y-90674411D01*
X132451766Y-90451871D01*
X132291686Y-90256814D01*
X132096629Y-90096734D01*
X131874089Y-89977784D01*
X131632620Y-89904535D01*
X131381500Y-89879802D01*
X131130381Y-89904535D01*
X130888912Y-89977784D01*
X130666372Y-90096734D01*
X130471315Y-90256814D01*
X130311234Y-90451871D01*
X130192284Y-90674411D01*
X130119035Y-90915880D01*
X130111500Y-90992385D01*
X130103965Y-90915880D01*
X130030716Y-90674411D01*
X129911766Y-90451871D01*
X129751686Y-90256814D01*
X129556629Y-90096734D01*
X129334089Y-89977784D01*
X129092620Y-89904535D01*
X128841500Y-89879802D01*
X128590381Y-89904535D01*
X128348912Y-89977784D01*
X128126372Y-90096734D01*
X127931315Y-90256814D01*
X127771234Y-90451871D01*
X127652284Y-90674411D01*
X127579035Y-90915880D01*
X127571500Y-90992385D01*
X127563965Y-90915880D01*
X127490716Y-90674411D01*
X127371766Y-90451871D01*
X127211686Y-90256814D01*
X127016629Y-90096734D01*
X126794089Y-89977784D01*
X126552620Y-89904535D01*
X126301500Y-89879802D01*
X126050381Y-89904535D01*
X125808912Y-89977784D01*
X125586372Y-90096734D01*
X125391315Y-90256814D01*
X125231234Y-90451871D01*
X125112284Y-90674411D01*
X125039035Y-90915880D01*
X125031500Y-90992385D01*
X125023965Y-90915880D01*
X124950716Y-90674411D01*
X124831766Y-90451871D01*
X124671686Y-90256814D01*
X124476629Y-90096734D01*
X124254089Y-89977784D01*
X124012620Y-89904535D01*
X123761500Y-89879802D01*
X123510381Y-89904535D01*
X123268912Y-89977784D01*
X123046372Y-90096734D01*
X122851315Y-90256814D01*
X122691234Y-90451871D01*
X122572284Y-90674411D01*
X122499035Y-90915880D01*
X122491500Y-90992385D01*
X122483965Y-90915880D01*
X122410716Y-90674411D01*
X122291766Y-90451871D01*
X122131686Y-90256814D01*
X121936629Y-90096734D01*
X121714089Y-89977784D01*
X121472620Y-89904535D01*
X121221500Y-89879802D01*
X120970381Y-89904535D01*
X120728912Y-89977784D01*
X120506372Y-90096734D01*
X120311315Y-90256814D01*
X120151234Y-90451871D01*
X120032284Y-90674411D01*
X119959035Y-90915880D01*
X119951500Y-90992385D01*
X119943965Y-90915880D01*
X119870716Y-90674411D01*
X119751766Y-90451871D01*
X119591686Y-90256814D01*
X119396629Y-90096734D01*
X119174089Y-89977784D01*
X118932620Y-89904535D01*
X118681500Y-89879802D01*
X118430381Y-89904535D01*
X118188912Y-89977784D01*
X117966372Y-90096734D01*
X117771315Y-90256814D01*
X117611234Y-90451871D01*
X117492284Y-90674411D01*
X117419035Y-90915880D01*
X117411500Y-90992385D01*
X117403965Y-90915880D01*
X117330716Y-90674411D01*
X117211766Y-90451871D01*
X117051686Y-90256814D01*
X116856629Y-90096734D01*
X116634089Y-89977784D01*
X116392620Y-89904535D01*
X116141500Y-89879802D01*
X115890381Y-89904535D01*
X115648912Y-89977784D01*
X115426372Y-90096734D01*
X115231315Y-90256814D01*
X115071234Y-90451871D01*
X114952284Y-90674411D01*
X114879035Y-90915880D01*
X114871500Y-90992385D01*
X114863965Y-90915880D01*
X114790716Y-90674411D01*
X114671766Y-90451871D01*
X114511686Y-90256814D01*
X114316629Y-90096734D01*
X114094089Y-89977784D01*
X113852620Y-89904535D01*
X113601500Y-89879802D01*
X113350381Y-89904535D01*
X113108912Y-89977784D01*
X112886372Y-90096734D01*
X112691315Y-90256814D01*
X112531234Y-90451871D01*
X112412284Y-90674411D01*
X112339035Y-90915880D01*
X112331500Y-90992385D01*
X112323965Y-90915880D01*
X112250716Y-90674411D01*
X112131766Y-90451871D01*
X111971686Y-90256814D01*
X111776629Y-90096734D01*
X111554089Y-89977784D01*
X111312620Y-89904535D01*
X111061500Y-89879802D01*
X110810381Y-89904535D01*
X110568912Y-89977784D01*
X110346372Y-90096734D01*
X110151315Y-90256814D01*
X109991234Y-90451871D01*
X109872284Y-90674411D01*
X109799035Y-90915880D01*
X109791500Y-90992385D01*
X109783965Y-90915880D01*
X109710716Y-90674411D01*
X109591766Y-90451871D01*
X109431686Y-90256814D01*
X109236629Y-90096734D01*
X109014089Y-89977784D01*
X108772620Y-89904535D01*
X108521500Y-89879802D01*
X108270381Y-89904535D01*
X108028912Y-89977784D01*
X107806372Y-90096734D01*
X107611315Y-90256814D01*
X107451234Y-90451871D01*
X107332284Y-90674411D01*
X107259035Y-90915880D01*
X107251500Y-90992385D01*
X107243965Y-90915880D01*
X107170716Y-90674411D01*
X107051766Y-90451871D01*
X106891686Y-90256814D01*
X106696629Y-90096734D01*
X106474089Y-89977784D01*
X106232620Y-89904535D01*
X105981500Y-89879802D01*
X105730381Y-89904535D01*
X105488912Y-89977784D01*
X105266372Y-90096734D01*
X105071315Y-90256814D01*
X104911234Y-90451871D01*
X104792284Y-90674411D01*
X104719035Y-90915880D01*
X104700500Y-91104070D01*
X99431000Y-91104070D01*
X99431000Y-83805000D01*
X107552157Y-83805000D01*
X107552157Y-85105000D01*
X107559513Y-85179689D01*
X107581299Y-85251508D01*
X107616678Y-85317696D01*
X107664289Y-85375711D01*
X107722304Y-85423322D01*
X107788492Y-85458701D01*
X107860311Y-85480487D01*
X107935000Y-85487843D01*
X108590444Y-85487843D01*
X108575898Y-85548524D01*
X108566048Y-85801455D01*
X108591849Y-85964000D01*
X108483455Y-85964000D01*
X108284268Y-86003620D01*
X108096638Y-86081339D01*
X107927776Y-86194170D01*
X107784170Y-86337776D01*
X107671339Y-86506638D01*
X107593620Y-86694268D01*
X107554000Y-86893455D01*
X107554000Y-87096545D01*
X107593620Y-87295732D01*
X107671339Y-87483362D01*
X107784170Y-87652224D01*
X107927776Y-87795830D01*
X108096638Y-87908661D01*
X108284268Y-87986380D01*
X108483455Y-88026000D01*
X108686545Y-88026000D01*
X108885732Y-87986380D01*
X109073362Y-87908661D01*
X109242224Y-87795830D01*
X109385830Y-87652224D01*
X109498661Y-87483362D01*
X109576380Y-87295732D01*
X109616000Y-87096545D01*
X109616000Y-86989114D01*
X109678524Y-87004102D01*
X109931455Y-87013952D01*
X110181449Y-86974270D01*
X110418896Y-86886578D01*
X110507534Y-86839201D01*
X110560922Y-86610527D01*
X109855000Y-85904605D01*
X109840858Y-85918748D01*
X109661253Y-85739143D01*
X109675395Y-85725000D01*
X110034605Y-85725000D01*
X110740527Y-86430922D01*
X110969201Y-86377534D01*
X111075095Y-86147626D01*
X111134102Y-85901476D01*
X111143952Y-85648545D01*
X111104270Y-85398551D01*
X111016578Y-85161104D01*
X110969201Y-85072466D01*
X110740527Y-85019078D01*
X110034605Y-85725000D01*
X109675395Y-85725000D01*
X109661253Y-85710858D01*
X109840858Y-85531253D01*
X109855000Y-85545395D01*
X110560922Y-84839473D01*
X110507534Y-84610799D01*
X110277626Y-84504905D01*
X110031476Y-84445898D01*
X109778545Y-84436048D01*
X109617843Y-84461557D01*
X109617843Y-83805000D01*
X109610487Y-83730311D01*
X109588701Y-83658492D01*
X109553322Y-83592304D01*
X109505711Y-83534289D01*
X109447696Y-83486678D01*
X109381508Y-83451299D01*
X109309689Y-83429513D01*
X109235000Y-83422157D01*
X107935000Y-83422157D01*
X107860311Y-83429513D01*
X107788492Y-83451299D01*
X107722304Y-83486678D01*
X107664289Y-83534289D01*
X107616678Y-83592304D01*
X107581299Y-83658492D01*
X107559513Y-83730311D01*
X107552157Y-83805000D01*
X99431000Y-83805000D01*
X99431000Y-83132182D01*
X120421500Y-83132182D01*
X120421500Y-83364818D01*
X120466886Y-83592985D01*
X120555912Y-83807913D01*
X120685158Y-84001343D01*
X120849657Y-84165842D01*
X121043087Y-84295088D01*
X121258015Y-84384114D01*
X121486182Y-84429500D01*
X121718818Y-84429500D01*
X121946985Y-84384114D01*
X122161913Y-84295088D01*
X122355343Y-84165842D01*
X122519842Y-84001343D01*
X122649088Y-83807913D01*
X122738114Y-83592985D01*
X122783500Y-83364818D01*
X122783500Y-83132182D01*
X122738114Y-82904015D01*
X122649088Y-82689087D01*
X122519842Y-82495657D01*
X122462791Y-82438606D01*
X125361000Y-82438606D01*
X125361000Y-82661394D01*
X125404464Y-82879900D01*
X125489721Y-83085729D01*
X125613495Y-83270970D01*
X125771030Y-83428505D01*
X125956271Y-83552279D01*
X126162100Y-83637536D01*
X126380606Y-83681000D01*
X126603394Y-83681000D01*
X126821900Y-83637536D01*
X127027729Y-83552279D01*
X127212970Y-83428505D01*
X127370505Y-83270970D01*
X127494279Y-83085729D01*
X127579536Y-82879900D01*
X127623000Y-82661394D01*
X127623000Y-82438606D01*
X127579536Y-82220100D01*
X127494279Y-82014271D01*
X127370505Y-81829030D01*
X127212970Y-81671495D01*
X127027729Y-81547721D01*
X126821900Y-81462464D01*
X126603394Y-81419000D01*
X126380606Y-81419000D01*
X126162100Y-81462464D01*
X125956271Y-81547721D01*
X125771030Y-81671495D01*
X125613495Y-81829030D01*
X125489721Y-82014271D01*
X125404464Y-82220100D01*
X125361000Y-82438606D01*
X122462791Y-82438606D01*
X122355343Y-82331158D01*
X122161913Y-82201912D01*
X121946985Y-82112886D01*
X121718818Y-82067500D01*
X121486182Y-82067500D01*
X121258015Y-82112886D01*
X121043087Y-82201912D01*
X120849657Y-82331158D01*
X120685158Y-82495657D01*
X120555912Y-82689087D01*
X120466886Y-82904015D01*
X120421500Y-83132182D01*
X99431000Y-83132182D01*
X99431000Y-79869578D01*
X110852000Y-79869578D01*
X110852000Y-80023422D01*
X110882013Y-80174309D01*
X110940887Y-80316442D01*
X111026358Y-80444359D01*
X111135141Y-80553142D01*
X111263058Y-80638613D01*
X111405191Y-80697487D01*
X111556078Y-80727500D01*
X111709922Y-80727500D01*
X111860809Y-80697487D01*
X112002942Y-80638613D01*
X112012566Y-80632182D01*
X120421500Y-80632182D01*
X120421500Y-80864818D01*
X120466886Y-81092985D01*
X120555912Y-81307913D01*
X120685158Y-81501343D01*
X120849657Y-81665842D01*
X121043087Y-81795088D01*
X121258015Y-81884114D01*
X121486182Y-81929500D01*
X121718818Y-81929500D01*
X121946985Y-81884114D01*
X122161913Y-81795088D01*
X122355343Y-81665842D01*
X122519842Y-81501343D01*
X122649088Y-81307913D01*
X122738114Y-81092985D01*
X122783500Y-80864818D01*
X122783500Y-80632182D01*
X122738114Y-80404015D01*
X122649088Y-80189087D01*
X122519842Y-79995657D01*
X122462791Y-79938606D01*
X125361000Y-79938606D01*
X125361000Y-80161394D01*
X125404464Y-80379900D01*
X125489721Y-80585729D01*
X125613495Y-80770970D01*
X125771030Y-80928505D01*
X125956271Y-81052279D01*
X126162100Y-81137536D01*
X126380606Y-81181000D01*
X126603394Y-81181000D01*
X126821900Y-81137536D01*
X127027729Y-81052279D01*
X127212970Y-80928505D01*
X127370505Y-80770970D01*
X127494279Y-80585729D01*
X127579536Y-80379900D01*
X127623000Y-80161394D01*
X127623000Y-79938606D01*
X127579536Y-79720100D01*
X127494279Y-79514271D01*
X127370505Y-79329030D01*
X127212970Y-79171495D01*
X127027729Y-79047721D01*
X126821900Y-78962464D01*
X126603394Y-78919000D01*
X126380606Y-78919000D01*
X126162100Y-78962464D01*
X125956271Y-79047721D01*
X125771030Y-79171495D01*
X125613495Y-79329030D01*
X125489721Y-79514271D01*
X125404464Y-79720100D01*
X125361000Y-79938606D01*
X122462791Y-79938606D01*
X122355343Y-79831158D01*
X122161913Y-79701912D01*
X121946985Y-79612886D01*
X121718818Y-79567500D01*
X121486182Y-79567500D01*
X121258015Y-79612886D01*
X121043087Y-79701912D01*
X120849657Y-79831158D01*
X120685158Y-79995657D01*
X120555912Y-80189087D01*
X120466886Y-80404015D01*
X120421500Y-80632182D01*
X112012566Y-80632182D01*
X112130859Y-80553142D01*
X112239642Y-80444359D01*
X112325113Y-80316442D01*
X112383987Y-80174309D01*
X112414000Y-80023422D01*
X112414000Y-79916446D01*
X114913264Y-77417182D01*
X120421500Y-77417182D01*
X120421500Y-77649818D01*
X120466886Y-77877985D01*
X120555912Y-78092913D01*
X120685158Y-78286343D01*
X120849657Y-78450842D01*
X121043087Y-78580088D01*
X121258015Y-78669114D01*
X121486182Y-78714500D01*
X121718818Y-78714500D01*
X121946985Y-78669114D01*
X122161913Y-78580088D01*
X122355343Y-78450842D01*
X122519842Y-78286343D01*
X122649088Y-78092913D01*
X122738114Y-77877985D01*
X122783500Y-77649818D01*
X122783500Y-77417182D01*
X122738114Y-77189015D01*
X122649088Y-76974087D01*
X122519842Y-76780657D01*
X122355343Y-76616158D01*
X122161913Y-76486912D01*
X121946985Y-76397886D01*
X121718818Y-76352500D01*
X121486182Y-76352500D01*
X121258015Y-76397886D01*
X121043087Y-76486912D01*
X120849657Y-76616158D01*
X120685158Y-76780657D01*
X120555912Y-76974087D01*
X120466886Y-77189015D01*
X120421500Y-77417182D01*
X114913264Y-77417182D01*
X117915948Y-74414499D01*
X120595727Y-74414499D01*
X120555912Y-74474087D01*
X120466886Y-74689015D01*
X120421500Y-74917182D01*
X120421500Y-75149818D01*
X120466886Y-75377985D01*
X120555912Y-75592913D01*
X120685158Y-75786343D01*
X120849657Y-75950842D01*
X121043087Y-76080088D01*
X121258015Y-76169114D01*
X121486182Y-76214500D01*
X121718818Y-76214500D01*
X121946985Y-76169114D01*
X122161913Y-76080088D01*
X122355343Y-75950842D01*
X122519842Y-75786343D01*
X122649088Y-75592913D01*
X122660857Y-75564500D01*
X122819554Y-75564500D01*
X123552000Y-76296947D01*
X123552000Y-76403922D01*
X123582013Y-76554809D01*
X123640887Y-76696942D01*
X123726358Y-76824859D01*
X123802000Y-76900501D01*
X123802001Y-78303572D01*
X123771641Y-78323858D01*
X123662858Y-78432641D01*
X123577387Y-78560558D01*
X123518513Y-78702691D01*
X123488500Y-78853578D01*
X123488500Y-79007422D01*
X123518513Y-79158309D01*
X123577387Y-79300442D01*
X123662858Y-79428359D01*
X123771641Y-79537142D01*
X123899558Y-79622613D01*
X124041691Y-79681487D01*
X124192578Y-79711500D01*
X124346422Y-79711500D01*
X124497309Y-79681487D01*
X124639442Y-79622613D01*
X124767359Y-79537142D01*
X124876142Y-79428359D01*
X124961613Y-79300442D01*
X125020487Y-79158309D01*
X125050500Y-79007422D01*
X125050500Y-78853578D01*
X125020487Y-78702691D01*
X124961613Y-78560558D01*
X124876142Y-78432641D01*
X124864000Y-78420499D01*
X124864000Y-77438606D01*
X125361000Y-77438606D01*
X125361000Y-77661394D01*
X125404464Y-77879900D01*
X125489721Y-78085729D01*
X125613495Y-78270970D01*
X125771030Y-78428505D01*
X125956271Y-78552279D01*
X126162100Y-78637536D01*
X126380606Y-78681000D01*
X126603394Y-78681000D01*
X126821900Y-78637536D01*
X127027729Y-78552279D01*
X127212970Y-78428505D01*
X127370505Y-78270970D01*
X127494279Y-78085729D01*
X127579536Y-77879900D01*
X127623000Y-77661394D01*
X127623000Y-77438606D01*
X127579536Y-77220100D01*
X127494279Y-77014271D01*
X127370505Y-76829030D01*
X127212970Y-76671495D01*
X127027729Y-76547721D01*
X126821900Y-76462464D01*
X126603394Y-76419000D01*
X126380606Y-76419000D01*
X126162100Y-76462464D01*
X125956271Y-76547721D01*
X125771030Y-76671495D01*
X125613495Y-76829030D01*
X125489721Y-77014271D01*
X125404464Y-77220100D01*
X125361000Y-77438606D01*
X124864000Y-77438606D01*
X124864000Y-76900501D01*
X124939642Y-76824859D01*
X125025113Y-76696942D01*
X125083987Y-76554809D01*
X125114000Y-76403922D01*
X125114000Y-76250078D01*
X125083987Y-76099191D01*
X125025113Y-75957058D01*
X124939642Y-75829141D01*
X124830859Y-75720358D01*
X124702942Y-75634887D01*
X124655120Y-75615078D01*
X130346500Y-75615078D01*
X130346500Y-75768922D01*
X130376513Y-75919809D01*
X130435387Y-76061942D01*
X130520858Y-76189859D01*
X130596501Y-76265502D01*
X130596500Y-81761926D01*
X130593932Y-81788000D01*
X130596500Y-81814074D01*
X130596500Y-81814083D01*
X130604183Y-81892093D01*
X130634547Y-81992187D01*
X130683854Y-82084435D01*
X130750210Y-82165290D01*
X130770475Y-82181921D01*
X135930501Y-87341948D01*
X135930500Y-88199499D01*
X135854858Y-88275141D01*
X135769387Y-88403058D01*
X135710513Y-88545191D01*
X135680500Y-88696078D01*
X135680500Y-88849922D01*
X135710513Y-89000809D01*
X135769387Y-89142942D01*
X135854858Y-89270859D01*
X135963641Y-89379642D01*
X136091558Y-89465113D01*
X136233691Y-89523987D01*
X136384578Y-89554000D01*
X136538422Y-89554000D01*
X136689309Y-89523987D01*
X136831442Y-89465113D01*
X136959359Y-89379642D01*
X137068142Y-89270859D01*
X137153613Y-89142942D01*
X137159019Y-89129890D01*
X153498524Y-89129890D01*
X153543175Y-89277099D01*
X153668359Y-89539920D01*
X153842412Y-89773269D01*
X154058645Y-89968178D01*
X154308748Y-90117157D01*
X154583109Y-90214481D01*
X154813000Y-90093814D01*
X154813000Y-88900000D01*
X153619845Y-88900000D01*
X153498524Y-89129890D01*
X137159019Y-89129890D01*
X137212487Y-89000809D01*
X137242500Y-88849922D01*
X137242500Y-88696078D01*
X137212487Y-88545191D01*
X137159020Y-88416110D01*
X153498524Y-88416110D01*
X153619845Y-88646000D01*
X154813000Y-88646000D01*
X154813000Y-88626000D01*
X155067000Y-88626000D01*
X155067000Y-88646000D01*
X155087000Y-88646000D01*
X155087000Y-88900000D01*
X155067000Y-88900000D01*
X155067000Y-90093814D01*
X155296891Y-90214481D01*
X155571252Y-90117157D01*
X155821355Y-89968178D01*
X156037588Y-89773269D01*
X156211641Y-89539920D01*
X156247157Y-89465355D01*
X156247157Y-89623000D01*
X156254513Y-89697689D01*
X156276299Y-89769508D01*
X156311678Y-89835696D01*
X156359289Y-89893711D01*
X156417304Y-89941322D01*
X156483492Y-89976701D01*
X156555311Y-89998487D01*
X156630000Y-90005843D01*
X158330000Y-90005843D01*
X158404689Y-89998487D01*
X158476508Y-89976701D01*
X158542696Y-89941322D01*
X158600711Y-89893711D01*
X158648322Y-89835696D01*
X158683701Y-89769508D01*
X158705487Y-89697689D01*
X158712843Y-89623000D01*
X158712843Y-87923000D01*
X158705487Y-87848311D01*
X158683701Y-87776492D01*
X158648322Y-87710304D01*
X158600711Y-87652289D01*
X158542696Y-87604678D01*
X158476508Y-87569299D01*
X158404689Y-87547513D01*
X158330000Y-87540157D01*
X156630000Y-87540157D01*
X156555311Y-87547513D01*
X156483492Y-87569299D01*
X156417304Y-87604678D01*
X156359289Y-87652289D01*
X156311678Y-87710304D01*
X156276299Y-87776492D01*
X156254513Y-87848311D01*
X156247157Y-87923000D01*
X156247157Y-88080645D01*
X156211641Y-88006080D01*
X156037588Y-87772731D01*
X155821355Y-87577822D01*
X155571252Y-87428843D01*
X155408832Y-87371228D01*
X155523097Y-87323898D01*
X155724717Y-87189180D01*
X155896180Y-87017717D01*
X156030898Y-86816097D01*
X156123693Y-86592069D01*
X156171000Y-86354243D01*
X156171000Y-86111757D01*
X156249000Y-86111757D01*
X156249000Y-86354243D01*
X156296307Y-86592069D01*
X156389102Y-86816097D01*
X156523820Y-87017717D01*
X156695283Y-87189180D01*
X156896903Y-87323898D01*
X157120931Y-87416693D01*
X157358757Y-87464000D01*
X157601243Y-87464000D01*
X157839069Y-87416693D01*
X158063097Y-87323898D01*
X158264717Y-87189180D01*
X158436180Y-87017717D01*
X158570898Y-86816097D01*
X158663693Y-86592069D01*
X158711000Y-86354243D01*
X158711000Y-86111757D01*
X158663693Y-85873931D01*
X158570898Y-85649903D01*
X158436180Y-85448283D01*
X158264717Y-85276820D01*
X158063097Y-85142102D01*
X157839069Y-85049307D01*
X157601243Y-85002000D01*
X157358757Y-85002000D01*
X157120931Y-85049307D01*
X156896903Y-85142102D01*
X156695283Y-85276820D01*
X156523820Y-85448283D01*
X156389102Y-85649903D01*
X156296307Y-85873931D01*
X156249000Y-86111757D01*
X156171000Y-86111757D01*
X156123693Y-85873931D01*
X156030898Y-85649903D01*
X155896180Y-85448283D01*
X155724717Y-85276820D01*
X155523097Y-85142102D01*
X155299069Y-85049307D01*
X155061243Y-85002000D01*
X154818757Y-85002000D01*
X154580931Y-85049307D01*
X154356903Y-85142102D01*
X154155283Y-85276820D01*
X153983820Y-85448283D01*
X153849102Y-85649903D01*
X153756307Y-85873931D01*
X153709000Y-86111757D01*
X153709000Y-86354243D01*
X153756307Y-86592069D01*
X153849102Y-86816097D01*
X153983820Y-87017717D01*
X154155283Y-87189180D01*
X154356903Y-87323898D01*
X154471168Y-87371228D01*
X154308748Y-87428843D01*
X154058645Y-87577822D01*
X153842412Y-87772731D01*
X153668359Y-88006080D01*
X153543175Y-88268901D01*
X153498524Y-88416110D01*
X137159020Y-88416110D01*
X137153613Y-88403058D01*
X137068142Y-88275141D01*
X136992500Y-88199499D01*
X136992500Y-87148073D01*
X136995068Y-87121999D01*
X136992500Y-87095925D01*
X136992500Y-87095916D01*
X136984817Y-87017906D01*
X136954453Y-86917812D01*
X136912435Y-86839201D01*
X136905146Y-86825564D01*
X136855417Y-86764970D01*
X136838790Y-86744710D01*
X136818530Y-86728083D01*
X131658500Y-81568054D01*
X131658500Y-76265501D01*
X131734142Y-76189859D01*
X131819613Y-76061942D01*
X131873197Y-75932578D01*
X136188500Y-75932578D01*
X136188500Y-76086422D01*
X136218513Y-76237309D01*
X136277387Y-76379442D01*
X136362858Y-76507359D01*
X136471641Y-76616142D01*
X136599558Y-76701613D01*
X136741691Y-76760487D01*
X136892578Y-76790500D01*
X136999554Y-76790500D01*
X143059081Y-82850028D01*
X143075709Y-82870289D01*
X143095969Y-82886916D01*
X143156563Y-82936645D01*
X143188695Y-82953820D01*
X143248811Y-82985952D01*
X143348905Y-83016316D01*
X143426915Y-83023999D01*
X143426924Y-83023999D01*
X143452998Y-83026567D01*
X143479072Y-83023999D01*
X153906501Y-83023999D01*
X153849102Y-83109903D01*
X153756307Y-83333931D01*
X153709000Y-83571757D01*
X153709000Y-83814243D01*
X153756307Y-84052069D01*
X153849102Y-84276097D01*
X153983820Y-84477717D01*
X154155283Y-84649180D01*
X154356903Y-84783898D01*
X154580931Y-84876693D01*
X154818757Y-84924000D01*
X155061243Y-84924000D01*
X155299069Y-84876693D01*
X155523097Y-84783898D01*
X155724717Y-84649180D01*
X155896180Y-84477717D01*
X156030898Y-84276097D01*
X156123693Y-84052069D01*
X156171000Y-83814243D01*
X156171000Y-83571757D01*
X156123693Y-83333931D01*
X156030898Y-83109903D01*
X155973499Y-83023999D01*
X156060053Y-83023999D01*
X156317887Y-83281833D01*
X156296307Y-83333931D01*
X156249000Y-83571757D01*
X156249000Y-83814243D01*
X156296307Y-84052069D01*
X156389102Y-84276097D01*
X156523820Y-84477717D01*
X156695283Y-84649180D01*
X156896903Y-84783898D01*
X157120931Y-84876693D01*
X157358757Y-84924000D01*
X157601243Y-84924000D01*
X157839069Y-84876693D01*
X158063097Y-84783898D01*
X158264717Y-84649180D01*
X158436180Y-84477717D01*
X158570898Y-84276097D01*
X158663693Y-84052069D01*
X158711000Y-83814243D01*
X158711000Y-83571757D01*
X158663693Y-83333931D01*
X158570898Y-83109903D01*
X158436180Y-82908283D01*
X158264717Y-82736820D01*
X158063097Y-82602102D01*
X157839069Y-82509307D01*
X157601243Y-82462000D01*
X157358757Y-82462000D01*
X157120931Y-82509307D01*
X157068833Y-82530887D01*
X156673920Y-82135974D01*
X156657289Y-82115709D01*
X156576434Y-82049353D01*
X156484187Y-82000046D01*
X156384093Y-81969682D01*
X156306083Y-81961999D01*
X156306073Y-81961999D01*
X156279999Y-81959431D01*
X156253925Y-81961999D01*
X143672946Y-81961999D01*
X140120025Y-78409078D01*
X152127000Y-78409078D01*
X152127000Y-78562922D01*
X152157013Y-78713809D01*
X152215887Y-78855942D01*
X152301358Y-78983859D01*
X152410141Y-79092642D01*
X152538058Y-79178113D01*
X152680191Y-79236987D01*
X152831078Y-79267000D01*
X152984922Y-79267000D01*
X153135809Y-79236987D01*
X153277942Y-79178113D01*
X153405859Y-79092642D01*
X153514642Y-78983859D01*
X153585992Y-78877076D01*
X153602790Y-78863290D01*
X153619421Y-78843025D01*
X153690963Y-78771483D01*
X157445500Y-78771483D01*
X157445500Y-79043517D01*
X157498571Y-79310323D01*
X157602674Y-79561649D01*
X157753807Y-79787836D01*
X157946164Y-79980193D01*
X158172351Y-80131326D01*
X158423677Y-80235429D01*
X158690483Y-80288500D01*
X158962517Y-80288500D01*
X159229323Y-80235429D01*
X159480649Y-80131326D01*
X159706836Y-79980193D01*
X159899193Y-79787836D01*
X160050326Y-79561649D01*
X160154429Y-79310323D01*
X160207500Y-79043517D01*
X160207500Y-78771483D01*
X160154429Y-78504677D01*
X160050326Y-78253351D01*
X159899193Y-78027164D01*
X159706836Y-77834807D01*
X159480649Y-77683674D01*
X159229323Y-77579571D01*
X158962517Y-77526500D01*
X158690483Y-77526500D01*
X158423677Y-77579571D01*
X158172351Y-77683674D01*
X157946164Y-77834807D01*
X157753807Y-78027164D01*
X157602674Y-78253351D01*
X157498571Y-78504677D01*
X157445500Y-78771483D01*
X153690963Y-78771483D01*
X154973448Y-77489000D01*
X155080422Y-77489000D01*
X155231309Y-77458987D01*
X155373442Y-77400113D01*
X155501359Y-77314642D01*
X155610142Y-77205859D01*
X155695613Y-77077942D01*
X155754487Y-76935809D01*
X155784500Y-76784922D01*
X155784500Y-76631078D01*
X155754487Y-76480191D01*
X155695613Y-76338058D01*
X155610142Y-76210141D01*
X155501359Y-76101358D01*
X155373442Y-76015887D01*
X155231309Y-75957013D01*
X155080422Y-75927000D01*
X154926578Y-75927000D01*
X154775691Y-75957013D01*
X154633558Y-76015887D01*
X154505641Y-76101358D01*
X154396858Y-76210141D01*
X154311387Y-76338058D01*
X154252513Y-76480191D01*
X154222500Y-76631078D01*
X154222500Y-76738052D01*
X153199259Y-77761295D01*
X153135809Y-77735013D01*
X152984922Y-77705000D01*
X152831078Y-77705000D01*
X152680191Y-77735013D01*
X152538058Y-77793887D01*
X152410141Y-77879358D01*
X152301358Y-77988141D01*
X152215887Y-78116058D01*
X152157013Y-78258191D01*
X152127000Y-78409078D01*
X140120025Y-78409078D01*
X137750500Y-76039554D01*
X137750500Y-75932578D01*
X137720487Y-75781691D01*
X137661613Y-75639558D01*
X137576142Y-75511641D01*
X137467359Y-75402858D01*
X137339442Y-75317387D01*
X137197309Y-75258513D01*
X137046422Y-75228500D01*
X136892578Y-75228500D01*
X136741691Y-75258513D01*
X136599558Y-75317387D01*
X136471641Y-75402858D01*
X136362858Y-75511641D01*
X136277387Y-75639558D01*
X136218513Y-75781691D01*
X136188500Y-75932578D01*
X131873197Y-75932578D01*
X131878487Y-75919809D01*
X131908500Y-75768922D01*
X131908500Y-75615078D01*
X131878487Y-75464191D01*
X131819613Y-75322058D01*
X131734142Y-75194141D01*
X131625359Y-75085358D01*
X131497442Y-74999887D01*
X131355309Y-74941013D01*
X131204422Y-74911000D01*
X131050578Y-74911000D01*
X130899691Y-74941013D01*
X130757558Y-74999887D01*
X130629641Y-75085358D01*
X130520858Y-75194141D01*
X130435387Y-75322058D01*
X130376513Y-75464191D01*
X130346500Y-75615078D01*
X124655120Y-75615078D01*
X124560809Y-75576013D01*
X124409922Y-75546000D01*
X124302947Y-75546000D01*
X123433421Y-74676475D01*
X123416790Y-74656210D01*
X123335935Y-74589854D01*
X123243688Y-74540547D01*
X123143594Y-74510183D01*
X123065584Y-74502500D01*
X123065574Y-74502500D01*
X123039500Y-74499932D01*
X123013426Y-74502500D01*
X122660857Y-74502500D01*
X122649088Y-74474087D01*
X122609273Y-74414499D01*
X141672053Y-74414499D01*
X143110000Y-75852447D01*
X143110000Y-75959422D01*
X143140013Y-76110309D01*
X143198887Y-76252442D01*
X143284358Y-76380359D01*
X143393141Y-76489142D01*
X143521058Y-76574613D01*
X143663191Y-76633487D01*
X143814078Y-76663500D01*
X143967922Y-76663500D01*
X144118809Y-76633487D01*
X144260942Y-76574613D01*
X144388859Y-76489142D01*
X144497642Y-76380359D01*
X144583113Y-76252442D01*
X144641987Y-76110309D01*
X144672000Y-75959422D01*
X144672000Y-75805578D01*
X144641987Y-75654691D01*
X144583113Y-75512558D01*
X144497642Y-75384641D01*
X144388859Y-75275858D01*
X144260942Y-75190387D01*
X144118809Y-75131513D01*
X143967922Y-75101500D01*
X143860947Y-75101500D01*
X142285920Y-73526474D01*
X142269289Y-73506209D01*
X142188434Y-73439853D01*
X142096187Y-73390546D01*
X141996093Y-73360182D01*
X141918083Y-73352499D01*
X141918073Y-73352499D01*
X141891999Y-73349931D01*
X141865925Y-73352499D01*
X117722074Y-73352499D01*
X117696000Y-73349931D01*
X117669926Y-73352499D01*
X117669917Y-73352499D01*
X117591907Y-73360182D01*
X117491813Y-73390546D01*
X117431697Y-73422678D01*
X117399565Y-73439853D01*
X117338971Y-73489582D01*
X117318711Y-73506209D01*
X117302084Y-73526469D01*
X111663054Y-79165500D01*
X111556078Y-79165500D01*
X111405191Y-79195513D01*
X111263058Y-79254387D01*
X111135141Y-79339858D01*
X111026358Y-79448641D01*
X110940887Y-79576558D01*
X110882013Y-79718691D01*
X110852000Y-79869578D01*
X99431000Y-79869578D01*
X99431000Y-72271483D01*
X157445500Y-72271483D01*
X157445500Y-72543517D01*
X157498571Y-72810323D01*
X157602674Y-73061649D01*
X157753807Y-73287836D01*
X157946164Y-73480193D01*
X158172351Y-73631326D01*
X158423677Y-73735429D01*
X158690483Y-73788500D01*
X158962517Y-73788500D01*
X159229323Y-73735429D01*
X159480649Y-73631326D01*
X159706836Y-73480193D01*
X159899193Y-73287836D01*
X160050326Y-73061649D01*
X160154429Y-72810323D01*
X160207500Y-72543517D01*
X160207500Y-72271483D01*
X160154429Y-72004677D01*
X160050326Y-71753351D01*
X159899193Y-71527164D01*
X159706836Y-71334807D01*
X159480649Y-71183674D01*
X159229323Y-71079571D01*
X158962517Y-71026500D01*
X158690483Y-71026500D01*
X158423677Y-71079571D01*
X158172351Y-71183674D01*
X157946164Y-71334807D01*
X157753807Y-71527164D01*
X157602674Y-71753351D01*
X157498571Y-72004677D01*
X157445500Y-72271483D01*
X99431000Y-72271483D01*
X99431000Y-70052500D01*
X104404157Y-70052500D01*
X104404157Y-71552500D01*
X104411513Y-71627189D01*
X104433299Y-71699008D01*
X104468678Y-71765196D01*
X104516289Y-71823211D01*
X104574304Y-71870822D01*
X104640492Y-71906201D01*
X104712311Y-71927987D01*
X104787000Y-71935343D01*
X106287000Y-71935343D01*
X106361689Y-71927987D01*
X106433508Y-71906201D01*
X106499696Y-71870822D01*
X106557711Y-71823211D01*
X106605322Y-71765196D01*
X106640701Y-71699008D01*
X106662487Y-71627189D01*
X106669843Y-71552500D01*
X106669843Y-70691106D01*
X106946000Y-70691106D01*
X106946000Y-70913894D01*
X106989464Y-71132400D01*
X107074721Y-71338229D01*
X107198495Y-71523470D01*
X107356030Y-71681005D01*
X107541271Y-71804779D01*
X107747100Y-71890036D01*
X107965606Y-71933500D01*
X108188394Y-71933500D01*
X108406900Y-71890036D01*
X108612729Y-71804779D01*
X108797970Y-71681005D01*
X108955505Y-71523470D01*
X109079279Y-71338229D01*
X109164536Y-71132400D01*
X109208000Y-70913894D01*
X109208000Y-70691106D01*
X109486000Y-70691106D01*
X109486000Y-70913894D01*
X109529464Y-71132400D01*
X109614721Y-71338229D01*
X109738495Y-71523470D01*
X109896030Y-71681005D01*
X110081271Y-71804779D01*
X110287100Y-71890036D01*
X110505606Y-71933500D01*
X110728394Y-71933500D01*
X110946900Y-71890036D01*
X111152729Y-71804779D01*
X111337970Y-71681005D01*
X111495505Y-71523470D01*
X111619279Y-71338229D01*
X111704536Y-71132400D01*
X111748000Y-70913894D01*
X111748000Y-70691106D01*
X111704536Y-70472600D01*
X111619279Y-70266771D01*
X111495505Y-70081530D01*
X111466475Y-70052500D01*
X112468657Y-70052500D01*
X112468657Y-71552500D01*
X112476013Y-71627189D01*
X112497799Y-71699008D01*
X112533178Y-71765196D01*
X112580789Y-71823211D01*
X112638804Y-71870822D01*
X112704992Y-71906201D01*
X112776811Y-71927987D01*
X112851500Y-71935343D01*
X114351500Y-71935343D01*
X114426189Y-71927987D01*
X114498008Y-71906201D01*
X114564196Y-71870822D01*
X114622211Y-71823211D01*
X114669822Y-71765196D01*
X114705201Y-71699008D01*
X114726987Y-71627189D01*
X114734343Y-71552500D01*
X114734343Y-70691106D01*
X115010500Y-70691106D01*
X115010500Y-70913894D01*
X115053964Y-71132400D01*
X115139221Y-71338229D01*
X115262995Y-71523470D01*
X115420530Y-71681005D01*
X115605771Y-71804779D01*
X115811600Y-71890036D01*
X116030106Y-71933500D01*
X116252894Y-71933500D01*
X116471400Y-71890036D01*
X116677229Y-71804779D01*
X116862470Y-71681005D01*
X117020005Y-71523470D01*
X117143779Y-71338229D01*
X117229036Y-71132400D01*
X117272500Y-70913894D01*
X117272500Y-70691106D01*
X117550500Y-70691106D01*
X117550500Y-70913894D01*
X117593964Y-71132400D01*
X117679221Y-71338229D01*
X117802995Y-71523470D01*
X117960530Y-71681005D01*
X118145771Y-71804779D01*
X118351600Y-71890036D01*
X118570106Y-71933500D01*
X118792894Y-71933500D01*
X119011400Y-71890036D01*
X119217229Y-71804779D01*
X119402470Y-71681005D01*
X119560005Y-71523470D01*
X119683779Y-71338229D01*
X119769036Y-71132400D01*
X119812500Y-70913894D01*
X119812500Y-70691106D01*
X119769036Y-70472600D01*
X119683779Y-70266771D01*
X119560005Y-70081530D01*
X119402470Y-69923995D01*
X119217229Y-69800221D01*
X119011400Y-69714964D01*
X118792894Y-69671500D01*
X118570106Y-69671500D01*
X118351600Y-69714964D01*
X118145771Y-69800221D01*
X117960530Y-69923995D01*
X117802995Y-70081530D01*
X117679221Y-70266771D01*
X117593964Y-70472600D01*
X117550500Y-70691106D01*
X117272500Y-70691106D01*
X117229036Y-70472600D01*
X117143779Y-70266771D01*
X117020005Y-70081530D01*
X116862470Y-69923995D01*
X116677229Y-69800221D01*
X116471400Y-69714964D01*
X116252894Y-69671500D01*
X116030106Y-69671500D01*
X115811600Y-69714964D01*
X115605771Y-69800221D01*
X115420530Y-69923995D01*
X115262995Y-70081530D01*
X115139221Y-70266771D01*
X115053964Y-70472600D01*
X115010500Y-70691106D01*
X114734343Y-70691106D01*
X114734343Y-70052500D01*
X114726987Y-69977811D01*
X114705201Y-69905992D01*
X114669822Y-69839804D01*
X114622211Y-69781789D01*
X114564196Y-69734178D01*
X114498008Y-69698799D01*
X114426189Y-69677013D01*
X114351500Y-69669657D01*
X112851500Y-69669657D01*
X112776811Y-69677013D01*
X112704992Y-69698799D01*
X112638804Y-69734178D01*
X112580789Y-69781789D01*
X112533178Y-69839804D01*
X112497799Y-69905992D01*
X112476013Y-69977811D01*
X112468657Y-70052500D01*
X111466475Y-70052500D01*
X111337970Y-69923995D01*
X111152729Y-69800221D01*
X110946900Y-69714964D01*
X110728394Y-69671500D01*
X110505606Y-69671500D01*
X110287100Y-69714964D01*
X110081271Y-69800221D01*
X109896030Y-69923995D01*
X109738495Y-70081530D01*
X109614721Y-70266771D01*
X109529464Y-70472600D01*
X109486000Y-70691106D01*
X109208000Y-70691106D01*
X109164536Y-70472600D01*
X109079279Y-70266771D01*
X108955505Y-70081530D01*
X108797970Y-69923995D01*
X108612729Y-69800221D01*
X108406900Y-69714964D01*
X108188394Y-69671500D01*
X107965606Y-69671500D01*
X107747100Y-69714964D01*
X107541271Y-69800221D01*
X107356030Y-69923995D01*
X107198495Y-70081530D01*
X107074721Y-70266771D01*
X106989464Y-70472600D01*
X106946000Y-70691106D01*
X106669843Y-70691106D01*
X106669843Y-70052500D01*
X106662487Y-69977811D01*
X106640701Y-69905992D01*
X106605322Y-69839804D01*
X106557711Y-69781789D01*
X106499696Y-69734178D01*
X106433508Y-69698799D01*
X106361689Y-69677013D01*
X106287000Y-69669657D01*
X104787000Y-69669657D01*
X104712311Y-69677013D01*
X104640492Y-69698799D01*
X104574304Y-69734178D01*
X104516289Y-69781789D01*
X104468678Y-69839804D01*
X104433299Y-69905992D01*
X104411513Y-69977811D01*
X104404157Y-70052500D01*
X99431000Y-70052500D01*
X99431000Y-66447106D01*
X128345500Y-66447106D01*
X128345500Y-66669894D01*
X128388964Y-66888400D01*
X128474221Y-67094229D01*
X128597995Y-67279470D01*
X128755530Y-67437005D01*
X128940771Y-67560779D01*
X129146600Y-67646036D01*
X129365106Y-67689500D01*
X129587894Y-67689500D01*
X129806400Y-67646036D01*
X130012229Y-67560779D01*
X130197470Y-67437005D01*
X130355005Y-67279470D01*
X130478779Y-67094229D01*
X130564036Y-66888400D01*
X130607500Y-66669894D01*
X130607500Y-66447106D01*
X130564036Y-66228600D01*
X130478779Y-66022771D01*
X130355005Y-65837530D01*
X130197470Y-65679995D01*
X130012229Y-65556221D01*
X129806400Y-65470964D01*
X129587894Y-65427500D01*
X129365106Y-65427500D01*
X129146600Y-65470964D01*
X128940771Y-65556221D01*
X128755530Y-65679995D01*
X128597995Y-65837530D01*
X128474221Y-66022771D01*
X128388964Y-66228600D01*
X128345500Y-66447106D01*
X99431000Y-66447106D01*
X99431000Y-64921000D01*
X137055157Y-64921000D01*
X137055157Y-67921000D01*
X137062513Y-67995689D01*
X137084299Y-68067508D01*
X137119678Y-68133696D01*
X137167289Y-68191711D01*
X137225304Y-68239322D01*
X137291492Y-68274701D01*
X137363311Y-68296487D01*
X137438000Y-68303843D01*
X140438000Y-68303843D01*
X140512689Y-68296487D01*
X140584508Y-68274701D01*
X140650696Y-68239322D01*
X140708711Y-68191711D01*
X140756322Y-68133696D01*
X140791701Y-68067508D01*
X140813487Y-67995689D01*
X140820843Y-67921000D01*
X140820843Y-66235738D01*
X157547000Y-66235738D01*
X157547000Y-66606262D01*
X157619286Y-66969667D01*
X157761080Y-67311987D01*
X157966932Y-67620067D01*
X158228933Y-67882068D01*
X158537013Y-68087920D01*
X158879333Y-68229714D01*
X159242738Y-68302000D01*
X159613262Y-68302000D01*
X159976667Y-68229714D01*
X160318987Y-68087920D01*
X160627067Y-67882068D01*
X160889068Y-67620067D01*
X161094920Y-67311987D01*
X161236714Y-66969667D01*
X161309000Y-66606262D01*
X161309000Y-66235738D01*
X161236714Y-65872333D01*
X161094920Y-65530013D01*
X160889068Y-65221933D01*
X160627067Y-64959932D01*
X160318987Y-64754080D01*
X159976667Y-64612286D01*
X159613262Y-64540000D01*
X159242738Y-64540000D01*
X158879333Y-64612286D01*
X158537013Y-64754080D01*
X158228933Y-64959932D01*
X157966932Y-65221933D01*
X157761080Y-65530013D01*
X157619286Y-65872333D01*
X157547000Y-66235738D01*
X140820843Y-66235738D01*
X140820843Y-64921000D01*
X140813487Y-64846311D01*
X140791701Y-64774492D01*
X140756322Y-64708304D01*
X140708711Y-64650289D01*
X140650696Y-64602678D01*
X140584508Y-64567299D01*
X140512689Y-64545513D01*
X140438000Y-64538157D01*
X137438000Y-64538157D01*
X137363311Y-64545513D01*
X137291492Y-64567299D01*
X137225304Y-64602678D01*
X137167289Y-64650289D01*
X137119678Y-64708304D01*
X137084299Y-64774492D01*
X137062513Y-64846311D01*
X137055157Y-64921000D01*
X99431000Y-64921000D01*
X99431000Y-61547106D01*
X128345500Y-61547106D01*
X128345500Y-61769894D01*
X128388964Y-61988400D01*
X128474221Y-62194229D01*
X128597995Y-62379470D01*
X128755530Y-62537005D01*
X128940771Y-62660779D01*
X129146600Y-62746036D01*
X129365106Y-62789500D01*
X129587894Y-62789500D01*
X129806400Y-62746036D01*
X130012229Y-62660779D01*
X130197470Y-62537005D01*
X130355005Y-62379470D01*
X130478779Y-62194229D01*
X130564036Y-61988400D01*
X130607500Y-61769894D01*
X130607500Y-61547106D01*
X130564036Y-61328600D01*
X130478779Y-61122771D01*
X130355005Y-60937530D01*
X130197470Y-60779995D01*
X130012229Y-60656221D01*
X129806400Y-60570964D01*
X129587894Y-60527500D01*
X129365106Y-60527500D01*
X129146600Y-60570964D01*
X128940771Y-60656221D01*
X128755530Y-60779995D01*
X128597995Y-60937530D01*
X128474221Y-61122771D01*
X128388964Y-61328600D01*
X128345500Y-61547106D01*
X99431000Y-61547106D01*
X99431000Y-47294078D01*
X99739500Y-47294078D01*
X99739500Y-47447922D01*
X99769513Y-47598809D01*
X99828387Y-47740942D01*
X99913858Y-47868859D01*
X100022641Y-47977642D01*
X100150558Y-48063113D01*
X100292691Y-48121987D01*
X100443578Y-48152000D01*
X100597422Y-48152000D01*
X100748309Y-48121987D01*
X100890442Y-48063113D01*
X101018359Y-47977642D01*
X101094001Y-47902000D01*
X106995499Y-47902000D01*
X107071141Y-47977642D01*
X107199058Y-48063113D01*
X107341191Y-48121987D01*
X107492078Y-48152000D01*
X107645922Y-48152000D01*
X107796809Y-48121987D01*
X107938942Y-48063113D01*
X108066859Y-47977642D01*
X108083000Y-47961501D01*
X108083001Y-55779361D01*
X108079343Y-55816500D01*
X108093940Y-55964701D01*
X108137169Y-56107208D01*
X108207369Y-56238543D01*
X108301842Y-56353659D01*
X108330689Y-56377333D01*
X109431163Y-57477808D01*
X109502358Y-57584359D01*
X109611141Y-57693142D01*
X109739058Y-57778613D01*
X109881191Y-57837487D01*
X110032078Y-57867500D01*
X110185922Y-57867500D01*
X110336809Y-57837487D01*
X110478942Y-57778613D01*
X110606859Y-57693142D01*
X110715642Y-57584359D01*
X110801113Y-57456442D01*
X110854697Y-57327078D01*
X133648500Y-57327078D01*
X133648500Y-57480922D01*
X133678513Y-57631809D01*
X133737387Y-57773942D01*
X133822858Y-57901859D01*
X133898500Y-57977501D01*
X133898501Y-61174003D01*
X133864387Y-61225058D01*
X133805513Y-61367191D01*
X133775500Y-61518078D01*
X133775500Y-61671922D01*
X133805513Y-61822809D01*
X133864387Y-61964942D01*
X133949858Y-62092859D01*
X134058641Y-62201642D01*
X134186558Y-62287113D01*
X134328691Y-62345987D01*
X134479578Y-62376000D01*
X134633422Y-62376000D01*
X134784309Y-62345987D01*
X134926442Y-62287113D01*
X135054359Y-62201642D01*
X135163142Y-62092859D01*
X135248613Y-61964942D01*
X135307487Y-61822809D01*
X135337500Y-61671922D01*
X135337500Y-61518078D01*
X135307487Y-61367191D01*
X135248613Y-61225058D01*
X135163142Y-61097141D01*
X135054359Y-60988358D01*
X134960500Y-60925644D01*
X134960500Y-58771483D01*
X157445500Y-58771483D01*
X157445500Y-59043517D01*
X157498571Y-59310323D01*
X157602674Y-59561649D01*
X157753807Y-59787836D01*
X157946164Y-59980193D01*
X158172351Y-60131326D01*
X158423677Y-60235429D01*
X158690483Y-60288500D01*
X158962517Y-60288500D01*
X159229323Y-60235429D01*
X159480649Y-60131326D01*
X159706836Y-59980193D01*
X159899193Y-59787836D01*
X160050326Y-59561649D01*
X160154429Y-59310323D01*
X160207500Y-59043517D01*
X160207500Y-58771483D01*
X160154429Y-58504677D01*
X160050326Y-58253351D01*
X159899193Y-58027164D01*
X159706836Y-57834807D01*
X159480649Y-57683674D01*
X159229323Y-57579571D01*
X158962517Y-57526500D01*
X158690483Y-57526500D01*
X158423677Y-57579571D01*
X158172351Y-57683674D01*
X157946164Y-57834807D01*
X157753807Y-58027164D01*
X157602674Y-58253351D01*
X157498571Y-58504677D01*
X157445500Y-58771483D01*
X134960500Y-58771483D01*
X134960500Y-57977501D01*
X135036142Y-57901859D01*
X135121613Y-57773942D01*
X135180487Y-57631809D01*
X135210500Y-57480922D01*
X135210500Y-57327078D01*
X135180487Y-57176191D01*
X135121613Y-57034058D01*
X135036142Y-56906141D01*
X134927359Y-56797358D01*
X134799442Y-56711887D01*
X134657309Y-56653013D01*
X134506422Y-56623000D01*
X134352578Y-56623000D01*
X134201691Y-56653013D01*
X134059558Y-56711887D01*
X133931641Y-56797358D01*
X133822858Y-56906141D01*
X133737387Y-57034058D01*
X133678513Y-57176191D01*
X133648500Y-57327078D01*
X110854697Y-57327078D01*
X110859987Y-57314309D01*
X110890000Y-57163422D01*
X110890000Y-57009578D01*
X110859987Y-56858691D01*
X110801113Y-56716558D01*
X110715642Y-56588641D01*
X110606859Y-56479858D01*
X110500308Y-56408663D01*
X109595000Y-55503356D01*
X109595000Y-54752606D01*
X111645000Y-54752606D01*
X111645000Y-54975394D01*
X111688464Y-55193900D01*
X111773721Y-55399729D01*
X111897495Y-55584970D01*
X112055030Y-55742505D01*
X112240271Y-55866279D01*
X112446100Y-55951536D01*
X112664606Y-55995000D01*
X112887394Y-55995000D01*
X113105900Y-55951536D01*
X113311729Y-55866279D01*
X113496970Y-55742505D01*
X113654505Y-55584970D01*
X113778279Y-55399729D01*
X113863536Y-55193900D01*
X113907000Y-54975394D01*
X113907000Y-54752606D01*
X114185000Y-54752606D01*
X114185000Y-54975394D01*
X114228464Y-55193900D01*
X114313721Y-55399729D01*
X114437495Y-55584970D01*
X114595030Y-55742505D01*
X114780271Y-55866279D01*
X114986100Y-55951536D01*
X115204606Y-55995000D01*
X115427394Y-55995000D01*
X115645900Y-55951536D01*
X115851729Y-55866279D01*
X116036970Y-55742505D01*
X116194505Y-55584970D01*
X116318279Y-55399729D01*
X116403536Y-55193900D01*
X116447000Y-54975394D01*
X116447000Y-54752606D01*
X116403536Y-54534100D01*
X116318279Y-54328271D01*
X116194505Y-54143030D01*
X116165475Y-54114000D01*
X116723157Y-54114000D01*
X116723157Y-55614000D01*
X116730513Y-55688689D01*
X116752299Y-55760508D01*
X116787678Y-55826696D01*
X116835289Y-55884711D01*
X116893304Y-55932322D01*
X116959492Y-55967701D01*
X117031311Y-55989487D01*
X117106000Y-55996843D01*
X118606000Y-55996843D01*
X118680689Y-55989487D01*
X118752508Y-55967701D01*
X118818696Y-55932322D01*
X118876711Y-55884711D01*
X118924322Y-55826696D01*
X118959701Y-55760508D01*
X118981487Y-55688689D01*
X118988843Y-55614000D01*
X118988843Y-54114000D01*
X118981487Y-54039311D01*
X118959701Y-53967492D01*
X118924322Y-53901304D01*
X118876711Y-53843289D01*
X118818696Y-53795678D01*
X118752508Y-53760299D01*
X118680689Y-53738513D01*
X118606000Y-53731157D01*
X117106000Y-53731157D01*
X117031311Y-53738513D01*
X116959492Y-53760299D01*
X116893304Y-53795678D01*
X116835289Y-53843289D01*
X116787678Y-53901304D01*
X116752299Y-53967492D01*
X116730513Y-54039311D01*
X116723157Y-54114000D01*
X116165475Y-54114000D01*
X116036970Y-53985495D01*
X115851729Y-53861721D01*
X115645900Y-53776464D01*
X115427394Y-53733000D01*
X115204606Y-53733000D01*
X114986100Y-53776464D01*
X114780271Y-53861721D01*
X114595030Y-53985495D01*
X114437495Y-54143030D01*
X114313721Y-54328271D01*
X114228464Y-54534100D01*
X114185000Y-54752606D01*
X113907000Y-54752606D01*
X113863536Y-54534100D01*
X113778279Y-54328271D01*
X113654505Y-54143030D01*
X113496970Y-53985495D01*
X113311729Y-53861721D01*
X113105900Y-53776464D01*
X112887394Y-53733000D01*
X112664606Y-53733000D01*
X112446100Y-53776464D01*
X112240271Y-53861721D01*
X112055030Y-53985495D01*
X111897495Y-54143030D01*
X111773721Y-54328271D01*
X111688464Y-54534100D01*
X111645000Y-54752606D01*
X109595000Y-54752606D01*
X109595000Y-51552983D01*
X133660500Y-51552983D01*
X133660500Y-51825017D01*
X133713571Y-52091823D01*
X133817674Y-52343149D01*
X133968807Y-52569336D01*
X134161164Y-52761693D01*
X134387351Y-52912826D01*
X134638677Y-53016929D01*
X134905483Y-53070000D01*
X135177517Y-53070000D01*
X135444323Y-53016929D01*
X135695649Y-52912826D01*
X135921836Y-52761693D01*
X136114193Y-52569336D01*
X136265326Y-52343149D01*
X136316336Y-52220000D01*
X140266664Y-52220000D01*
X140317674Y-52343149D01*
X140468807Y-52569336D01*
X140661164Y-52761693D01*
X140887351Y-52912826D01*
X141138677Y-53016929D01*
X141405483Y-53070000D01*
X141677517Y-53070000D01*
X141944323Y-53016929D01*
X142195649Y-52912826D01*
X142421836Y-52761693D01*
X142614193Y-52569336D01*
X142765326Y-52343149D01*
X142795011Y-52271483D01*
X157445500Y-52271483D01*
X157445500Y-52543517D01*
X157498571Y-52810323D01*
X157602674Y-53061649D01*
X157753807Y-53287836D01*
X157946164Y-53480193D01*
X158172351Y-53631326D01*
X158423677Y-53735429D01*
X158690483Y-53788500D01*
X158962517Y-53788500D01*
X159229323Y-53735429D01*
X159480649Y-53631326D01*
X159706836Y-53480193D01*
X159899193Y-53287836D01*
X160050326Y-53061649D01*
X160154429Y-52810323D01*
X160207500Y-52543517D01*
X160207500Y-52271483D01*
X160154429Y-52004677D01*
X160050326Y-51753351D01*
X159899193Y-51527164D01*
X159706836Y-51334807D01*
X159480649Y-51183674D01*
X159229323Y-51079571D01*
X158962517Y-51026500D01*
X158690483Y-51026500D01*
X158423677Y-51079571D01*
X158172351Y-51183674D01*
X157946164Y-51334807D01*
X157753807Y-51527164D01*
X157602674Y-51753351D01*
X157498571Y-52004677D01*
X157445500Y-52271483D01*
X142795011Y-52271483D01*
X142869429Y-52091823D01*
X142922500Y-51825017D01*
X142922500Y-51552983D01*
X142869429Y-51286177D01*
X142765326Y-51034851D01*
X142614193Y-50808664D01*
X142421836Y-50616307D01*
X142195649Y-50465174D01*
X141944323Y-50361071D01*
X141677517Y-50308000D01*
X141405483Y-50308000D01*
X141138677Y-50361071D01*
X140887351Y-50465174D01*
X140661164Y-50616307D01*
X140468807Y-50808664D01*
X140317674Y-51034851D01*
X140266664Y-51158000D01*
X136316336Y-51158000D01*
X136265326Y-51034851D01*
X136114193Y-50808664D01*
X135921836Y-50616307D01*
X135695649Y-50465174D01*
X135444323Y-50361071D01*
X135177517Y-50308000D01*
X134905483Y-50308000D01*
X134638677Y-50361071D01*
X134387351Y-50465174D01*
X134161164Y-50616307D01*
X133968807Y-50808664D01*
X133817674Y-51034851D01*
X133713571Y-51286177D01*
X133660500Y-51552983D01*
X109595000Y-51552983D01*
X109595000Y-46976578D01*
X122536000Y-46976578D01*
X122536000Y-47130422D01*
X122566013Y-47281309D01*
X122624887Y-47423442D01*
X122710358Y-47551359D01*
X122819141Y-47660142D01*
X122947058Y-47745613D01*
X123089191Y-47804487D01*
X123240078Y-47834500D01*
X123393922Y-47834500D01*
X123544809Y-47804487D01*
X123686942Y-47745613D01*
X123814859Y-47660142D01*
X123890501Y-47584500D01*
X133712114Y-47584500D01*
X133713571Y-47591823D01*
X133817674Y-47843149D01*
X133968807Y-48069336D01*
X134161164Y-48261693D01*
X134387351Y-48412826D01*
X134638677Y-48516929D01*
X134905483Y-48570000D01*
X135177517Y-48570000D01*
X135444323Y-48516929D01*
X135695649Y-48412826D01*
X135921836Y-48261693D01*
X136114193Y-48069336D01*
X136265326Y-47843149D01*
X136369429Y-47591823D01*
X136422500Y-47325017D01*
X136422500Y-47052983D01*
X140160500Y-47052983D01*
X140160500Y-47325017D01*
X140213571Y-47591823D01*
X140317674Y-47843149D01*
X140468807Y-48069336D01*
X140661164Y-48261693D01*
X140887351Y-48412826D01*
X141138677Y-48516929D01*
X141405483Y-48570000D01*
X141677517Y-48570000D01*
X141944323Y-48516929D01*
X142195649Y-48412826D01*
X142421836Y-48261693D01*
X142614193Y-48069336D01*
X142765326Y-47843149D01*
X142869429Y-47591823D01*
X142922500Y-47325017D01*
X142922500Y-47052983D01*
X142869429Y-46786177D01*
X142765326Y-46534851D01*
X142614193Y-46308664D01*
X142421836Y-46116307D01*
X142195649Y-45965174D01*
X141944323Y-45861071D01*
X141677517Y-45808000D01*
X141405483Y-45808000D01*
X141138677Y-45861071D01*
X140887351Y-45965174D01*
X140661164Y-46116307D01*
X140468807Y-46308664D01*
X140317674Y-46534851D01*
X140213571Y-46786177D01*
X140160500Y-47052983D01*
X136422500Y-47052983D01*
X136369429Y-46786177D01*
X136265326Y-46534851D01*
X136114193Y-46308664D01*
X135921836Y-46116307D01*
X135695649Y-45965174D01*
X135444323Y-45861071D01*
X135177517Y-45808000D01*
X134905483Y-45808000D01*
X134638677Y-45861071D01*
X134387351Y-45965174D01*
X134161164Y-46116307D01*
X133968807Y-46308664D01*
X133825927Y-46522500D01*
X123890501Y-46522500D01*
X123814859Y-46446858D01*
X123686942Y-46361387D01*
X123544809Y-46302513D01*
X123393922Y-46272500D01*
X123240078Y-46272500D01*
X123089191Y-46302513D01*
X122947058Y-46361387D01*
X122819141Y-46446858D01*
X122710358Y-46555641D01*
X122624887Y-46683558D01*
X122566013Y-46825691D01*
X122536000Y-46976578D01*
X109595000Y-46976578D01*
X109595000Y-46557607D01*
X109620000Y-46431922D01*
X109620000Y-46278078D01*
X109589987Y-46127191D01*
X109531113Y-45985058D01*
X109445642Y-45857141D01*
X109336859Y-45748358D01*
X109208942Y-45662887D01*
X109066809Y-45604013D01*
X108915922Y-45574000D01*
X108762078Y-45574000D01*
X108611191Y-45604013D01*
X108469058Y-45662887D01*
X108341141Y-45748358D01*
X108232358Y-45857141D01*
X108146887Y-45985058D01*
X108088013Y-46127191D01*
X108058000Y-46278078D01*
X108058000Y-46431922D01*
X108083000Y-46557607D01*
X108083000Y-46780499D01*
X108066859Y-46764358D01*
X107938942Y-46678887D01*
X107796809Y-46620013D01*
X107645922Y-46590000D01*
X107492078Y-46590000D01*
X107341191Y-46620013D01*
X107199058Y-46678887D01*
X107071141Y-46764358D01*
X106995499Y-46840000D01*
X101094001Y-46840000D01*
X101018359Y-46764358D01*
X100890442Y-46678887D01*
X100748309Y-46620013D01*
X100597422Y-46590000D01*
X100443578Y-46590000D01*
X100292691Y-46620013D01*
X100150558Y-46678887D01*
X100022641Y-46764358D01*
X99913858Y-46873141D01*
X99828387Y-47001058D01*
X99769513Y-47143191D01*
X99739500Y-47294078D01*
X99431000Y-47294078D01*
X99431000Y-43878757D01*
X105004500Y-43878757D01*
X105004500Y-44121243D01*
X105051807Y-44359069D01*
X105144602Y-44583097D01*
X105279320Y-44784717D01*
X105450783Y-44956180D01*
X105652403Y-45090898D01*
X105876431Y-45183693D01*
X106114257Y-45231000D01*
X106356743Y-45231000D01*
X106594569Y-45183693D01*
X106818597Y-45090898D01*
X107020217Y-44956180D01*
X107191680Y-44784717D01*
X107326398Y-44583097D01*
X107419193Y-44359069D01*
X107466500Y-44121243D01*
X107466500Y-43878757D01*
X107419193Y-43640931D01*
X107326398Y-43416903D01*
X107191680Y-43215283D01*
X107126397Y-43150000D01*
X107542657Y-43150000D01*
X107542657Y-44850000D01*
X107550013Y-44924689D01*
X107571799Y-44996508D01*
X107607178Y-45062696D01*
X107654789Y-45120711D01*
X107712804Y-45168322D01*
X107778992Y-45203701D01*
X107850811Y-45225487D01*
X107925500Y-45232843D01*
X109625500Y-45232843D01*
X109700189Y-45225487D01*
X109772008Y-45203701D01*
X109838196Y-45168322D01*
X109896211Y-45120711D01*
X109943822Y-45062696D01*
X109979201Y-44996508D01*
X110000987Y-44924689D01*
X110008343Y-44850000D01*
X110008343Y-43820757D01*
X118403000Y-43820757D01*
X118403000Y-44063243D01*
X118450307Y-44301069D01*
X118543102Y-44525097D01*
X118677820Y-44726717D01*
X118849283Y-44898180D01*
X119050903Y-45032898D01*
X119274931Y-45125693D01*
X119512757Y-45173000D01*
X119755243Y-45173000D01*
X119993069Y-45125693D01*
X120217097Y-45032898D01*
X120418717Y-44898180D01*
X120590180Y-44726717D01*
X120724898Y-44525097D01*
X120817693Y-44301069D01*
X120865000Y-44063243D01*
X120865000Y-43820757D01*
X120943000Y-43820757D01*
X120943000Y-44063243D01*
X120990307Y-44301069D01*
X121083102Y-44525097D01*
X121217820Y-44726717D01*
X121389283Y-44898180D01*
X121590903Y-45032898D01*
X121814931Y-45125693D01*
X122052757Y-45173000D01*
X122295243Y-45173000D01*
X122533069Y-45125693D01*
X122757097Y-45032898D01*
X122958717Y-44898180D01*
X123130180Y-44726717D01*
X123264898Y-44525097D01*
X123312228Y-44410832D01*
X123369843Y-44573252D01*
X123518822Y-44823355D01*
X123713731Y-45039588D01*
X123947080Y-45213641D01*
X124209901Y-45338825D01*
X124357110Y-45383476D01*
X124587000Y-45262155D01*
X124587000Y-44069000D01*
X124567000Y-44069000D01*
X124567000Y-43815000D01*
X124587000Y-43815000D01*
X124587000Y-42621845D01*
X124841000Y-42621845D01*
X124841000Y-43815000D01*
X124861000Y-43815000D01*
X124861000Y-44069000D01*
X124841000Y-44069000D01*
X124841000Y-45262155D01*
X125070890Y-45383476D01*
X125218099Y-45338825D01*
X125296636Y-45301417D01*
X158483756Y-45301417D01*
X158483756Y-45698583D01*
X158561239Y-46088117D01*
X158713228Y-46455050D01*
X158933881Y-46785281D01*
X159214719Y-47066119D01*
X159544950Y-47286772D01*
X159911883Y-47438761D01*
X160301417Y-47516244D01*
X160698583Y-47516244D01*
X161088117Y-47438761D01*
X161455050Y-47286772D01*
X161785281Y-47066119D01*
X162066119Y-46785281D01*
X162286772Y-46455050D01*
X162438761Y-46088117D01*
X162516244Y-45698583D01*
X162516244Y-45301417D01*
X162438761Y-44911883D01*
X162286772Y-44544950D01*
X162066119Y-44214719D01*
X161785281Y-43933881D01*
X161455050Y-43713228D01*
X161088117Y-43561239D01*
X160698583Y-43483756D01*
X160301417Y-43483756D01*
X159911883Y-43561239D01*
X159544950Y-43713228D01*
X159214719Y-43933881D01*
X158933881Y-44214719D01*
X158713228Y-44544950D01*
X158561239Y-44911883D01*
X158483756Y-45301417D01*
X125296636Y-45301417D01*
X125480920Y-45213641D01*
X125714269Y-45039588D01*
X125909178Y-44823355D01*
X126058157Y-44573252D01*
X126115772Y-44410832D01*
X126163102Y-44525097D01*
X126297820Y-44726717D01*
X126469283Y-44898180D01*
X126670903Y-45032898D01*
X126894931Y-45125693D01*
X127132757Y-45173000D01*
X127375243Y-45173000D01*
X127613069Y-45125693D01*
X127837097Y-45032898D01*
X128038717Y-44898180D01*
X128210180Y-44726717D01*
X128344898Y-44525097D01*
X128437693Y-44301069D01*
X128485000Y-44063243D01*
X128485000Y-43820757D01*
X128563000Y-43820757D01*
X128563000Y-44063243D01*
X128610307Y-44301069D01*
X128703102Y-44525097D01*
X128837820Y-44726717D01*
X129009283Y-44898180D01*
X129210903Y-45032898D01*
X129434931Y-45125693D01*
X129672757Y-45173000D01*
X129915243Y-45173000D01*
X130153069Y-45125693D01*
X130377097Y-45032898D01*
X130578717Y-44898180D01*
X130750180Y-44726717D01*
X130884898Y-44525097D01*
X130977693Y-44301069D01*
X131025000Y-44063243D01*
X131025000Y-43820757D01*
X130977693Y-43582931D01*
X130884898Y-43358903D01*
X130750180Y-43157283D01*
X130684897Y-43092000D01*
X131101157Y-43092000D01*
X131101157Y-44792000D01*
X131108513Y-44866689D01*
X131130299Y-44938508D01*
X131165678Y-45004696D01*
X131213289Y-45062711D01*
X131271304Y-45110322D01*
X131337492Y-45145701D01*
X131409311Y-45167487D01*
X131484000Y-45174843D01*
X133184000Y-45174843D01*
X133258689Y-45167487D01*
X133330508Y-45145701D01*
X133396696Y-45110322D01*
X133454711Y-45062711D01*
X133502322Y-45004696D01*
X133537701Y-44938508D01*
X133559487Y-44866689D01*
X133566843Y-44792000D01*
X133566843Y-43150000D01*
X143229657Y-43150000D01*
X143229657Y-44850000D01*
X143237013Y-44924689D01*
X143258799Y-44996508D01*
X143294178Y-45062696D01*
X143341789Y-45120711D01*
X143399804Y-45168322D01*
X143465992Y-45203701D01*
X143537811Y-45225487D01*
X143612500Y-45232843D01*
X145312500Y-45232843D01*
X145387189Y-45225487D01*
X145459008Y-45203701D01*
X145525196Y-45168322D01*
X145583211Y-45120711D01*
X145630822Y-45062696D01*
X145666201Y-44996508D01*
X145687987Y-44924689D01*
X145695343Y-44850000D01*
X145695343Y-43878757D01*
X145771500Y-43878757D01*
X145771500Y-44121243D01*
X145818807Y-44359069D01*
X145911602Y-44583097D01*
X146046320Y-44784717D01*
X146217783Y-44956180D01*
X146419403Y-45090898D01*
X146643431Y-45183693D01*
X146881257Y-45231000D01*
X147123743Y-45231000D01*
X147361569Y-45183693D01*
X147585597Y-45090898D01*
X147787217Y-44956180D01*
X147958680Y-44784717D01*
X148093398Y-44583097D01*
X148186193Y-44359069D01*
X148233500Y-44121243D01*
X148233500Y-43878757D01*
X148186193Y-43640931D01*
X148093398Y-43416903D01*
X147958680Y-43215283D01*
X147787217Y-43043820D01*
X147585597Y-42909102D01*
X147361569Y-42816307D01*
X147123743Y-42769000D01*
X146881257Y-42769000D01*
X146643431Y-42816307D01*
X146419403Y-42909102D01*
X146217783Y-43043820D01*
X146046320Y-43215283D01*
X145911602Y-43416903D01*
X145818807Y-43640931D01*
X145771500Y-43878757D01*
X145695343Y-43878757D01*
X145695343Y-43150000D01*
X145687987Y-43075311D01*
X145666201Y-43003492D01*
X145630822Y-42937304D01*
X145583211Y-42879289D01*
X145525196Y-42831678D01*
X145459008Y-42796299D01*
X145387189Y-42774513D01*
X145312500Y-42767157D01*
X143612500Y-42767157D01*
X143537811Y-42774513D01*
X143465992Y-42796299D01*
X143399804Y-42831678D01*
X143341789Y-42879289D01*
X143294178Y-42937304D01*
X143258799Y-43003492D01*
X143237013Y-43075311D01*
X143229657Y-43150000D01*
X133566843Y-43150000D01*
X133566843Y-43092000D01*
X133559487Y-43017311D01*
X133537701Y-42945492D01*
X133502322Y-42879304D01*
X133454711Y-42821289D01*
X133396696Y-42773678D01*
X133330508Y-42738299D01*
X133258689Y-42716513D01*
X133184000Y-42709157D01*
X131484000Y-42709157D01*
X131409311Y-42716513D01*
X131337492Y-42738299D01*
X131271304Y-42773678D01*
X131213289Y-42821289D01*
X131165678Y-42879304D01*
X131130299Y-42945492D01*
X131108513Y-43017311D01*
X131101157Y-43092000D01*
X130684897Y-43092000D01*
X130578717Y-42985820D01*
X130377097Y-42851102D01*
X130153069Y-42758307D01*
X129915243Y-42711000D01*
X129672757Y-42711000D01*
X129434931Y-42758307D01*
X129210903Y-42851102D01*
X129009283Y-42985820D01*
X128837820Y-43157283D01*
X128703102Y-43358903D01*
X128610307Y-43582931D01*
X128563000Y-43820757D01*
X128485000Y-43820757D01*
X128437693Y-43582931D01*
X128344898Y-43358903D01*
X128210180Y-43157283D01*
X128038717Y-42985820D01*
X127837097Y-42851102D01*
X127613069Y-42758307D01*
X127375243Y-42711000D01*
X127132757Y-42711000D01*
X126894931Y-42758307D01*
X126670903Y-42851102D01*
X126469283Y-42985820D01*
X126297820Y-43157283D01*
X126163102Y-43358903D01*
X126115772Y-43473168D01*
X126058157Y-43310748D01*
X125909178Y-43060645D01*
X125714269Y-42844412D01*
X125480920Y-42670359D01*
X125218099Y-42545175D01*
X125070890Y-42500524D01*
X124841000Y-42621845D01*
X124587000Y-42621845D01*
X124357110Y-42500524D01*
X124209901Y-42545175D01*
X123947080Y-42670359D01*
X123713731Y-42844412D01*
X123518822Y-43060645D01*
X123369843Y-43310748D01*
X123312228Y-43473168D01*
X123264898Y-43358903D01*
X123130180Y-43157283D01*
X122958717Y-42985820D01*
X122757097Y-42851102D01*
X122533069Y-42758307D01*
X122295243Y-42711000D01*
X122052757Y-42711000D01*
X121814931Y-42758307D01*
X121590903Y-42851102D01*
X121389283Y-42985820D01*
X121217820Y-43157283D01*
X121083102Y-43358903D01*
X120990307Y-43582931D01*
X120943000Y-43820757D01*
X120865000Y-43820757D01*
X120817693Y-43582931D01*
X120724898Y-43358903D01*
X120590180Y-43157283D01*
X120418717Y-42985820D01*
X120217097Y-42851102D01*
X119993069Y-42758307D01*
X119755243Y-42711000D01*
X119512757Y-42711000D01*
X119274931Y-42758307D01*
X119050903Y-42851102D01*
X118849283Y-42985820D01*
X118677820Y-43157283D01*
X118543102Y-43358903D01*
X118450307Y-43582931D01*
X118403000Y-43820757D01*
X110008343Y-43820757D01*
X110008343Y-43150000D01*
X110000987Y-43075311D01*
X109979201Y-43003492D01*
X109943822Y-42937304D01*
X109896211Y-42879289D01*
X109838196Y-42831678D01*
X109772008Y-42796299D01*
X109700189Y-42774513D01*
X109625500Y-42767157D01*
X107925500Y-42767157D01*
X107850811Y-42774513D01*
X107778992Y-42796299D01*
X107712804Y-42831678D01*
X107654789Y-42879289D01*
X107607178Y-42937304D01*
X107571799Y-43003492D01*
X107550013Y-43075311D01*
X107542657Y-43150000D01*
X107126397Y-43150000D01*
X107020217Y-43043820D01*
X106818597Y-42909102D01*
X106594569Y-42816307D01*
X106356743Y-42769000D01*
X106114257Y-42769000D01*
X105876431Y-42816307D01*
X105652403Y-42909102D01*
X105450783Y-43043820D01*
X105279320Y-43215283D01*
X105144602Y-43416903D01*
X105051807Y-43640931D01*
X105004500Y-43878757D01*
X99431000Y-43878757D01*
X99431000Y-41431000D01*
X164569000Y-41431000D01*
X164569000Y-51798434D01*
G04 #@! TA.AperFunction,Conductor*
D26*
G36*
X164569000Y-51798434D02*
G01*
X164550326Y-51753351D01*
X164399193Y-51527164D01*
X164206836Y-51334807D01*
X163980649Y-51183674D01*
X163729323Y-51079571D01*
X163462517Y-51026500D01*
X163190483Y-51026500D01*
X162923677Y-51079571D01*
X162672351Y-51183674D01*
X162446164Y-51334807D01*
X162253807Y-51527164D01*
X162102674Y-51753351D01*
X161998571Y-52004677D01*
X161945500Y-52271483D01*
X161945500Y-52543517D01*
X161998571Y-52810323D01*
X162102674Y-53061649D01*
X162253807Y-53287836D01*
X162446164Y-53480193D01*
X162672351Y-53631326D01*
X162923677Y-53735429D01*
X163190483Y-53788500D01*
X163462517Y-53788500D01*
X163729323Y-53735429D01*
X163980649Y-53631326D01*
X164206836Y-53480193D01*
X164399193Y-53287836D01*
X164550326Y-53061649D01*
X164569000Y-53016566D01*
X164569000Y-58298435D01*
X164550326Y-58253351D01*
X164399193Y-58027164D01*
X164206836Y-57834807D01*
X163980649Y-57683674D01*
X163729323Y-57579571D01*
X163462517Y-57526500D01*
X163190483Y-57526500D01*
X162923677Y-57579571D01*
X162672351Y-57683674D01*
X162446164Y-57834807D01*
X162253807Y-58027164D01*
X162102674Y-58253351D01*
X161998571Y-58504677D01*
X161945500Y-58771483D01*
X161945500Y-59043517D01*
X161998571Y-59310323D01*
X162102674Y-59561649D01*
X162253807Y-59787836D01*
X162446164Y-59980193D01*
X162672351Y-60131326D01*
X162923677Y-60235429D01*
X163190483Y-60288500D01*
X163462517Y-60288500D01*
X163729323Y-60235429D01*
X163980649Y-60131326D01*
X164206836Y-59980193D01*
X164399193Y-59787836D01*
X164550326Y-59561649D01*
X164569000Y-59516565D01*
X164569001Y-71798435D01*
X164550326Y-71753351D01*
X164399193Y-71527164D01*
X164206836Y-71334807D01*
X163980649Y-71183674D01*
X163729323Y-71079571D01*
X163462517Y-71026500D01*
X163190483Y-71026500D01*
X162923677Y-71079571D01*
X162672351Y-71183674D01*
X162446164Y-71334807D01*
X162253807Y-71527164D01*
X162102674Y-71753351D01*
X161998571Y-72004677D01*
X161945500Y-72271483D01*
X161945500Y-72543517D01*
X161998571Y-72810323D01*
X162102674Y-73061649D01*
X162253807Y-73287836D01*
X162446164Y-73480193D01*
X162672351Y-73631326D01*
X162923677Y-73735429D01*
X163190483Y-73788500D01*
X163462517Y-73788500D01*
X163729323Y-73735429D01*
X163980649Y-73631326D01*
X164206836Y-73480193D01*
X164399193Y-73287836D01*
X164550326Y-73061649D01*
X164569001Y-73016565D01*
X164569001Y-78298435D01*
X164550326Y-78253351D01*
X164399193Y-78027164D01*
X164206836Y-77834807D01*
X163980649Y-77683674D01*
X163729323Y-77579571D01*
X163462517Y-77526500D01*
X163190483Y-77526500D01*
X162923677Y-77579571D01*
X162672351Y-77683674D01*
X162446164Y-77834807D01*
X162253807Y-78027164D01*
X162102674Y-78253351D01*
X161998571Y-78504677D01*
X161945500Y-78771483D01*
X161945500Y-79043517D01*
X161998571Y-79310323D01*
X162102674Y-79561649D01*
X162253807Y-79787836D01*
X162446164Y-79980193D01*
X162672351Y-80131326D01*
X162923677Y-80235429D01*
X163190483Y-80288500D01*
X163462517Y-80288500D01*
X163729323Y-80235429D01*
X163980649Y-80131326D01*
X164206836Y-79980193D01*
X164399193Y-79787836D01*
X164550326Y-79561649D01*
X164569001Y-79516565D01*
X164569001Y-91798436D01*
X164550326Y-91753351D01*
X164399193Y-91527164D01*
X164206836Y-91334807D01*
X163980649Y-91183674D01*
X163729323Y-91079571D01*
X163462517Y-91026500D01*
X163190483Y-91026500D01*
X162923677Y-91079571D01*
X162672351Y-91183674D01*
X162446164Y-91334807D01*
X162253807Y-91527164D01*
X162102674Y-91753351D01*
X161998571Y-92004677D01*
X161945500Y-92271483D01*
X161945500Y-92543517D01*
X161998571Y-92810323D01*
X162102674Y-93061649D01*
X162253807Y-93287836D01*
X162446164Y-93480193D01*
X162672351Y-93631326D01*
X162923677Y-93735429D01*
X163190483Y-93788500D01*
X163462517Y-93788500D01*
X163729323Y-93735429D01*
X163980649Y-93631326D01*
X164206836Y-93480193D01*
X164399193Y-93287836D01*
X164550326Y-93061649D01*
X164569001Y-93016564D01*
X164569001Y-98298436D01*
X164550326Y-98253351D01*
X164399193Y-98027164D01*
X164206836Y-97834807D01*
X163980649Y-97683674D01*
X163729323Y-97579571D01*
X163462517Y-97526500D01*
X163190483Y-97526500D01*
X162923677Y-97579571D01*
X162672351Y-97683674D01*
X162446164Y-97834807D01*
X162253807Y-98027164D01*
X162102674Y-98253351D01*
X161998571Y-98504677D01*
X161945500Y-98771483D01*
X161945500Y-99043517D01*
X161998571Y-99310323D01*
X162102674Y-99561649D01*
X162253807Y-99787836D01*
X162446164Y-99980193D01*
X162672351Y-100131326D01*
X162923677Y-100235429D01*
X163190483Y-100288500D01*
X163462517Y-100288500D01*
X163729323Y-100235429D01*
X163980649Y-100131326D01*
X164206836Y-99980193D01*
X164399193Y-99787836D01*
X164550326Y-99561649D01*
X164569001Y-99516564D01*
X164569001Y-100569000D01*
X99431000Y-100569000D01*
X99431000Y-98771483D01*
X157445500Y-98771483D01*
X157445500Y-99043517D01*
X157498571Y-99310323D01*
X157602674Y-99561649D01*
X157753807Y-99787836D01*
X157946164Y-99980193D01*
X158172351Y-100131326D01*
X158423677Y-100235429D01*
X158690483Y-100288500D01*
X158962517Y-100288500D01*
X159229323Y-100235429D01*
X159480649Y-100131326D01*
X159706836Y-99980193D01*
X159899193Y-99787836D01*
X160050326Y-99561649D01*
X160154429Y-99310323D01*
X160207500Y-99043517D01*
X160207500Y-98771483D01*
X160154429Y-98504677D01*
X160050326Y-98253351D01*
X159899193Y-98027164D01*
X159706836Y-97834807D01*
X159480649Y-97683674D01*
X159229323Y-97579571D01*
X158962517Y-97526500D01*
X158690483Y-97526500D01*
X158423677Y-97579571D01*
X158172351Y-97683674D01*
X157946164Y-97834807D01*
X157753807Y-98027164D01*
X157602674Y-98253351D01*
X157498571Y-98504677D01*
X157445500Y-98771483D01*
X99431000Y-98771483D01*
X99431000Y-96301417D01*
X101483756Y-96301417D01*
X101483756Y-96698583D01*
X101561239Y-97088117D01*
X101713228Y-97455050D01*
X101933881Y-97785281D01*
X102214719Y-98066119D01*
X102544950Y-98286772D01*
X102911883Y-98438761D01*
X103301417Y-98516244D01*
X103698583Y-98516244D01*
X104088117Y-98438761D01*
X104455050Y-98286772D01*
X104785281Y-98066119D01*
X105066119Y-97785281D01*
X105286772Y-97455050D01*
X105438761Y-97088117D01*
X105516244Y-96698583D01*
X105516244Y-96301417D01*
X146483756Y-96301417D01*
X146483756Y-96698583D01*
X146561239Y-97088117D01*
X146713228Y-97455050D01*
X146933881Y-97785281D01*
X147214719Y-98066119D01*
X147544950Y-98286772D01*
X147911883Y-98438761D01*
X148301417Y-98516244D01*
X148698583Y-98516244D01*
X149088117Y-98438761D01*
X149455050Y-98286772D01*
X149785281Y-98066119D01*
X150066119Y-97785281D01*
X150286772Y-97455050D01*
X150438761Y-97088117D01*
X150516244Y-96698583D01*
X150516244Y-96301417D01*
X150438761Y-95911883D01*
X150286772Y-95544950D01*
X150066119Y-95214719D01*
X149785281Y-94933881D01*
X149455050Y-94713228D01*
X149088117Y-94561239D01*
X148698583Y-94483756D01*
X148301417Y-94483756D01*
X147911883Y-94561239D01*
X147544950Y-94713228D01*
X147214719Y-94933881D01*
X146933881Y-95214719D01*
X146713228Y-95544950D01*
X146561239Y-95911883D01*
X146483756Y-96301417D01*
X105516244Y-96301417D01*
X105438761Y-95911883D01*
X105286772Y-95544950D01*
X105066119Y-95214719D01*
X104785281Y-94933881D01*
X104455050Y-94713228D01*
X104088117Y-94561239D01*
X103698583Y-94483756D01*
X103301417Y-94483756D01*
X102911883Y-94561239D01*
X102544950Y-94713228D01*
X102214719Y-94933881D01*
X101933881Y-95214719D01*
X101713228Y-95544950D01*
X101561239Y-95911883D01*
X101483756Y-96301417D01*
X99431000Y-96301417D01*
X99431000Y-91104070D01*
X104700500Y-91104070D01*
X104700500Y-92029929D01*
X104719035Y-92218119D01*
X104792284Y-92459588D01*
X104911234Y-92682128D01*
X105071314Y-92877186D01*
X105266371Y-93037266D01*
X105488911Y-93156216D01*
X105730380Y-93229465D01*
X105981500Y-93254198D01*
X106232619Y-93229465D01*
X106474088Y-93156216D01*
X106696628Y-93037266D01*
X106891686Y-92877186D01*
X107051766Y-92682129D01*
X107170716Y-92459589D01*
X107243965Y-92218120D01*
X107251500Y-92141615D01*
X107259035Y-92218119D01*
X107332284Y-92459588D01*
X107451234Y-92682128D01*
X107611314Y-92877186D01*
X107806371Y-93037266D01*
X108028911Y-93156216D01*
X108270380Y-93229465D01*
X108521500Y-93254198D01*
X108772619Y-93229465D01*
X109014088Y-93156216D01*
X109236628Y-93037266D01*
X109431686Y-92877186D01*
X109591766Y-92682129D01*
X109710716Y-92459589D01*
X109783965Y-92218120D01*
X109791500Y-92141615D01*
X109799035Y-92218119D01*
X109872284Y-92459588D01*
X109991234Y-92682128D01*
X110151314Y-92877186D01*
X110346371Y-93037266D01*
X110568911Y-93156216D01*
X110810380Y-93229465D01*
X111061500Y-93254198D01*
X111312619Y-93229465D01*
X111554088Y-93156216D01*
X111776628Y-93037266D01*
X111971686Y-92877186D01*
X112131766Y-92682129D01*
X112250716Y-92459589D01*
X112323965Y-92218120D01*
X112331500Y-92141615D01*
X112339035Y-92218119D01*
X112412284Y-92459588D01*
X112531234Y-92682128D01*
X112691314Y-92877186D01*
X112886371Y-93037266D01*
X113108911Y-93156216D01*
X113350380Y-93229465D01*
X113601500Y-93254198D01*
X113852619Y-93229465D01*
X114094088Y-93156216D01*
X114316628Y-93037266D01*
X114511686Y-92877186D01*
X114671766Y-92682129D01*
X114790716Y-92459589D01*
X114863965Y-92218120D01*
X114871500Y-92141615D01*
X114879035Y-92218119D01*
X114952284Y-92459588D01*
X115071234Y-92682128D01*
X115231314Y-92877186D01*
X115426371Y-93037266D01*
X115648911Y-93156216D01*
X115890380Y-93229465D01*
X116141500Y-93254198D01*
X116392619Y-93229465D01*
X116634088Y-93156216D01*
X116856628Y-93037266D01*
X117051686Y-92877186D01*
X117211766Y-92682129D01*
X117330716Y-92459589D01*
X117403965Y-92218120D01*
X117411500Y-92141615D01*
X117419035Y-92218119D01*
X117492284Y-92459588D01*
X117611234Y-92682128D01*
X117771314Y-92877186D01*
X117966371Y-93037266D01*
X118188911Y-93156216D01*
X118430380Y-93229465D01*
X118681500Y-93254198D01*
X118932619Y-93229465D01*
X119174088Y-93156216D01*
X119396628Y-93037266D01*
X119591686Y-92877186D01*
X119751766Y-92682129D01*
X119870716Y-92459589D01*
X119943965Y-92218120D01*
X119951500Y-92141615D01*
X119959035Y-92218119D01*
X120032284Y-92459588D01*
X120151234Y-92682128D01*
X120311314Y-92877186D01*
X120506371Y-93037266D01*
X120728911Y-93156216D01*
X120970380Y-93229465D01*
X121221500Y-93254198D01*
X121472619Y-93229465D01*
X121714088Y-93156216D01*
X121936628Y-93037266D01*
X122131686Y-92877186D01*
X122291766Y-92682129D01*
X122410716Y-92459589D01*
X122483965Y-92218120D01*
X122491500Y-92141615D01*
X122499035Y-92218119D01*
X122572284Y-92459588D01*
X122691234Y-92682128D01*
X122851314Y-92877186D01*
X123046371Y-93037266D01*
X123268911Y-93156216D01*
X123510380Y-93229465D01*
X123761500Y-93254198D01*
X124012619Y-93229465D01*
X124254088Y-93156216D01*
X124476628Y-93037266D01*
X124671686Y-92877186D01*
X124831766Y-92682129D01*
X124950716Y-92459589D01*
X125023965Y-92218120D01*
X125031500Y-92141615D01*
X125039035Y-92218119D01*
X125112284Y-92459588D01*
X125231234Y-92682128D01*
X125391314Y-92877186D01*
X125586371Y-93037266D01*
X125808911Y-93156216D01*
X126050380Y-93229465D01*
X126301500Y-93254198D01*
X126552619Y-93229465D01*
X126794088Y-93156216D01*
X127016628Y-93037266D01*
X127211686Y-92877186D01*
X127371766Y-92682129D01*
X127490716Y-92459589D01*
X127563965Y-92218120D01*
X127571500Y-92141615D01*
X127579035Y-92218119D01*
X127652284Y-92459588D01*
X127771234Y-92682128D01*
X127931314Y-92877186D01*
X128126371Y-93037266D01*
X128348911Y-93156216D01*
X128590380Y-93229465D01*
X128841500Y-93254198D01*
X129092619Y-93229465D01*
X129334088Y-93156216D01*
X129556628Y-93037266D01*
X129751686Y-92877186D01*
X129911766Y-92682129D01*
X130030716Y-92459589D01*
X130103965Y-92218120D01*
X130111500Y-92141615D01*
X130119035Y-92218119D01*
X130192284Y-92459588D01*
X130311234Y-92682128D01*
X130471314Y-92877186D01*
X130666371Y-93037266D01*
X130888911Y-93156216D01*
X131130380Y-93229465D01*
X131381500Y-93254198D01*
X131632619Y-93229465D01*
X131874088Y-93156216D01*
X132096628Y-93037266D01*
X132291686Y-92877186D01*
X132451766Y-92682129D01*
X132570716Y-92459589D01*
X132643965Y-92218120D01*
X132651500Y-92141615D01*
X132659035Y-92218119D01*
X132732284Y-92459588D01*
X132851234Y-92682128D01*
X133011314Y-92877186D01*
X133206371Y-93037266D01*
X133428911Y-93156216D01*
X133670380Y-93229465D01*
X133921500Y-93254198D01*
X134172619Y-93229465D01*
X134414088Y-93156216D01*
X134636628Y-93037266D01*
X134831686Y-92877186D01*
X134991766Y-92682129D01*
X135110716Y-92459589D01*
X135183965Y-92218120D01*
X135191500Y-92141615D01*
X135199035Y-92218119D01*
X135272284Y-92459588D01*
X135391234Y-92682128D01*
X135551314Y-92877186D01*
X135746371Y-93037266D01*
X135968911Y-93156216D01*
X136210380Y-93229465D01*
X136461500Y-93254198D01*
X136712619Y-93229465D01*
X136954088Y-93156216D01*
X137176628Y-93037266D01*
X137371686Y-92877186D01*
X137531766Y-92682129D01*
X137650716Y-92459589D01*
X137723965Y-92218120D01*
X137731500Y-92141615D01*
X137739035Y-92218119D01*
X137812284Y-92459588D01*
X137931234Y-92682128D01*
X138091314Y-92877186D01*
X138286371Y-93037266D01*
X138508911Y-93156216D01*
X138750380Y-93229465D01*
X139001500Y-93254198D01*
X139252619Y-93229465D01*
X139494088Y-93156216D01*
X139716628Y-93037266D01*
X139911686Y-92877186D01*
X140071766Y-92682129D01*
X140190716Y-92459589D01*
X140263965Y-92218120D01*
X140271500Y-92141615D01*
X140279035Y-92218119D01*
X140352284Y-92459588D01*
X140471234Y-92682128D01*
X140631314Y-92877186D01*
X140826371Y-93037266D01*
X141048911Y-93156216D01*
X141290380Y-93229465D01*
X141541500Y-93254198D01*
X141792619Y-93229465D01*
X142034088Y-93156216D01*
X142256628Y-93037266D01*
X142451686Y-92877186D01*
X142611766Y-92682129D01*
X142730716Y-92459589D01*
X142798657Y-92235618D01*
X142798657Y-92867000D01*
X142806013Y-92941689D01*
X142827799Y-93013508D01*
X142863178Y-93079696D01*
X142910789Y-93137711D01*
X142968804Y-93185322D01*
X143034992Y-93220701D01*
X143106811Y-93242487D01*
X143181500Y-93249843D01*
X144981500Y-93249843D01*
X145056189Y-93242487D01*
X145128008Y-93220701D01*
X145194196Y-93185322D01*
X145252211Y-93137711D01*
X145299822Y-93079696D01*
X145335201Y-93013508D01*
X145356987Y-92941689D01*
X145364343Y-92867000D01*
X145364343Y-92271483D01*
X157445500Y-92271483D01*
X157445500Y-92543517D01*
X157498571Y-92810323D01*
X157602674Y-93061649D01*
X157753807Y-93287836D01*
X157946164Y-93480193D01*
X158172351Y-93631326D01*
X158423677Y-93735429D01*
X158690483Y-93788500D01*
X158962517Y-93788500D01*
X159229323Y-93735429D01*
X159480649Y-93631326D01*
X159706836Y-93480193D01*
X159899193Y-93287836D01*
X160050326Y-93061649D01*
X160154429Y-92810323D01*
X160207500Y-92543517D01*
X160207500Y-92271483D01*
X160154429Y-92004677D01*
X160050326Y-91753351D01*
X159899193Y-91527164D01*
X159706836Y-91334807D01*
X159480649Y-91183674D01*
X159229323Y-91079571D01*
X158962517Y-91026500D01*
X158690483Y-91026500D01*
X158423677Y-91079571D01*
X158172351Y-91183674D01*
X157946164Y-91334807D01*
X157753807Y-91527164D01*
X157602674Y-91753351D01*
X157498571Y-92004677D01*
X157445500Y-92271483D01*
X145364343Y-92271483D01*
X145364343Y-90267000D01*
X145356987Y-90192311D01*
X145335201Y-90120492D01*
X145299822Y-90054304D01*
X145252211Y-89996289D01*
X145194196Y-89948678D01*
X145128008Y-89913299D01*
X145056189Y-89891513D01*
X144981500Y-89884157D01*
X143181500Y-89884157D01*
X143106811Y-89891513D01*
X143034992Y-89913299D01*
X142968804Y-89948678D01*
X142910789Y-89996289D01*
X142863178Y-90054304D01*
X142827799Y-90120492D01*
X142806013Y-90192311D01*
X142798657Y-90267000D01*
X142798657Y-90898382D01*
X142730716Y-90674411D01*
X142611766Y-90451871D01*
X142451686Y-90256814D01*
X142256629Y-90096734D01*
X142034089Y-89977784D01*
X141792620Y-89904535D01*
X141541500Y-89879802D01*
X141290381Y-89904535D01*
X141048912Y-89977784D01*
X140826372Y-90096734D01*
X140631315Y-90256814D01*
X140471234Y-90451871D01*
X140352284Y-90674411D01*
X140279035Y-90915880D01*
X140271500Y-90992385D01*
X140263965Y-90915880D01*
X140190716Y-90674411D01*
X140071766Y-90451871D01*
X139911686Y-90256814D01*
X139716629Y-90096734D01*
X139494089Y-89977784D01*
X139252620Y-89904535D01*
X139001500Y-89879802D01*
X138750381Y-89904535D01*
X138508912Y-89977784D01*
X138286372Y-90096734D01*
X138091315Y-90256814D01*
X137931234Y-90451871D01*
X137812284Y-90674411D01*
X137739035Y-90915880D01*
X137731500Y-90992385D01*
X137723965Y-90915880D01*
X137650716Y-90674411D01*
X137531766Y-90451871D01*
X137371686Y-90256814D01*
X137176629Y-90096734D01*
X136954089Y-89977784D01*
X136712620Y-89904535D01*
X136461500Y-89879802D01*
X136210381Y-89904535D01*
X135968912Y-89977784D01*
X135746372Y-90096734D01*
X135551315Y-90256814D01*
X135391234Y-90451871D01*
X135272284Y-90674411D01*
X135199035Y-90915880D01*
X135191500Y-90992385D01*
X135183965Y-90915880D01*
X135110716Y-90674411D01*
X134991766Y-90451871D01*
X134831686Y-90256814D01*
X134636629Y-90096734D01*
X134414089Y-89977784D01*
X134172620Y-89904535D01*
X133921500Y-89879802D01*
X133670381Y-89904535D01*
X133428912Y-89977784D01*
X133206372Y-90096734D01*
X133011315Y-90256814D01*
X132851234Y-90451871D01*
X132732284Y-90674411D01*
X132659035Y-90915880D01*
X132651500Y-90992385D01*
X132643965Y-90915880D01*
X132570716Y-90674411D01*
X132451766Y-90451871D01*
X132291686Y-90256814D01*
X132096629Y-90096734D01*
X131874089Y-89977784D01*
X131632620Y-89904535D01*
X131381500Y-89879802D01*
X131130381Y-89904535D01*
X130888912Y-89977784D01*
X130666372Y-90096734D01*
X130471315Y-90256814D01*
X130311234Y-90451871D01*
X130192284Y-90674411D01*
X130119035Y-90915880D01*
X130111500Y-90992385D01*
X130103965Y-90915880D01*
X130030716Y-90674411D01*
X129911766Y-90451871D01*
X129751686Y-90256814D01*
X129556629Y-90096734D01*
X129334089Y-89977784D01*
X129092620Y-89904535D01*
X128841500Y-89879802D01*
X128590381Y-89904535D01*
X128348912Y-89977784D01*
X128126372Y-90096734D01*
X127931315Y-90256814D01*
X127771234Y-90451871D01*
X127652284Y-90674411D01*
X127579035Y-90915880D01*
X127571500Y-90992385D01*
X127563965Y-90915880D01*
X127490716Y-90674411D01*
X127371766Y-90451871D01*
X127211686Y-90256814D01*
X127016629Y-90096734D01*
X126794089Y-89977784D01*
X126552620Y-89904535D01*
X126301500Y-89879802D01*
X126050381Y-89904535D01*
X125808912Y-89977784D01*
X125586372Y-90096734D01*
X125391315Y-90256814D01*
X125231234Y-90451871D01*
X125112284Y-90674411D01*
X125039035Y-90915880D01*
X125031500Y-90992385D01*
X125023965Y-90915880D01*
X124950716Y-90674411D01*
X124831766Y-90451871D01*
X124671686Y-90256814D01*
X124476629Y-90096734D01*
X124254089Y-89977784D01*
X124012620Y-89904535D01*
X123761500Y-89879802D01*
X123510381Y-89904535D01*
X123268912Y-89977784D01*
X123046372Y-90096734D01*
X122851315Y-90256814D01*
X122691234Y-90451871D01*
X122572284Y-90674411D01*
X122499035Y-90915880D01*
X122491500Y-90992385D01*
X122483965Y-90915880D01*
X122410716Y-90674411D01*
X122291766Y-90451871D01*
X122131686Y-90256814D01*
X121936629Y-90096734D01*
X121714089Y-89977784D01*
X121472620Y-89904535D01*
X121221500Y-89879802D01*
X120970381Y-89904535D01*
X120728912Y-89977784D01*
X120506372Y-90096734D01*
X120311315Y-90256814D01*
X120151234Y-90451871D01*
X120032284Y-90674411D01*
X119959035Y-90915880D01*
X119951500Y-90992385D01*
X119943965Y-90915880D01*
X119870716Y-90674411D01*
X119751766Y-90451871D01*
X119591686Y-90256814D01*
X119396629Y-90096734D01*
X119174089Y-89977784D01*
X118932620Y-89904535D01*
X118681500Y-89879802D01*
X118430381Y-89904535D01*
X118188912Y-89977784D01*
X117966372Y-90096734D01*
X117771315Y-90256814D01*
X117611234Y-90451871D01*
X117492284Y-90674411D01*
X117419035Y-90915880D01*
X117411500Y-90992385D01*
X117403965Y-90915880D01*
X117330716Y-90674411D01*
X117211766Y-90451871D01*
X117051686Y-90256814D01*
X116856629Y-90096734D01*
X116634089Y-89977784D01*
X116392620Y-89904535D01*
X116141500Y-89879802D01*
X115890381Y-89904535D01*
X115648912Y-89977784D01*
X115426372Y-90096734D01*
X115231315Y-90256814D01*
X115071234Y-90451871D01*
X114952284Y-90674411D01*
X114879035Y-90915880D01*
X114871500Y-90992385D01*
X114863965Y-90915880D01*
X114790716Y-90674411D01*
X114671766Y-90451871D01*
X114511686Y-90256814D01*
X114316629Y-90096734D01*
X114094089Y-89977784D01*
X113852620Y-89904535D01*
X113601500Y-89879802D01*
X113350381Y-89904535D01*
X113108912Y-89977784D01*
X112886372Y-90096734D01*
X112691315Y-90256814D01*
X112531234Y-90451871D01*
X112412284Y-90674411D01*
X112339035Y-90915880D01*
X112331500Y-90992385D01*
X112323965Y-90915880D01*
X112250716Y-90674411D01*
X112131766Y-90451871D01*
X111971686Y-90256814D01*
X111776629Y-90096734D01*
X111554089Y-89977784D01*
X111312620Y-89904535D01*
X111061500Y-89879802D01*
X110810381Y-89904535D01*
X110568912Y-89977784D01*
X110346372Y-90096734D01*
X110151315Y-90256814D01*
X109991234Y-90451871D01*
X109872284Y-90674411D01*
X109799035Y-90915880D01*
X109791500Y-90992385D01*
X109783965Y-90915880D01*
X109710716Y-90674411D01*
X109591766Y-90451871D01*
X109431686Y-90256814D01*
X109236629Y-90096734D01*
X109014089Y-89977784D01*
X108772620Y-89904535D01*
X108521500Y-89879802D01*
X108270381Y-89904535D01*
X108028912Y-89977784D01*
X107806372Y-90096734D01*
X107611315Y-90256814D01*
X107451234Y-90451871D01*
X107332284Y-90674411D01*
X107259035Y-90915880D01*
X107251500Y-90992385D01*
X107243965Y-90915880D01*
X107170716Y-90674411D01*
X107051766Y-90451871D01*
X106891686Y-90256814D01*
X106696629Y-90096734D01*
X106474089Y-89977784D01*
X106232620Y-89904535D01*
X105981500Y-89879802D01*
X105730381Y-89904535D01*
X105488912Y-89977784D01*
X105266372Y-90096734D01*
X105071315Y-90256814D01*
X104911234Y-90451871D01*
X104792284Y-90674411D01*
X104719035Y-90915880D01*
X104700500Y-91104070D01*
X99431000Y-91104070D01*
X99431000Y-83805000D01*
X107552157Y-83805000D01*
X107552157Y-85105000D01*
X107559513Y-85179689D01*
X107581299Y-85251508D01*
X107616678Y-85317696D01*
X107664289Y-85375711D01*
X107722304Y-85423322D01*
X107788492Y-85458701D01*
X107860311Y-85480487D01*
X107935000Y-85487843D01*
X108590444Y-85487843D01*
X108575898Y-85548524D01*
X108566048Y-85801455D01*
X108591849Y-85964000D01*
X108483455Y-85964000D01*
X108284268Y-86003620D01*
X108096638Y-86081339D01*
X107927776Y-86194170D01*
X107784170Y-86337776D01*
X107671339Y-86506638D01*
X107593620Y-86694268D01*
X107554000Y-86893455D01*
X107554000Y-87096545D01*
X107593620Y-87295732D01*
X107671339Y-87483362D01*
X107784170Y-87652224D01*
X107927776Y-87795830D01*
X108096638Y-87908661D01*
X108284268Y-87986380D01*
X108483455Y-88026000D01*
X108686545Y-88026000D01*
X108885732Y-87986380D01*
X109073362Y-87908661D01*
X109242224Y-87795830D01*
X109385830Y-87652224D01*
X109498661Y-87483362D01*
X109576380Y-87295732D01*
X109616000Y-87096545D01*
X109616000Y-86989114D01*
X109678524Y-87004102D01*
X109931455Y-87013952D01*
X110181449Y-86974270D01*
X110418896Y-86886578D01*
X110507534Y-86839201D01*
X110560922Y-86610527D01*
X109855000Y-85904605D01*
X109840858Y-85918748D01*
X109661253Y-85739143D01*
X109675395Y-85725000D01*
X110034605Y-85725000D01*
X110740527Y-86430922D01*
X110969201Y-86377534D01*
X111075095Y-86147626D01*
X111134102Y-85901476D01*
X111143952Y-85648545D01*
X111104270Y-85398551D01*
X111016578Y-85161104D01*
X110969201Y-85072466D01*
X110740527Y-85019078D01*
X110034605Y-85725000D01*
X109675395Y-85725000D01*
X109661253Y-85710858D01*
X109840858Y-85531253D01*
X109855000Y-85545395D01*
X110560922Y-84839473D01*
X110507534Y-84610799D01*
X110277626Y-84504905D01*
X110031476Y-84445898D01*
X109778545Y-84436048D01*
X109617843Y-84461557D01*
X109617843Y-83805000D01*
X109610487Y-83730311D01*
X109588701Y-83658492D01*
X109553322Y-83592304D01*
X109505711Y-83534289D01*
X109447696Y-83486678D01*
X109381508Y-83451299D01*
X109309689Y-83429513D01*
X109235000Y-83422157D01*
X107935000Y-83422157D01*
X107860311Y-83429513D01*
X107788492Y-83451299D01*
X107722304Y-83486678D01*
X107664289Y-83534289D01*
X107616678Y-83592304D01*
X107581299Y-83658492D01*
X107559513Y-83730311D01*
X107552157Y-83805000D01*
X99431000Y-83805000D01*
X99431000Y-83132182D01*
X120421500Y-83132182D01*
X120421500Y-83364818D01*
X120466886Y-83592985D01*
X120555912Y-83807913D01*
X120685158Y-84001343D01*
X120849657Y-84165842D01*
X121043087Y-84295088D01*
X121258015Y-84384114D01*
X121486182Y-84429500D01*
X121718818Y-84429500D01*
X121946985Y-84384114D01*
X122161913Y-84295088D01*
X122355343Y-84165842D01*
X122519842Y-84001343D01*
X122649088Y-83807913D01*
X122738114Y-83592985D01*
X122783500Y-83364818D01*
X122783500Y-83132182D01*
X122738114Y-82904015D01*
X122649088Y-82689087D01*
X122519842Y-82495657D01*
X122462791Y-82438606D01*
X125361000Y-82438606D01*
X125361000Y-82661394D01*
X125404464Y-82879900D01*
X125489721Y-83085729D01*
X125613495Y-83270970D01*
X125771030Y-83428505D01*
X125956271Y-83552279D01*
X126162100Y-83637536D01*
X126380606Y-83681000D01*
X126603394Y-83681000D01*
X126821900Y-83637536D01*
X127027729Y-83552279D01*
X127212970Y-83428505D01*
X127370505Y-83270970D01*
X127494279Y-83085729D01*
X127579536Y-82879900D01*
X127623000Y-82661394D01*
X127623000Y-82438606D01*
X127579536Y-82220100D01*
X127494279Y-82014271D01*
X127370505Y-81829030D01*
X127212970Y-81671495D01*
X127027729Y-81547721D01*
X126821900Y-81462464D01*
X126603394Y-81419000D01*
X126380606Y-81419000D01*
X126162100Y-81462464D01*
X125956271Y-81547721D01*
X125771030Y-81671495D01*
X125613495Y-81829030D01*
X125489721Y-82014271D01*
X125404464Y-82220100D01*
X125361000Y-82438606D01*
X122462791Y-82438606D01*
X122355343Y-82331158D01*
X122161913Y-82201912D01*
X121946985Y-82112886D01*
X121718818Y-82067500D01*
X121486182Y-82067500D01*
X121258015Y-82112886D01*
X121043087Y-82201912D01*
X120849657Y-82331158D01*
X120685158Y-82495657D01*
X120555912Y-82689087D01*
X120466886Y-82904015D01*
X120421500Y-83132182D01*
X99431000Y-83132182D01*
X99431000Y-79869578D01*
X110852000Y-79869578D01*
X110852000Y-80023422D01*
X110882013Y-80174309D01*
X110940887Y-80316442D01*
X111026358Y-80444359D01*
X111135141Y-80553142D01*
X111263058Y-80638613D01*
X111405191Y-80697487D01*
X111556078Y-80727500D01*
X111709922Y-80727500D01*
X111860809Y-80697487D01*
X112002942Y-80638613D01*
X112012566Y-80632182D01*
X120421500Y-80632182D01*
X120421500Y-80864818D01*
X120466886Y-81092985D01*
X120555912Y-81307913D01*
X120685158Y-81501343D01*
X120849657Y-81665842D01*
X121043087Y-81795088D01*
X121258015Y-81884114D01*
X121486182Y-81929500D01*
X121718818Y-81929500D01*
X121946985Y-81884114D01*
X122161913Y-81795088D01*
X122355343Y-81665842D01*
X122519842Y-81501343D01*
X122649088Y-81307913D01*
X122738114Y-81092985D01*
X122783500Y-80864818D01*
X122783500Y-80632182D01*
X122738114Y-80404015D01*
X122649088Y-80189087D01*
X122519842Y-79995657D01*
X122462791Y-79938606D01*
X125361000Y-79938606D01*
X125361000Y-80161394D01*
X125404464Y-80379900D01*
X125489721Y-80585729D01*
X125613495Y-80770970D01*
X125771030Y-80928505D01*
X125956271Y-81052279D01*
X126162100Y-81137536D01*
X126380606Y-81181000D01*
X126603394Y-81181000D01*
X126821900Y-81137536D01*
X127027729Y-81052279D01*
X127212970Y-80928505D01*
X127370505Y-80770970D01*
X127494279Y-80585729D01*
X127579536Y-80379900D01*
X127623000Y-80161394D01*
X127623000Y-79938606D01*
X127579536Y-79720100D01*
X127494279Y-79514271D01*
X127370505Y-79329030D01*
X127212970Y-79171495D01*
X127027729Y-79047721D01*
X126821900Y-78962464D01*
X126603394Y-78919000D01*
X126380606Y-78919000D01*
X126162100Y-78962464D01*
X125956271Y-79047721D01*
X125771030Y-79171495D01*
X125613495Y-79329030D01*
X125489721Y-79514271D01*
X125404464Y-79720100D01*
X125361000Y-79938606D01*
X122462791Y-79938606D01*
X122355343Y-79831158D01*
X122161913Y-79701912D01*
X121946985Y-79612886D01*
X121718818Y-79567500D01*
X121486182Y-79567500D01*
X121258015Y-79612886D01*
X121043087Y-79701912D01*
X120849657Y-79831158D01*
X120685158Y-79995657D01*
X120555912Y-80189087D01*
X120466886Y-80404015D01*
X120421500Y-80632182D01*
X112012566Y-80632182D01*
X112130859Y-80553142D01*
X112239642Y-80444359D01*
X112325113Y-80316442D01*
X112383987Y-80174309D01*
X112414000Y-80023422D01*
X112414000Y-79916446D01*
X114913264Y-77417182D01*
X120421500Y-77417182D01*
X120421500Y-77649818D01*
X120466886Y-77877985D01*
X120555912Y-78092913D01*
X120685158Y-78286343D01*
X120849657Y-78450842D01*
X121043087Y-78580088D01*
X121258015Y-78669114D01*
X121486182Y-78714500D01*
X121718818Y-78714500D01*
X121946985Y-78669114D01*
X122161913Y-78580088D01*
X122355343Y-78450842D01*
X122519842Y-78286343D01*
X122649088Y-78092913D01*
X122738114Y-77877985D01*
X122783500Y-77649818D01*
X122783500Y-77417182D01*
X122738114Y-77189015D01*
X122649088Y-76974087D01*
X122519842Y-76780657D01*
X122355343Y-76616158D01*
X122161913Y-76486912D01*
X121946985Y-76397886D01*
X121718818Y-76352500D01*
X121486182Y-76352500D01*
X121258015Y-76397886D01*
X121043087Y-76486912D01*
X120849657Y-76616158D01*
X120685158Y-76780657D01*
X120555912Y-76974087D01*
X120466886Y-77189015D01*
X120421500Y-77417182D01*
X114913264Y-77417182D01*
X117915948Y-74414499D01*
X120595727Y-74414499D01*
X120555912Y-74474087D01*
X120466886Y-74689015D01*
X120421500Y-74917182D01*
X120421500Y-75149818D01*
X120466886Y-75377985D01*
X120555912Y-75592913D01*
X120685158Y-75786343D01*
X120849657Y-75950842D01*
X121043087Y-76080088D01*
X121258015Y-76169114D01*
X121486182Y-76214500D01*
X121718818Y-76214500D01*
X121946985Y-76169114D01*
X122161913Y-76080088D01*
X122355343Y-75950842D01*
X122519842Y-75786343D01*
X122649088Y-75592913D01*
X122660857Y-75564500D01*
X122819554Y-75564500D01*
X123552000Y-76296947D01*
X123552000Y-76403922D01*
X123582013Y-76554809D01*
X123640887Y-76696942D01*
X123726358Y-76824859D01*
X123802000Y-76900501D01*
X123802001Y-78303572D01*
X123771641Y-78323858D01*
X123662858Y-78432641D01*
X123577387Y-78560558D01*
X123518513Y-78702691D01*
X123488500Y-78853578D01*
X123488500Y-79007422D01*
X123518513Y-79158309D01*
X123577387Y-79300442D01*
X123662858Y-79428359D01*
X123771641Y-79537142D01*
X123899558Y-79622613D01*
X124041691Y-79681487D01*
X124192578Y-79711500D01*
X124346422Y-79711500D01*
X124497309Y-79681487D01*
X124639442Y-79622613D01*
X124767359Y-79537142D01*
X124876142Y-79428359D01*
X124961613Y-79300442D01*
X125020487Y-79158309D01*
X125050500Y-79007422D01*
X125050500Y-78853578D01*
X125020487Y-78702691D01*
X124961613Y-78560558D01*
X124876142Y-78432641D01*
X124864000Y-78420499D01*
X124864000Y-77438606D01*
X125361000Y-77438606D01*
X125361000Y-77661394D01*
X125404464Y-77879900D01*
X125489721Y-78085729D01*
X125613495Y-78270970D01*
X125771030Y-78428505D01*
X125956271Y-78552279D01*
X126162100Y-78637536D01*
X126380606Y-78681000D01*
X126603394Y-78681000D01*
X126821900Y-78637536D01*
X127027729Y-78552279D01*
X127212970Y-78428505D01*
X127370505Y-78270970D01*
X127494279Y-78085729D01*
X127579536Y-77879900D01*
X127623000Y-77661394D01*
X127623000Y-77438606D01*
X127579536Y-77220100D01*
X127494279Y-77014271D01*
X127370505Y-76829030D01*
X127212970Y-76671495D01*
X127027729Y-76547721D01*
X126821900Y-76462464D01*
X126603394Y-76419000D01*
X126380606Y-76419000D01*
X126162100Y-76462464D01*
X125956271Y-76547721D01*
X125771030Y-76671495D01*
X125613495Y-76829030D01*
X125489721Y-77014271D01*
X125404464Y-77220100D01*
X125361000Y-77438606D01*
X124864000Y-77438606D01*
X124864000Y-76900501D01*
X124939642Y-76824859D01*
X125025113Y-76696942D01*
X125083987Y-76554809D01*
X125114000Y-76403922D01*
X125114000Y-76250078D01*
X125083987Y-76099191D01*
X125025113Y-75957058D01*
X124939642Y-75829141D01*
X124830859Y-75720358D01*
X124702942Y-75634887D01*
X124655120Y-75615078D01*
X130346500Y-75615078D01*
X130346500Y-75768922D01*
X130376513Y-75919809D01*
X130435387Y-76061942D01*
X130520858Y-76189859D01*
X130596501Y-76265502D01*
X130596500Y-81761926D01*
X130593932Y-81788000D01*
X130596500Y-81814074D01*
X130596500Y-81814083D01*
X130604183Y-81892093D01*
X130634547Y-81992187D01*
X130683854Y-82084435D01*
X130750210Y-82165290D01*
X130770475Y-82181921D01*
X135930501Y-87341948D01*
X135930500Y-88199499D01*
X135854858Y-88275141D01*
X135769387Y-88403058D01*
X135710513Y-88545191D01*
X135680500Y-88696078D01*
X135680500Y-88849922D01*
X135710513Y-89000809D01*
X135769387Y-89142942D01*
X135854858Y-89270859D01*
X135963641Y-89379642D01*
X136091558Y-89465113D01*
X136233691Y-89523987D01*
X136384578Y-89554000D01*
X136538422Y-89554000D01*
X136689309Y-89523987D01*
X136831442Y-89465113D01*
X136959359Y-89379642D01*
X137068142Y-89270859D01*
X137153613Y-89142942D01*
X137159019Y-89129890D01*
X153498524Y-89129890D01*
X153543175Y-89277099D01*
X153668359Y-89539920D01*
X153842412Y-89773269D01*
X154058645Y-89968178D01*
X154308748Y-90117157D01*
X154583109Y-90214481D01*
X154813000Y-90093814D01*
X154813000Y-88900000D01*
X153619845Y-88900000D01*
X153498524Y-89129890D01*
X137159019Y-89129890D01*
X137212487Y-89000809D01*
X137242500Y-88849922D01*
X137242500Y-88696078D01*
X137212487Y-88545191D01*
X137159020Y-88416110D01*
X153498524Y-88416110D01*
X153619845Y-88646000D01*
X154813000Y-88646000D01*
X154813000Y-88626000D01*
X155067000Y-88626000D01*
X155067000Y-88646000D01*
X155087000Y-88646000D01*
X155087000Y-88900000D01*
X155067000Y-88900000D01*
X155067000Y-90093814D01*
X155296891Y-90214481D01*
X155571252Y-90117157D01*
X155821355Y-89968178D01*
X156037588Y-89773269D01*
X156211641Y-89539920D01*
X156247157Y-89465355D01*
X156247157Y-89623000D01*
X156254513Y-89697689D01*
X156276299Y-89769508D01*
X156311678Y-89835696D01*
X156359289Y-89893711D01*
X156417304Y-89941322D01*
X156483492Y-89976701D01*
X156555311Y-89998487D01*
X156630000Y-90005843D01*
X158330000Y-90005843D01*
X158404689Y-89998487D01*
X158476508Y-89976701D01*
X158542696Y-89941322D01*
X158600711Y-89893711D01*
X158648322Y-89835696D01*
X158683701Y-89769508D01*
X158705487Y-89697689D01*
X158712843Y-89623000D01*
X158712843Y-87923000D01*
X158705487Y-87848311D01*
X158683701Y-87776492D01*
X158648322Y-87710304D01*
X158600711Y-87652289D01*
X158542696Y-87604678D01*
X158476508Y-87569299D01*
X158404689Y-87547513D01*
X158330000Y-87540157D01*
X156630000Y-87540157D01*
X156555311Y-87547513D01*
X156483492Y-87569299D01*
X156417304Y-87604678D01*
X156359289Y-87652289D01*
X156311678Y-87710304D01*
X156276299Y-87776492D01*
X156254513Y-87848311D01*
X156247157Y-87923000D01*
X156247157Y-88080645D01*
X156211641Y-88006080D01*
X156037588Y-87772731D01*
X155821355Y-87577822D01*
X155571252Y-87428843D01*
X155408832Y-87371228D01*
X155523097Y-87323898D01*
X155724717Y-87189180D01*
X155896180Y-87017717D01*
X156030898Y-86816097D01*
X156123693Y-86592069D01*
X156171000Y-86354243D01*
X156171000Y-86111757D01*
X156249000Y-86111757D01*
X156249000Y-86354243D01*
X156296307Y-86592069D01*
X156389102Y-86816097D01*
X156523820Y-87017717D01*
X156695283Y-87189180D01*
X156896903Y-87323898D01*
X157120931Y-87416693D01*
X157358757Y-87464000D01*
X157601243Y-87464000D01*
X157839069Y-87416693D01*
X158063097Y-87323898D01*
X158264717Y-87189180D01*
X158436180Y-87017717D01*
X158570898Y-86816097D01*
X158663693Y-86592069D01*
X158711000Y-86354243D01*
X158711000Y-86111757D01*
X158663693Y-85873931D01*
X158570898Y-85649903D01*
X158436180Y-85448283D01*
X158264717Y-85276820D01*
X158063097Y-85142102D01*
X157839069Y-85049307D01*
X157601243Y-85002000D01*
X157358757Y-85002000D01*
X157120931Y-85049307D01*
X156896903Y-85142102D01*
X156695283Y-85276820D01*
X156523820Y-85448283D01*
X156389102Y-85649903D01*
X156296307Y-85873931D01*
X156249000Y-86111757D01*
X156171000Y-86111757D01*
X156123693Y-85873931D01*
X156030898Y-85649903D01*
X155896180Y-85448283D01*
X155724717Y-85276820D01*
X155523097Y-85142102D01*
X155299069Y-85049307D01*
X155061243Y-85002000D01*
X154818757Y-85002000D01*
X154580931Y-85049307D01*
X154356903Y-85142102D01*
X154155283Y-85276820D01*
X153983820Y-85448283D01*
X153849102Y-85649903D01*
X153756307Y-85873931D01*
X153709000Y-86111757D01*
X153709000Y-86354243D01*
X153756307Y-86592069D01*
X153849102Y-86816097D01*
X153983820Y-87017717D01*
X154155283Y-87189180D01*
X154356903Y-87323898D01*
X154471168Y-87371228D01*
X154308748Y-87428843D01*
X154058645Y-87577822D01*
X153842412Y-87772731D01*
X153668359Y-88006080D01*
X153543175Y-88268901D01*
X153498524Y-88416110D01*
X137159020Y-88416110D01*
X137153613Y-88403058D01*
X137068142Y-88275141D01*
X136992500Y-88199499D01*
X136992500Y-87148073D01*
X136995068Y-87121999D01*
X136992500Y-87095925D01*
X136992500Y-87095916D01*
X136984817Y-87017906D01*
X136954453Y-86917812D01*
X136912435Y-86839201D01*
X136905146Y-86825564D01*
X136855417Y-86764970D01*
X136838790Y-86744710D01*
X136818530Y-86728083D01*
X131658500Y-81568054D01*
X131658500Y-76265501D01*
X131734142Y-76189859D01*
X131819613Y-76061942D01*
X131873197Y-75932578D01*
X136188500Y-75932578D01*
X136188500Y-76086422D01*
X136218513Y-76237309D01*
X136277387Y-76379442D01*
X136362858Y-76507359D01*
X136471641Y-76616142D01*
X136599558Y-76701613D01*
X136741691Y-76760487D01*
X136892578Y-76790500D01*
X136999554Y-76790500D01*
X143059081Y-82850028D01*
X143075709Y-82870289D01*
X143095969Y-82886916D01*
X143156563Y-82936645D01*
X143188695Y-82953820D01*
X143248811Y-82985952D01*
X143348905Y-83016316D01*
X143426915Y-83023999D01*
X143426924Y-83023999D01*
X143452998Y-83026567D01*
X143479072Y-83023999D01*
X153906501Y-83023999D01*
X153849102Y-83109903D01*
X153756307Y-83333931D01*
X153709000Y-83571757D01*
X153709000Y-83814243D01*
X153756307Y-84052069D01*
X153849102Y-84276097D01*
X153983820Y-84477717D01*
X154155283Y-84649180D01*
X154356903Y-84783898D01*
X154580931Y-84876693D01*
X154818757Y-84924000D01*
X155061243Y-84924000D01*
X155299069Y-84876693D01*
X155523097Y-84783898D01*
X155724717Y-84649180D01*
X155896180Y-84477717D01*
X156030898Y-84276097D01*
X156123693Y-84052069D01*
X156171000Y-83814243D01*
X156171000Y-83571757D01*
X156123693Y-83333931D01*
X156030898Y-83109903D01*
X155973499Y-83023999D01*
X156060053Y-83023999D01*
X156317887Y-83281833D01*
X156296307Y-83333931D01*
X156249000Y-83571757D01*
X156249000Y-83814243D01*
X156296307Y-84052069D01*
X156389102Y-84276097D01*
X156523820Y-84477717D01*
X156695283Y-84649180D01*
X156896903Y-84783898D01*
X157120931Y-84876693D01*
X157358757Y-84924000D01*
X157601243Y-84924000D01*
X157839069Y-84876693D01*
X158063097Y-84783898D01*
X158264717Y-84649180D01*
X158436180Y-84477717D01*
X158570898Y-84276097D01*
X158663693Y-84052069D01*
X158711000Y-83814243D01*
X158711000Y-83571757D01*
X158663693Y-83333931D01*
X158570898Y-83109903D01*
X158436180Y-82908283D01*
X158264717Y-82736820D01*
X158063097Y-82602102D01*
X157839069Y-82509307D01*
X157601243Y-82462000D01*
X157358757Y-82462000D01*
X157120931Y-82509307D01*
X157068833Y-82530887D01*
X156673920Y-82135974D01*
X156657289Y-82115709D01*
X156576434Y-82049353D01*
X156484187Y-82000046D01*
X156384093Y-81969682D01*
X156306083Y-81961999D01*
X156306073Y-81961999D01*
X156279999Y-81959431D01*
X156253925Y-81961999D01*
X143672946Y-81961999D01*
X140120025Y-78409078D01*
X152127000Y-78409078D01*
X152127000Y-78562922D01*
X152157013Y-78713809D01*
X152215887Y-78855942D01*
X152301358Y-78983859D01*
X152410141Y-79092642D01*
X152538058Y-79178113D01*
X152680191Y-79236987D01*
X152831078Y-79267000D01*
X152984922Y-79267000D01*
X153135809Y-79236987D01*
X153277942Y-79178113D01*
X153405859Y-79092642D01*
X153514642Y-78983859D01*
X153585992Y-78877076D01*
X153602790Y-78863290D01*
X153619421Y-78843025D01*
X153690963Y-78771483D01*
X157445500Y-78771483D01*
X157445500Y-79043517D01*
X157498571Y-79310323D01*
X157602674Y-79561649D01*
X157753807Y-79787836D01*
X157946164Y-79980193D01*
X158172351Y-80131326D01*
X158423677Y-80235429D01*
X158690483Y-80288500D01*
X158962517Y-80288500D01*
X159229323Y-80235429D01*
X159480649Y-80131326D01*
X159706836Y-79980193D01*
X159899193Y-79787836D01*
X160050326Y-79561649D01*
X160154429Y-79310323D01*
X160207500Y-79043517D01*
X160207500Y-78771483D01*
X160154429Y-78504677D01*
X160050326Y-78253351D01*
X159899193Y-78027164D01*
X159706836Y-77834807D01*
X159480649Y-77683674D01*
X159229323Y-77579571D01*
X158962517Y-77526500D01*
X158690483Y-77526500D01*
X158423677Y-77579571D01*
X158172351Y-77683674D01*
X157946164Y-77834807D01*
X157753807Y-78027164D01*
X157602674Y-78253351D01*
X157498571Y-78504677D01*
X157445500Y-78771483D01*
X153690963Y-78771483D01*
X154973448Y-77489000D01*
X155080422Y-77489000D01*
X155231309Y-77458987D01*
X155373442Y-77400113D01*
X155501359Y-77314642D01*
X155610142Y-77205859D01*
X155695613Y-77077942D01*
X155754487Y-76935809D01*
X155784500Y-76784922D01*
X155784500Y-76631078D01*
X155754487Y-76480191D01*
X155695613Y-76338058D01*
X155610142Y-76210141D01*
X155501359Y-76101358D01*
X155373442Y-76015887D01*
X155231309Y-75957013D01*
X155080422Y-75927000D01*
X154926578Y-75927000D01*
X154775691Y-75957013D01*
X154633558Y-76015887D01*
X154505641Y-76101358D01*
X154396858Y-76210141D01*
X154311387Y-76338058D01*
X154252513Y-76480191D01*
X154222500Y-76631078D01*
X154222500Y-76738052D01*
X153199259Y-77761295D01*
X153135809Y-77735013D01*
X152984922Y-77705000D01*
X152831078Y-77705000D01*
X152680191Y-77735013D01*
X152538058Y-77793887D01*
X152410141Y-77879358D01*
X152301358Y-77988141D01*
X152215887Y-78116058D01*
X152157013Y-78258191D01*
X152127000Y-78409078D01*
X140120025Y-78409078D01*
X137750500Y-76039554D01*
X137750500Y-75932578D01*
X137720487Y-75781691D01*
X137661613Y-75639558D01*
X137576142Y-75511641D01*
X137467359Y-75402858D01*
X137339442Y-75317387D01*
X137197309Y-75258513D01*
X137046422Y-75228500D01*
X136892578Y-75228500D01*
X136741691Y-75258513D01*
X136599558Y-75317387D01*
X136471641Y-75402858D01*
X136362858Y-75511641D01*
X136277387Y-75639558D01*
X136218513Y-75781691D01*
X136188500Y-75932578D01*
X131873197Y-75932578D01*
X131878487Y-75919809D01*
X131908500Y-75768922D01*
X131908500Y-75615078D01*
X131878487Y-75464191D01*
X131819613Y-75322058D01*
X131734142Y-75194141D01*
X131625359Y-75085358D01*
X131497442Y-74999887D01*
X131355309Y-74941013D01*
X131204422Y-74911000D01*
X131050578Y-74911000D01*
X130899691Y-74941013D01*
X130757558Y-74999887D01*
X130629641Y-75085358D01*
X130520858Y-75194141D01*
X130435387Y-75322058D01*
X130376513Y-75464191D01*
X130346500Y-75615078D01*
X124655120Y-75615078D01*
X124560809Y-75576013D01*
X124409922Y-75546000D01*
X124302947Y-75546000D01*
X123433421Y-74676475D01*
X123416790Y-74656210D01*
X123335935Y-74589854D01*
X123243688Y-74540547D01*
X123143594Y-74510183D01*
X123065584Y-74502500D01*
X123065574Y-74502500D01*
X123039500Y-74499932D01*
X123013426Y-74502500D01*
X122660857Y-74502500D01*
X122649088Y-74474087D01*
X122609273Y-74414499D01*
X141672053Y-74414499D01*
X143110000Y-75852447D01*
X143110000Y-75959422D01*
X143140013Y-76110309D01*
X143198887Y-76252442D01*
X143284358Y-76380359D01*
X143393141Y-76489142D01*
X143521058Y-76574613D01*
X143663191Y-76633487D01*
X143814078Y-76663500D01*
X143967922Y-76663500D01*
X144118809Y-76633487D01*
X144260942Y-76574613D01*
X144388859Y-76489142D01*
X144497642Y-76380359D01*
X144583113Y-76252442D01*
X144641987Y-76110309D01*
X144672000Y-75959422D01*
X144672000Y-75805578D01*
X144641987Y-75654691D01*
X144583113Y-75512558D01*
X144497642Y-75384641D01*
X144388859Y-75275858D01*
X144260942Y-75190387D01*
X144118809Y-75131513D01*
X143967922Y-75101500D01*
X143860947Y-75101500D01*
X142285920Y-73526474D01*
X142269289Y-73506209D01*
X142188434Y-73439853D01*
X142096187Y-73390546D01*
X141996093Y-73360182D01*
X141918083Y-73352499D01*
X141918073Y-73352499D01*
X141891999Y-73349931D01*
X141865925Y-73352499D01*
X117722074Y-73352499D01*
X117696000Y-73349931D01*
X117669926Y-73352499D01*
X117669917Y-73352499D01*
X117591907Y-73360182D01*
X117491813Y-73390546D01*
X117431697Y-73422678D01*
X117399565Y-73439853D01*
X117338971Y-73489582D01*
X117318711Y-73506209D01*
X117302084Y-73526469D01*
X111663054Y-79165500D01*
X111556078Y-79165500D01*
X111405191Y-79195513D01*
X111263058Y-79254387D01*
X111135141Y-79339858D01*
X111026358Y-79448641D01*
X110940887Y-79576558D01*
X110882013Y-79718691D01*
X110852000Y-79869578D01*
X99431000Y-79869578D01*
X99431000Y-72271483D01*
X157445500Y-72271483D01*
X157445500Y-72543517D01*
X157498571Y-72810323D01*
X157602674Y-73061649D01*
X157753807Y-73287836D01*
X157946164Y-73480193D01*
X158172351Y-73631326D01*
X158423677Y-73735429D01*
X158690483Y-73788500D01*
X158962517Y-73788500D01*
X159229323Y-73735429D01*
X159480649Y-73631326D01*
X159706836Y-73480193D01*
X159899193Y-73287836D01*
X160050326Y-73061649D01*
X160154429Y-72810323D01*
X160207500Y-72543517D01*
X160207500Y-72271483D01*
X160154429Y-72004677D01*
X160050326Y-71753351D01*
X159899193Y-71527164D01*
X159706836Y-71334807D01*
X159480649Y-71183674D01*
X159229323Y-71079571D01*
X158962517Y-71026500D01*
X158690483Y-71026500D01*
X158423677Y-71079571D01*
X158172351Y-71183674D01*
X157946164Y-71334807D01*
X157753807Y-71527164D01*
X157602674Y-71753351D01*
X157498571Y-72004677D01*
X157445500Y-72271483D01*
X99431000Y-72271483D01*
X99431000Y-70052500D01*
X104404157Y-70052500D01*
X104404157Y-71552500D01*
X104411513Y-71627189D01*
X104433299Y-71699008D01*
X104468678Y-71765196D01*
X104516289Y-71823211D01*
X104574304Y-71870822D01*
X104640492Y-71906201D01*
X104712311Y-71927987D01*
X104787000Y-71935343D01*
X106287000Y-71935343D01*
X106361689Y-71927987D01*
X106433508Y-71906201D01*
X106499696Y-71870822D01*
X106557711Y-71823211D01*
X106605322Y-71765196D01*
X106640701Y-71699008D01*
X106662487Y-71627189D01*
X106669843Y-71552500D01*
X106669843Y-70691106D01*
X106946000Y-70691106D01*
X106946000Y-70913894D01*
X106989464Y-71132400D01*
X107074721Y-71338229D01*
X107198495Y-71523470D01*
X107356030Y-71681005D01*
X107541271Y-71804779D01*
X107747100Y-71890036D01*
X107965606Y-71933500D01*
X108188394Y-71933500D01*
X108406900Y-71890036D01*
X108612729Y-71804779D01*
X108797970Y-71681005D01*
X108955505Y-71523470D01*
X109079279Y-71338229D01*
X109164536Y-71132400D01*
X109208000Y-70913894D01*
X109208000Y-70691106D01*
X109486000Y-70691106D01*
X109486000Y-70913894D01*
X109529464Y-71132400D01*
X109614721Y-71338229D01*
X109738495Y-71523470D01*
X109896030Y-71681005D01*
X110081271Y-71804779D01*
X110287100Y-71890036D01*
X110505606Y-71933500D01*
X110728394Y-71933500D01*
X110946900Y-71890036D01*
X111152729Y-71804779D01*
X111337970Y-71681005D01*
X111495505Y-71523470D01*
X111619279Y-71338229D01*
X111704536Y-71132400D01*
X111748000Y-70913894D01*
X111748000Y-70691106D01*
X111704536Y-70472600D01*
X111619279Y-70266771D01*
X111495505Y-70081530D01*
X111466475Y-70052500D01*
X112468657Y-70052500D01*
X112468657Y-71552500D01*
X112476013Y-71627189D01*
X112497799Y-71699008D01*
X112533178Y-71765196D01*
X112580789Y-71823211D01*
X112638804Y-71870822D01*
X112704992Y-71906201D01*
X112776811Y-71927987D01*
X112851500Y-71935343D01*
X114351500Y-71935343D01*
X114426189Y-71927987D01*
X114498008Y-71906201D01*
X114564196Y-71870822D01*
X114622211Y-71823211D01*
X114669822Y-71765196D01*
X114705201Y-71699008D01*
X114726987Y-71627189D01*
X114734343Y-71552500D01*
X114734343Y-70691106D01*
X115010500Y-70691106D01*
X115010500Y-70913894D01*
X115053964Y-71132400D01*
X115139221Y-71338229D01*
X115262995Y-71523470D01*
X115420530Y-71681005D01*
X115605771Y-71804779D01*
X115811600Y-71890036D01*
X116030106Y-71933500D01*
X116252894Y-71933500D01*
X116471400Y-71890036D01*
X116677229Y-71804779D01*
X116862470Y-71681005D01*
X117020005Y-71523470D01*
X117143779Y-71338229D01*
X117229036Y-71132400D01*
X117272500Y-70913894D01*
X117272500Y-70691106D01*
X117550500Y-70691106D01*
X117550500Y-70913894D01*
X117593964Y-71132400D01*
X117679221Y-71338229D01*
X117802995Y-71523470D01*
X117960530Y-71681005D01*
X118145771Y-71804779D01*
X118351600Y-71890036D01*
X118570106Y-71933500D01*
X118792894Y-71933500D01*
X119011400Y-71890036D01*
X119217229Y-71804779D01*
X119402470Y-71681005D01*
X119560005Y-71523470D01*
X119683779Y-71338229D01*
X119769036Y-71132400D01*
X119812500Y-70913894D01*
X119812500Y-70691106D01*
X119769036Y-70472600D01*
X119683779Y-70266771D01*
X119560005Y-70081530D01*
X119402470Y-69923995D01*
X119217229Y-69800221D01*
X119011400Y-69714964D01*
X118792894Y-69671500D01*
X118570106Y-69671500D01*
X118351600Y-69714964D01*
X118145771Y-69800221D01*
X117960530Y-69923995D01*
X117802995Y-70081530D01*
X117679221Y-70266771D01*
X117593964Y-70472600D01*
X117550500Y-70691106D01*
X117272500Y-70691106D01*
X117229036Y-70472600D01*
X117143779Y-70266771D01*
X117020005Y-70081530D01*
X116862470Y-69923995D01*
X116677229Y-69800221D01*
X116471400Y-69714964D01*
X116252894Y-69671500D01*
X116030106Y-69671500D01*
X115811600Y-69714964D01*
X115605771Y-69800221D01*
X115420530Y-69923995D01*
X115262995Y-70081530D01*
X115139221Y-70266771D01*
X115053964Y-70472600D01*
X115010500Y-70691106D01*
X114734343Y-70691106D01*
X114734343Y-70052500D01*
X114726987Y-69977811D01*
X114705201Y-69905992D01*
X114669822Y-69839804D01*
X114622211Y-69781789D01*
X114564196Y-69734178D01*
X114498008Y-69698799D01*
X114426189Y-69677013D01*
X114351500Y-69669657D01*
X112851500Y-69669657D01*
X112776811Y-69677013D01*
X112704992Y-69698799D01*
X112638804Y-69734178D01*
X112580789Y-69781789D01*
X112533178Y-69839804D01*
X112497799Y-69905992D01*
X112476013Y-69977811D01*
X112468657Y-70052500D01*
X111466475Y-70052500D01*
X111337970Y-69923995D01*
X111152729Y-69800221D01*
X110946900Y-69714964D01*
X110728394Y-69671500D01*
X110505606Y-69671500D01*
X110287100Y-69714964D01*
X110081271Y-69800221D01*
X109896030Y-69923995D01*
X109738495Y-70081530D01*
X109614721Y-70266771D01*
X109529464Y-70472600D01*
X109486000Y-70691106D01*
X109208000Y-70691106D01*
X109164536Y-70472600D01*
X109079279Y-70266771D01*
X108955505Y-70081530D01*
X108797970Y-69923995D01*
X108612729Y-69800221D01*
X108406900Y-69714964D01*
X108188394Y-69671500D01*
X107965606Y-69671500D01*
X107747100Y-69714964D01*
X107541271Y-69800221D01*
X107356030Y-69923995D01*
X107198495Y-70081530D01*
X107074721Y-70266771D01*
X106989464Y-70472600D01*
X106946000Y-70691106D01*
X106669843Y-70691106D01*
X106669843Y-70052500D01*
X106662487Y-69977811D01*
X106640701Y-69905992D01*
X106605322Y-69839804D01*
X106557711Y-69781789D01*
X106499696Y-69734178D01*
X106433508Y-69698799D01*
X106361689Y-69677013D01*
X106287000Y-69669657D01*
X104787000Y-69669657D01*
X104712311Y-69677013D01*
X104640492Y-69698799D01*
X104574304Y-69734178D01*
X104516289Y-69781789D01*
X104468678Y-69839804D01*
X104433299Y-69905992D01*
X104411513Y-69977811D01*
X104404157Y-70052500D01*
X99431000Y-70052500D01*
X99431000Y-66447106D01*
X128345500Y-66447106D01*
X128345500Y-66669894D01*
X128388964Y-66888400D01*
X128474221Y-67094229D01*
X128597995Y-67279470D01*
X128755530Y-67437005D01*
X128940771Y-67560779D01*
X129146600Y-67646036D01*
X129365106Y-67689500D01*
X129587894Y-67689500D01*
X129806400Y-67646036D01*
X130012229Y-67560779D01*
X130197470Y-67437005D01*
X130355005Y-67279470D01*
X130478779Y-67094229D01*
X130564036Y-66888400D01*
X130607500Y-66669894D01*
X130607500Y-66447106D01*
X130564036Y-66228600D01*
X130478779Y-66022771D01*
X130355005Y-65837530D01*
X130197470Y-65679995D01*
X130012229Y-65556221D01*
X129806400Y-65470964D01*
X129587894Y-65427500D01*
X129365106Y-65427500D01*
X129146600Y-65470964D01*
X128940771Y-65556221D01*
X128755530Y-65679995D01*
X128597995Y-65837530D01*
X128474221Y-66022771D01*
X128388964Y-66228600D01*
X128345500Y-66447106D01*
X99431000Y-66447106D01*
X99431000Y-64921000D01*
X137055157Y-64921000D01*
X137055157Y-67921000D01*
X137062513Y-67995689D01*
X137084299Y-68067508D01*
X137119678Y-68133696D01*
X137167289Y-68191711D01*
X137225304Y-68239322D01*
X137291492Y-68274701D01*
X137363311Y-68296487D01*
X137438000Y-68303843D01*
X140438000Y-68303843D01*
X140512689Y-68296487D01*
X140584508Y-68274701D01*
X140650696Y-68239322D01*
X140708711Y-68191711D01*
X140756322Y-68133696D01*
X140791701Y-68067508D01*
X140813487Y-67995689D01*
X140820843Y-67921000D01*
X140820843Y-66235738D01*
X157547000Y-66235738D01*
X157547000Y-66606262D01*
X157619286Y-66969667D01*
X157761080Y-67311987D01*
X157966932Y-67620067D01*
X158228933Y-67882068D01*
X158537013Y-68087920D01*
X158879333Y-68229714D01*
X159242738Y-68302000D01*
X159613262Y-68302000D01*
X159976667Y-68229714D01*
X160318987Y-68087920D01*
X160627067Y-67882068D01*
X160889068Y-67620067D01*
X161094920Y-67311987D01*
X161236714Y-66969667D01*
X161309000Y-66606262D01*
X161309000Y-66235738D01*
X161236714Y-65872333D01*
X161094920Y-65530013D01*
X160889068Y-65221933D01*
X160627067Y-64959932D01*
X160318987Y-64754080D01*
X159976667Y-64612286D01*
X159613262Y-64540000D01*
X159242738Y-64540000D01*
X158879333Y-64612286D01*
X158537013Y-64754080D01*
X158228933Y-64959932D01*
X157966932Y-65221933D01*
X157761080Y-65530013D01*
X157619286Y-65872333D01*
X157547000Y-66235738D01*
X140820843Y-66235738D01*
X140820843Y-64921000D01*
X140813487Y-64846311D01*
X140791701Y-64774492D01*
X140756322Y-64708304D01*
X140708711Y-64650289D01*
X140650696Y-64602678D01*
X140584508Y-64567299D01*
X140512689Y-64545513D01*
X140438000Y-64538157D01*
X137438000Y-64538157D01*
X137363311Y-64545513D01*
X137291492Y-64567299D01*
X137225304Y-64602678D01*
X137167289Y-64650289D01*
X137119678Y-64708304D01*
X137084299Y-64774492D01*
X137062513Y-64846311D01*
X137055157Y-64921000D01*
X99431000Y-64921000D01*
X99431000Y-61547106D01*
X128345500Y-61547106D01*
X128345500Y-61769894D01*
X128388964Y-61988400D01*
X128474221Y-62194229D01*
X128597995Y-62379470D01*
X128755530Y-62537005D01*
X128940771Y-62660779D01*
X129146600Y-62746036D01*
X129365106Y-62789500D01*
X129587894Y-62789500D01*
X129806400Y-62746036D01*
X130012229Y-62660779D01*
X130197470Y-62537005D01*
X130355005Y-62379470D01*
X130478779Y-62194229D01*
X130564036Y-61988400D01*
X130607500Y-61769894D01*
X130607500Y-61547106D01*
X130564036Y-61328600D01*
X130478779Y-61122771D01*
X130355005Y-60937530D01*
X130197470Y-60779995D01*
X130012229Y-60656221D01*
X129806400Y-60570964D01*
X129587894Y-60527500D01*
X129365106Y-60527500D01*
X129146600Y-60570964D01*
X128940771Y-60656221D01*
X128755530Y-60779995D01*
X128597995Y-60937530D01*
X128474221Y-61122771D01*
X128388964Y-61328600D01*
X128345500Y-61547106D01*
X99431000Y-61547106D01*
X99431000Y-47294078D01*
X99739500Y-47294078D01*
X99739500Y-47447922D01*
X99769513Y-47598809D01*
X99828387Y-47740942D01*
X99913858Y-47868859D01*
X100022641Y-47977642D01*
X100150558Y-48063113D01*
X100292691Y-48121987D01*
X100443578Y-48152000D01*
X100597422Y-48152000D01*
X100748309Y-48121987D01*
X100890442Y-48063113D01*
X101018359Y-47977642D01*
X101094001Y-47902000D01*
X106995499Y-47902000D01*
X107071141Y-47977642D01*
X107199058Y-48063113D01*
X107341191Y-48121987D01*
X107492078Y-48152000D01*
X107645922Y-48152000D01*
X107796809Y-48121987D01*
X107938942Y-48063113D01*
X108066859Y-47977642D01*
X108083000Y-47961501D01*
X108083001Y-55779361D01*
X108079343Y-55816500D01*
X108093940Y-55964701D01*
X108137169Y-56107208D01*
X108207369Y-56238543D01*
X108301842Y-56353659D01*
X108330689Y-56377333D01*
X109431163Y-57477808D01*
X109502358Y-57584359D01*
X109611141Y-57693142D01*
X109739058Y-57778613D01*
X109881191Y-57837487D01*
X110032078Y-57867500D01*
X110185922Y-57867500D01*
X110336809Y-57837487D01*
X110478942Y-57778613D01*
X110606859Y-57693142D01*
X110715642Y-57584359D01*
X110801113Y-57456442D01*
X110854697Y-57327078D01*
X133648500Y-57327078D01*
X133648500Y-57480922D01*
X133678513Y-57631809D01*
X133737387Y-57773942D01*
X133822858Y-57901859D01*
X133898500Y-57977501D01*
X133898501Y-61174003D01*
X133864387Y-61225058D01*
X133805513Y-61367191D01*
X133775500Y-61518078D01*
X133775500Y-61671922D01*
X133805513Y-61822809D01*
X133864387Y-61964942D01*
X133949858Y-62092859D01*
X134058641Y-62201642D01*
X134186558Y-62287113D01*
X134328691Y-62345987D01*
X134479578Y-62376000D01*
X134633422Y-62376000D01*
X134784309Y-62345987D01*
X134926442Y-62287113D01*
X135054359Y-62201642D01*
X135163142Y-62092859D01*
X135248613Y-61964942D01*
X135307487Y-61822809D01*
X135337500Y-61671922D01*
X135337500Y-61518078D01*
X135307487Y-61367191D01*
X135248613Y-61225058D01*
X135163142Y-61097141D01*
X135054359Y-60988358D01*
X134960500Y-60925644D01*
X134960500Y-58771483D01*
X157445500Y-58771483D01*
X157445500Y-59043517D01*
X157498571Y-59310323D01*
X157602674Y-59561649D01*
X157753807Y-59787836D01*
X157946164Y-59980193D01*
X158172351Y-60131326D01*
X158423677Y-60235429D01*
X158690483Y-60288500D01*
X158962517Y-60288500D01*
X159229323Y-60235429D01*
X159480649Y-60131326D01*
X159706836Y-59980193D01*
X159899193Y-59787836D01*
X160050326Y-59561649D01*
X160154429Y-59310323D01*
X160207500Y-59043517D01*
X160207500Y-58771483D01*
X160154429Y-58504677D01*
X160050326Y-58253351D01*
X159899193Y-58027164D01*
X159706836Y-57834807D01*
X159480649Y-57683674D01*
X159229323Y-57579571D01*
X158962517Y-57526500D01*
X158690483Y-57526500D01*
X158423677Y-57579571D01*
X158172351Y-57683674D01*
X157946164Y-57834807D01*
X157753807Y-58027164D01*
X157602674Y-58253351D01*
X157498571Y-58504677D01*
X157445500Y-58771483D01*
X134960500Y-58771483D01*
X134960500Y-57977501D01*
X135036142Y-57901859D01*
X135121613Y-57773942D01*
X135180487Y-57631809D01*
X135210500Y-57480922D01*
X135210500Y-57327078D01*
X135180487Y-57176191D01*
X135121613Y-57034058D01*
X135036142Y-56906141D01*
X134927359Y-56797358D01*
X134799442Y-56711887D01*
X134657309Y-56653013D01*
X134506422Y-56623000D01*
X134352578Y-56623000D01*
X134201691Y-56653013D01*
X134059558Y-56711887D01*
X133931641Y-56797358D01*
X133822858Y-56906141D01*
X133737387Y-57034058D01*
X133678513Y-57176191D01*
X133648500Y-57327078D01*
X110854697Y-57327078D01*
X110859987Y-57314309D01*
X110890000Y-57163422D01*
X110890000Y-57009578D01*
X110859987Y-56858691D01*
X110801113Y-56716558D01*
X110715642Y-56588641D01*
X110606859Y-56479858D01*
X110500308Y-56408663D01*
X109595000Y-55503356D01*
X109595000Y-54752606D01*
X111645000Y-54752606D01*
X111645000Y-54975394D01*
X111688464Y-55193900D01*
X111773721Y-55399729D01*
X111897495Y-55584970D01*
X112055030Y-55742505D01*
X112240271Y-55866279D01*
X112446100Y-55951536D01*
X112664606Y-55995000D01*
X112887394Y-55995000D01*
X113105900Y-55951536D01*
X113311729Y-55866279D01*
X113496970Y-55742505D01*
X113654505Y-55584970D01*
X113778279Y-55399729D01*
X113863536Y-55193900D01*
X113907000Y-54975394D01*
X113907000Y-54752606D01*
X114185000Y-54752606D01*
X114185000Y-54975394D01*
X114228464Y-55193900D01*
X114313721Y-55399729D01*
X114437495Y-55584970D01*
X114595030Y-55742505D01*
X114780271Y-55866279D01*
X114986100Y-55951536D01*
X115204606Y-55995000D01*
X115427394Y-55995000D01*
X115645900Y-55951536D01*
X115851729Y-55866279D01*
X116036970Y-55742505D01*
X116194505Y-55584970D01*
X116318279Y-55399729D01*
X116403536Y-55193900D01*
X116447000Y-54975394D01*
X116447000Y-54752606D01*
X116403536Y-54534100D01*
X116318279Y-54328271D01*
X116194505Y-54143030D01*
X116165475Y-54114000D01*
X116723157Y-54114000D01*
X116723157Y-55614000D01*
X116730513Y-55688689D01*
X116752299Y-55760508D01*
X116787678Y-55826696D01*
X116835289Y-55884711D01*
X116893304Y-55932322D01*
X116959492Y-55967701D01*
X117031311Y-55989487D01*
X117106000Y-55996843D01*
X118606000Y-55996843D01*
X118680689Y-55989487D01*
X118752508Y-55967701D01*
X118818696Y-55932322D01*
X118876711Y-55884711D01*
X118924322Y-55826696D01*
X118959701Y-55760508D01*
X118981487Y-55688689D01*
X118988843Y-55614000D01*
X118988843Y-54114000D01*
X118981487Y-54039311D01*
X118959701Y-53967492D01*
X118924322Y-53901304D01*
X118876711Y-53843289D01*
X118818696Y-53795678D01*
X118752508Y-53760299D01*
X118680689Y-53738513D01*
X118606000Y-53731157D01*
X117106000Y-53731157D01*
X117031311Y-53738513D01*
X116959492Y-53760299D01*
X116893304Y-53795678D01*
X116835289Y-53843289D01*
X116787678Y-53901304D01*
X116752299Y-53967492D01*
X116730513Y-54039311D01*
X116723157Y-54114000D01*
X116165475Y-54114000D01*
X116036970Y-53985495D01*
X115851729Y-53861721D01*
X115645900Y-53776464D01*
X115427394Y-53733000D01*
X115204606Y-53733000D01*
X114986100Y-53776464D01*
X114780271Y-53861721D01*
X114595030Y-53985495D01*
X114437495Y-54143030D01*
X114313721Y-54328271D01*
X114228464Y-54534100D01*
X114185000Y-54752606D01*
X113907000Y-54752606D01*
X113863536Y-54534100D01*
X113778279Y-54328271D01*
X113654505Y-54143030D01*
X113496970Y-53985495D01*
X113311729Y-53861721D01*
X113105900Y-53776464D01*
X112887394Y-53733000D01*
X112664606Y-53733000D01*
X112446100Y-53776464D01*
X112240271Y-53861721D01*
X112055030Y-53985495D01*
X111897495Y-54143030D01*
X111773721Y-54328271D01*
X111688464Y-54534100D01*
X111645000Y-54752606D01*
X109595000Y-54752606D01*
X109595000Y-51552983D01*
X133660500Y-51552983D01*
X133660500Y-51825017D01*
X133713571Y-52091823D01*
X133817674Y-52343149D01*
X133968807Y-52569336D01*
X134161164Y-52761693D01*
X134387351Y-52912826D01*
X134638677Y-53016929D01*
X134905483Y-53070000D01*
X135177517Y-53070000D01*
X135444323Y-53016929D01*
X135695649Y-52912826D01*
X135921836Y-52761693D01*
X136114193Y-52569336D01*
X136265326Y-52343149D01*
X136316336Y-52220000D01*
X140266664Y-52220000D01*
X140317674Y-52343149D01*
X140468807Y-52569336D01*
X140661164Y-52761693D01*
X140887351Y-52912826D01*
X141138677Y-53016929D01*
X141405483Y-53070000D01*
X141677517Y-53070000D01*
X141944323Y-53016929D01*
X142195649Y-52912826D01*
X142421836Y-52761693D01*
X142614193Y-52569336D01*
X142765326Y-52343149D01*
X142795011Y-52271483D01*
X157445500Y-52271483D01*
X157445500Y-52543517D01*
X157498571Y-52810323D01*
X157602674Y-53061649D01*
X157753807Y-53287836D01*
X157946164Y-53480193D01*
X158172351Y-53631326D01*
X158423677Y-53735429D01*
X158690483Y-53788500D01*
X158962517Y-53788500D01*
X159229323Y-53735429D01*
X159480649Y-53631326D01*
X159706836Y-53480193D01*
X159899193Y-53287836D01*
X160050326Y-53061649D01*
X160154429Y-52810323D01*
X160207500Y-52543517D01*
X160207500Y-52271483D01*
X160154429Y-52004677D01*
X160050326Y-51753351D01*
X159899193Y-51527164D01*
X159706836Y-51334807D01*
X159480649Y-51183674D01*
X159229323Y-51079571D01*
X158962517Y-51026500D01*
X158690483Y-51026500D01*
X158423677Y-51079571D01*
X158172351Y-51183674D01*
X157946164Y-51334807D01*
X157753807Y-51527164D01*
X157602674Y-51753351D01*
X157498571Y-52004677D01*
X157445500Y-52271483D01*
X142795011Y-52271483D01*
X142869429Y-52091823D01*
X142922500Y-51825017D01*
X142922500Y-51552983D01*
X142869429Y-51286177D01*
X142765326Y-51034851D01*
X142614193Y-50808664D01*
X142421836Y-50616307D01*
X142195649Y-50465174D01*
X141944323Y-50361071D01*
X141677517Y-50308000D01*
X141405483Y-50308000D01*
X141138677Y-50361071D01*
X140887351Y-50465174D01*
X140661164Y-50616307D01*
X140468807Y-50808664D01*
X140317674Y-51034851D01*
X140266664Y-51158000D01*
X136316336Y-51158000D01*
X136265326Y-51034851D01*
X136114193Y-50808664D01*
X135921836Y-50616307D01*
X135695649Y-50465174D01*
X135444323Y-50361071D01*
X135177517Y-50308000D01*
X134905483Y-50308000D01*
X134638677Y-50361071D01*
X134387351Y-50465174D01*
X134161164Y-50616307D01*
X133968807Y-50808664D01*
X133817674Y-51034851D01*
X133713571Y-51286177D01*
X133660500Y-51552983D01*
X109595000Y-51552983D01*
X109595000Y-46976578D01*
X122536000Y-46976578D01*
X122536000Y-47130422D01*
X122566013Y-47281309D01*
X122624887Y-47423442D01*
X122710358Y-47551359D01*
X122819141Y-47660142D01*
X122947058Y-47745613D01*
X123089191Y-47804487D01*
X123240078Y-47834500D01*
X123393922Y-47834500D01*
X123544809Y-47804487D01*
X123686942Y-47745613D01*
X123814859Y-47660142D01*
X123890501Y-47584500D01*
X133712114Y-47584500D01*
X133713571Y-47591823D01*
X133817674Y-47843149D01*
X133968807Y-48069336D01*
X134161164Y-48261693D01*
X134387351Y-48412826D01*
X134638677Y-48516929D01*
X134905483Y-48570000D01*
X135177517Y-48570000D01*
X135444323Y-48516929D01*
X135695649Y-48412826D01*
X135921836Y-48261693D01*
X136114193Y-48069336D01*
X136265326Y-47843149D01*
X136369429Y-47591823D01*
X136422500Y-47325017D01*
X136422500Y-47052983D01*
X140160500Y-47052983D01*
X140160500Y-47325017D01*
X140213571Y-47591823D01*
X140317674Y-47843149D01*
X140468807Y-48069336D01*
X140661164Y-48261693D01*
X140887351Y-48412826D01*
X141138677Y-48516929D01*
X141405483Y-48570000D01*
X141677517Y-48570000D01*
X141944323Y-48516929D01*
X142195649Y-48412826D01*
X142421836Y-48261693D01*
X142614193Y-48069336D01*
X142765326Y-47843149D01*
X142869429Y-47591823D01*
X142922500Y-47325017D01*
X142922500Y-47052983D01*
X142869429Y-46786177D01*
X142765326Y-46534851D01*
X142614193Y-46308664D01*
X142421836Y-46116307D01*
X142195649Y-45965174D01*
X141944323Y-45861071D01*
X141677517Y-45808000D01*
X141405483Y-45808000D01*
X141138677Y-45861071D01*
X140887351Y-45965174D01*
X140661164Y-46116307D01*
X140468807Y-46308664D01*
X140317674Y-46534851D01*
X140213571Y-46786177D01*
X140160500Y-47052983D01*
X136422500Y-47052983D01*
X136369429Y-46786177D01*
X136265326Y-46534851D01*
X136114193Y-46308664D01*
X135921836Y-46116307D01*
X135695649Y-45965174D01*
X135444323Y-45861071D01*
X135177517Y-45808000D01*
X134905483Y-45808000D01*
X134638677Y-45861071D01*
X134387351Y-45965174D01*
X134161164Y-46116307D01*
X133968807Y-46308664D01*
X133825927Y-46522500D01*
X123890501Y-46522500D01*
X123814859Y-46446858D01*
X123686942Y-46361387D01*
X123544809Y-46302513D01*
X123393922Y-46272500D01*
X123240078Y-46272500D01*
X123089191Y-46302513D01*
X122947058Y-46361387D01*
X122819141Y-46446858D01*
X122710358Y-46555641D01*
X122624887Y-46683558D01*
X122566013Y-46825691D01*
X122536000Y-46976578D01*
X109595000Y-46976578D01*
X109595000Y-46557607D01*
X109620000Y-46431922D01*
X109620000Y-46278078D01*
X109589987Y-46127191D01*
X109531113Y-45985058D01*
X109445642Y-45857141D01*
X109336859Y-45748358D01*
X109208942Y-45662887D01*
X109066809Y-45604013D01*
X108915922Y-45574000D01*
X108762078Y-45574000D01*
X108611191Y-45604013D01*
X108469058Y-45662887D01*
X108341141Y-45748358D01*
X108232358Y-45857141D01*
X108146887Y-45985058D01*
X108088013Y-46127191D01*
X108058000Y-46278078D01*
X108058000Y-46431922D01*
X108083000Y-46557607D01*
X108083000Y-46780499D01*
X108066859Y-46764358D01*
X107938942Y-46678887D01*
X107796809Y-46620013D01*
X107645922Y-46590000D01*
X107492078Y-46590000D01*
X107341191Y-46620013D01*
X107199058Y-46678887D01*
X107071141Y-46764358D01*
X106995499Y-46840000D01*
X101094001Y-46840000D01*
X101018359Y-46764358D01*
X100890442Y-46678887D01*
X100748309Y-46620013D01*
X100597422Y-46590000D01*
X100443578Y-46590000D01*
X100292691Y-46620013D01*
X100150558Y-46678887D01*
X100022641Y-46764358D01*
X99913858Y-46873141D01*
X99828387Y-47001058D01*
X99769513Y-47143191D01*
X99739500Y-47294078D01*
X99431000Y-47294078D01*
X99431000Y-43878757D01*
X105004500Y-43878757D01*
X105004500Y-44121243D01*
X105051807Y-44359069D01*
X105144602Y-44583097D01*
X105279320Y-44784717D01*
X105450783Y-44956180D01*
X105652403Y-45090898D01*
X105876431Y-45183693D01*
X106114257Y-45231000D01*
X106356743Y-45231000D01*
X106594569Y-45183693D01*
X106818597Y-45090898D01*
X107020217Y-44956180D01*
X107191680Y-44784717D01*
X107326398Y-44583097D01*
X107419193Y-44359069D01*
X107466500Y-44121243D01*
X107466500Y-43878757D01*
X107419193Y-43640931D01*
X107326398Y-43416903D01*
X107191680Y-43215283D01*
X107126397Y-43150000D01*
X107542657Y-43150000D01*
X107542657Y-44850000D01*
X107550013Y-44924689D01*
X107571799Y-44996508D01*
X107607178Y-45062696D01*
X107654789Y-45120711D01*
X107712804Y-45168322D01*
X107778992Y-45203701D01*
X107850811Y-45225487D01*
X107925500Y-45232843D01*
X109625500Y-45232843D01*
X109700189Y-45225487D01*
X109772008Y-45203701D01*
X109838196Y-45168322D01*
X109896211Y-45120711D01*
X109943822Y-45062696D01*
X109979201Y-44996508D01*
X110000987Y-44924689D01*
X110008343Y-44850000D01*
X110008343Y-43820757D01*
X118403000Y-43820757D01*
X118403000Y-44063243D01*
X118450307Y-44301069D01*
X118543102Y-44525097D01*
X118677820Y-44726717D01*
X118849283Y-44898180D01*
X119050903Y-45032898D01*
X119274931Y-45125693D01*
X119512757Y-45173000D01*
X119755243Y-45173000D01*
X119993069Y-45125693D01*
X120217097Y-45032898D01*
X120418717Y-44898180D01*
X120590180Y-44726717D01*
X120724898Y-44525097D01*
X120817693Y-44301069D01*
X120865000Y-44063243D01*
X120865000Y-43820757D01*
X120943000Y-43820757D01*
X120943000Y-44063243D01*
X120990307Y-44301069D01*
X121083102Y-44525097D01*
X121217820Y-44726717D01*
X121389283Y-44898180D01*
X121590903Y-45032898D01*
X121814931Y-45125693D01*
X122052757Y-45173000D01*
X122295243Y-45173000D01*
X122533069Y-45125693D01*
X122757097Y-45032898D01*
X122958717Y-44898180D01*
X123130180Y-44726717D01*
X123264898Y-44525097D01*
X123312228Y-44410832D01*
X123369843Y-44573252D01*
X123518822Y-44823355D01*
X123713731Y-45039588D01*
X123947080Y-45213641D01*
X124209901Y-45338825D01*
X124357110Y-45383476D01*
X124587000Y-45262155D01*
X124587000Y-44069000D01*
X124567000Y-44069000D01*
X124567000Y-43815000D01*
X124587000Y-43815000D01*
X124587000Y-42621845D01*
X124841000Y-42621845D01*
X124841000Y-43815000D01*
X124861000Y-43815000D01*
X124861000Y-44069000D01*
X124841000Y-44069000D01*
X124841000Y-45262155D01*
X125070890Y-45383476D01*
X125218099Y-45338825D01*
X125296636Y-45301417D01*
X158483756Y-45301417D01*
X158483756Y-45698583D01*
X158561239Y-46088117D01*
X158713228Y-46455050D01*
X158933881Y-46785281D01*
X159214719Y-47066119D01*
X159544950Y-47286772D01*
X159911883Y-47438761D01*
X160301417Y-47516244D01*
X160698583Y-47516244D01*
X161088117Y-47438761D01*
X161455050Y-47286772D01*
X161785281Y-47066119D01*
X162066119Y-46785281D01*
X162286772Y-46455050D01*
X162438761Y-46088117D01*
X162516244Y-45698583D01*
X162516244Y-45301417D01*
X162438761Y-44911883D01*
X162286772Y-44544950D01*
X162066119Y-44214719D01*
X161785281Y-43933881D01*
X161455050Y-43713228D01*
X161088117Y-43561239D01*
X160698583Y-43483756D01*
X160301417Y-43483756D01*
X159911883Y-43561239D01*
X159544950Y-43713228D01*
X159214719Y-43933881D01*
X158933881Y-44214719D01*
X158713228Y-44544950D01*
X158561239Y-44911883D01*
X158483756Y-45301417D01*
X125296636Y-45301417D01*
X125480920Y-45213641D01*
X125714269Y-45039588D01*
X125909178Y-44823355D01*
X126058157Y-44573252D01*
X126115772Y-44410832D01*
X126163102Y-44525097D01*
X126297820Y-44726717D01*
X126469283Y-44898180D01*
X126670903Y-45032898D01*
X126894931Y-45125693D01*
X127132757Y-45173000D01*
X127375243Y-45173000D01*
X127613069Y-45125693D01*
X127837097Y-45032898D01*
X128038717Y-44898180D01*
X128210180Y-44726717D01*
X128344898Y-44525097D01*
X128437693Y-44301069D01*
X128485000Y-44063243D01*
X128485000Y-43820757D01*
X128563000Y-43820757D01*
X128563000Y-44063243D01*
X128610307Y-44301069D01*
X128703102Y-44525097D01*
X128837820Y-44726717D01*
X129009283Y-44898180D01*
X129210903Y-45032898D01*
X129434931Y-45125693D01*
X129672757Y-45173000D01*
X129915243Y-45173000D01*
X130153069Y-45125693D01*
X130377097Y-45032898D01*
X130578717Y-44898180D01*
X130750180Y-44726717D01*
X130884898Y-44525097D01*
X130977693Y-44301069D01*
X131025000Y-44063243D01*
X131025000Y-43820757D01*
X130977693Y-43582931D01*
X130884898Y-43358903D01*
X130750180Y-43157283D01*
X130684897Y-43092000D01*
X131101157Y-43092000D01*
X131101157Y-44792000D01*
X131108513Y-44866689D01*
X131130299Y-44938508D01*
X131165678Y-45004696D01*
X131213289Y-45062711D01*
X131271304Y-45110322D01*
X131337492Y-45145701D01*
X131409311Y-45167487D01*
X131484000Y-45174843D01*
X133184000Y-45174843D01*
X133258689Y-45167487D01*
X133330508Y-45145701D01*
X133396696Y-45110322D01*
X133454711Y-45062711D01*
X133502322Y-45004696D01*
X133537701Y-44938508D01*
X133559487Y-44866689D01*
X133566843Y-44792000D01*
X133566843Y-43150000D01*
X143229657Y-43150000D01*
X143229657Y-44850000D01*
X143237013Y-44924689D01*
X143258799Y-44996508D01*
X143294178Y-45062696D01*
X143341789Y-45120711D01*
X143399804Y-45168322D01*
X143465992Y-45203701D01*
X143537811Y-45225487D01*
X143612500Y-45232843D01*
X145312500Y-45232843D01*
X145387189Y-45225487D01*
X145459008Y-45203701D01*
X145525196Y-45168322D01*
X145583211Y-45120711D01*
X145630822Y-45062696D01*
X145666201Y-44996508D01*
X145687987Y-44924689D01*
X145695343Y-44850000D01*
X145695343Y-43878757D01*
X145771500Y-43878757D01*
X145771500Y-44121243D01*
X145818807Y-44359069D01*
X145911602Y-44583097D01*
X146046320Y-44784717D01*
X146217783Y-44956180D01*
X146419403Y-45090898D01*
X146643431Y-45183693D01*
X146881257Y-45231000D01*
X147123743Y-45231000D01*
X147361569Y-45183693D01*
X147585597Y-45090898D01*
X147787217Y-44956180D01*
X147958680Y-44784717D01*
X148093398Y-44583097D01*
X148186193Y-44359069D01*
X148233500Y-44121243D01*
X148233500Y-43878757D01*
X148186193Y-43640931D01*
X148093398Y-43416903D01*
X147958680Y-43215283D01*
X147787217Y-43043820D01*
X147585597Y-42909102D01*
X147361569Y-42816307D01*
X147123743Y-42769000D01*
X146881257Y-42769000D01*
X146643431Y-42816307D01*
X146419403Y-42909102D01*
X146217783Y-43043820D01*
X146046320Y-43215283D01*
X145911602Y-43416903D01*
X145818807Y-43640931D01*
X145771500Y-43878757D01*
X145695343Y-43878757D01*
X145695343Y-43150000D01*
X145687987Y-43075311D01*
X145666201Y-43003492D01*
X145630822Y-42937304D01*
X145583211Y-42879289D01*
X145525196Y-42831678D01*
X145459008Y-42796299D01*
X145387189Y-42774513D01*
X145312500Y-42767157D01*
X143612500Y-42767157D01*
X143537811Y-42774513D01*
X143465992Y-42796299D01*
X143399804Y-42831678D01*
X143341789Y-42879289D01*
X143294178Y-42937304D01*
X143258799Y-43003492D01*
X143237013Y-43075311D01*
X143229657Y-43150000D01*
X133566843Y-43150000D01*
X133566843Y-43092000D01*
X133559487Y-43017311D01*
X133537701Y-42945492D01*
X133502322Y-42879304D01*
X133454711Y-42821289D01*
X133396696Y-42773678D01*
X133330508Y-42738299D01*
X133258689Y-42716513D01*
X133184000Y-42709157D01*
X131484000Y-42709157D01*
X131409311Y-42716513D01*
X131337492Y-42738299D01*
X131271304Y-42773678D01*
X131213289Y-42821289D01*
X131165678Y-42879304D01*
X131130299Y-42945492D01*
X131108513Y-43017311D01*
X131101157Y-43092000D01*
X130684897Y-43092000D01*
X130578717Y-42985820D01*
X130377097Y-42851102D01*
X130153069Y-42758307D01*
X129915243Y-42711000D01*
X129672757Y-42711000D01*
X129434931Y-42758307D01*
X129210903Y-42851102D01*
X129009283Y-42985820D01*
X128837820Y-43157283D01*
X128703102Y-43358903D01*
X128610307Y-43582931D01*
X128563000Y-43820757D01*
X128485000Y-43820757D01*
X128437693Y-43582931D01*
X128344898Y-43358903D01*
X128210180Y-43157283D01*
X128038717Y-42985820D01*
X127837097Y-42851102D01*
X127613069Y-42758307D01*
X127375243Y-42711000D01*
X127132757Y-42711000D01*
X126894931Y-42758307D01*
X126670903Y-42851102D01*
X126469283Y-42985820D01*
X126297820Y-43157283D01*
X126163102Y-43358903D01*
X126115772Y-43473168D01*
X126058157Y-43310748D01*
X125909178Y-43060645D01*
X125714269Y-42844412D01*
X125480920Y-42670359D01*
X125218099Y-42545175D01*
X125070890Y-42500524D01*
X124841000Y-42621845D01*
X124587000Y-42621845D01*
X124357110Y-42500524D01*
X124209901Y-42545175D01*
X123947080Y-42670359D01*
X123713731Y-42844412D01*
X123518822Y-43060645D01*
X123369843Y-43310748D01*
X123312228Y-43473168D01*
X123264898Y-43358903D01*
X123130180Y-43157283D01*
X122958717Y-42985820D01*
X122757097Y-42851102D01*
X122533069Y-42758307D01*
X122295243Y-42711000D01*
X122052757Y-42711000D01*
X121814931Y-42758307D01*
X121590903Y-42851102D01*
X121389283Y-42985820D01*
X121217820Y-43157283D01*
X121083102Y-43358903D01*
X120990307Y-43582931D01*
X120943000Y-43820757D01*
X120865000Y-43820757D01*
X120817693Y-43582931D01*
X120724898Y-43358903D01*
X120590180Y-43157283D01*
X120418717Y-42985820D01*
X120217097Y-42851102D01*
X119993069Y-42758307D01*
X119755243Y-42711000D01*
X119512757Y-42711000D01*
X119274931Y-42758307D01*
X119050903Y-42851102D01*
X118849283Y-42985820D01*
X118677820Y-43157283D01*
X118543102Y-43358903D01*
X118450307Y-43582931D01*
X118403000Y-43820757D01*
X110008343Y-43820757D01*
X110008343Y-43150000D01*
X110000987Y-43075311D01*
X109979201Y-43003492D01*
X109943822Y-42937304D01*
X109896211Y-42879289D01*
X109838196Y-42831678D01*
X109772008Y-42796299D01*
X109700189Y-42774513D01*
X109625500Y-42767157D01*
X107925500Y-42767157D01*
X107850811Y-42774513D01*
X107778992Y-42796299D01*
X107712804Y-42831678D01*
X107654789Y-42879289D01*
X107607178Y-42937304D01*
X107571799Y-43003492D01*
X107550013Y-43075311D01*
X107542657Y-43150000D01*
X107126397Y-43150000D01*
X107020217Y-43043820D01*
X106818597Y-42909102D01*
X106594569Y-42816307D01*
X106356743Y-42769000D01*
X106114257Y-42769000D01*
X105876431Y-42816307D01*
X105652403Y-42909102D01*
X105450783Y-43043820D01*
X105279320Y-43215283D01*
X105144602Y-43416903D01*
X105051807Y-43640931D01*
X105004500Y-43878757D01*
X99431000Y-43878757D01*
X99431000Y-41431000D01*
X164569000Y-41431000D01*
X164569000Y-51798434D01*
G37*
G04 #@! TD.AperFunction*
M02*
