G04 #@! TF.GenerationSoftware,KiCad,Pcbnew,5.1.7-a382d34a8~87~ubuntu20.04.1*
G04 #@! TF.CreationDate,2020-11-09T08:25:24+01:00*
G04 #@! TF.ProjectId,OpenerV1.1_Board,4f70656e-6572-4563-912e-315f426f6172,rev?*
G04 #@! TF.SameCoordinates,Original*
G04 #@! TF.FileFunction,Paste,Top*
G04 #@! TF.FilePolarity,Positive*
%FSLAX46Y46*%
G04 Gerber Fmt 4.6, Leading zero omitted, Abs format (unit mm)*
G04 Created by KiCad (PCBNEW 5.1.7-a382d34a8~87~ubuntu20.04.1) date 2020-11-09 08:25:24*
%MOMM*%
%LPD*%
G01*
G04 APERTURE LIST*
%ADD10R,2.500000X1.800000*%
%ADD11R,1.060000X0.650000*%
%ADD12R,0.550000X1.600000*%
%ADD13R,1.600000X0.550000*%
%ADD14R,0.900000X0.800000*%
%ADD15R,0.800000X0.900000*%
%ADD16R,0.650000X1.525000*%
G04 APERTURE END LIST*
D10*
X151383500Y-81915000D03*
X147383500Y-81915000D03*
G36*
G01*
X115590501Y-44629500D02*
X113390499Y-44629500D01*
G75*
G02*
X113140500Y-44379501I0J249999D01*
G01*
X113140500Y-43729499D01*
G75*
G02*
X113390499Y-43479500I249999J0D01*
G01*
X115590501Y-43479500D01*
G75*
G02*
X115840500Y-43729499I0J-249999D01*
G01*
X115840500Y-44379501D01*
G75*
G02*
X115590501Y-44629500I-249999J0D01*
G01*
G37*
G36*
G01*
X115590501Y-47579500D02*
X113390499Y-47579500D01*
G75*
G02*
X113140500Y-47329501I0J249999D01*
G01*
X113140500Y-46679499D01*
G75*
G02*
X113390499Y-46429500I249999J0D01*
G01*
X115590501Y-46429500D01*
G75*
G02*
X115840500Y-46679499I0J-249999D01*
G01*
X115840500Y-47329501D01*
G75*
G02*
X115590501Y-47579500I-249999J0D01*
G01*
G37*
G36*
G01*
X142214500Y-59014500D02*
X142214500Y-58714500D01*
G75*
G02*
X142364500Y-58564500I150000J0D01*
G01*
X144014500Y-58564500D01*
G75*
G02*
X144164500Y-58714500I0J-150000D01*
G01*
X144164500Y-59014500D01*
G75*
G02*
X144014500Y-59164500I-150000J0D01*
G01*
X142364500Y-59164500D01*
G75*
G02*
X142214500Y-59014500I0J150000D01*
G01*
G37*
G36*
G01*
X142214500Y-60284500D02*
X142214500Y-59984500D01*
G75*
G02*
X142364500Y-59834500I150000J0D01*
G01*
X144014500Y-59834500D01*
G75*
G02*
X144164500Y-59984500I0J-150000D01*
G01*
X144164500Y-60284500D01*
G75*
G02*
X144014500Y-60434500I-150000J0D01*
G01*
X142364500Y-60434500D01*
G75*
G02*
X142214500Y-60284500I0J150000D01*
G01*
G37*
G36*
G01*
X142214500Y-61554500D02*
X142214500Y-61254500D01*
G75*
G02*
X142364500Y-61104500I150000J0D01*
G01*
X144014500Y-61104500D01*
G75*
G02*
X144164500Y-61254500I0J-150000D01*
G01*
X144164500Y-61554500D01*
G75*
G02*
X144014500Y-61704500I-150000J0D01*
G01*
X142364500Y-61704500D01*
G75*
G02*
X142214500Y-61554500I0J150000D01*
G01*
G37*
G36*
G01*
X142214500Y-62824500D02*
X142214500Y-62524500D01*
G75*
G02*
X142364500Y-62374500I150000J0D01*
G01*
X144014500Y-62374500D01*
G75*
G02*
X144164500Y-62524500I0J-150000D01*
G01*
X144164500Y-62824500D01*
G75*
G02*
X144014500Y-62974500I-150000J0D01*
G01*
X142364500Y-62974500D01*
G75*
G02*
X142214500Y-62824500I0J150000D01*
G01*
G37*
G36*
G01*
X137264500Y-62824500D02*
X137264500Y-62524500D01*
G75*
G02*
X137414500Y-62374500I150000J0D01*
G01*
X139064500Y-62374500D01*
G75*
G02*
X139214500Y-62524500I0J-150000D01*
G01*
X139214500Y-62824500D01*
G75*
G02*
X139064500Y-62974500I-150000J0D01*
G01*
X137414500Y-62974500D01*
G75*
G02*
X137264500Y-62824500I0J150000D01*
G01*
G37*
G36*
G01*
X137264500Y-61554500D02*
X137264500Y-61254500D01*
G75*
G02*
X137414500Y-61104500I150000J0D01*
G01*
X139064500Y-61104500D01*
G75*
G02*
X139214500Y-61254500I0J-150000D01*
G01*
X139214500Y-61554500D01*
G75*
G02*
X139064500Y-61704500I-150000J0D01*
G01*
X137414500Y-61704500D01*
G75*
G02*
X137264500Y-61554500I0J150000D01*
G01*
G37*
G36*
G01*
X137264500Y-60284500D02*
X137264500Y-59984500D01*
G75*
G02*
X137414500Y-59834500I150000J0D01*
G01*
X139064500Y-59834500D01*
G75*
G02*
X139214500Y-59984500I0J-150000D01*
G01*
X139214500Y-60284500D01*
G75*
G02*
X139064500Y-60434500I-150000J0D01*
G01*
X137414500Y-60434500D01*
G75*
G02*
X137264500Y-60284500I0J150000D01*
G01*
G37*
G36*
G01*
X137264500Y-59014500D02*
X137264500Y-58714500D01*
G75*
G02*
X137414500Y-58564500I150000J0D01*
G01*
X139064500Y-58564500D01*
G75*
G02*
X139214500Y-58714500I0J-150000D01*
G01*
X139214500Y-59014500D01*
G75*
G02*
X139064500Y-59164500I-150000J0D01*
G01*
X137414500Y-59164500D01*
G75*
G02*
X137264500Y-59014500I0J150000D01*
G01*
G37*
G36*
G01*
X130740998Y-48128500D02*
X131641002Y-48128500D01*
G75*
G02*
X131891000Y-48378498I0J-249998D01*
G01*
X131891000Y-48903502D01*
G75*
G02*
X131641002Y-49153500I-249998J0D01*
G01*
X130740998Y-49153500D01*
G75*
G02*
X130491000Y-48903502I0J249998D01*
G01*
X130491000Y-48378498D01*
G75*
G02*
X130740998Y-48128500I249998J0D01*
G01*
G37*
G36*
G01*
X130740998Y-46303500D02*
X131641002Y-46303500D01*
G75*
G02*
X131891000Y-46553498I0J-249998D01*
G01*
X131891000Y-47078502D01*
G75*
G02*
X131641002Y-47328500I-249998J0D01*
G01*
X130740998Y-47328500D01*
G75*
G02*
X130491000Y-47078502I0J249998D01*
G01*
X130491000Y-46553498D01*
G75*
G02*
X130740998Y-46303500I249998J0D01*
G01*
G37*
D11*
X151046000Y-48829000D03*
X151046000Y-46929000D03*
X153246000Y-46929000D03*
X153246000Y-47879000D03*
X153246000Y-48829000D03*
D12*
X134556500Y-73406000D03*
X135356500Y-73406000D03*
X136156500Y-73406000D03*
X136956500Y-73406000D03*
X137756500Y-73406000D03*
X138556500Y-73406000D03*
X139356500Y-73406000D03*
X140156500Y-73406000D03*
D13*
X141606500Y-74856000D03*
X141606500Y-75656000D03*
X141606500Y-76456000D03*
X141606500Y-77256000D03*
X141606500Y-78056000D03*
X141606500Y-78856000D03*
X141606500Y-79656000D03*
X141606500Y-80456000D03*
D12*
X140156500Y-81906000D03*
X139356500Y-81906000D03*
X138556500Y-81906000D03*
X137756500Y-81906000D03*
X136956500Y-81906000D03*
X136156500Y-81906000D03*
X135356500Y-81906000D03*
X134556500Y-81906000D03*
D13*
X133106500Y-80456000D03*
X133106500Y-79656000D03*
X133106500Y-78856000D03*
X133106500Y-78056000D03*
X133106500Y-77256000D03*
X133106500Y-76456000D03*
X133106500Y-75656000D03*
X133106500Y-74856000D03*
G36*
G01*
X124084502Y-60329500D02*
X123184498Y-60329500D01*
G75*
G02*
X122934500Y-60079502I0J249998D01*
G01*
X122934500Y-59554498D01*
G75*
G02*
X123184498Y-59304500I249998J0D01*
G01*
X124084502Y-59304500D01*
G75*
G02*
X124334500Y-59554498I0J-249998D01*
G01*
X124334500Y-60079502D01*
G75*
G02*
X124084502Y-60329500I-249998J0D01*
G01*
G37*
G36*
G01*
X124084502Y-62154500D02*
X123184498Y-62154500D01*
G75*
G02*
X122934500Y-61904502I0J249998D01*
G01*
X122934500Y-61379498D01*
G75*
G02*
X123184498Y-61129500I249998J0D01*
G01*
X124084502Y-61129500D01*
G75*
G02*
X124334500Y-61379498I0J-249998D01*
G01*
X124334500Y-61904502D01*
G75*
G02*
X124084502Y-62154500I-249998J0D01*
G01*
G37*
G36*
G01*
X121862002Y-60306000D02*
X120961998Y-60306000D01*
G75*
G02*
X120712000Y-60056002I0J249998D01*
G01*
X120712000Y-59530998D01*
G75*
G02*
X120961998Y-59281000I249998J0D01*
G01*
X121862002Y-59281000D01*
G75*
G02*
X122112000Y-59530998I0J-249998D01*
G01*
X122112000Y-60056002D01*
G75*
G02*
X121862002Y-60306000I-249998J0D01*
G01*
G37*
G36*
G01*
X121862002Y-62131000D02*
X120961998Y-62131000D01*
G75*
G02*
X120712000Y-61881002I0J249998D01*
G01*
X120712000Y-61355998D01*
G75*
G02*
X120961998Y-61106000I249998J0D01*
G01*
X121862002Y-61106000D01*
G75*
G02*
X122112000Y-61355998I0J-249998D01*
G01*
X122112000Y-61881002D01*
G75*
G02*
X121862002Y-62131000I-249998J0D01*
G01*
G37*
G36*
G01*
X117837000Y-60192498D02*
X117837000Y-61092502D01*
G75*
G02*
X117587002Y-61342500I-249998J0D01*
G01*
X117061998Y-61342500D01*
G75*
G02*
X116812000Y-61092502I0J249998D01*
G01*
X116812000Y-60192498D01*
G75*
G02*
X117061998Y-59942500I249998J0D01*
G01*
X117587002Y-59942500D01*
G75*
G02*
X117837000Y-60192498I0J-249998D01*
G01*
G37*
G36*
G01*
X119662000Y-60192498D02*
X119662000Y-61092502D01*
G75*
G02*
X119412002Y-61342500I-249998J0D01*
G01*
X118886998Y-61342500D01*
G75*
G02*
X118637000Y-61092502I0J249998D01*
G01*
X118637000Y-60192498D01*
G75*
G02*
X118886998Y-59942500I249998J0D01*
G01*
X119412002Y-59942500D01*
G75*
G02*
X119662000Y-60192498I0J-249998D01*
G01*
G37*
G36*
G01*
X123258000Y-66859998D02*
X123258000Y-67760002D01*
G75*
G02*
X123008002Y-68010000I-249998J0D01*
G01*
X122482998Y-68010000D01*
G75*
G02*
X122233000Y-67760002I0J249998D01*
G01*
X122233000Y-66859998D01*
G75*
G02*
X122482998Y-66610000I249998J0D01*
G01*
X123008002Y-66610000D01*
G75*
G02*
X123258000Y-66859998I0J-249998D01*
G01*
G37*
G36*
G01*
X125083000Y-66859998D02*
X125083000Y-67760002D01*
G75*
G02*
X124833002Y-68010000I-249998J0D01*
G01*
X124307998Y-68010000D01*
G75*
G02*
X124058000Y-67760002I0J249998D01*
G01*
X124058000Y-66859998D01*
G75*
G02*
X124307998Y-66610000I249998J0D01*
G01*
X124833002Y-66610000D01*
G75*
G02*
X125083000Y-66859998I0J-249998D01*
G01*
G37*
G36*
G01*
X117369000Y-50921498D02*
X117369000Y-51821502D01*
G75*
G02*
X117119002Y-52071500I-249998J0D01*
G01*
X116593998Y-52071500D01*
G75*
G02*
X116344000Y-51821502I0J249998D01*
G01*
X116344000Y-50921498D01*
G75*
G02*
X116593998Y-50671500I249998J0D01*
G01*
X117119002Y-50671500D01*
G75*
G02*
X117369000Y-50921498I0J-249998D01*
G01*
G37*
G36*
G01*
X119194000Y-50921498D02*
X119194000Y-51821502D01*
G75*
G02*
X118944002Y-52071500I-249998J0D01*
G01*
X118418998Y-52071500D01*
G75*
G02*
X118169000Y-51821502I0J249998D01*
G01*
X118169000Y-50921498D01*
G75*
G02*
X118418998Y-50671500I249998J0D01*
G01*
X118944002Y-50671500D01*
G75*
G02*
X119194000Y-50921498I0J-249998D01*
G01*
G37*
G36*
G01*
X105746500Y-57600002D02*
X105746500Y-56699998D01*
G75*
G02*
X105996498Y-56450000I249998J0D01*
G01*
X106521502Y-56450000D01*
G75*
G02*
X106771500Y-56699998I0J-249998D01*
G01*
X106771500Y-57600002D01*
G75*
G02*
X106521502Y-57850000I-249998J0D01*
G01*
X105996498Y-57850000D01*
G75*
G02*
X105746500Y-57600002I0J249998D01*
G01*
G37*
G36*
G01*
X103921500Y-57600002D02*
X103921500Y-56699998D01*
G75*
G02*
X104171498Y-56450000I249998J0D01*
G01*
X104696502Y-56450000D01*
G75*
G02*
X104946500Y-56699998I0J-249998D01*
G01*
X104946500Y-57600002D01*
G75*
G02*
X104696502Y-57850000I-249998J0D01*
G01*
X104171498Y-57850000D01*
G75*
G02*
X103921500Y-57600002I0J249998D01*
G01*
G37*
G36*
G01*
X147745500Y-60065498D02*
X147745500Y-60965502D01*
G75*
G02*
X147495502Y-61215500I-249998J0D01*
G01*
X146970498Y-61215500D01*
G75*
G02*
X146720500Y-60965502I0J249998D01*
G01*
X146720500Y-60065498D01*
G75*
G02*
X146970498Y-59815500I249998J0D01*
G01*
X147495502Y-59815500D01*
G75*
G02*
X147745500Y-60065498I0J-249998D01*
G01*
G37*
G36*
G01*
X149570500Y-60065498D02*
X149570500Y-60965502D01*
G75*
G02*
X149320502Y-61215500I-249998J0D01*
G01*
X148795498Y-61215500D01*
G75*
G02*
X148545500Y-60965502I0J249998D01*
G01*
X148545500Y-60065498D01*
G75*
G02*
X148795498Y-59815500I249998J0D01*
G01*
X149320502Y-59815500D01*
G75*
G02*
X149570500Y-60065498I0J-249998D01*
G01*
G37*
G36*
G01*
X147745500Y-62668998D02*
X147745500Y-63569002D01*
G75*
G02*
X147495502Y-63819000I-249998J0D01*
G01*
X146970498Y-63819000D01*
G75*
G02*
X146720500Y-63569002I0J249998D01*
G01*
X146720500Y-62668998D01*
G75*
G02*
X146970498Y-62419000I249998J0D01*
G01*
X147495502Y-62419000D01*
G75*
G02*
X147745500Y-62668998I0J-249998D01*
G01*
G37*
G36*
G01*
X149570500Y-62668998D02*
X149570500Y-63569002D01*
G75*
G02*
X149320502Y-63819000I-249998J0D01*
G01*
X148795498Y-63819000D01*
G75*
G02*
X148545500Y-63569002I0J249998D01*
G01*
X148545500Y-62668998D01*
G75*
G02*
X148795498Y-62419000I249998J0D01*
G01*
X149320502Y-62419000D01*
G75*
G02*
X149570500Y-62668998I0J-249998D01*
G01*
G37*
G36*
G01*
X118637000Y-67950502D02*
X118637000Y-67050498D01*
G75*
G02*
X118886998Y-66800500I249998J0D01*
G01*
X119412002Y-66800500D01*
G75*
G02*
X119662000Y-67050498I0J-249998D01*
G01*
X119662000Y-67950502D01*
G75*
G02*
X119412002Y-68200500I-249998J0D01*
G01*
X118886998Y-68200500D01*
G75*
G02*
X118637000Y-67950502I0J249998D01*
G01*
G37*
G36*
G01*
X116812000Y-67950502D02*
X116812000Y-67050498D01*
G75*
G02*
X117061998Y-66800500I249998J0D01*
G01*
X117587002Y-66800500D01*
G75*
G02*
X117837000Y-67050498I0J-249998D01*
G01*
X117837000Y-67950502D01*
G75*
G02*
X117587002Y-68200500I-249998J0D01*
G01*
X117061998Y-68200500D01*
G75*
G02*
X116812000Y-67950502I0J249998D01*
G01*
G37*
G36*
G01*
X116591502Y-74871000D02*
X115691498Y-74871000D01*
G75*
G02*
X115441500Y-74621002I0J249998D01*
G01*
X115441500Y-74095998D01*
G75*
G02*
X115691498Y-73846000I249998J0D01*
G01*
X116591502Y-73846000D01*
G75*
G02*
X116841500Y-74095998I0J-249998D01*
G01*
X116841500Y-74621002D01*
G75*
G02*
X116591502Y-74871000I-249998J0D01*
G01*
G37*
G36*
G01*
X116591502Y-76696000D02*
X115691498Y-76696000D01*
G75*
G02*
X115441500Y-76446002I0J249998D01*
G01*
X115441500Y-75920998D01*
G75*
G02*
X115691498Y-75671000I249998J0D01*
G01*
X116591502Y-75671000D01*
G75*
G02*
X116841500Y-75920998I0J-249998D01*
G01*
X116841500Y-76446002D01*
G75*
G02*
X116591502Y-76696000I-249998J0D01*
G01*
G37*
G36*
G01*
X103611000Y-68331502D02*
X103611000Y-67431498D01*
G75*
G02*
X103860998Y-67181500I249998J0D01*
G01*
X104386002Y-67181500D01*
G75*
G02*
X104636000Y-67431498I0J-249998D01*
G01*
X104636000Y-68331502D01*
G75*
G02*
X104386002Y-68581500I-249998J0D01*
G01*
X103860998Y-68581500D01*
G75*
G02*
X103611000Y-68331502I0J249998D01*
G01*
G37*
G36*
G01*
X101786000Y-68331502D02*
X101786000Y-67431498D01*
G75*
G02*
X102035998Y-67181500I249998J0D01*
G01*
X102561002Y-67181500D01*
G75*
G02*
X102811000Y-67431498I0J-249998D01*
G01*
X102811000Y-68331502D01*
G75*
G02*
X102561002Y-68581500I-249998J0D01*
G01*
X102035998Y-68581500D01*
G75*
G02*
X101786000Y-68331502I0J249998D01*
G01*
G37*
G36*
G01*
X108527002Y-74911000D02*
X107626998Y-74911000D01*
G75*
G02*
X107377000Y-74661002I0J249998D01*
G01*
X107377000Y-74135998D01*
G75*
G02*
X107626998Y-73886000I249998J0D01*
G01*
X108527002Y-73886000D01*
G75*
G02*
X108777000Y-74135998I0J-249998D01*
G01*
X108777000Y-74661002D01*
G75*
G02*
X108527002Y-74911000I-249998J0D01*
G01*
G37*
G36*
G01*
X108527002Y-76736000D02*
X107626998Y-76736000D01*
G75*
G02*
X107377000Y-76486002I0J249998D01*
G01*
X107377000Y-75960998D01*
G75*
G02*
X107626998Y-75711000I249998J0D01*
G01*
X108527002Y-75711000D01*
G75*
G02*
X108777000Y-75960998I0J-249998D01*
G01*
X108777000Y-76486002D01*
G75*
G02*
X108527002Y-76736000I-249998J0D01*
G01*
G37*
G36*
G01*
X162056500Y-62351498D02*
X162056500Y-63251502D01*
G75*
G02*
X161806502Y-63501500I-249998J0D01*
G01*
X161281498Y-63501500D01*
G75*
G02*
X161031500Y-63251502I0J249998D01*
G01*
X161031500Y-62351498D01*
G75*
G02*
X161281498Y-62101500I249998J0D01*
G01*
X161806502Y-62101500D01*
G75*
G02*
X162056500Y-62351498I0J-249998D01*
G01*
G37*
G36*
G01*
X163881500Y-62351498D02*
X163881500Y-63251502D01*
G75*
G02*
X163631502Y-63501500I-249998J0D01*
G01*
X163106498Y-63501500D01*
G75*
G02*
X162856500Y-63251502I0J249998D01*
G01*
X162856500Y-62351498D01*
G75*
G02*
X163106498Y-62101500I249998J0D01*
G01*
X163631502Y-62101500D01*
G75*
G02*
X163881500Y-62351498I0J-249998D01*
G01*
G37*
G36*
G01*
X162960000Y-88969002D02*
X162960000Y-88068998D01*
G75*
G02*
X163209998Y-87819000I249998J0D01*
G01*
X163735002Y-87819000D01*
G75*
G02*
X163985000Y-88068998I0J-249998D01*
G01*
X163985000Y-88969002D01*
G75*
G02*
X163735002Y-89219000I-249998J0D01*
G01*
X163209998Y-89219000D01*
G75*
G02*
X162960000Y-88969002I0J249998D01*
G01*
G37*
G36*
G01*
X161135000Y-88969002D02*
X161135000Y-88068998D01*
G75*
G02*
X161384998Y-87819000I249998J0D01*
G01*
X161910002Y-87819000D01*
G75*
G02*
X162160000Y-88068998I0J-249998D01*
G01*
X162160000Y-88969002D01*
G75*
G02*
X161910002Y-89219000I-249998J0D01*
G01*
X161384998Y-89219000D01*
G75*
G02*
X161135000Y-88969002I0J249998D01*
G01*
G37*
G36*
G01*
X163772002Y-68394000D02*
X162871998Y-68394000D01*
G75*
G02*
X162622000Y-68144002I0J249998D01*
G01*
X162622000Y-67618998D01*
G75*
G02*
X162871998Y-67369000I249998J0D01*
G01*
X163772002Y-67369000D01*
G75*
G02*
X164022000Y-67618998I0J-249998D01*
G01*
X164022000Y-68144002D01*
G75*
G02*
X163772002Y-68394000I-249998J0D01*
G01*
G37*
G36*
G01*
X163772002Y-70219000D02*
X162871998Y-70219000D01*
G75*
G02*
X162622000Y-69969002I0J249998D01*
G01*
X162622000Y-69443998D01*
G75*
G02*
X162871998Y-69194000I249998J0D01*
G01*
X163772002Y-69194000D01*
G75*
G02*
X164022000Y-69443998I0J-249998D01*
G01*
X164022000Y-69969002D01*
G75*
G02*
X163772002Y-70219000I-249998J0D01*
G01*
G37*
G36*
G01*
X163835502Y-83483500D02*
X162935498Y-83483500D01*
G75*
G02*
X162685500Y-83233502I0J249998D01*
G01*
X162685500Y-82708498D01*
G75*
G02*
X162935498Y-82458500I249998J0D01*
G01*
X163835502Y-82458500D01*
G75*
G02*
X164085500Y-82708498I0J-249998D01*
G01*
X164085500Y-83233502D01*
G75*
G02*
X163835502Y-83483500I-249998J0D01*
G01*
G37*
G36*
G01*
X163835502Y-85308500D02*
X162935498Y-85308500D01*
G75*
G02*
X162685500Y-85058502I0J249998D01*
G01*
X162685500Y-84533498D01*
G75*
G02*
X162935498Y-84283500I249998J0D01*
G01*
X163835502Y-84283500D01*
G75*
G02*
X164085500Y-84533498I0J-249998D01*
G01*
X164085500Y-85058502D01*
G75*
G02*
X163835502Y-85308500I-249998J0D01*
G01*
G37*
G36*
G01*
X108134998Y-81362500D02*
X109035002Y-81362500D01*
G75*
G02*
X109285000Y-81612498I0J-249998D01*
G01*
X109285000Y-82137502D01*
G75*
G02*
X109035002Y-82387500I-249998J0D01*
G01*
X108134998Y-82387500D01*
G75*
G02*
X107885000Y-82137502I0J249998D01*
G01*
X107885000Y-81612498D01*
G75*
G02*
X108134998Y-81362500I249998J0D01*
G01*
G37*
G36*
G01*
X108134998Y-79537500D02*
X109035002Y-79537500D01*
G75*
G02*
X109285000Y-79787498I0J-249998D01*
G01*
X109285000Y-80312502D01*
G75*
G02*
X109035002Y-80562500I-249998J0D01*
G01*
X108134998Y-80562500D01*
G75*
G02*
X107885000Y-80312502I0J249998D01*
G01*
X107885000Y-79787498D01*
G75*
G02*
X108134998Y-79537500I249998J0D01*
G01*
G37*
G36*
G01*
X134029500Y-63788498D02*
X134029500Y-64688502D01*
G75*
G02*
X133779502Y-64938500I-249998J0D01*
G01*
X133254498Y-64938500D01*
G75*
G02*
X133004500Y-64688502I0J249998D01*
G01*
X133004500Y-63788498D01*
G75*
G02*
X133254498Y-63538500I249998J0D01*
G01*
X133779502Y-63538500D01*
G75*
G02*
X134029500Y-63788498I0J-249998D01*
G01*
G37*
G36*
G01*
X135854500Y-63788498D02*
X135854500Y-64688502D01*
G75*
G02*
X135604502Y-64938500I-249998J0D01*
G01*
X135079498Y-64938500D01*
G75*
G02*
X134829500Y-64688502I0J249998D01*
G01*
X134829500Y-63788498D01*
G75*
G02*
X135079498Y-63538500I249998J0D01*
G01*
X135604502Y-63538500D01*
G75*
G02*
X135854500Y-63788498I0J-249998D01*
G01*
G37*
G36*
G01*
X147568498Y-54502000D02*
X148468502Y-54502000D01*
G75*
G02*
X148718500Y-54751998I0J-249998D01*
G01*
X148718500Y-55277002D01*
G75*
G02*
X148468502Y-55527000I-249998J0D01*
G01*
X147568498Y-55527000D01*
G75*
G02*
X147318500Y-55277002I0J249998D01*
G01*
X147318500Y-54751998D01*
G75*
G02*
X147568498Y-54502000I249998J0D01*
G01*
G37*
G36*
G01*
X147568498Y-52677000D02*
X148468502Y-52677000D01*
G75*
G02*
X148718500Y-52926998I0J-249998D01*
G01*
X148718500Y-53452002D01*
G75*
G02*
X148468502Y-53702000I-249998J0D01*
G01*
X147568498Y-53702000D01*
G75*
G02*
X147318500Y-53452002I0J249998D01*
G01*
X147318500Y-52926998D01*
G75*
G02*
X147568498Y-52677000I249998J0D01*
G01*
G37*
D14*
X108410500Y-53975000D03*
X110410500Y-53025000D03*
X110410500Y-54925000D03*
X104219500Y-53975000D03*
X106219500Y-53025000D03*
X106219500Y-54925000D03*
D15*
X114554000Y-63706500D03*
X115504000Y-65706500D03*
X113604000Y-65706500D03*
D14*
X108537500Y-64579500D03*
X110537500Y-63629500D03*
X110537500Y-65529500D03*
X104346500Y-64579500D03*
X106346500Y-63629500D03*
X106346500Y-65529500D03*
D16*
X129476500Y-56750500D03*
X128206500Y-56750500D03*
X126936500Y-56750500D03*
X125666500Y-56750500D03*
X124396500Y-56750500D03*
X123126500Y-56750500D03*
X121856500Y-56750500D03*
X121856500Y-51326500D03*
X123126500Y-51326500D03*
X124396500Y-51326500D03*
X125666500Y-51326500D03*
X126936500Y-51326500D03*
X128206500Y-51326500D03*
X129476500Y-51326500D03*
D10*
X114045500Y-49530000D03*
X110045500Y-49530000D03*
X106235500Y-49403000D03*
X102235500Y-49403000D03*
X114045500Y-60388500D03*
X110045500Y-60388500D03*
X106330500Y-60388500D03*
X102330500Y-60388500D03*
G36*
G01*
X148474750Y-49334000D02*
X147562250Y-49334000D01*
G75*
G02*
X147318500Y-49090250I0J243750D01*
G01*
X147318500Y-48602750D01*
G75*
G02*
X147562250Y-48359000I243750J0D01*
G01*
X148474750Y-48359000D01*
G75*
G02*
X148718500Y-48602750I0J-243750D01*
G01*
X148718500Y-49090250D01*
G75*
G02*
X148474750Y-49334000I-243750J0D01*
G01*
G37*
G36*
G01*
X148474750Y-51209000D02*
X147562250Y-51209000D01*
G75*
G02*
X147318500Y-50965250I0J243750D01*
G01*
X147318500Y-50477750D01*
G75*
G02*
X147562250Y-50234000I243750J0D01*
G01*
X148474750Y-50234000D01*
G75*
G02*
X148718500Y-50477750I0J-243750D01*
G01*
X148718500Y-50965250D01*
G75*
G02*
X148474750Y-51209000I-243750J0D01*
G01*
G37*
G36*
G01*
X156000001Y-46784500D02*
X155149999Y-46784500D01*
G75*
G02*
X154900000Y-46534501I0J249999D01*
G01*
X154900000Y-45634499D01*
G75*
G02*
X155149999Y-45384500I249999J0D01*
G01*
X156000001Y-45384500D01*
G75*
G02*
X156250000Y-45634499I0J-249999D01*
G01*
X156250000Y-46534501D01*
G75*
G02*
X156000001Y-46784500I-249999J0D01*
G01*
G37*
G36*
G01*
X156000001Y-49484500D02*
X155149999Y-49484500D01*
G75*
G02*
X154900000Y-49234501I0J249999D01*
G01*
X154900000Y-48334499D01*
G75*
G02*
X155149999Y-48084500I249999J0D01*
G01*
X156000001Y-48084500D01*
G75*
G02*
X156250000Y-48334499I0J-249999D01*
G01*
X156250000Y-49234501D01*
G75*
G02*
X156000001Y-49484500I-249999J0D01*
G01*
G37*
G36*
G01*
X153066500Y-56368501D02*
X153066500Y-55518499D01*
G75*
G02*
X153316499Y-55268500I249999J0D01*
G01*
X154216501Y-55268500D01*
G75*
G02*
X154466500Y-55518499I0J-249999D01*
G01*
X154466500Y-56368501D01*
G75*
G02*
X154216501Y-56618500I-249999J0D01*
G01*
X153316499Y-56618500D01*
G75*
G02*
X153066500Y-56368501I0J249999D01*
G01*
G37*
G36*
G01*
X150366500Y-56368501D02*
X150366500Y-55518499D01*
G75*
G02*
X150616499Y-55268500I249999J0D01*
G01*
X151516501Y-55268500D01*
G75*
G02*
X151766500Y-55518499I0J-249999D01*
G01*
X151766500Y-56368501D01*
G75*
G02*
X151516501Y-56618500I-249999J0D01*
G01*
X150616499Y-56618500D01*
G75*
G02*
X150366500Y-56368501I0J249999D01*
G01*
G37*
G36*
G01*
X133519999Y-69021000D02*
X135720001Y-69021000D01*
G75*
G02*
X135970000Y-69270999I0J-249999D01*
G01*
X135970000Y-69921001D01*
G75*
G02*
X135720001Y-70171000I-249999J0D01*
G01*
X133519999Y-70171000D01*
G75*
G02*
X133270000Y-69921001I0J249999D01*
G01*
X133270000Y-69270999D01*
G75*
G02*
X133519999Y-69021000I249999J0D01*
G01*
G37*
G36*
G01*
X133519999Y-66071000D02*
X135720001Y-66071000D01*
G75*
G02*
X135970000Y-66320999I0J-249999D01*
G01*
X135970000Y-66971001D01*
G75*
G02*
X135720001Y-67221000I-249999J0D01*
G01*
X133519999Y-67221000D01*
G75*
G02*
X133270000Y-66971001I0J249999D01*
G01*
X133270000Y-66320999D01*
G75*
G02*
X133519999Y-66071000I249999J0D01*
G01*
G37*
G36*
G01*
X153441500Y-53170001D02*
X153441500Y-50969999D01*
G75*
G02*
X153691499Y-50720000I249999J0D01*
G01*
X154341501Y-50720000D01*
G75*
G02*
X154591500Y-50969999I0J-249999D01*
G01*
X154591500Y-53170001D01*
G75*
G02*
X154341501Y-53420000I-249999J0D01*
G01*
X153691499Y-53420000D01*
G75*
G02*
X153441500Y-53170001I0J249999D01*
G01*
G37*
G36*
G01*
X150491500Y-53170001D02*
X150491500Y-50969999D01*
G75*
G02*
X150741499Y-50720000I249999J0D01*
G01*
X151391501Y-50720000D01*
G75*
G02*
X151641500Y-50969999I0J-249999D01*
G01*
X151641500Y-53170001D01*
G75*
G02*
X151391501Y-53420000I-249999J0D01*
G01*
X150741499Y-53420000D01*
G75*
G02*
X150491500Y-53170001I0J249999D01*
G01*
G37*
G36*
G01*
X147409000Y-79141501D02*
X147409000Y-76941499D01*
G75*
G02*
X147658999Y-76691500I249999J0D01*
G01*
X148309001Y-76691500D01*
G75*
G02*
X148559000Y-76941499I0J-249999D01*
G01*
X148559000Y-79141501D01*
G75*
G02*
X148309001Y-79391500I-249999J0D01*
G01*
X147658999Y-79391500D01*
G75*
G02*
X147409000Y-79141501I0J249999D01*
G01*
G37*
G36*
G01*
X144459000Y-79141501D02*
X144459000Y-76941499D01*
G75*
G02*
X144708999Y-76691500I249999J0D01*
G01*
X145359001Y-76691500D01*
G75*
G02*
X145609000Y-76941499I0J-249999D01*
G01*
X145609000Y-79141501D01*
G75*
G02*
X145359001Y-79391500I-249999J0D01*
G01*
X144708999Y-79391500D01*
G75*
G02*
X144459000Y-79141501I0J249999D01*
G01*
G37*
M02*
