M48
; DRILL file {KiCad 5.1.5+dfsg1-2build2} date wto, 14 kwi 2020, 21:36:44
; FORMAT={3:3/ absolute / metric / suppress trailing zeros}
; #@! TF.CreationDate,2020-04-14T21:36:44+02:00
; #@! TF.GenerationSoftware,Kicad,Pcbnew,5.1.5+dfsg1-2build2
; #@! TF.FileFunction,Plated,1,2,PTH
FMAT,2
METRIC,LZ
T1C0.800
T2C0.900
T3C0.920
T4C1.000
T5C1.100
T6C1.300
T7C2.330
%
G90
G05
T1
X110109Y-101727
X120269Y-101727
X080962Y-08236
X091123Y-08236
X080899Y-077851
X091059Y-077851
X10903Y-059627
X11919Y-059627
X099314Y-054483
X104214Y-054483
X119507Y-099251
X129667Y-099251
T2
X057087Y-102616
X057087Y-105156
X097854Y-134874
X097854Y-145034
X147638Y-109855
X147638Y-120015
X124841Y-084836
X124841Y-094996
X122555Y-059817
X122555Y-069977
X097599Y-084899
X097599Y-09506
X147511Y-05969
X147511Y-06985
X072771Y-109855
X072771Y-120015
X072771Y-084836
X072771Y-094996
X122682Y-109728
X122682Y-119888
X097854Y-109982
X097854Y-120142
X147511Y-134811
X147511Y-144971
X147384Y-084773
X147384Y-094933
X072707Y-059753
X072707Y-069914
X097599Y-059627
X097599Y-069787
X122809Y-134811
X122809Y-144971
X072581Y-134874
X072581Y-145034
T3
X06096Y-055912
X06096Y-057912
X06346Y-055912
X06346Y-057912
T4
X125937Y-07601
X130937Y-07601
X110443Y-056388
X115443Y-056388
X110426Y-052895
X115426Y-052895
X141542Y-053721
X144082Y-053721
X146622Y-053721
X098743Y-074676
X098743Y-079676
X076391Y-053277
X076391Y-055817
X078931Y-053277
X078931Y-055817
X081471Y-053277
X081471Y-055817
T5
X086845Y-052269
X086845Y-056769
X093345Y-052269
X093345Y-056769
T6
X081Y-065
X081Y-07
X0935Y-065
X0935Y-07
X081Y-115
X081Y-12
X0935Y-115
X0935Y-12
X081Y-14
X081Y-145
X0935Y-14
X0935Y-145
X106Y-115
X106Y-12
X1185Y-115
X1185Y-12
X131Y-115
X131Y-12
X1435Y-115
X1435Y-12
X106Y-09
X106Y-095
X1185Y-09
X1185Y-095
X056Y-115
X056Y-12
X0685Y-115
X0685Y-12
X106Y-14
X106Y-145
X1185Y-14
X1185Y-145
X056Y-09
X056Y-095
X0685Y-09
X0685Y-095
X081Y-09
X081Y-095
X0935Y-09
X0935Y-095
X106Y-065
X106Y-07
X1185Y-065
X1185Y-07
X131Y-14
X131Y-145
X1435Y-14
X1435Y-145
X131Y-065
X131Y-07
X1435Y-065
X1435Y-07
X056Y-14
X056Y-145
X0685Y-14
X0685Y-145
X056Y-065
X056Y-07
X0685Y-065
X0685Y-07
X131Y-09
X131Y-095
X1435Y-09
X1435Y-095
T7
X05619Y-053202
X06823Y-053202
T0
M30
