G04 #@! TF.GenerationSoftware,KiCad,Pcbnew,5.1.5+dfsg1-2build2*
G04 #@! TF.CreationDate,2020-04-14T21:36:42+02:00*
G04 #@! TF.ProjectId,LoopStation,4c6f6f70-5374-4617-9469-6f6e2e6b6963,rev?*
G04 #@! TF.SameCoordinates,Original*
G04 #@! TF.FileFunction,Legend,Top*
G04 #@! TF.FilePolarity,Positive*
%FSLAX46Y46*%
G04 Gerber Fmt 4.6, Leading zero omitted, Abs format (unit mm)*
G04 Created by KiCad (PCBNEW 5.1.5+dfsg1-2build2) date 2020-04-14 21:36:42*
%MOMM*%
%LPD*%
G04 APERTURE LIST*
%ADD10C,0.120000*%
%ADD11C,0.150000*%
G04 APERTURE END LIST*
D10*
X120547000Y-99250500D02*
X121317000Y-99250500D01*
X128627000Y-99250500D02*
X127857000Y-99250500D01*
X121317000Y-100620500D02*
X127857000Y-100620500D01*
X121317000Y-97880500D02*
X121317000Y-100620500D01*
X127857000Y-97880500D02*
X121317000Y-97880500D01*
X127857000Y-100620500D02*
X127857000Y-97880500D01*
X119229000Y-101727000D02*
X118459000Y-101727000D01*
X111149000Y-101727000D02*
X111919000Y-101727000D01*
X118459000Y-100357000D02*
X111919000Y-100357000D01*
X118459000Y-103097000D02*
X118459000Y-100357000D01*
X111919000Y-103097000D02*
X118459000Y-103097000D01*
X111919000Y-100357000D02*
X111919000Y-103097000D01*
X58166500Y-105446000D02*
X58322500Y-105446000D01*
X55850500Y-105446000D02*
X56006500Y-105446000D01*
X58166337Y-102844870D02*
G75*
G02X58166500Y-104926961I-1079837J-1041130D01*
G01*
X56006663Y-102844870D02*
G75*
G03X56006500Y-104926961I1079837J-1041130D01*
G01*
X58165108Y-102213665D02*
G75*
G02X58322016Y-105446000I-1078608J-1672335D01*
G01*
X56007892Y-102213665D02*
G75*
G03X55850984Y-105446000I1078608J-1672335D01*
G01*
X123817000Y-78629500D02*
X123817000Y-73389500D01*
X133057000Y-78629500D02*
X133057000Y-73389500D01*
X133057000Y-73389500D02*
X123817000Y-73389500D01*
X133057000Y-78629500D02*
X123817000Y-78629500D01*
X101362500Y-81796000D02*
X96122500Y-81796000D01*
X101362500Y-72556000D02*
X96122500Y-72556000D01*
X96122500Y-72556000D02*
X96122500Y-81796000D01*
X101362500Y-72556000D02*
X101362500Y-81796000D01*
X93595000Y-55269000D02*
X93595000Y-53769000D01*
X92345000Y-51269000D02*
X87845000Y-51269000D01*
X86595000Y-53769000D02*
X86595000Y-55269000D01*
X87845000Y-57769000D02*
X92345000Y-57769000D01*
X118149500Y-59626500D02*
X117379500Y-59626500D01*
X110069500Y-59626500D02*
X110839500Y-59626500D01*
X117379500Y-58256500D02*
X110839500Y-58256500D01*
X117379500Y-60996500D02*
X117379500Y-58256500D01*
X110839500Y-60996500D02*
X117379500Y-60996500D01*
X110839500Y-58256500D02*
X110839500Y-60996500D01*
X104889000Y-57008000D02*
G75*
G03X104889000Y-51958000I0J2525000D01*
G01*
X98639000Y-57008000D02*
G75*
G02X98639000Y-51958000I0J2525000D01*
G01*
X98639000Y-57008000D02*
X104889000Y-57008000D01*
X98639000Y-51958000D02*
X104889000Y-51958000D01*
X108306500Y-55515500D02*
X108306500Y-50275500D01*
X117546500Y-55515500D02*
X117546500Y-50275500D01*
X117546500Y-50275500D02*
X108306500Y-50275500D01*
X117546500Y-55515500D02*
X108306500Y-55515500D01*
X108323000Y-59008000D02*
X108323000Y-53768000D01*
X117563000Y-59008000D02*
X117563000Y-53768000D01*
X117563000Y-53768000D02*
X108323000Y-53768000D01*
X117563000Y-59008000D02*
X108323000Y-59008000D01*
X82002500Y-82359500D02*
X82772500Y-82359500D01*
X90082500Y-82359500D02*
X89312500Y-82359500D01*
X82772500Y-83729500D02*
X89312500Y-83729500D01*
X82772500Y-80989500D02*
X82772500Y-83729500D01*
X89312500Y-80989500D02*
X82772500Y-80989500D01*
X89312500Y-83729500D02*
X89312500Y-80989500D01*
X81939000Y-77851000D02*
X82709000Y-77851000D01*
X90019000Y-77851000D02*
X89249000Y-77851000D01*
X82709000Y-79221000D02*
X89249000Y-79221000D01*
X82709000Y-76481000D02*
X82709000Y-79221000D01*
X89249000Y-76481000D02*
X82709000Y-76481000D01*
X89249000Y-79221000D02*
X89249000Y-76481000D01*
X75060500Y-57146500D02*
X75060500Y-55816500D01*
X76390500Y-57146500D02*
X75060500Y-57146500D01*
X75060500Y-54546500D02*
X75060500Y-51946500D01*
X77660500Y-54546500D02*
X75060500Y-54546500D01*
X77660500Y-57146500D02*
X77660500Y-54546500D01*
X75060500Y-51946500D02*
X82800500Y-51946500D01*
X77660500Y-57146500D02*
X82800500Y-57146500D01*
X82800500Y-57146500D02*
X82800500Y-51946500D01*
X61460000Y-60232000D02*
X60960000Y-59732000D01*
X60460000Y-60232000D02*
X61460000Y-60232000D01*
X60960000Y-59732000D02*
X60460000Y-60232000D01*
X68370000Y-42792000D02*
X68370000Y-51152000D01*
X56050000Y-42792000D02*
X68370000Y-42792000D01*
X56050000Y-51152000D02*
X56050000Y-42792000D01*
X68370000Y-59512000D02*
X68370000Y-55252000D01*
X56050000Y-59512000D02*
X68370000Y-59512000D01*
X56050000Y-55252000D02*
X56050000Y-59512000D01*
X147951500Y-52391000D02*
X147951500Y-53721000D01*
X146621500Y-52391000D02*
X147951500Y-52391000D01*
X145351500Y-52391000D02*
X145351500Y-55051000D01*
X145351500Y-55051000D02*
X140211500Y-55051000D01*
X145351500Y-52391000D02*
X140211500Y-52391000D01*
X140211500Y-52391000D02*
X140211500Y-55051000D01*
X118400000Y-86350000D02*
X118400000Y-89070000D01*
X118400000Y-95930000D02*
X118400000Y-98650000D01*
X106100000Y-94070000D02*
X106100000Y-90930000D01*
X106100000Y-98650000D02*
X106100000Y-95930000D01*
X116929050Y-92540000D02*
G75*
G03X116929050Y-92540000I-4579050J0D01*
G01*
X106100000Y-89070000D02*
X106100000Y-86350000D01*
X118400000Y-98650000D02*
X106100000Y-98650000D01*
X118400000Y-90930000D02*
X118400000Y-94070000D01*
X106100000Y-86350000D02*
X118400000Y-86350000D01*
X93400000Y-86350000D02*
X93400000Y-89070000D01*
X93400000Y-95930000D02*
X93400000Y-98650000D01*
X81100000Y-94070000D02*
X81100000Y-90930000D01*
X81100000Y-98650000D02*
X81100000Y-95930000D01*
X91929050Y-92540000D02*
G75*
G03X91929050Y-92540000I-4579050J0D01*
G01*
X81100000Y-89070000D02*
X81100000Y-86350000D01*
X93400000Y-98650000D02*
X81100000Y-98650000D01*
X93400000Y-90930000D02*
X93400000Y-94070000D01*
X81100000Y-86350000D02*
X93400000Y-86350000D01*
X148980500Y-137950500D02*
X146040500Y-137950500D01*
X148980500Y-138190500D02*
X146040500Y-138190500D01*
X148980500Y-138070500D02*
X146040500Y-138070500D01*
X147510500Y-143830500D02*
X147510500Y-142610500D01*
X147510500Y-135950500D02*
X147510500Y-137170500D01*
X148980500Y-142610500D02*
X148980500Y-137170500D01*
X146040500Y-142610500D02*
X148980500Y-142610500D01*
X146040500Y-137170500D02*
X146040500Y-142610500D01*
X148980500Y-137170500D02*
X146040500Y-137170500D01*
X149107500Y-112995000D02*
X146167500Y-112995000D01*
X149107500Y-113235000D02*
X146167500Y-113235000D01*
X149107500Y-113115000D02*
X146167500Y-113115000D01*
X147637500Y-118875000D02*
X147637500Y-117655000D01*
X147637500Y-110995000D02*
X147637500Y-112215000D01*
X149107500Y-117655000D02*
X149107500Y-112215000D01*
X146167500Y-117655000D02*
X149107500Y-117655000D01*
X146167500Y-112215000D02*
X146167500Y-117655000D01*
X149107500Y-112215000D02*
X146167500Y-112215000D01*
X148853500Y-87912500D02*
X145913500Y-87912500D01*
X148853500Y-88152500D02*
X145913500Y-88152500D01*
X148853500Y-88032500D02*
X145913500Y-88032500D01*
X147383500Y-93792500D02*
X147383500Y-92572500D01*
X147383500Y-85912500D02*
X147383500Y-87132500D01*
X148853500Y-92572500D02*
X148853500Y-87132500D01*
X145913500Y-92572500D02*
X148853500Y-92572500D01*
X145913500Y-87132500D02*
X145913500Y-92572500D01*
X148853500Y-87132500D02*
X145913500Y-87132500D01*
X148980500Y-62830000D02*
X146040500Y-62830000D01*
X148980500Y-63070000D02*
X146040500Y-63070000D01*
X148980500Y-62950000D02*
X146040500Y-62950000D01*
X147510500Y-68710000D02*
X147510500Y-67490000D01*
X147510500Y-60830000D02*
X147510500Y-62050000D01*
X148980500Y-67490000D02*
X148980500Y-62050000D01*
X146040500Y-67490000D02*
X148980500Y-67490000D01*
X146040500Y-62050000D02*
X146040500Y-67490000D01*
X148980500Y-62050000D02*
X146040500Y-62050000D01*
X124279000Y-137950500D02*
X121339000Y-137950500D01*
X124279000Y-138190500D02*
X121339000Y-138190500D01*
X124279000Y-138070500D02*
X121339000Y-138070500D01*
X122809000Y-143830500D02*
X122809000Y-142610500D01*
X122809000Y-135950500D02*
X122809000Y-137170500D01*
X124279000Y-142610500D02*
X124279000Y-137170500D01*
X121339000Y-142610500D02*
X124279000Y-142610500D01*
X121339000Y-137170500D02*
X121339000Y-142610500D01*
X124279000Y-137170500D02*
X121339000Y-137170500D01*
X124152000Y-112868000D02*
X121212000Y-112868000D01*
X124152000Y-113108000D02*
X121212000Y-113108000D01*
X124152000Y-112988000D02*
X121212000Y-112988000D01*
X122682000Y-118748000D02*
X122682000Y-117528000D01*
X122682000Y-110868000D02*
X122682000Y-112088000D01*
X124152000Y-117528000D02*
X124152000Y-112088000D01*
X121212000Y-117528000D02*
X124152000Y-117528000D01*
X121212000Y-112088000D02*
X121212000Y-117528000D01*
X124152000Y-112088000D02*
X121212000Y-112088000D01*
X126311000Y-87976000D02*
X123371000Y-87976000D01*
X126311000Y-88216000D02*
X123371000Y-88216000D01*
X126311000Y-88096000D02*
X123371000Y-88096000D01*
X124841000Y-93856000D02*
X124841000Y-92636000D01*
X124841000Y-85976000D02*
X124841000Y-87196000D01*
X126311000Y-92636000D02*
X126311000Y-87196000D01*
X123371000Y-92636000D02*
X126311000Y-92636000D01*
X123371000Y-87196000D02*
X123371000Y-92636000D01*
X126311000Y-87196000D02*
X123371000Y-87196000D01*
X124025000Y-62957000D02*
X121085000Y-62957000D01*
X124025000Y-63197000D02*
X121085000Y-63197000D01*
X124025000Y-63077000D02*
X121085000Y-63077000D01*
X122555000Y-68837000D02*
X122555000Y-67617000D01*
X122555000Y-60957000D02*
X122555000Y-62177000D01*
X124025000Y-67617000D02*
X124025000Y-62177000D01*
X121085000Y-67617000D02*
X124025000Y-67617000D01*
X121085000Y-62177000D02*
X121085000Y-67617000D01*
X124025000Y-62177000D02*
X121085000Y-62177000D01*
X99323500Y-138014000D02*
X96383500Y-138014000D01*
X99323500Y-138254000D02*
X96383500Y-138254000D01*
X99323500Y-138134000D02*
X96383500Y-138134000D01*
X97853500Y-143894000D02*
X97853500Y-142674000D01*
X97853500Y-136014000D02*
X97853500Y-137234000D01*
X99323500Y-142674000D02*
X99323500Y-137234000D01*
X96383500Y-142674000D02*
X99323500Y-142674000D01*
X96383500Y-137234000D02*
X96383500Y-142674000D01*
X99323500Y-137234000D02*
X96383500Y-137234000D01*
X99323500Y-113122000D02*
X96383500Y-113122000D01*
X99323500Y-113362000D02*
X96383500Y-113362000D01*
X99323500Y-113242000D02*
X96383500Y-113242000D01*
X97853500Y-119002000D02*
X97853500Y-117782000D01*
X97853500Y-111122000D02*
X97853500Y-112342000D01*
X99323500Y-117782000D02*
X99323500Y-112342000D01*
X96383500Y-117782000D02*
X99323500Y-117782000D01*
X96383500Y-112342000D02*
X96383500Y-117782000D01*
X99323500Y-112342000D02*
X96383500Y-112342000D01*
X99069500Y-88039500D02*
X96129500Y-88039500D01*
X99069500Y-88279500D02*
X96129500Y-88279500D01*
X99069500Y-88159500D02*
X96129500Y-88159500D01*
X97599500Y-93919500D02*
X97599500Y-92699500D01*
X97599500Y-86039500D02*
X97599500Y-87259500D01*
X99069500Y-92699500D02*
X99069500Y-87259500D01*
X96129500Y-92699500D02*
X99069500Y-92699500D01*
X96129500Y-87259500D02*
X96129500Y-92699500D01*
X99069500Y-87259500D02*
X96129500Y-87259500D01*
X99069500Y-62766500D02*
X96129500Y-62766500D01*
X99069500Y-63006500D02*
X96129500Y-63006500D01*
X99069500Y-62886500D02*
X96129500Y-62886500D01*
X97599500Y-68646500D02*
X97599500Y-67426500D01*
X97599500Y-60766500D02*
X97599500Y-61986500D01*
X99069500Y-67426500D02*
X99069500Y-61986500D01*
X96129500Y-67426500D02*
X99069500Y-67426500D01*
X96129500Y-61986500D02*
X96129500Y-67426500D01*
X99069500Y-61986500D02*
X96129500Y-61986500D01*
X74050500Y-138014000D02*
X71110500Y-138014000D01*
X74050500Y-138254000D02*
X71110500Y-138254000D01*
X74050500Y-138134000D02*
X71110500Y-138134000D01*
X72580500Y-143894000D02*
X72580500Y-142674000D01*
X72580500Y-136014000D02*
X72580500Y-137234000D01*
X74050500Y-142674000D02*
X74050500Y-137234000D01*
X71110500Y-142674000D02*
X74050500Y-142674000D01*
X71110500Y-137234000D02*
X71110500Y-142674000D01*
X74050500Y-137234000D02*
X71110500Y-137234000D01*
X74241000Y-112995000D02*
X71301000Y-112995000D01*
X74241000Y-113235000D02*
X71301000Y-113235000D01*
X74241000Y-113115000D02*
X71301000Y-113115000D01*
X72771000Y-118875000D02*
X72771000Y-117655000D01*
X72771000Y-110995000D02*
X72771000Y-112215000D01*
X74241000Y-117655000D02*
X74241000Y-112215000D01*
X71301000Y-117655000D02*
X74241000Y-117655000D01*
X71301000Y-112215000D02*
X71301000Y-117655000D01*
X74241000Y-112215000D02*
X71301000Y-112215000D01*
X74241000Y-87976000D02*
X71301000Y-87976000D01*
X74241000Y-88216000D02*
X71301000Y-88216000D01*
X74241000Y-88096000D02*
X71301000Y-88096000D01*
X72771000Y-93856000D02*
X72771000Y-92636000D01*
X72771000Y-85976000D02*
X72771000Y-87196000D01*
X74241000Y-92636000D02*
X74241000Y-87196000D01*
X71301000Y-92636000D02*
X74241000Y-92636000D01*
X71301000Y-87196000D02*
X71301000Y-92636000D01*
X74241000Y-87196000D02*
X71301000Y-87196000D01*
X74177500Y-62893500D02*
X71237500Y-62893500D01*
X74177500Y-63133500D02*
X71237500Y-63133500D01*
X74177500Y-63013500D02*
X71237500Y-63013500D01*
X72707500Y-68773500D02*
X72707500Y-67553500D01*
X72707500Y-60893500D02*
X72707500Y-62113500D01*
X74177500Y-67553500D02*
X74177500Y-62113500D01*
X71237500Y-67553500D02*
X74177500Y-67553500D01*
X71237500Y-62113500D02*
X71237500Y-67553500D01*
X74177500Y-62113500D02*
X71237500Y-62113500D01*
X143400000Y-61350000D02*
X143400000Y-64070000D01*
X143400000Y-70930000D02*
X143400000Y-73650000D01*
X131100000Y-69070000D02*
X131100000Y-65930000D01*
X131100000Y-73650000D02*
X131100000Y-70930000D01*
X141929050Y-67540000D02*
G75*
G03X141929050Y-67540000I-4579050J0D01*
G01*
X131100000Y-64070000D02*
X131100000Y-61350000D01*
X143400000Y-73650000D02*
X131100000Y-73650000D01*
X143400000Y-65930000D02*
X143400000Y-69070000D01*
X131100000Y-61350000D02*
X143400000Y-61350000D01*
X143400000Y-136350000D02*
X143400000Y-139070000D01*
X143400000Y-145930000D02*
X143400000Y-148650000D01*
X131100000Y-144070000D02*
X131100000Y-140930000D01*
X131100000Y-148650000D02*
X131100000Y-145930000D01*
X141929050Y-142540000D02*
G75*
G03X141929050Y-142540000I-4579050J0D01*
G01*
X131100000Y-139070000D02*
X131100000Y-136350000D01*
X143400000Y-148650000D02*
X131100000Y-148650000D01*
X143400000Y-140930000D02*
X143400000Y-144070000D01*
X131100000Y-136350000D02*
X143400000Y-136350000D01*
X143400000Y-111350000D02*
X143400000Y-114070000D01*
X143400000Y-120930000D02*
X143400000Y-123650000D01*
X131100000Y-119070000D02*
X131100000Y-115930000D01*
X131100000Y-123650000D02*
X131100000Y-120930000D01*
X141929050Y-117540000D02*
G75*
G03X141929050Y-117540000I-4579050J0D01*
G01*
X131100000Y-114070000D02*
X131100000Y-111350000D01*
X143400000Y-123650000D02*
X131100000Y-123650000D01*
X143400000Y-115930000D02*
X143400000Y-119070000D01*
X131100000Y-111350000D02*
X143400000Y-111350000D01*
X143400000Y-86350000D02*
X143400000Y-89070000D01*
X143400000Y-95930000D02*
X143400000Y-98650000D01*
X131100000Y-94070000D02*
X131100000Y-90930000D01*
X131100000Y-98650000D02*
X131100000Y-95930000D01*
X141929050Y-92540000D02*
G75*
G03X141929050Y-92540000I-4579050J0D01*
G01*
X131100000Y-89070000D02*
X131100000Y-86350000D01*
X143400000Y-98650000D02*
X131100000Y-98650000D01*
X143400000Y-90930000D02*
X143400000Y-94070000D01*
X131100000Y-86350000D02*
X143400000Y-86350000D01*
X118400000Y-136350000D02*
X118400000Y-139070000D01*
X118400000Y-145930000D02*
X118400000Y-148650000D01*
X106100000Y-144070000D02*
X106100000Y-140930000D01*
X106100000Y-148650000D02*
X106100000Y-145930000D01*
X116929050Y-142540000D02*
G75*
G03X116929050Y-142540000I-4579050J0D01*
G01*
X106100000Y-139070000D02*
X106100000Y-136350000D01*
X118400000Y-148650000D02*
X106100000Y-148650000D01*
X118400000Y-140930000D02*
X118400000Y-144070000D01*
X106100000Y-136350000D02*
X118400000Y-136350000D01*
X118400000Y-111350000D02*
X118400000Y-114070000D01*
X118400000Y-120930000D02*
X118400000Y-123650000D01*
X106100000Y-119070000D02*
X106100000Y-115930000D01*
X106100000Y-123650000D02*
X106100000Y-120930000D01*
X116929050Y-117540000D02*
G75*
G03X116929050Y-117540000I-4579050J0D01*
G01*
X106100000Y-114070000D02*
X106100000Y-111350000D01*
X118400000Y-123650000D02*
X106100000Y-123650000D01*
X118400000Y-115930000D02*
X118400000Y-119070000D01*
X106100000Y-111350000D02*
X118400000Y-111350000D01*
X118400000Y-61350000D02*
X118400000Y-64070000D01*
X118400000Y-70930000D02*
X118400000Y-73650000D01*
X106100000Y-69070000D02*
X106100000Y-65930000D01*
X106100000Y-73650000D02*
X106100000Y-70930000D01*
X116929050Y-67540000D02*
G75*
G03X116929050Y-67540000I-4579050J0D01*
G01*
X106100000Y-64070000D02*
X106100000Y-61350000D01*
X118400000Y-73650000D02*
X106100000Y-73650000D01*
X118400000Y-65930000D02*
X118400000Y-69070000D01*
X106100000Y-61350000D02*
X118400000Y-61350000D01*
X93400000Y-136350000D02*
X93400000Y-139070000D01*
X93400000Y-145930000D02*
X93400000Y-148650000D01*
X81100000Y-144070000D02*
X81100000Y-140930000D01*
X81100000Y-148650000D02*
X81100000Y-145930000D01*
X91929050Y-142540000D02*
G75*
G03X91929050Y-142540000I-4579050J0D01*
G01*
X81100000Y-139070000D02*
X81100000Y-136350000D01*
X93400000Y-148650000D02*
X81100000Y-148650000D01*
X93400000Y-140930000D02*
X93400000Y-144070000D01*
X81100000Y-136350000D02*
X93400000Y-136350000D01*
X93400000Y-111350000D02*
X93400000Y-114070000D01*
X93400000Y-120930000D02*
X93400000Y-123650000D01*
X81100000Y-119070000D02*
X81100000Y-115930000D01*
X81100000Y-123650000D02*
X81100000Y-120930000D01*
X91929050Y-117540000D02*
G75*
G03X91929050Y-117540000I-4579050J0D01*
G01*
X81100000Y-114070000D02*
X81100000Y-111350000D01*
X93400000Y-123650000D02*
X81100000Y-123650000D01*
X93400000Y-115930000D02*
X93400000Y-119070000D01*
X81100000Y-111350000D02*
X93400000Y-111350000D01*
X93400000Y-61350000D02*
X93400000Y-64070000D01*
X93400000Y-70930000D02*
X93400000Y-73650000D01*
X81100000Y-69070000D02*
X81100000Y-65930000D01*
X81100000Y-73650000D02*
X81100000Y-70930000D01*
X91929050Y-67540000D02*
G75*
G03X91929050Y-67540000I-4579050J0D01*
G01*
X81100000Y-64070000D02*
X81100000Y-61350000D01*
X93400000Y-73650000D02*
X81100000Y-73650000D01*
X93400000Y-65930000D02*
X93400000Y-69070000D01*
X81100000Y-61350000D02*
X93400000Y-61350000D01*
X68400000Y-136350000D02*
X68400000Y-139070000D01*
X68400000Y-145930000D02*
X68400000Y-148650000D01*
X56100000Y-144070000D02*
X56100000Y-140930000D01*
X56100000Y-148650000D02*
X56100000Y-145930000D01*
X66929050Y-142540000D02*
G75*
G03X66929050Y-142540000I-4579050J0D01*
G01*
X56100000Y-139070000D02*
X56100000Y-136350000D01*
X68400000Y-148650000D02*
X56100000Y-148650000D01*
X68400000Y-140930000D02*
X68400000Y-144070000D01*
X56100000Y-136350000D02*
X68400000Y-136350000D01*
X68400000Y-111350000D02*
X68400000Y-114070000D01*
X68400000Y-120930000D02*
X68400000Y-123650000D01*
X56100000Y-119070000D02*
X56100000Y-115930000D01*
X56100000Y-123650000D02*
X56100000Y-120930000D01*
X66929050Y-117540000D02*
G75*
G03X66929050Y-117540000I-4579050J0D01*
G01*
X56100000Y-114070000D02*
X56100000Y-111350000D01*
X68400000Y-123650000D02*
X56100000Y-123650000D01*
X68400000Y-115930000D02*
X68400000Y-119070000D01*
X56100000Y-111350000D02*
X68400000Y-111350000D01*
X68400000Y-86350000D02*
X68400000Y-89070000D01*
X68400000Y-95930000D02*
X68400000Y-98650000D01*
X56100000Y-94070000D02*
X56100000Y-90930000D01*
X56100000Y-98650000D02*
X56100000Y-95930000D01*
X66929050Y-92540000D02*
G75*
G03X66929050Y-92540000I-4579050J0D01*
G01*
X56100000Y-89070000D02*
X56100000Y-86350000D01*
X68400000Y-98650000D02*
X56100000Y-98650000D01*
X68400000Y-90930000D02*
X68400000Y-94070000D01*
X56100000Y-86350000D02*
X68400000Y-86350000D01*
X68400000Y-61350000D02*
X68400000Y-64070000D01*
X68400000Y-70930000D02*
X68400000Y-73650000D01*
X56100000Y-69070000D02*
X56100000Y-65930000D01*
X56100000Y-73650000D02*
X56100000Y-70930000D01*
X66929050Y-67540000D02*
G75*
G03X66929050Y-67540000I-4579050J0D01*
G01*
X56100000Y-64070000D02*
X56100000Y-61350000D01*
X68400000Y-73650000D02*
X56100000Y-73650000D01*
X68400000Y-65930000D02*
X68400000Y-69070000D01*
X56100000Y-61350000D02*
X68400000Y-61350000D01*
D11*
X124420333Y-102072880D02*
X124087000Y-101596690D01*
X123848904Y-102072880D02*
X123848904Y-101072880D01*
X124229857Y-101072880D01*
X124325095Y-101120500D01*
X124372714Y-101168119D01*
X124420333Y-101263357D01*
X124420333Y-101406214D01*
X124372714Y-101501452D01*
X124325095Y-101549071D01*
X124229857Y-101596690D01*
X123848904Y-101596690D01*
X125325095Y-101072880D02*
X124848904Y-101072880D01*
X124801285Y-101549071D01*
X124848904Y-101501452D01*
X124944142Y-101453833D01*
X125182238Y-101453833D01*
X125277476Y-101501452D01*
X125325095Y-101549071D01*
X125372714Y-101644309D01*
X125372714Y-101882404D01*
X125325095Y-101977642D01*
X125277476Y-102025261D01*
X125182238Y-102072880D01*
X124944142Y-102072880D01*
X124848904Y-102025261D01*
X124801285Y-101977642D01*
X115022333Y-99809380D02*
X114689000Y-99333190D01*
X114450904Y-99809380D02*
X114450904Y-98809380D01*
X114831857Y-98809380D01*
X114927095Y-98857000D01*
X114974714Y-98904619D01*
X115022333Y-98999857D01*
X115022333Y-99142714D01*
X114974714Y-99237952D01*
X114927095Y-99285571D01*
X114831857Y-99333190D01*
X114450904Y-99333190D01*
X115879476Y-99142714D02*
X115879476Y-99809380D01*
X115641380Y-98761761D02*
X115403285Y-99476047D01*
X116022333Y-99476047D01*
X54578880Y-105100285D02*
X53578880Y-105100285D01*
X53578880Y-104862190D01*
X53626500Y-104719333D01*
X53721738Y-104624095D01*
X53816976Y-104576476D01*
X54007452Y-104528857D01*
X54150309Y-104528857D01*
X54340785Y-104576476D01*
X54436023Y-104624095D01*
X54531261Y-104719333D01*
X54578880Y-104862190D01*
X54578880Y-105100285D01*
X54578880Y-103576476D02*
X54578880Y-104147904D01*
X54578880Y-103862190D02*
X53578880Y-103862190D01*
X53721738Y-103957428D01*
X53816976Y-104052666D01*
X53864595Y-104147904D01*
X53578880Y-103243142D02*
X53578880Y-102576476D01*
X54578880Y-103005047D01*
X128270333Y-80116642D02*
X128222714Y-80164261D01*
X128079857Y-80211880D01*
X127984619Y-80211880D01*
X127841761Y-80164261D01*
X127746523Y-80069023D01*
X127698904Y-79973785D01*
X127651285Y-79783309D01*
X127651285Y-79640452D01*
X127698904Y-79449976D01*
X127746523Y-79354738D01*
X127841761Y-79259500D01*
X127984619Y-79211880D01*
X128079857Y-79211880D01*
X128222714Y-79259500D01*
X128270333Y-79307119D01*
X129127476Y-79545214D02*
X129127476Y-80211880D01*
X128889380Y-79164261D02*
X128651285Y-79878547D01*
X129270333Y-79878547D01*
X102849642Y-77342666D02*
X102897261Y-77390285D01*
X102944880Y-77533142D01*
X102944880Y-77628380D01*
X102897261Y-77771238D01*
X102802023Y-77866476D01*
X102706785Y-77914095D01*
X102516309Y-77961714D01*
X102373452Y-77961714D01*
X102182976Y-77914095D01*
X102087738Y-77866476D01*
X101992500Y-77771238D01*
X101944880Y-77628380D01*
X101944880Y-77533142D01*
X101992500Y-77390285D01*
X102040119Y-77342666D01*
X101944880Y-77009333D02*
X101944880Y-76390285D01*
X102325833Y-76723619D01*
X102325833Y-76580761D01*
X102373452Y-76485523D01*
X102421071Y-76437904D01*
X102516309Y-76390285D01*
X102754404Y-76390285D01*
X102849642Y-76437904D01*
X102897261Y-76485523D01*
X102944880Y-76580761D01*
X102944880Y-76866476D01*
X102897261Y-76961714D01*
X102849642Y-77009333D01*
X88285476Y-50673761D02*
X88428333Y-50721380D01*
X88666428Y-50721380D01*
X88761666Y-50673761D01*
X88809285Y-50626142D01*
X88856904Y-50530904D01*
X88856904Y-50435666D01*
X88809285Y-50340428D01*
X88761666Y-50292809D01*
X88666428Y-50245190D01*
X88475952Y-50197571D01*
X88380714Y-50149952D01*
X88333095Y-50102333D01*
X88285476Y-50007095D01*
X88285476Y-49911857D01*
X88333095Y-49816619D01*
X88380714Y-49769000D01*
X88475952Y-49721380D01*
X88714047Y-49721380D01*
X88856904Y-49769000D01*
X89190238Y-49721380D02*
X89428333Y-50721380D01*
X89618809Y-50007095D01*
X89809285Y-50721380D01*
X90047380Y-49721380D01*
X90952142Y-50721380D02*
X90380714Y-50721380D01*
X90666428Y-50721380D02*
X90666428Y-49721380D01*
X90571190Y-49864238D01*
X90475952Y-49959476D01*
X90380714Y-50007095D01*
X91285476Y-49721380D02*
X91952142Y-49721380D01*
X91523571Y-50721380D01*
X113942833Y-57708880D02*
X113609500Y-57232690D01*
X113371404Y-57708880D02*
X113371404Y-56708880D01*
X113752357Y-56708880D01*
X113847595Y-56756500D01*
X113895214Y-56804119D01*
X113942833Y-56899357D01*
X113942833Y-57042214D01*
X113895214Y-57137452D01*
X113847595Y-57185071D01*
X113752357Y-57232690D01*
X113371404Y-57232690D01*
X114276166Y-56708880D02*
X114895214Y-56708880D01*
X114561880Y-57089833D01*
X114704738Y-57089833D01*
X114799976Y-57137452D01*
X114847595Y-57185071D01*
X114895214Y-57280309D01*
X114895214Y-57518404D01*
X114847595Y-57613642D01*
X114799976Y-57661261D01*
X114704738Y-57708880D01*
X114419023Y-57708880D01*
X114323785Y-57661261D01*
X114276166Y-57613642D01*
X101287809Y-50934190D02*
X101287809Y-51410380D01*
X100954476Y-50410380D02*
X101287809Y-50934190D01*
X101621142Y-50410380D01*
X102478285Y-51410380D02*
X101906857Y-51410380D01*
X102192571Y-51410380D02*
X102192571Y-50410380D01*
X102097333Y-50553238D01*
X102002095Y-50648476D01*
X101906857Y-50696095D01*
X112759833Y-57002642D02*
X112712214Y-57050261D01*
X112569357Y-57097880D01*
X112474119Y-57097880D01*
X112331261Y-57050261D01*
X112236023Y-56955023D01*
X112188404Y-56859785D01*
X112140785Y-56669309D01*
X112140785Y-56526452D01*
X112188404Y-56335976D01*
X112236023Y-56240738D01*
X112331261Y-56145500D01*
X112474119Y-56097880D01*
X112569357Y-56097880D01*
X112712214Y-56145500D01*
X112759833Y-56193119D01*
X113140785Y-56193119D02*
X113188404Y-56145500D01*
X113283642Y-56097880D01*
X113521738Y-56097880D01*
X113616976Y-56145500D01*
X113664595Y-56193119D01*
X113712214Y-56288357D01*
X113712214Y-56383595D01*
X113664595Y-56526452D01*
X113093166Y-57097880D01*
X113712214Y-57097880D01*
X112776333Y-60495142D02*
X112728714Y-60542761D01*
X112585857Y-60590380D01*
X112490619Y-60590380D01*
X112347761Y-60542761D01*
X112252523Y-60447523D01*
X112204904Y-60352285D01*
X112157285Y-60161809D01*
X112157285Y-60018952D01*
X112204904Y-59828476D01*
X112252523Y-59733238D01*
X112347761Y-59638000D01*
X112490619Y-59590380D01*
X112585857Y-59590380D01*
X112728714Y-59638000D01*
X112776333Y-59685619D01*
X113728714Y-60590380D02*
X113157285Y-60590380D01*
X113443000Y-60590380D02*
X113443000Y-59590380D01*
X113347761Y-59733238D01*
X113252523Y-59828476D01*
X113157285Y-59876095D01*
X85875833Y-85181880D02*
X85542500Y-84705690D01*
X85304404Y-85181880D02*
X85304404Y-84181880D01*
X85685357Y-84181880D01*
X85780595Y-84229500D01*
X85828214Y-84277119D01*
X85875833Y-84372357D01*
X85875833Y-84515214D01*
X85828214Y-84610452D01*
X85780595Y-84658071D01*
X85685357Y-84705690D01*
X85304404Y-84705690D01*
X86256785Y-84277119D02*
X86304404Y-84229500D01*
X86399642Y-84181880D01*
X86637738Y-84181880D01*
X86732976Y-84229500D01*
X86780595Y-84277119D01*
X86828214Y-84372357D01*
X86828214Y-84467595D01*
X86780595Y-84610452D01*
X86209166Y-85181880D01*
X86828214Y-85181880D01*
X85812333Y-80673380D02*
X85479000Y-80197190D01*
X85240904Y-80673380D02*
X85240904Y-79673380D01*
X85621857Y-79673380D01*
X85717095Y-79721000D01*
X85764714Y-79768619D01*
X85812333Y-79863857D01*
X85812333Y-80006714D01*
X85764714Y-80101952D01*
X85717095Y-80149571D01*
X85621857Y-80197190D01*
X85240904Y-80197190D01*
X86764714Y-80673380D02*
X86193285Y-80673380D01*
X86479000Y-80673380D02*
X86479000Y-79673380D01*
X86383761Y-79816238D01*
X86288523Y-79911476D01*
X86193285Y-79959095D01*
X73512880Y-54879833D02*
X74227166Y-54879833D01*
X74370023Y-54927452D01*
X74465261Y-55022690D01*
X74512880Y-55165547D01*
X74512880Y-55260785D01*
X73512880Y-53927452D02*
X73512880Y-54403642D01*
X73989071Y-54451261D01*
X73941452Y-54403642D01*
X73893833Y-54308404D01*
X73893833Y-54070309D01*
X73941452Y-53975071D01*
X73989071Y-53927452D01*
X74084309Y-53879833D01*
X74322404Y-53879833D01*
X74417642Y-53927452D01*
X74465261Y-53975071D01*
X74512880Y-54070309D01*
X74512880Y-54308404D01*
X74465261Y-54403642D01*
X74417642Y-54451261D01*
X52642380Y-51485333D02*
X53356666Y-51485333D01*
X53499523Y-51532952D01*
X53594761Y-51628190D01*
X53642380Y-51771047D01*
X53642380Y-51866285D01*
X52737619Y-51056761D02*
X52690000Y-51009142D01*
X52642380Y-50913904D01*
X52642380Y-50675809D01*
X52690000Y-50580571D01*
X52737619Y-50532952D01*
X52832857Y-50485333D01*
X52928095Y-50485333D01*
X53070952Y-50532952D01*
X53642380Y-51104380D01*
X53642380Y-50485333D01*
X148403880Y-54054333D02*
X149118166Y-54054333D01*
X149261023Y-54101952D01*
X149356261Y-54197190D01*
X149403880Y-54340047D01*
X149403880Y-54435285D01*
X149403880Y-53054333D02*
X149403880Y-53625761D01*
X149403880Y-53340047D02*
X148403880Y-53340047D01*
X148546738Y-53435285D01*
X148641976Y-53530523D01*
X148689595Y-53625761D01*
X110270476Y-85744761D02*
X110413333Y-85792380D01*
X110651428Y-85792380D01*
X110746666Y-85744761D01*
X110794285Y-85697142D01*
X110841904Y-85601904D01*
X110841904Y-85506666D01*
X110794285Y-85411428D01*
X110746666Y-85363809D01*
X110651428Y-85316190D01*
X110460952Y-85268571D01*
X110365714Y-85220952D01*
X110318095Y-85173333D01*
X110270476Y-85078095D01*
X110270476Y-84982857D01*
X110318095Y-84887619D01*
X110365714Y-84840000D01*
X110460952Y-84792380D01*
X110699047Y-84792380D01*
X110841904Y-84840000D01*
X111175238Y-84792380D02*
X111413333Y-85792380D01*
X111603809Y-85078095D01*
X111794285Y-85792380D01*
X112032380Y-84792380D01*
X112937142Y-85792380D02*
X112365714Y-85792380D01*
X112651428Y-85792380D02*
X112651428Y-84792380D01*
X112556190Y-84935238D01*
X112460952Y-85030476D01*
X112365714Y-85078095D01*
X113556190Y-84792380D02*
X113651428Y-84792380D01*
X113746666Y-84840000D01*
X113794285Y-84887619D01*
X113841904Y-84982857D01*
X113889523Y-85173333D01*
X113889523Y-85411428D01*
X113841904Y-85601904D01*
X113794285Y-85697142D01*
X113746666Y-85744761D01*
X113651428Y-85792380D01*
X113556190Y-85792380D01*
X113460952Y-85744761D01*
X113413333Y-85697142D01*
X113365714Y-85601904D01*
X113318095Y-85411428D01*
X113318095Y-85173333D01*
X113365714Y-84982857D01*
X113413333Y-84887619D01*
X113460952Y-84840000D01*
X113556190Y-84792380D01*
X85746666Y-85744761D02*
X85889523Y-85792380D01*
X86127619Y-85792380D01*
X86222857Y-85744761D01*
X86270476Y-85697142D01*
X86318095Y-85601904D01*
X86318095Y-85506666D01*
X86270476Y-85411428D01*
X86222857Y-85363809D01*
X86127619Y-85316190D01*
X85937142Y-85268571D01*
X85841904Y-85220952D01*
X85794285Y-85173333D01*
X85746666Y-85078095D01*
X85746666Y-84982857D01*
X85794285Y-84887619D01*
X85841904Y-84840000D01*
X85937142Y-84792380D01*
X86175238Y-84792380D01*
X86318095Y-84840000D01*
X86651428Y-84792380D02*
X86889523Y-85792380D01*
X87080000Y-85078095D01*
X87270476Y-85792380D01*
X87508571Y-84792380D01*
X88318095Y-84792380D02*
X88127619Y-84792380D01*
X88032380Y-84840000D01*
X87984761Y-84887619D01*
X87889523Y-85030476D01*
X87841904Y-85220952D01*
X87841904Y-85601904D01*
X87889523Y-85697142D01*
X87937142Y-85744761D01*
X88032380Y-85792380D01*
X88222857Y-85792380D01*
X88318095Y-85744761D01*
X88365714Y-85697142D01*
X88413333Y-85601904D01*
X88413333Y-85363809D01*
X88365714Y-85268571D01*
X88318095Y-85220952D01*
X88222857Y-85173333D01*
X88032380Y-85173333D01*
X87937142Y-85220952D01*
X87889523Y-85268571D01*
X87841904Y-85363809D01*
X150432880Y-141104785D02*
X149432880Y-141104785D01*
X149432880Y-140866690D01*
X149480500Y-140723833D01*
X149575738Y-140628595D01*
X149670976Y-140580976D01*
X149861452Y-140533357D01*
X150004309Y-140533357D01*
X150194785Y-140580976D01*
X150290023Y-140628595D01*
X150385261Y-140723833D01*
X150432880Y-140866690D01*
X150432880Y-141104785D01*
X150432880Y-139580976D02*
X150432880Y-140152404D01*
X150432880Y-139866690D02*
X149432880Y-139866690D01*
X149575738Y-139961928D01*
X149670976Y-140057166D01*
X149718595Y-140152404D01*
X149432880Y-138723833D02*
X149432880Y-138914309D01*
X149480500Y-139009547D01*
X149528119Y-139057166D01*
X149670976Y-139152404D01*
X149861452Y-139200023D01*
X150242404Y-139200023D01*
X150337642Y-139152404D01*
X150385261Y-139104785D01*
X150432880Y-139009547D01*
X150432880Y-138819071D01*
X150385261Y-138723833D01*
X150337642Y-138676214D01*
X150242404Y-138628595D01*
X150004309Y-138628595D01*
X149909071Y-138676214D01*
X149861452Y-138723833D01*
X149813833Y-138819071D01*
X149813833Y-139009547D01*
X149861452Y-139104785D01*
X149909071Y-139152404D01*
X150004309Y-139200023D01*
X149862880Y-135072404D02*
X148862880Y-135072404D01*
X149862880Y-134500976D02*
X149291452Y-134929547D01*
X148862880Y-134500976D02*
X149434309Y-135072404D01*
X150559880Y-116149285D02*
X149559880Y-116149285D01*
X149559880Y-115911190D01*
X149607500Y-115768333D01*
X149702738Y-115673095D01*
X149797976Y-115625476D01*
X149988452Y-115577857D01*
X150131309Y-115577857D01*
X150321785Y-115625476D01*
X150417023Y-115673095D01*
X150512261Y-115768333D01*
X150559880Y-115911190D01*
X150559880Y-116149285D01*
X150559880Y-114625476D02*
X150559880Y-115196904D01*
X150559880Y-114911190D02*
X149559880Y-114911190D01*
X149702738Y-115006428D01*
X149797976Y-115101666D01*
X149845595Y-115196904D01*
X149559880Y-113720714D02*
X149559880Y-114196904D01*
X150036071Y-114244523D01*
X149988452Y-114196904D01*
X149940833Y-114101666D01*
X149940833Y-113863571D01*
X149988452Y-113768333D01*
X150036071Y-113720714D01*
X150131309Y-113673095D01*
X150369404Y-113673095D01*
X150464642Y-113720714D01*
X150512261Y-113768333D01*
X150559880Y-113863571D01*
X150559880Y-114101666D01*
X150512261Y-114196904D01*
X150464642Y-114244523D01*
X149989880Y-110116904D02*
X148989880Y-110116904D01*
X149989880Y-109545476D02*
X149418452Y-109974047D01*
X148989880Y-109545476D02*
X149561309Y-110116904D01*
X150305880Y-91066785D02*
X149305880Y-91066785D01*
X149305880Y-90828690D01*
X149353500Y-90685833D01*
X149448738Y-90590595D01*
X149543976Y-90542976D01*
X149734452Y-90495357D01*
X149877309Y-90495357D01*
X150067785Y-90542976D01*
X150163023Y-90590595D01*
X150258261Y-90685833D01*
X150305880Y-90828690D01*
X150305880Y-91066785D01*
X150305880Y-89542976D02*
X150305880Y-90114404D01*
X150305880Y-89828690D02*
X149305880Y-89828690D01*
X149448738Y-89923928D01*
X149543976Y-90019166D01*
X149591595Y-90114404D01*
X149639214Y-88685833D02*
X150305880Y-88685833D01*
X149258261Y-88923928D02*
X149972547Y-89162023D01*
X149972547Y-88542976D01*
X149735880Y-85034404D02*
X148735880Y-85034404D01*
X149735880Y-84462976D02*
X149164452Y-84891547D01*
X148735880Y-84462976D02*
X149307309Y-85034404D01*
X150432880Y-65984285D02*
X149432880Y-65984285D01*
X149432880Y-65746190D01*
X149480500Y-65603333D01*
X149575738Y-65508095D01*
X149670976Y-65460476D01*
X149861452Y-65412857D01*
X150004309Y-65412857D01*
X150194785Y-65460476D01*
X150290023Y-65508095D01*
X150385261Y-65603333D01*
X150432880Y-65746190D01*
X150432880Y-65984285D01*
X150432880Y-64460476D02*
X150432880Y-65031904D01*
X150432880Y-64746190D02*
X149432880Y-64746190D01*
X149575738Y-64841428D01*
X149670976Y-64936666D01*
X149718595Y-65031904D01*
X149432880Y-64127142D02*
X149432880Y-63508095D01*
X149813833Y-63841428D01*
X149813833Y-63698571D01*
X149861452Y-63603333D01*
X149909071Y-63555714D01*
X150004309Y-63508095D01*
X150242404Y-63508095D01*
X150337642Y-63555714D01*
X150385261Y-63603333D01*
X150432880Y-63698571D01*
X150432880Y-63984285D01*
X150385261Y-64079523D01*
X150337642Y-64127142D01*
X149862880Y-59951904D02*
X148862880Y-59951904D01*
X149862880Y-59380476D02*
X149291452Y-59809047D01*
X148862880Y-59380476D02*
X149434309Y-59951904D01*
X125731380Y-141104785D02*
X124731380Y-141104785D01*
X124731380Y-140866690D01*
X124779000Y-140723833D01*
X124874238Y-140628595D01*
X124969476Y-140580976D01*
X125159952Y-140533357D01*
X125302809Y-140533357D01*
X125493285Y-140580976D01*
X125588523Y-140628595D01*
X125683761Y-140723833D01*
X125731380Y-140866690D01*
X125731380Y-141104785D01*
X125731380Y-139580976D02*
X125731380Y-140152404D01*
X125731380Y-139866690D02*
X124731380Y-139866690D01*
X124874238Y-139961928D01*
X124969476Y-140057166D01*
X125017095Y-140152404D01*
X124826619Y-139200023D02*
X124779000Y-139152404D01*
X124731380Y-139057166D01*
X124731380Y-138819071D01*
X124779000Y-138723833D01*
X124826619Y-138676214D01*
X124921857Y-138628595D01*
X125017095Y-138628595D01*
X125159952Y-138676214D01*
X125731380Y-139247642D01*
X125731380Y-138628595D01*
X125161380Y-135072404D02*
X124161380Y-135072404D01*
X125161380Y-134500976D02*
X124589952Y-134929547D01*
X124161380Y-134500976D02*
X124732809Y-135072404D01*
X125604380Y-116022285D02*
X124604380Y-116022285D01*
X124604380Y-115784190D01*
X124652000Y-115641333D01*
X124747238Y-115546095D01*
X124842476Y-115498476D01*
X125032952Y-115450857D01*
X125175809Y-115450857D01*
X125366285Y-115498476D01*
X125461523Y-115546095D01*
X125556761Y-115641333D01*
X125604380Y-115784190D01*
X125604380Y-116022285D01*
X125604380Y-114498476D02*
X125604380Y-115069904D01*
X125604380Y-114784190D02*
X124604380Y-114784190D01*
X124747238Y-114879428D01*
X124842476Y-114974666D01*
X124890095Y-115069904D01*
X125604380Y-113546095D02*
X125604380Y-114117523D01*
X125604380Y-113831809D02*
X124604380Y-113831809D01*
X124747238Y-113927047D01*
X124842476Y-114022285D01*
X124890095Y-114117523D01*
X125034380Y-109989904D02*
X124034380Y-109989904D01*
X125034380Y-109418476D02*
X124462952Y-109847047D01*
X124034380Y-109418476D02*
X124605809Y-109989904D01*
X127763380Y-91130285D02*
X126763380Y-91130285D01*
X126763380Y-90892190D01*
X126811000Y-90749333D01*
X126906238Y-90654095D01*
X127001476Y-90606476D01*
X127191952Y-90558857D01*
X127334809Y-90558857D01*
X127525285Y-90606476D01*
X127620523Y-90654095D01*
X127715761Y-90749333D01*
X127763380Y-90892190D01*
X127763380Y-91130285D01*
X127763380Y-89606476D02*
X127763380Y-90177904D01*
X127763380Y-89892190D02*
X126763380Y-89892190D01*
X126906238Y-89987428D01*
X127001476Y-90082666D01*
X127049095Y-90177904D01*
X126763380Y-88987428D02*
X126763380Y-88892190D01*
X126811000Y-88796952D01*
X126858619Y-88749333D01*
X126953857Y-88701714D01*
X127144333Y-88654095D01*
X127382428Y-88654095D01*
X127572904Y-88701714D01*
X127668142Y-88749333D01*
X127715761Y-88796952D01*
X127763380Y-88892190D01*
X127763380Y-88987428D01*
X127715761Y-89082666D01*
X127668142Y-89130285D01*
X127572904Y-89177904D01*
X127382428Y-89225523D01*
X127144333Y-89225523D01*
X126953857Y-89177904D01*
X126858619Y-89130285D01*
X126811000Y-89082666D01*
X126763380Y-88987428D01*
X127193380Y-85097904D02*
X126193380Y-85097904D01*
X127193380Y-84526476D02*
X126621952Y-84955047D01*
X126193380Y-84526476D02*
X126764809Y-85097904D01*
X125477380Y-65635095D02*
X124477380Y-65635095D01*
X124477380Y-65397000D01*
X124525000Y-65254142D01*
X124620238Y-65158904D01*
X124715476Y-65111285D01*
X124905952Y-65063666D01*
X125048809Y-65063666D01*
X125239285Y-65111285D01*
X125334523Y-65158904D01*
X125429761Y-65254142D01*
X125477380Y-65397000D01*
X125477380Y-65635095D01*
X125477380Y-64587476D02*
X125477380Y-64397000D01*
X125429761Y-64301761D01*
X125382142Y-64254142D01*
X125239285Y-64158904D01*
X125048809Y-64111285D01*
X124667857Y-64111285D01*
X124572619Y-64158904D01*
X124525000Y-64206523D01*
X124477380Y-64301761D01*
X124477380Y-64492238D01*
X124525000Y-64587476D01*
X124572619Y-64635095D01*
X124667857Y-64682714D01*
X124905952Y-64682714D01*
X125001190Y-64635095D01*
X125048809Y-64587476D01*
X125096428Y-64492238D01*
X125096428Y-64301761D01*
X125048809Y-64206523D01*
X125001190Y-64158904D01*
X124905952Y-64111285D01*
X124907380Y-60078904D02*
X123907380Y-60078904D01*
X124907380Y-59507476D02*
X124335952Y-59936047D01*
X123907380Y-59507476D02*
X124478809Y-60078904D01*
X100775880Y-140692095D02*
X99775880Y-140692095D01*
X99775880Y-140454000D01*
X99823500Y-140311142D01*
X99918738Y-140215904D01*
X100013976Y-140168285D01*
X100204452Y-140120666D01*
X100347309Y-140120666D01*
X100537785Y-140168285D01*
X100633023Y-140215904D01*
X100728261Y-140311142D01*
X100775880Y-140454000D01*
X100775880Y-140692095D01*
X100204452Y-139549238D02*
X100156833Y-139644476D01*
X100109214Y-139692095D01*
X100013976Y-139739714D01*
X99966357Y-139739714D01*
X99871119Y-139692095D01*
X99823500Y-139644476D01*
X99775880Y-139549238D01*
X99775880Y-139358761D01*
X99823500Y-139263523D01*
X99871119Y-139215904D01*
X99966357Y-139168285D01*
X100013976Y-139168285D01*
X100109214Y-139215904D01*
X100156833Y-139263523D01*
X100204452Y-139358761D01*
X100204452Y-139549238D01*
X100252071Y-139644476D01*
X100299690Y-139692095D01*
X100394928Y-139739714D01*
X100585404Y-139739714D01*
X100680642Y-139692095D01*
X100728261Y-139644476D01*
X100775880Y-139549238D01*
X100775880Y-139358761D01*
X100728261Y-139263523D01*
X100680642Y-139215904D01*
X100585404Y-139168285D01*
X100394928Y-139168285D01*
X100299690Y-139215904D01*
X100252071Y-139263523D01*
X100204452Y-139358761D01*
X100205880Y-135135904D02*
X99205880Y-135135904D01*
X100205880Y-134564476D02*
X99634452Y-134993047D01*
X99205880Y-134564476D02*
X99777309Y-135135904D01*
X100775880Y-115800095D02*
X99775880Y-115800095D01*
X99775880Y-115562000D01*
X99823500Y-115419142D01*
X99918738Y-115323904D01*
X100013976Y-115276285D01*
X100204452Y-115228666D01*
X100347309Y-115228666D01*
X100537785Y-115276285D01*
X100633023Y-115323904D01*
X100728261Y-115419142D01*
X100775880Y-115562000D01*
X100775880Y-115800095D01*
X99775880Y-114895333D02*
X99775880Y-114228666D01*
X100775880Y-114657238D01*
X100205880Y-110243904D02*
X99205880Y-110243904D01*
X100205880Y-109672476D02*
X99634452Y-110101047D01*
X99205880Y-109672476D02*
X99777309Y-110243904D01*
X100521880Y-90717595D02*
X99521880Y-90717595D01*
X99521880Y-90479500D01*
X99569500Y-90336642D01*
X99664738Y-90241404D01*
X99759976Y-90193785D01*
X99950452Y-90146166D01*
X100093309Y-90146166D01*
X100283785Y-90193785D01*
X100379023Y-90241404D01*
X100474261Y-90336642D01*
X100521880Y-90479500D01*
X100521880Y-90717595D01*
X99521880Y-89289023D02*
X99521880Y-89479500D01*
X99569500Y-89574738D01*
X99617119Y-89622357D01*
X99759976Y-89717595D01*
X99950452Y-89765214D01*
X100331404Y-89765214D01*
X100426642Y-89717595D01*
X100474261Y-89669976D01*
X100521880Y-89574738D01*
X100521880Y-89384261D01*
X100474261Y-89289023D01*
X100426642Y-89241404D01*
X100331404Y-89193785D01*
X100093309Y-89193785D01*
X99998071Y-89241404D01*
X99950452Y-89289023D01*
X99902833Y-89384261D01*
X99902833Y-89574738D01*
X99950452Y-89669976D01*
X99998071Y-89717595D01*
X100093309Y-89765214D01*
X99951880Y-85161404D02*
X98951880Y-85161404D01*
X99951880Y-84589976D02*
X99380452Y-85018547D01*
X98951880Y-84589976D02*
X99523309Y-85161404D01*
X99321880Y-64301595D02*
X98321880Y-64301595D01*
X98321880Y-64063500D01*
X98369500Y-63920642D01*
X98464738Y-63825404D01*
X98559976Y-63777785D01*
X98750452Y-63730166D01*
X98893309Y-63730166D01*
X99083785Y-63777785D01*
X99179023Y-63825404D01*
X99274261Y-63920642D01*
X99321880Y-64063500D01*
X99321880Y-64301595D01*
X98321880Y-62825404D02*
X98321880Y-63301595D01*
X98798071Y-63349214D01*
X98750452Y-63301595D01*
X98702833Y-63206357D01*
X98702833Y-62968261D01*
X98750452Y-62873023D01*
X98798071Y-62825404D01*
X98893309Y-62777785D01*
X99131404Y-62777785D01*
X99226642Y-62825404D01*
X99274261Y-62873023D01*
X99321880Y-62968261D01*
X99321880Y-63206357D01*
X99274261Y-63301595D01*
X99226642Y-63349214D01*
X99951880Y-59888404D02*
X98951880Y-59888404D01*
X99951880Y-59316976D02*
X99380452Y-59745547D01*
X98951880Y-59316976D02*
X99523309Y-59888404D01*
X75502880Y-140692095D02*
X74502880Y-140692095D01*
X74502880Y-140454000D01*
X74550500Y-140311142D01*
X74645738Y-140215904D01*
X74740976Y-140168285D01*
X74931452Y-140120666D01*
X75074309Y-140120666D01*
X75264785Y-140168285D01*
X75360023Y-140215904D01*
X75455261Y-140311142D01*
X75502880Y-140454000D01*
X75502880Y-140692095D01*
X74836214Y-139263523D02*
X75502880Y-139263523D01*
X74455261Y-139501619D02*
X75169547Y-139739714D01*
X75169547Y-139120666D01*
X74932880Y-135135904D02*
X73932880Y-135135904D01*
X74932880Y-134564476D02*
X74361452Y-134993047D01*
X73932880Y-134564476D02*
X74504309Y-135135904D01*
X75693380Y-115673095D02*
X74693380Y-115673095D01*
X74693380Y-115435000D01*
X74741000Y-115292142D01*
X74836238Y-115196904D01*
X74931476Y-115149285D01*
X75121952Y-115101666D01*
X75264809Y-115101666D01*
X75455285Y-115149285D01*
X75550523Y-115196904D01*
X75645761Y-115292142D01*
X75693380Y-115435000D01*
X75693380Y-115673095D01*
X74693380Y-114768333D02*
X74693380Y-114149285D01*
X75074333Y-114482619D01*
X75074333Y-114339761D01*
X75121952Y-114244523D01*
X75169571Y-114196904D01*
X75264809Y-114149285D01*
X75502904Y-114149285D01*
X75598142Y-114196904D01*
X75645761Y-114244523D01*
X75693380Y-114339761D01*
X75693380Y-114625476D01*
X75645761Y-114720714D01*
X75598142Y-114768333D01*
X75123380Y-110116904D02*
X74123380Y-110116904D01*
X75123380Y-109545476D02*
X74551952Y-109974047D01*
X74123380Y-109545476D02*
X74694809Y-110116904D01*
X75693380Y-90654095D02*
X74693380Y-90654095D01*
X74693380Y-90416000D01*
X74741000Y-90273142D01*
X74836238Y-90177904D01*
X74931476Y-90130285D01*
X75121952Y-90082666D01*
X75264809Y-90082666D01*
X75455285Y-90130285D01*
X75550523Y-90177904D01*
X75645761Y-90273142D01*
X75693380Y-90416000D01*
X75693380Y-90654095D01*
X74788619Y-89701714D02*
X74741000Y-89654095D01*
X74693380Y-89558857D01*
X74693380Y-89320761D01*
X74741000Y-89225523D01*
X74788619Y-89177904D01*
X74883857Y-89130285D01*
X74979095Y-89130285D01*
X75121952Y-89177904D01*
X75693380Y-89749333D01*
X75693380Y-89130285D01*
X75123380Y-85097904D02*
X74123380Y-85097904D01*
X75123380Y-84526476D02*
X74551952Y-84955047D01*
X74123380Y-84526476D02*
X74694809Y-85097904D01*
X75629880Y-65571595D02*
X74629880Y-65571595D01*
X74629880Y-65333500D01*
X74677500Y-65190642D01*
X74772738Y-65095404D01*
X74867976Y-65047785D01*
X75058452Y-65000166D01*
X75201309Y-65000166D01*
X75391785Y-65047785D01*
X75487023Y-65095404D01*
X75582261Y-65190642D01*
X75629880Y-65333500D01*
X75629880Y-65571595D01*
X75629880Y-64047785D02*
X75629880Y-64619214D01*
X75629880Y-64333500D02*
X74629880Y-64333500D01*
X74772738Y-64428738D01*
X74867976Y-64523976D01*
X74915595Y-64619214D01*
X75059880Y-60015404D02*
X74059880Y-60015404D01*
X75059880Y-59443976D02*
X74488452Y-59872547D01*
X74059880Y-59443976D02*
X74631309Y-60015404D01*
X135270476Y-60744761D02*
X135413333Y-60792380D01*
X135651428Y-60792380D01*
X135746666Y-60744761D01*
X135794285Y-60697142D01*
X135841904Y-60601904D01*
X135841904Y-60506666D01*
X135794285Y-60411428D01*
X135746666Y-60363809D01*
X135651428Y-60316190D01*
X135460952Y-60268571D01*
X135365714Y-60220952D01*
X135318095Y-60173333D01*
X135270476Y-60078095D01*
X135270476Y-59982857D01*
X135318095Y-59887619D01*
X135365714Y-59840000D01*
X135460952Y-59792380D01*
X135699047Y-59792380D01*
X135841904Y-59840000D01*
X136175238Y-59792380D02*
X136413333Y-60792380D01*
X136603809Y-60078095D01*
X136794285Y-60792380D01*
X137032380Y-59792380D01*
X137937142Y-60792380D02*
X137365714Y-60792380D01*
X137651428Y-60792380D02*
X137651428Y-59792380D01*
X137556190Y-59935238D01*
X137460952Y-60030476D01*
X137365714Y-60078095D01*
X138270476Y-59792380D02*
X138889523Y-59792380D01*
X138556190Y-60173333D01*
X138699047Y-60173333D01*
X138794285Y-60220952D01*
X138841904Y-60268571D01*
X138889523Y-60363809D01*
X138889523Y-60601904D01*
X138841904Y-60697142D01*
X138794285Y-60744761D01*
X138699047Y-60792380D01*
X138413333Y-60792380D01*
X138318095Y-60744761D01*
X138270476Y-60697142D01*
X135270476Y-135744761D02*
X135413333Y-135792380D01*
X135651428Y-135792380D01*
X135746666Y-135744761D01*
X135794285Y-135697142D01*
X135841904Y-135601904D01*
X135841904Y-135506666D01*
X135794285Y-135411428D01*
X135746666Y-135363809D01*
X135651428Y-135316190D01*
X135460952Y-135268571D01*
X135365714Y-135220952D01*
X135318095Y-135173333D01*
X135270476Y-135078095D01*
X135270476Y-134982857D01*
X135318095Y-134887619D01*
X135365714Y-134840000D01*
X135460952Y-134792380D01*
X135699047Y-134792380D01*
X135841904Y-134840000D01*
X136175238Y-134792380D02*
X136413333Y-135792380D01*
X136603809Y-135078095D01*
X136794285Y-135792380D01*
X137032380Y-134792380D01*
X137937142Y-135792380D02*
X137365714Y-135792380D01*
X137651428Y-135792380D02*
X137651428Y-134792380D01*
X137556190Y-134935238D01*
X137460952Y-135030476D01*
X137365714Y-135078095D01*
X138794285Y-134792380D02*
X138603809Y-134792380D01*
X138508571Y-134840000D01*
X138460952Y-134887619D01*
X138365714Y-135030476D01*
X138318095Y-135220952D01*
X138318095Y-135601904D01*
X138365714Y-135697142D01*
X138413333Y-135744761D01*
X138508571Y-135792380D01*
X138699047Y-135792380D01*
X138794285Y-135744761D01*
X138841904Y-135697142D01*
X138889523Y-135601904D01*
X138889523Y-135363809D01*
X138841904Y-135268571D01*
X138794285Y-135220952D01*
X138699047Y-135173333D01*
X138508571Y-135173333D01*
X138413333Y-135220952D01*
X138365714Y-135268571D01*
X138318095Y-135363809D01*
X135270476Y-110744761D02*
X135413333Y-110792380D01*
X135651428Y-110792380D01*
X135746666Y-110744761D01*
X135794285Y-110697142D01*
X135841904Y-110601904D01*
X135841904Y-110506666D01*
X135794285Y-110411428D01*
X135746666Y-110363809D01*
X135651428Y-110316190D01*
X135460952Y-110268571D01*
X135365714Y-110220952D01*
X135318095Y-110173333D01*
X135270476Y-110078095D01*
X135270476Y-109982857D01*
X135318095Y-109887619D01*
X135365714Y-109840000D01*
X135460952Y-109792380D01*
X135699047Y-109792380D01*
X135841904Y-109840000D01*
X136175238Y-109792380D02*
X136413333Y-110792380D01*
X136603809Y-110078095D01*
X136794285Y-110792380D01*
X137032380Y-109792380D01*
X137937142Y-110792380D02*
X137365714Y-110792380D01*
X137651428Y-110792380D02*
X137651428Y-109792380D01*
X137556190Y-109935238D01*
X137460952Y-110030476D01*
X137365714Y-110078095D01*
X138841904Y-109792380D02*
X138365714Y-109792380D01*
X138318095Y-110268571D01*
X138365714Y-110220952D01*
X138460952Y-110173333D01*
X138699047Y-110173333D01*
X138794285Y-110220952D01*
X138841904Y-110268571D01*
X138889523Y-110363809D01*
X138889523Y-110601904D01*
X138841904Y-110697142D01*
X138794285Y-110744761D01*
X138699047Y-110792380D01*
X138460952Y-110792380D01*
X138365714Y-110744761D01*
X138318095Y-110697142D01*
X135270476Y-85744761D02*
X135413333Y-85792380D01*
X135651428Y-85792380D01*
X135746666Y-85744761D01*
X135794285Y-85697142D01*
X135841904Y-85601904D01*
X135841904Y-85506666D01*
X135794285Y-85411428D01*
X135746666Y-85363809D01*
X135651428Y-85316190D01*
X135460952Y-85268571D01*
X135365714Y-85220952D01*
X135318095Y-85173333D01*
X135270476Y-85078095D01*
X135270476Y-84982857D01*
X135318095Y-84887619D01*
X135365714Y-84840000D01*
X135460952Y-84792380D01*
X135699047Y-84792380D01*
X135841904Y-84840000D01*
X136175238Y-84792380D02*
X136413333Y-85792380D01*
X136603809Y-85078095D01*
X136794285Y-85792380D01*
X137032380Y-84792380D01*
X137937142Y-85792380D02*
X137365714Y-85792380D01*
X137651428Y-85792380D02*
X137651428Y-84792380D01*
X137556190Y-84935238D01*
X137460952Y-85030476D01*
X137365714Y-85078095D01*
X138794285Y-85125714D02*
X138794285Y-85792380D01*
X138556190Y-84744761D02*
X138318095Y-85459047D01*
X138937142Y-85459047D01*
X110270476Y-135744761D02*
X110413333Y-135792380D01*
X110651428Y-135792380D01*
X110746666Y-135744761D01*
X110794285Y-135697142D01*
X110841904Y-135601904D01*
X110841904Y-135506666D01*
X110794285Y-135411428D01*
X110746666Y-135363809D01*
X110651428Y-135316190D01*
X110460952Y-135268571D01*
X110365714Y-135220952D01*
X110318095Y-135173333D01*
X110270476Y-135078095D01*
X110270476Y-134982857D01*
X110318095Y-134887619D01*
X110365714Y-134840000D01*
X110460952Y-134792380D01*
X110699047Y-134792380D01*
X110841904Y-134840000D01*
X111175238Y-134792380D02*
X111413333Y-135792380D01*
X111603809Y-135078095D01*
X111794285Y-135792380D01*
X112032380Y-134792380D01*
X112937142Y-135792380D02*
X112365714Y-135792380D01*
X112651428Y-135792380D02*
X112651428Y-134792380D01*
X112556190Y-134935238D01*
X112460952Y-135030476D01*
X112365714Y-135078095D01*
X113318095Y-134887619D02*
X113365714Y-134840000D01*
X113460952Y-134792380D01*
X113699047Y-134792380D01*
X113794285Y-134840000D01*
X113841904Y-134887619D01*
X113889523Y-134982857D01*
X113889523Y-135078095D01*
X113841904Y-135220952D01*
X113270476Y-135792380D01*
X113889523Y-135792380D01*
X110270476Y-110744761D02*
X110413333Y-110792380D01*
X110651428Y-110792380D01*
X110746666Y-110744761D01*
X110794285Y-110697142D01*
X110841904Y-110601904D01*
X110841904Y-110506666D01*
X110794285Y-110411428D01*
X110746666Y-110363809D01*
X110651428Y-110316190D01*
X110460952Y-110268571D01*
X110365714Y-110220952D01*
X110318095Y-110173333D01*
X110270476Y-110078095D01*
X110270476Y-109982857D01*
X110318095Y-109887619D01*
X110365714Y-109840000D01*
X110460952Y-109792380D01*
X110699047Y-109792380D01*
X110841904Y-109840000D01*
X111175238Y-109792380D02*
X111413333Y-110792380D01*
X111603809Y-110078095D01*
X111794285Y-110792380D01*
X112032380Y-109792380D01*
X112937142Y-110792380D02*
X112365714Y-110792380D01*
X112651428Y-110792380D02*
X112651428Y-109792380D01*
X112556190Y-109935238D01*
X112460952Y-110030476D01*
X112365714Y-110078095D01*
X113889523Y-110792380D02*
X113318095Y-110792380D01*
X113603809Y-110792380D02*
X113603809Y-109792380D01*
X113508571Y-109935238D01*
X113413333Y-110030476D01*
X113318095Y-110078095D01*
X110746666Y-60744761D02*
X110889523Y-60792380D01*
X111127619Y-60792380D01*
X111222857Y-60744761D01*
X111270476Y-60697142D01*
X111318095Y-60601904D01*
X111318095Y-60506666D01*
X111270476Y-60411428D01*
X111222857Y-60363809D01*
X111127619Y-60316190D01*
X110937142Y-60268571D01*
X110841904Y-60220952D01*
X110794285Y-60173333D01*
X110746666Y-60078095D01*
X110746666Y-59982857D01*
X110794285Y-59887619D01*
X110841904Y-59840000D01*
X110937142Y-59792380D01*
X111175238Y-59792380D01*
X111318095Y-59840000D01*
X111651428Y-59792380D02*
X111889523Y-60792380D01*
X112080000Y-60078095D01*
X112270476Y-60792380D01*
X112508571Y-59792380D01*
X112937142Y-60792380D02*
X113127619Y-60792380D01*
X113222857Y-60744761D01*
X113270476Y-60697142D01*
X113365714Y-60554285D01*
X113413333Y-60363809D01*
X113413333Y-59982857D01*
X113365714Y-59887619D01*
X113318095Y-59840000D01*
X113222857Y-59792380D01*
X113032380Y-59792380D01*
X112937142Y-59840000D01*
X112889523Y-59887619D01*
X112841904Y-59982857D01*
X112841904Y-60220952D01*
X112889523Y-60316190D01*
X112937142Y-60363809D01*
X113032380Y-60411428D01*
X113222857Y-60411428D01*
X113318095Y-60363809D01*
X113365714Y-60316190D01*
X113413333Y-60220952D01*
X85746666Y-135744761D02*
X85889523Y-135792380D01*
X86127619Y-135792380D01*
X86222857Y-135744761D01*
X86270476Y-135697142D01*
X86318095Y-135601904D01*
X86318095Y-135506666D01*
X86270476Y-135411428D01*
X86222857Y-135363809D01*
X86127619Y-135316190D01*
X85937142Y-135268571D01*
X85841904Y-135220952D01*
X85794285Y-135173333D01*
X85746666Y-135078095D01*
X85746666Y-134982857D01*
X85794285Y-134887619D01*
X85841904Y-134840000D01*
X85937142Y-134792380D01*
X86175238Y-134792380D01*
X86318095Y-134840000D01*
X86651428Y-134792380D02*
X86889523Y-135792380D01*
X87080000Y-135078095D01*
X87270476Y-135792380D01*
X87508571Y-134792380D01*
X88032380Y-135220952D02*
X87937142Y-135173333D01*
X87889523Y-135125714D01*
X87841904Y-135030476D01*
X87841904Y-134982857D01*
X87889523Y-134887619D01*
X87937142Y-134840000D01*
X88032380Y-134792380D01*
X88222857Y-134792380D01*
X88318095Y-134840000D01*
X88365714Y-134887619D01*
X88413333Y-134982857D01*
X88413333Y-135030476D01*
X88365714Y-135125714D01*
X88318095Y-135173333D01*
X88222857Y-135220952D01*
X88032380Y-135220952D01*
X87937142Y-135268571D01*
X87889523Y-135316190D01*
X87841904Y-135411428D01*
X87841904Y-135601904D01*
X87889523Y-135697142D01*
X87937142Y-135744761D01*
X88032380Y-135792380D01*
X88222857Y-135792380D01*
X88318095Y-135744761D01*
X88365714Y-135697142D01*
X88413333Y-135601904D01*
X88413333Y-135411428D01*
X88365714Y-135316190D01*
X88318095Y-135268571D01*
X88222857Y-135220952D01*
X85746666Y-110744761D02*
X85889523Y-110792380D01*
X86127619Y-110792380D01*
X86222857Y-110744761D01*
X86270476Y-110697142D01*
X86318095Y-110601904D01*
X86318095Y-110506666D01*
X86270476Y-110411428D01*
X86222857Y-110363809D01*
X86127619Y-110316190D01*
X85937142Y-110268571D01*
X85841904Y-110220952D01*
X85794285Y-110173333D01*
X85746666Y-110078095D01*
X85746666Y-109982857D01*
X85794285Y-109887619D01*
X85841904Y-109840000D01*
X85937142Y-109792380D01*
X86175238Y-109792380D01*
X86318095Y-109840000D01*
X86651428Y-109792380D02*
X86889523Y-110792380D01*
X87080000Y-110078095D01*
X87270476Y-110792380D01*
X87508571Y-109792380D01*
X87794285Y-109792380D02*
X88460952Y-109792380D01*
X88032380Y-110792380D01*
X85746666Y-60744761D02*
X85889523Y-60792380D01*
X86127619Y-60792380D01*
X86222857Y-60744761D01*
X86270476Y-60697142D01*
X86318095Y-60601904D01*
X86318095Y-60506666D01*
X86270476Y-60411428D01*
X86222857Y-60363809D01*
X86127619Y-60316190D01*
X85937142Y-60268571D01*
X85841904Y-60220952D01*
X85794285Y-60173333D01*
X85746666Y-60078095D01*
X85746666Y-59982857D01*
X85794285Y-59887619D01*
X85841904Y-59840000D01*
X85937142Y-59792380D01*
X86175238Y-59792380D01*
X86318095Y-59840000D01*
X86651428Y-59792380D02*
X86889523Y-60792380D01*
X87080000Y-60078095D01*
X87270476Y-60792380D01*
X87508571Y-59792380D01*
X88365714Y-59792380D02*
X87889523Y-59792380D01*
X87841904Y-60268571D01*
X87889523Y-60220952D01*
X87984761Y-60173333D01*
X88222857Y-60173333D01*
X88318095Y-60220952D01*
X88365714Y-60268571D01*
X88413333Y-60363809D01*
X88413333Y-60601904D01*
X88365714Y-60697142D01*
X88318095Y-60744761D01*
X88222857Y-60792380D01*
X87984761Y-60792380D01*
X87889523Y-60744761D01*
X87841904Y-60697142D01*
X60746666Y-135744761D02*
X60889523Y-135792380D01*
X61127619Y-135792380D01*
X61222857Y-135744761D01*
X61270476Y-135697142D01*
X61318095Y-135601904D01*
X61318095Y-135506666D01*
X61270476Y-135411428D01*
X61222857Y-135363809D01*
X61127619Y-135316190D01*
X60937142Y-135268571D01*
X60841904Y-135220952D01*
X60794285Y-135173333D01*
X60746666Y-135078095D01*
X60746666Y-134982857D01*
X60794285Y-134887619D01*
X60841904Y-134840000D01*
X60937142Y-134792380D01*
X61175238Y-134792380D01*
X61318095Y-134840000D01*
X61651428Y-134792380D02*
X61889523Y-135792380D01*
X62080000Y-135078095D01*
X62270476Y-135792380D01*
X62508571Y-134792380D01*
X63318095Y-135125714D02*
X63318095Y-135792380D01*
X63080000Y-134744761D02*
X62841904Y-135459047D01*
X63460952Y-135459047D01*
X60746666Y-110744761D02*
X60889523Y-110792380D01*
X61127619Y-110792380D01*
X61222857Y-110744761D01*
X61270476Y-110697142D01*
X61318095Y-110601904D01*
X61318095Y-110506666D01*
X61270476Y-110411428D01*
X61222857Y-110363809D01*
X61127619Y-110316190D01*
X60937142Y-110268571D01*
X60841904Y-110220952D01*
X60794285Y-110173333D01*
X60746666Y-110078095D01*
X60746666Y-109982857D01*
X60794285Y-109887619D01*
X60841904Y-109840000D01*
X60937142Y-109792380D01*
X61175238Y-109792380D01*
X61318095Y-109840000D01*
X61651428Y-109792380D02*
X61889523Y-110792380D01*
X62080000Y-110078095D01*
X62270476Y-110792380D01*
X62508571Y-109792380D01*
X62794285Y-109792380D02*
X63413333Y-109792380D01*
X63080000Y-110173333D01*
X63222857Y-110173333D01*
X63318095Y-110220952D01*
X63365714Y-110268571D01*
X63413333Y-110363809D01*
X63413333Y-110601904D01*
X63365714Y-110697142D01*
X63318095Y-110744761D01*
X63222857Y-110792380D01*
X62937142Y-110792380D01*
X62841904Y-110744761D01*
X62794285Y-110697142D01*
X60746666Y-85744761D02*
X60889523Y-85792380D01*
X61127619Y-85792380D01*
X61222857Y-85744761D01*
X61270476Y-85697142D01*
X61318095Y-85601904D01*
X61318095Y-85506666D01*
X61270476Y-85411428D01*
X61222857Y-85363809D01*
X61127619Y-85316190D01*
X60937142Y-85268571D01*
X60841904Y-85220952D01*
X60794285Y-85173333D01*
X60746666Y-85078095D01*
X60746666Y-84982857D01*
X60794285Y-84887619D01*
X60841904Y-84840000D01*
X60937142Y-84792380D01*
X61175238Y-84792380D01*
X61318095Y-84840000D01*
X61651428Y-84792380D02*
X61889523Y-85792380D01*
X62080000Y-85078095D01*
X62270476Y-85792380D01*
X62508571Y-84792380D01*
X62841904Y-84887619D02*
X62889523Y-84840000D01*
X62984761Y-84792380D01*
X63222857Y-84792380D01*
X63318095Y-84840000D01*
X63365714Y-84887619D01*
X63413333Y-84982857D01*
X63413333Y-85078095D01*
X63365714Y-85220952D01*
X62794285Y-85792380D01*
X63413333Y-85792380D01*
X60746666Y-60744761D02*
X60889523Y-60792380D01*
X61127619Y-60792380D01*
X61222857Y-60744761D01*
X61270476Y-60697142D01*
X61318095Y-60601904D01*
X61318095Y-60506666D01*
X61270476Y-60411428D01*
X61222857Y-60363809D01*
X61127619Y-60316190D01*
X60937142Y-60268571D01*
X60841904Y-60220952D01*
X60794285Y-60173333D01*
X60746666Y-60078095D01*
X60746666Y-59982857D01*
X60794285Y-59887619D01*
X60841904Y-59840000D01*
X60937142Y-59792380D01*
X61175238Y-59792380D01*
X61318095Y-59840000D01*
X61651428Y-59792380D02*
X61889523Y-60792380D01*
X62080000Y-60078095D01*
X62270476Y-60792380D01*
X62508571Y-59792380D01*
X63413333Y-60792380D02*
X62841904Y-60792380D01*
X63127619Y-60792380D02*
X63127619Y-59792380D01*
X63032380Y-59935238D01*
X62937142Y-60030476D01*
X62841904Y-60078095D01*
M02*
